solid OpenSCAD_Model
  facet normal 0 0 -1
    outer loop
      vertex 43.8869 -29.2918 56.5
      vertex 54.0455 -11.9613 56.5
      vertex 46.3845 -30.4565 56.5
    endloop
  endfacet
  facet normal -0 0 -1
    outer loop
      vertex 54.0455 -11.9613 56.5
      vertex 43.8869 -29.2918 56.5
      vertex 51.5479 -10.7966 56.5
    endloop
  endfacet
  facet normal 0.883035 -0.365765 0.29405
    outer loop
      vertex 43.8869 -29.2918 56.5
      vertex 52.6642 -11.3172 52.5
      vertex 51.5479 -10.7966 56.5
    endloop
  endfacet
  facet normal 0.883035 -0.365765 0.294051
    outer loop
      vertex 52.6642 -11.3172 52.5
      vertex 43.8869 -29.2918 56.5
      vertex 45.0033 -29.8124 52.5
    endloop
  endfacet
  facet normal -0.422618 -0.906308 7.2811e-08
    outer loop
      vertex 52.6642 -11.3172 52.5
      vertex 54.0455 -11.9613 56.5
      vertex 51.5479 -10.7966 56.5
    endloop
  endfacet
  facet normal -0.422618 -0.906308 -0
    outer loop
      vertex 54.0455 -11.9613 56.5
      vertex 52.6642 -11.3172 52.5
      vertex 54.0455 -11.9613 52.5
    endloop
  endfacet
  facet normal 0.422618 0.906308 0
    outer loop
      vertex 45.0033 -29.8124 52.5
      vertex 46.3845 -30.4565 56.5
      vertex 46.3845 -30.4565 52.5
    endloop
  endfacet
  facet normal 0.422619 0.906308 -3.11806e-07
    outer loop
      vertex 46.3845 -30.4565 56.5
      vertex 45.0033 -29.8124 52.5
      vertex 43.8869 -29.2918 56.5
    endloop
  endfacet
  facet normal -0 0 -1
    outer loop
      vertex 65.4915 -37.8741 60.5
      vertex 63.1626 -43.4965 60.5
      vertex 65.3067 -37.7975 60.5
    endloop
  endfacet
  facet normal -0 0 -1
    outer loop
      vertex 70.4554 -25.89 60.5
      vertex 68.1265 -31.5125 60.5
      vertex 70.2706 -25.8135 60.5
    endloop
  endfacet
  facet normal -0 0 -1
    outer loop
      vertex 75.4194 -13.906 60.5
      vertex 73.0905 -19.5285 60.5
      vertex 75.2346 -13.8295 60.5
    endloop
  endfacet
  facet normal 0 0 -1
    outer loop
      vertex 59 0 60.5
      vertex 77.7166 -7.83743 60.5
      vertex 75.2346 -13.8295 60.5
    endloop
  endfacet
  facet normal 0 0 -1
    outer loop
      vertex 72.9057 -19.4519 60.5
      vertex 75.2346 -13.8295 60.5
      vertex 73.0905 -19.5285 60.5
    endloop
  endfacet
  facet normal 0 0 -1
    outer loop
      vertex 60.1528 -21.8278 60.5
      vertex 75.2346 -13.8295 60.5
      vertex 72.9057 -19.4519 60.5
    endloop
  endfacet
  facet normal 0 0 -1
    outer loop
      vertex 67.9417 -31.436 60.5
      vertex 70.2706 -25.8135 60.5
      vertex 68.1265 -31.5125 60.5
    endloop
  endfacet
  facet normal 0 0 -1
    outer loop
      vertex 59.7719 -26.667 60.5
      vertex 67.9417 -31.436 60.5
      vertex 65.3067 -37.7975 60.5
    endloop
  endfacet
  facet normal 0 -0 -1
    outer loop
      vertex 60.976 -25.2571 60.5
      vertex 67.9417 -31.436 60.5
      vertex 59.7719 -26.667 60.5
    endloop
  endfacet
  facet normal 0 0 -1
    outer loop
      vertex 62.9778 -43.42 60.5
      vertex 65.3067 -37.7975 60.5
      vertex 63.1626 -43.4965 60.5
    endloop
  endfacet
  facet normal 0 0 -1
    outer loop
      vertex 57.969 -27.0998 60.5
      vertex 65.3067 -37.7975 60.5
      vertex 62.9778 -43.42 60.5
    endloop
  endfacet
  facet normal 0 -0 -1
    outer loop
      vertex 61.1215 -23.4087 60.5
      vertex 70.2706 -25.8135 60.5
      vertex 60.976 -25.2571 60.5
    endloop
  endfacet
  facet normal 0 0 -1
    outer loop
      vertex 60.1528 -21.8278 60.5
      vertex 72.9057 -19.4519 60.5
      vertex 61.1215 -23.4087 60.5
    endloop
  endfacet
  facet normal -0 0 -1
    outer loop
      vertex 75.2346 -13.8295 60.5
      vertex 60.1528 -21.8278 60.5
      vertex 59 0 60.5
    endloop
  endfacet
  facet normal 0 0 -1
    outer loop
      vertex 77.7166 -7.83743 60.5
      vertex 59 0 60.5
      vertex 80.9629 0 60.5
    endloop
  endfacet
  facet normal 0 0 -1
    outer loop
      vertex 58.4398 -21.1183 60.5
      vertex 59 0 60.5
      vertex 60.1528 -21.8278 60.5
    endloop
  endfacet
  facet normal 0 0 -1
    outer loop
      vertex 56.6369 -21.5511 60.5
      vertex 59 0 60.5
      vertex 58.4398 -21.1183 60.5
    endloop
  endfacet
  facet normal 0 0 -1
    outer loop
      vertex 55.4328 -22.961 60.5
      vertex 59 0 60.5
      vertex 56.6369 -21.5511 60.5
    endloop
  endfacet
  facet normal -0 0 -1
    outer loop
      vertex 55.4328 -22.961 60.5
      vertex 41.7193 -41.7193 60.5
      vertex 59 0 60.5
    endloop
  endfacet
  facet normal 0 0 -1
    outer loop
      vertex 41.7193 -41.7193 60.5
      vertex 55.4328 -22.961 60.5
      vertex 55.2873 -24.8094 60.5
    endloop
  endfacet
  facet normal 0 0 -1
    outer loop
      vertex 70.2706 -25.8135 60.5
      vertex 61.1215 -23.4087 60.5
      vertex 72.9057 -19.4519 60.5
    endloop
  endfacet
  facet normal 0 0 -1
    outer loop
      vertex 41.7193 -41.7193 60.5
      vertex 62.9778 -43.42 60.5
      vertex 60.4958 -49.412 60.5
    endloop
  endfacet
  facet normal 0 0 -1
    outer loop
      vertex 67.9417 -31.436 60.5
      vertex 60.976 -25.2571 60.5
      vertex 70.2706 -25.8135 60.5
    endloop
  endfacet
  facet normal 0 0 -1
    outer loop
      vertex 65.3067 -37.7975 60.5
      vertex 57.969 -27.0998 60.5
      vertex 59.7719 -26.667 60.5
    endloop
  endfacet
  facet normal 0 0 -1
    outer loop
      vertex 41.7193 -41.7193 60.5
      vertex 60.4958 -49.412 60.5
      vertex 57.2494 -57.2494 60.5
    endloop
  endfacet
  facet normal 0 0 -1
    outer loop
      vertex 62.9778 -43.42 60.5
      vertex 41.7193 -41.7193 60.5
      vertex 57.969 -27.0998 60.5
    endloop
  endfacet
  facet normal -0 0 -1
    outer loop
      vertex 57.969 -27.0998 60.5
      vertex 41.7193 -41.7193 60.5
      vertex 56.2561 -26.3903 60.5
    endloop
  endfacet
  facet normal -0 0 -1
    outer loop
      vertex 56.2561 -26.3903 60.5
      vertex 41.7193 -41.7193 60.5
      vertex 55.2873 -24.8094 60.5
    endloop
  endfacet
  facet normal -0 0 1
    outer loop
      vertex 50 0 65.5
      vertex 77.7166 -7.83743 65.5
      vertex 80.9629 0 65.5
    endloop
  endfacet
  facet normal -0 0 1
    outer loop
      vertex 49.9013 -3.13953 65.5
      vertex 77.7166 -7.83743 65.5
      vertex 50 0 65.5
    endloop
  endfacet
  facet normal 0 0 1
    outer loop
      vertex 60.976 -25.2571 65.5
      vertex 67.9417 -31.436 65.5
      vertex 70.2706 -25.8135 65.5
    endloop
  endfacet
  facet normal -0 0 1
    outer loop
      vertex 61.1215 -23.4087 65.5
      vertex 70.2706 -25.8135 65.5
      vertex 72.9057 -19.4519 65.5
    endloop
  endfacet
  facet normal 0 0 1
    outer loop
      vertex 67.9417 -31.436 65.5
      vertex 60.976 -25.2571 65.5
      vertex 59.7719 -26.667 65.5
    endloop
  endfacet
  facet normal 0 0 1
    outer loop
      vertex 70.2706 -25.8135 65.5
      vertex 61.1215 -23.4087 65.5
      vertex 60.976 -25.2571 65.5
    endloop
  endfacet
  facet normal -0 0 1
    outer loop
      vertex 49.6057 -6.26666 65.5
      vertex 75.2346 -13.8295 65.5
      vertex 49.9013 -3.13953 65.5
    endloop
  endfacet
  facet normal 0 0 1
    outer loop
      vertex 72.9057 -19.4519 65.5
      vertex 60.1528 -21.8278 65.5
      vertex 61.1215 -23.4087 65.5
    endloop
  endfacet
  facet normal 0 -0 1
    outer loop
      vertex 60.1528 -21.8278 65.5
      vertex 75.2346 -13.8295 65.5
      vertex 58.4398 -21.1183 65.5
    endloop
  endfacet
  facet normal 0 0 1
    outer loop
      vertex 75.2346 -13.8295 65.5
      vertex 60.1528 -21.8278 65.5
      vertex 72.9057 -19.4519 65.5
    endloop
  endfacet
  facet normal -0 0 1
    outer loop
      vertex 49.1144 -9.36907 65.5
      vertex 58.4398 -21.1183 65.5
      vertex 49.6057 -6.26666 65.5
    endloop
  endfacet
  facet normal 0 -0 1
    outer loop
      vertex 58.4398 -21.1183 65.5
      vertex 75.2346 -13.8295 65.5
      vertex 49.6057 -6.26666 65.5
    endloop
  endfacet
  facet normal 0 0 1
    outer loop
      vertex 77.7166 -7.83743 65.5
      vertex 49.9013 -3.13953 65.5
      vertex 75.2346 -13.8295 65.5
    endloop
  endfacet
  facet normal 0 0 1
    outer loop
      vertex 75.2346 -13.8295 65.5
      vertex 77.7099 -21.4419 65.5
      vertex 80.0388 -15.8194 65.5
    endloop
  endfacet
  facet normal 0 0 1
    outer loop
      vertex 77.7099 -21.4419 65.5
      vertex 75.2346 -13.8295 65.5
      vertex 72.9057 -19.4519 65.5
    endloop
  endfacet
  facet normal 0 0 1
    outer loop
      vertex 70.2706 -25.8135 65.5
      vertex 72.7459 -33.4259 65.5
      vertex 75.0748 -27.8034 65.5
    endloop
  endfacet
  facet normal 0 0 1
    outer loop
      vertex 72.7459 -33.4259 65.5
      vertex 70.2706 -25.8135 65.5
      vertex 67.9417 -31.436 65.5
    endloop
  endfacet
  facet normal 0 0 1
    outer loop
      vertex 65.3067 -37.7975 65.5
      vertex 67.782 -45.4099 65.5
      vertex 70.1109 -39.7875 65.5
    endloop
  endfacet
  facet normal 0 0 1
    outer loop
      vertex 67.782 -45.4099 65.5
      vertex 65.3067 -37.7975 65.5
      vertex 62.9778 -43.42 65.5
    endloop
  endfacet
  facet normal 0 0 1
    outer loop
      vertex 67.9417 -31.436 65.5
      vertex 59.7719 -26.667 65.5
      vertex 65.3067 -37.7975 65.5
    endloop
  endfacet
  facet normal -0 0 1
    outer loop
      vertex 57.969 -27.0998 65.5
      vertex 65.3067 -37.7975 65.5
      vertex 59.7719 -26.667 65.5
    endloop
  endfacet
  facet normal 0 0 1
    outer loop
      vertex 65.3067 -37.7975 65.5
      vertex 57.969 -27.0998 65.5
      vertex 62.9778 -43.42 65.5
    endloop
  endfacet
  facet normal 0 0 1
    outer loop
      vertex 56.2561 -26.3903 65.5
      vertex 62.9778 -43.42 65.5
      vertex 57.969 -27.0998 65.5
    endloop
  endfacet
  facet normal -0 0 1
    outer loop
      vertex 40.4509 -29.3893 65.5
      vertex 62.9778 -43.42 65.5
      vertex 56.2561 -26.3903 65.5
    endloop
  endfacet
  facet normal 0 0 1
    outer loop
      vertex 62.9778 -43.42 65.5
      vertex 38.5257 -31.8712 65.5
      vertex 60.4958 -49.412 65.5
    endloop
  endfacet
  facet normal 0 0 1
    outer loop
      vertex 42.2164 -26.7913 65.5
      vertex 56.2561 -26.3903 65.5
      vertex 55.2873 -24.8094 65.5
    endloop
  endfacet
  facet normal -0 0 1
    outer loop
      vertex 48.4292 -12.4345 65.5
      vertex 58.4398 -21.1183 65.5
      vertex 49.1144 -9.36907 65.5
    endloop
  endfacet
  facet normal 0 0 1
    outer loop
      vertex 58.4398 -21.1183 65.5
      vertex 48.4292 -12.4345 65.5
      vertex 56.6369 -21.5511 65.5
    endloop
  endfacet
  facet normal -0 0 1
    outer loop
      vertex 47.5528 -15.4508 65.5
      vertex 56.6369 -21.5511 65.5
      vertex 48.4292 -12.4345 65.5
    endloop
  endfacet
  facet normal 0 0 1
    outer loop
      vertex 56.6369 -21.5511 65.5
      vertex 47.5528 -15.4508 65.5
      vertex 55.4328 -22.961 65.5
    endloop
  endfacet
  facet normal -0 0 1
    outer loop
      vertex 46.4888 -18.4062 65.5
      vertex 55.4328 -22.961 65.5
      vertex 47.5528 -15.4508 65.5
    endloop
  endfacet
  facet normal -0 0 1
    outer loop
      vertex 45.2414 -21.289 65.5
      vertex 55.4328 -22.961 65.5
      vertex 46.4888 -18.4062 65.5
    endloop
  endfacet
  facet normal 0 0 1
    outer loop
      vertex 55.4328 -22.961 65.5
      vertex 45.2414 -21.289 65.5
      vertex 55.2873 -24.8094 65.5
    endloop
  endfacet
  facet normal -0 0 1
    outer loop
      vertex 43.8153 -24.0877 65.5
      vertex 55.2873 -24.8094 65.5
      vertex 45.2414 -21.289 65.5
    endloop
  endfacet
  facet normal 0 0 1
    outer loop
      vertex 42.2164 -26.7913 65.5
      vertex 55.2873 -24.8094 65.5
      vertex 43.8153 -24.0877 65.5
    endloop
  endfacet
  facet normal 0 0 1
    outer loop
      vertex 56.2561 -26.3903 65.5
      vertex 42.2164 -26.7913 65.5
      vertex 40.4509 -29.3893 65.5
    endloop
  endfacet
  facet normal 0 0 1
    outer loop
      vertex 62.9778 -43.42 65.5
      vertex 40.4509 -29.3893 65.5
      vertex 38.5257 -31.8712 65.5
    endloop
  endfacet
  facet normal -0 0 1
    outer loop
      vertex 36.4484 -34.2274 65.5
      vertex 60.4958 -49.412 65.5
      vertex 38.5257 -31.8712 65.5
    endloop
  endfacet
  facet normal -0 0 1
    outer loop
      vertex 35.3379 -35.3379 65.5
      vertex 60.4958 -49.412 65.5
      vertex 36.4484 -34.2274 65.5
    endloop
  endfacet
  facet normal 0 0 1
    outer loop
      vertex 60.4958 -49.412 65.5
      vertex 35.3379 -35.3379 65.5
      vertex 57.2494 -57.2494 65.5
    endloop
  endfacet
  facet normal 0.906127 -0.37533 0.195091
    outer loop
      vertex 81.9776 -23.2096 62.4134
      vertex 84.6582 -17.7328 60.5
      vertex 84.3065 -17.5872 62.4134
    endloop
  endfacet
  facet normal 0.906127 -0.375331 0.19509
    outer loop
      vertex 84.6582 -17.7328 60.5
      vertex 81.9776 -23.2096 62.4134
      vertex 82.3293 -23.3553 60.5
    endloop
  endfacet
  facet normal 0.906127 -0.375331 0.195091
    outer loop
      vertex 77.0137 -35.1937 62.4134
      vertex 79.6942 -29.7169 60.5
      vertex 79.3426 -29.5712 62.4134
    endloop
  endfacet
  facet normal 0.906127 -0.37533 0.195091
    outer loop
      vertex 79.6942 -29.7169 60.5
      vertex 77.0137 -35.1937 62.4134
      vertex 77.3653 -35.3393 60.5
    endloop
  endfacet
  facet normal 0.906127 -0.37533 0.19509
    outer loop
      vertex 72.0497 -47.1777 62.4134
      vertex 74.7303 -41.7009 60.5
      vertex 74.3786 -41.5552 62.4134
    endloop
  endfacet
  facet normal 0.906127 -0.37533 0.19509
    outer loop
      vertex 74.7303 -41.7009 60.5
      vertex 72.0497 -47.1777 62.4134
      vertex 72.4014 -47.3234 60.5
    endloop
  endfacet
  facet normal 0.18024 -0.0746581 -0.980785
    outer loop
      vertex 79.4776 -22.1741 55.8806
      vertex 80.0388 -15.8194 55.5
      vertex 81.8065 -16.5516 55.8806
    endloop
  endfacet
  facet normal 0.18024 -0.0746581 -0.980785
    outer loop
      vertex 80.0388 -15.8194 55.5
      vertex 79.4776 -22.1741 55.8806
      vertex 77.7099 -21.4419 55.5
    endloop
  endfacet
  facet normal 0.18024 -0.0746581 -0.980785
    outer loop
      vertex 74.5137 -34.1581 55.8806
      vertex 75.0748 -27.8034 55.5
      vertex 76.8426 -28.5357 55.8806
    endloop
  endfacet
  facet normal 0.180241 -0.0746581 -0.980785
    outer loop
      vertex 75.0748 -27.8034 55.5
      vertex 74.5137 -34.1581 55.8806
      vertex 72.7459 -33.4259 55.5
    endloop
  endfacet
  facet normal 0.180241 -0.0746581 -0.980785
    outer loop
      vertex 69.5497 -46.1422 55.8806
      vertex 70.1109 -39.7875 55.5
      vertex 71.8786 -40.5197 55.8806
    endloop
  endfacet
  facet normal 0.180241 -0.0746581 -0.980785
    outer loop
      vertex 70.1109 -39.7875 55.5
      vertex 69.5497 -46.1422 55.8806
      vertex 67.782 -45.4099 55.5
    endloop
  endfacet
  facet normal 0.18024 -0.0746581 0.980785
    outer loop
      vertex 77.7099 -21.4419 65.5
      vertex 80.2935 -15.9249 65.4451
      vertex 80.0388 -15.8194 65.5
    endloop
  endfacet
  facet normal 0.180247 -0.074661 0.980784
    outer loop
      vertex 80.2935 -15.9249 65.4451
      vertex 77.7099 -21.4419 65.5
      vertex 78.2037 -21.6464 65.3937
    endloop
  endfacet
  facet normal 0.18024 -0.0746581 0.980785
    outer loop
      vertex 72.7459 -33.4259 65.5
      vertex 75.8392 -28.12 65.3354
      vertex 75.0748 -27.8034 65.5
    endloop
  endfacet
  facet normal 0.180238 -0.0746564 0.980786
    outer loop
      vertex 75.8392 -28.12 65.3354
      vertex 72.7459 -33.4259 65.5
      vertex 73.7493 -33.8415 65.284
    endloop
  endfacet
  facet normal 0.18024 -0.0746581 0.980785
    outer loop
      vertex 67.782 -45.4099 65.5
      vertex 71.3848 -40.3152 65.2257
      vertex 70.1109 -39.7875 65.5
    endloop
  endfacet
  facet normal 0.180239 -0.0746568 0.980786
    outer loop
      vertex 71.3848 -40.3152 65.2257
      vertex 67.782 -45.4099 65.5
      vertex 69.2949 -46.0366 65.1743
    endloop
  endfacet
  facet normal 0.513281 -0.212607 -0.831469
    outer loop
      vertex 80.9763 -22.7949 56.9645
      vertex 81.8065 -16.5516 55.8806
      vertex 83.3052 -17.1724 56.9645
    endloop
  endfacet
  facet normal 0.513279 -0.212607 -0.83147
    outer loop
      vertex 81.8065 -16.5516 55.8806
      vertex 80.9763 -22.7949 56.9645
      vertex 79.4776 -22.1741 55.8806
    endloop
  endfacet
  facet normal 0.513281 -0.212607 -0.831469
    outer loop
      vertex 76.0123 -34.7789 56.9645
      vertex 76.8426 -28.5357 55.8806
      vertex 78.3412 -29.1564 56.9645
    endloop
  endfacet
  facet normal 0.513279 -0.212607 -0.83147
    outer loop
      vertex 76.8426 -28.5357 55.8806
      vertex 76.0123 -34.7789 56.9645
      vertex 74.5137 -34.1581 55.8806
    endloop
  endfacet
  facet normal 0.513279 -0.212607 -0.83147
    outer loop
      vertex 71.0484 -46.7629 56.9645
      vertex 71.8786 -40.5197 55.8806
      vertex 73.3773 -41.1405 56.9645
    endloop
  endfacet
  facet normal 0.513279 -0.212607 -0.83147
    outer loop
      vertex 71.8786 -40.5197 55.8806
      vertex 71.0484 -46.7629 56.9645
      vertex 69.5497 -46.1422 55.8806
    endloop
  endfacet
  facet normal 0.906127 -0.37533 -0.195091
    outer loop
      vertex 84.6582 -17.7328 60.5
      vertex 81.9776 -23.2096 58.5866
      vertex 84.3065 -17.5872 58.5866
    endloop
  endfacet
  facet normal 0.906127 -0.375331 -0.19509
    outer loop
      vertex 81.9776 -23.2096 58.5866
      vertex 84.6582 -17.7328 60.5
      vertex 82.3293 -23.3553 60.5
    endloop
  endfacet
  facet normal 0.906127 -0.375331 -0.195091
    outer loop
      vertex 79.6942 -29.7169 60.5
      vertex 77.0137 -35.1937 58.5866
      vertex 79.3426 -29.5712 58.5866
    endloop
  endfacet
  facet normal 0.906127 -0.37533 -0.195091
    outer loop
      vertex 77.0137 -35.1937 58.5866
      vertex 79.6942 -29.7169 60.5
      vertex 77.3653 -35.3393 60.5
    endloop
  endfacet
  facet normal 0.906127 -0.37533 -0.19509
    outer loop
      vertex 74.7303 -41.7009 60.5
      vertex 72.0497 -47.1777 58.5866
      vertex 74.3786 -41.5552 58.5866
    endloop
  endfacet
  facet normal 0.906127 -0.37533 -0.19509
    outer loop
      vertex 72.0497 -47.1777 58.5866
      vertex 74.7303 -41.7009 60.5
      vertex 72.4014 -47.3234 60.5
    endloop
  endfacet
  facet normal 0.768177 -0.318189 0.555572
    outer loop
      vertex 80.9763 -22.7949 64.0355
      vertex 84.3065 -17.5872 62.4134
      vertex 83.3052 -17.1724 64.0355
    endloop
  endfacet
  facet normal 0.768178 -0.31819 0.555569
    outer loop
      vertex 84.3065 -17.5872 62.4134
      vertex 80.9763 -22.7949 64.0355
      vertex 81.9776 -23.2096 62.4134
    endloop
  endfacet
  facet normal 0.768177 -0.318189 0.555571
    outer loop
      vertex 76.0123 -34.7789 64.0355
      vertex 79.3426 -29.5712 62.4134
      vertex 78.3412 -29.1564 64.0355
    endloop
  endfacet
  facet normal 0.768178 -0.31819 0.555569
    outer loop
      vertex 79.3426 -29.5712 62.4134
      vertex 76.0123 -34.7789 64.0355
      vertex 77.0137 -35.1937 62.4134
    endloop
  endfacet
  facet normal 0.768179 -0.31819 0.555569
    outer loop
      vertex 71.0484 -46.7629 64.0355
      vertex 74.3786 -41.5552 62.4134
      vertex 73.3773 -41.1405 64.0355
    endloop
  endfacet
  facet normal 0.768179 -0.31819 0.555569
    outer loop
      vertex 74.3786 -41.5552 62.4134
      vertex 71.0484 -46.7629 64.0355
      vertex 72.0497 -47.1777 62.4134
    endloop
  endfacet
  facet normal 0.513281 -0.212607 0.831469
    outer loop
      vertex 81.8065 -16.5516 65.1194
      vertex 80.9763 -22.7949 64.0355
      vertex 83.3052 -17.1724 64.0355
    endloop
  endfacet
  facet normal 0.513279 -0.212607 0.83147
    outer loop
      vertex 80.9763 -22.7949 64.0355
      vertex 81.8065 -16.5516 65.1194
      vertex 79.4776 -22.1741 65.1194
    endloop
  endfacet
  facet normal 0.513281 -0.212607 0.831469
    outer loop
      vertex 76.8426 -28.5357 65.1194
      vertex 76.0123 -34.7789 64.0355
      vertex 78.3412 -29.1564 64.0355
    endloop
  endfacet
  facet normal 0.513279 -0.212607 0.83147
    outer loop
      vertex 76.0123 -34.7789 64.0355
      vertex 76.8426 -28.5357 65.1194
      vertex 74.5137 -34.1581 65.1194
    endloop
  endfacet
  facet normal 0.513279 -0.212607 0.83147
    outer loop
      vertex 71.8786 -40.5197 65.1194
      vertex 71.0484 -46.7629 64.0355
      vertex 73.3773 -41.1405 64.0355
    endloop
  endfacet
  facet normal 0.513279 -0.212607 0.83147
    outer loop
      vertex 71.0484 -46.7629 64.0355
      vertex 71.8786 -40.5197 65.1194
      vertex 69.5497 -46.1422 65.1194
    endloop
  endfacet
  facet normal 0.180238 -0.0746579 0.980786
    outer loop
      vertex 78.2037 -21.6464 65.3937
      vertex 81.8065 -16.5516 65.1194
      vertex 80.2935 -15.9249 65.4451
    endloop
  endfacet
  facet normal 0.180236 -0.074656 0.980786
    outer loop
      vertex 81.8065 -16.5516 65.1194
      vertex 78.2037 -21.6464 65.3937
      vertex 79.4776 -22.1741 65.1194
    endloop
  endfacet
  facet normal 0.180238 -0.0746564 0.980786
    outer loop
      vertex 73.7493 -33.8415 65.284
      vertex 76.8426 -28.5357 65.1194
      vertex 75.8392 -28.12 65.3354
    endloop
  endfacet
  facet normal 0.180241 -0.0746582 0.980785
    outer loop
      vertex 76.8426 -28.5357 65.1194
      vertex 73.7493 -33.8415 65.284
      vertex 74.5137 -34.1581 65.1194
    endloop
  endfacet
  facet normal 0.180235 -0.0746553 0.980786
    outer loop
      vertex 69.2949 -46.0366 65.1743
      vertex 71.8786 -40.5197 65.1194
      vertex 71.3848 -40.3152 65.2257
    endloop
  endfacet
  facet normal 0.180241 -0.0746582 0.980785
    outer loop
      vertex 71.8786 -40.5197 65.1194
      vertex 69.2949 -46.0366 65.1743
      vertex 69.5497 -46.1422 65.1194
    endloop
  endfacet
  facet normal -0.906127 0.37533 -0.195091
    outer loop
      vertex 75.771 -14.0516 58.5866
      vertex 73.0905 -19.5285 60.5
      vertex 75.4194 -13.906 60.5
    endloop
  endfacet
  facet normal -0.906127 0.37533 -0.195091
    outer loop
      vertex 73.0905 -19.5285 60.5
      vertex 75.771 -14.0516 58.5866
      vertex 73.4421 -19.6741 58.5866
    endloop
  endfacet
  facet normal -0.906127 0.375331 -0.195091
    outer loop
      vertex 70.807 -26.0357 58.5866
      vertex 68.1265 -31.5125 60.5
      vertex 70.4554 -25.89 60.5
    endloop
  endfacet
  facet normal -0.906127 0.375331 -0.195091
    outer loop
      vertex 68.1265 -31.5125 60.5
      vertex 70.807 -26.0357 58.5866
      vertex 68.4781 -31.6581 58.5866
    endloop
  endfacet
  facet normal -0.906128 0.37533 -0.19509
    outer loop
      vertex 65.8431 -38.0197 58.5866
      vertex 63.1626 -43.4965 60.5
      vertex 65.4915 -37.8741 60.5
    endloop
  endfacet
  facet normal -0.906128 0.37533 -0.19509
    outer loop
      vertex 63.1626 -43.4965 60.5
      vertex 65.8431 -38.0197 58.5866
      vertex 63.5142 -43.6422 58.5866
    endloop
  endfacet
  facet normal -0.513279 0.212607 -0.83147
    outer loop
      vertex 75.9421 -20.7096 55.8806
      vertex 76.7724 -14.4664 56.9645
      vertex 78.271 -15.0872 55.8806
    endloop
  endfacet
  facet normal -0.513279 0.212607 -0.83147
    outer loop
      vertex 76.7724 -14.4664 56.9645
      vertex 75.9421 -20.7096 55.8806
      vertex 74.4435 -20.0889 56.9645
    endloop
  endfacet
  facet normal -0.513279 0.212607 -0.83147
    outer loop
      vertex 70.9781 -32.6937 55.8806
      vertex 71.8084 -26.4505 56.9645
      vertex 73.307 -27.0712 55.8806
    endloop
  endfacet
  facet normal -0.513281 0.212607 -0.831469
    outer loop
      vertex 71.8084 -26.4505 56.9645
      vertex 70.9781 -32.6937 55.8806
      vertex 69.4795 -32.0729 56.9645
    endloop
  endfacet
  facet normal -0.513279 0.212607 -0.83147
    outer loop
      vertex 66.0142 -44.6777 55.8806
      vertex 66.8445 -38.4345 56.9645
      vertex 68.3431 -39.0552 55.8806
    endloop
  endfacet
  facet normal -0.513281 0.212607 -0.831469
    outer loop
      vertex 66.8445 -38.4345 56.9645
      vertex 66.0142 -44.6777 55.8806
      vertex 64.5156 -44.057 56.9645
    endloop
  endfacet
  facet normal -0.18024 0.0746581 -0.980785
    outer loop
      vertex 77.7099 -21.4419 55.5
      vertex 78.271 -15.0872 55.8806
      vertex 80.0388 -15.8194 55.5
    endloop
  endfacet
  facet normal -0.18024 0.0746581 -0.980785
    outer loop
      vertex 78.271 -15.0872 55.8806
      vertex 77.7099 -21.4419 55.5
      vertex 75.9421 -20.7096 55.8806
    endloop
  endfacet
  facet normal -0.18024 0.0746581 -0.980785
    outer loop
      vertex 72.7459 -33.4259 55.5
      vertex 73.307 -27.0712 55.8806
      vertex 75.0748 -27.8034 55.5
    endloop
  endfacet
  facet normal -0.180241 0.0746581 -0.980785
    outer loop
      vertex 73.307 -27.0712 55.8806
      vertex 72.7459 -33.4259 55.5
      vertex 70.9781 -32.6937 55.8806
    endloop
  endfacet
  facet normal -0.18024 0.074658 -0.980785
    outer loop
      vertex 67.782 -45.4099 55.5
      vertex 68.3431 -39.0552 55.8806
      vertex 70.1109 -39.7875 55.5
    endloop
  endfacet
  facet normal -0.18024 0.074658 -0.980785
    outer loop
      vertex 68.3431 -39.0552 55.8806
      vertex 67.782 -45.4099 55.5
      vertex 66.0142 -44.6777 55.8806
    endloop
  endfacet
  facet normal -0.768178 0.31819 -0.55557
    outer loop
      vertex 76.7724 -14.4664 56.9645
      vertex 73.4421 -19.6741 58.5866
      vertex 75.771 -14.0516 58.5866
    endloop
  endfacet
  facet normal -0.768178 0.31819 -0.55557
    outer loop
      vertex 73.4421 -19.6741 58.5866
      vertex 76.7724 -14.4664 56.9645
      vertex 74.4435 -20.0889 56.9645
    endloop
  endfacet
  facet normal -0.768178 0.31819 -0.55557
    outer loop
      vertex 71.8084 -26.4505 56.9645
      vertex 68.4781 -31.6581 58.5866
      vertex 70.807 -26.0357 58.5866
    endloop
  endfacet
  facet normal -0.768177 0.318188 -0.555573
    outer loop
      vertex 68.4781 -31.6581 58.5866
      vertex 71.8084 -26.4505 56.9645
      vertex 69.4795 -32.0729 56.9645
    endloop
  endfacet
  facet normal -0.768178 0.318189 -0.55557
    outer loop
      vertex 66.8445 -38.4345 56.9645
      vertex 63.5142 -43.6422 58.5866
      vertex 65.8431 -38.0197 58.5866
    endloop
  endfacet
  facet normal -0.768178 0.318189 -0.555571
    outer loop
      vertex 63.5142 -43.6422 58.5866
      vertex 66.8445 -38.4345 56.9645
      vertex 64.5156 -44.057 56.9645
    endloop
  endfacet
  facet normal 0.768177 -0.318188 -0.555573
    outer loop
      vertex 84.3065 -17.5872 58.5866
      vertex 80.9763 -22.7949 56.9645
      vertex 83.3052 -17.1724 56.9645
    endloop
  endfacet
  facet normal 0.768178 -0.31819 -0.55557
    outer loop
      vertex 80.9763 -22.7949 56.9645
      vertex 84.3065 -17.5872 58.5866
      vertex 81.9776 -23.2096 58.5866
    endloop
  endfacet
  facet normal 0.768177 -0.318189 -0.555572
    outer loop
      vertex 79.3426 -29.5712 58.5866
      vertex 76.0123 -34.7789 56.9645
      vertex 78.3412 -29.1564 56.9645
    endloop
  endfacet
  facet normal 0.768178 -0.31819 -0.55557
    outer loop
      vertex 76.0123 -34.7789 56.9645
      vertex 79.3426 -29.5712 58.5866
      vertex 77.0137 -35.1937 58.5866
    endloop
  endfacet
  facet normal 0.768178 -0.31819 -0.55557
    outer loop
      vertex 74.3786 -41.5552 58.5866
      vertex 71.0484 -46.7629 56.9645
      vertex 73.3773 -41.1405 56.9645
    endloop
  endfacet
  facet normal 0.768178 -0.31819 -0.55557
    outer loop
      vertex 71.0484 -46.7629 56.9645
      vertex 74.3786 -41.5552 58.5866
      vertex 72.0497 -47.1777 58.5866
    endloop
  endfacet
  facet normal 0.923879 -0.382684 0
    outer loop
      vertex 75.2346 -13.8295 65.5
      vertex 77.7166 -7.83743 60.5
      vertex 77.7166 -7.83743 65.5
    endloop
  endfacet
  facet normal 0.923879 -0.382684 0
    outer loop
      vertex 77.7166 -7.83743 60.5
      vertex 75.2346 -13.8295 65.5
      vertex 75.2346 -13.8295 60.5
    endloop
  endfacet
  facet normal 0.382683 0.92388 -3.22681e-07
    outer loop
      vertex 75.771 -14.0516 58.5866
      vertex 77.6367 -14.8244 60.5
      vertex 78.1987 -15.0572 58.8288
    endloop
  endfacet
  facet normal 0.382683 0.92388 -3.32779e-07
    outer loop
      vertex 77.6367 -14.8244 60.5
      vertex 75.771 -14.0516 58.5866
      vertex 75.4194 -13.906 60.5
    endloop
  endfacet
  facet normal 0.382684 0.923879 -4.89711e-07
    outer loop
      vertex 78.271 -15.0872 55.8806
      vertex 78.1987 -15.0572 58.8288
      vertex 79.6216 -15.6466 57.9395
    endloop
  endfacet
  facet normal 0.382683 0.92388 1.54157e-07
    outer loop
      vertex 81.2398 -16.3169 58.2483
      vertex 81.8065 -16.5516 55.8806
      vertex 79.6216 -15.6466 57.9395
    endloop
  endfacet
  facet normal 0.382683 0.92388 -7.53864e-07
    outer loop
      vertex 78.1987 -15.0572 58.8288
      vertex 76.7724 -14.4664 56.9645
      vertex 75.771 -14.0516 58.5866
    endloop
  endfacet
  facet normal 0.382683 0.92388 4.14343e-07
    outer loop
      vertex 80.0388 -15.8194 55.5
      vertex 79.6216 -15.6466 57.9395
      vertex 81.8065 -16.5516 55.8806
    endloop
  endfacet
  facet normal 0.382683 0.92388 -5.37449e-07
    outer loop
      vertex 78.1987 -15.0572 58.8288
      vertex 78.271 -15.0872 55.8806
      vertex 76.7724 -14.4664 56.9645
    endloop
  endfacet
  facet normal 0.382683 0.92388 4.46016e-07
    outer loop
      vertex 79.6216 -15.6466 57.9395
      vertex 80.0388 -15.8194 55.5
      vertex 78.271 -15.0872 55.8806
    endloop
  endfacet
  facet normal 0.382683 0.92388 -3.97224e-07
    outer loop
      vertex 80.2935 -15.9249 65.4451
      vertex 81.2398 -16.3169 62.7517
      vertex 79.6216 -15.6466 63.0605
    endloop
  endfacet
  facet normal 0.382683 0.92388 5.71042e-07
    outer loop
      vertex 82.296 -16.7544 61.3893
      vertex 83.3052 -17.1724 64.0355
      vertex 84.3065 -17.5872 62.4134
    endloop
  endfacet
  facet normal 0.382683 0.92388 3.86882e-07
    outer loop
      vertex 83.3052 -17.1724 64.0355
      vertex 82.296 -16.7544 61.3893
      vertex 81.2398 -16.3169 62.7517
    endloop
  endfacet
  facet normal 0.382683 0.92388 -2.31366e-07
    outer loop
      vertex 84.6582 -17.7328 60.5
      vertex 82.296 -16.7544 61.3893
      vertex 84.3065 -17.5872 62.4134
    endloop
  endfacet
  facet normal 0.382683 0.92388 0
    outer loop
      vertex 84.6582 -17.7328 60.5
      vertex 82.296 -16.7544 59.6107
      vertex 82.296 -16.7544 61.3893
    endloop
  endfacet
  facet normal 0.382683 0.92388 2.31366e-07
    outer loop
      vertex 84.3065 -17.5872 58.5866
      vertex 82.296 -16.7544 59.6107
      vertex 84.6582 -17.7328 60.5
    endloop
  endfacet
  facet normal 0.382683 0.92388 -5.71043e-07
    outer loop
      vertex 83.3052 -17.1724 56.9645
      vertex 82.296 -16.7544 59.6107
      vertex 84.3065 -17.5872 58.5866
    endloop
  endfacet
  facet normal 0.382683 0.92388 -3.86883e-07
    outer loop
      vertex 82.296 -16.7544 59.6107
      vertex 83.3052 -17.1724 56.9645
      vertex 81.2398 -16.3169 58.2483
    endloop
  endfacet
  facet normal 0.382684 0.923879 4.70135e-07
    outer loop
      vertex 81.8065 -16.5516 55.8806
      vertex 81.2398 -16.3169 58.2483
      vertex 83.3052 -17.1724 56.9645
    endloop
  endfacet
  facet normal 0.382683 0.92388 -3.13957e-07
    outer loop
      vertex 79.6216 -15.6466 63.0605
      vertex 80.0388 -15.8194 65.5
      vertex 80.2935 -15.9249 65.4451
    endloop
  endfacet
  facet normal 0.382683 0.92388 -2.46049e-07
    outer loop
      vertex 81.2398 -16.3169 62.7517
      vertex 80.2935 -15.9249 65.4451
      vertex 81.8065 -16.5516 65.1194
    endloop
  endfacet
  facet normal 0.382684 0.923879 -4.70134e-07
    outer loop
      vertex 81.2398 -16.3169 62.7517
      vertex 81.8065 -16.5516 65.1194
      vertex 83.3052 -17.1724 64.0355
    endloop
  endfacet
  facet normal 0.382683 0.92388 -4.67343e-07
    outer loop
      vertex 80.0388 -15.8194 65.5
      vertex 79.6216 -15.6466 63.0605
      vertex 75.2346 -13.8295 65.5
    endloop
  endfacet
  facet normal 0.382684 0.923879 1.14127e-06
    outer loop
      vertex 78.1987 -15.0572 62.1712
      vertex 75.2346 -13.8295 65.5
      vertex 79.6216 -15.6466 63.0605
    endloop
  endfacet
  facet normal 0.382683 0.92388 3.19198e-07
    outer loop
      vertex 75.4194 -13.906 60.5
      vertex 78.1987 -15.0572 62.1712
      vertex 77.6367 -14.8244 60.5
    endloop
  endfacet
  facet normal 0.382683 0.92388 1.07497e-07
    outer loop
      vertex 78.1987 -15.0572 62.1712
      vertex 75.4194 -13.906 60.5
      vertex 75.2346 -13.8295 65.5
    endloop
  endfacet
  facet normal 0.382681 0.923881 0
    outer loop
      vertex 75.2346 -13.8295 65.5
      vertex 75.4194 -13.906 60.5
      vertex 75.2346 -13.8295 60.5
    endloop
  endfacet
  facet normal 0.92388 -0.382683 0
    outer loop
      vertex 70.2706 -25.8135 65.5
      vertex 72.9057 -19.4519 60.5
      vertex 72.9057 -19.4519 65.5
    endloop
  endfacet
  facet normal 0.92388 -0.382683 0
    outer loop
      vertex 72.9057 -19.4519 60.5
      vertex 70.2706 -25.8135 65.5
      vertex 70.2706 -25.8135 60.5
    endloop
  endfacet
  facet normal -0.382683 -0.92388 -3.68305e-07
    outer loop
      vertex 77.2927 -21.2691 63.0605
      vertex 77.7099 -21.4419 65.5
      vertex 72.9057 -19.4519 65.5
    endloop
  endfacet
  facet normal -0.382683 -0.92388 -4.26908e-07
    outer loop
      vertex 77.7099 -21.4419 65.5
      vertex 77.2927 -21.2691 63.0605
      vertex 78.2037 -21.6464 65.3937
    endloop
  endfacet
  facet normal -0.382684 -0.923879 -6.02488e-09
    outer loop
      vertex 78.9109 -21.9394 62.7517
      vertex 78.2037 -21.6464 65.3937
      vertex 77.2927 -21.2691 63.0605
    endloop
  endfacet
  facet normal -0.382683 -0.92388 2.41592e-07
    outer loop
      vertex 78.2037 -21.6464 65.3937
      vertex 78.9109 -21.9394 62.7517
      vertex 79.4776 -22.1741 65.1194
    endloop
  endfacet
  facet normal -0.382683 -0.92388 -8.45972e-07
    outer loop
      vertex 72.9057 -19.4519 65.5
      vertex 75.8698 -20.6797 62.1712
      vertex 77.2927 -21.2691 63.0605
    endloop
  endfacet
  facet normal -0.382681 -0.923881 0
    outer loop
      vertex 73.0905 -19.5285 60.5
      vertex 72.9057 -19.4519 65.5
      vertex 72.9057 -19.4519 60.5
    endloop
  endfacet
  facet normal -0.382683 -0.92388 -9.60364e-08
    outer loop
      vertex 72.9057 -19.4519 65.5
      vertex 73.0905 -19.5285 60.5
      vertex 75.8698 -20.6797 62.1712
    endloop
  endfacet
  facet normal -0.382683 -0.92388 -4.52818e-07
    outer loop
      vertex 73.0905 -19.5285 60.5
      vertex 75.3078 -20.4469 60.5
      vertex 75.8698 -20.6797 62.1712
    endloop
  endfacet
  facet normal -0.382683 -0.92388 4.05803e-07
    outer loop
      vertex 73.4421 -19.6741 58.5866
      vertex 75.3078 -20.4469 60.5
      vertex 73.0905 -19.5285 60.5
    endloop
  endfacet
  facet normal -0.382683 -0.92388 4.40761e-07
    outer loop
      vertex 75.3078 -20.4469 60.5
      vertex 73.4421 -19.6741 58.5866
      vertex 75.8698 -20.6797 58.8288
    endloop
  endfacet
  facet normal -0.382683 -0.92388 4.53253e-07
    outer loop
      vertex 74.4435 -20.0889 56.9645
      vertex 75.8698 -20.6797 58.8288
      vertex 73.4421 -19.6741 58.5866
    endloop
  endfacet
  facet normal -0.382683 -0.92388 8.27022e-07
    outer loop
      vertex 75.9421 -20.7096 55.8806
      vertex 75.8698 -20.6797 58.8288
      vertex 74.4435 -20.0889 56.9645
    endloop
  endfacet
  facet normal -0.382683 -0.92388 7.26367e-08
    outer loop
      vertex 79.4776 -22.1741 65.1194
      vertex 78.9109 -21.9394 62.7517
      vertex 80.9763 -22.7949 64.0355
    endloop
  endfacet
  facet normal -0.382683 -0.92388 3.52628e-07
    outer loop
      vertex 79.9671 -22.3768 61.3893
      vertex 80.9763 -22.7949 64.0355
      vertex 78.9109 -21.9394 62.7517
    endloop
  endfacet
  facet normal -0.382684 -0.923879 7.98261e-07
    outer loop
      vertex 80.9763 -22.7949 64.0355
      vertex 79.9671 -22.3768 61.3893
      vertex 81.9776 -23.2096 62.4134
    endloop
  endfacet
  facet normal -0.382683 -0.92388 -6.10751e-07
    outer loop
      vertex 79.9671 -22.3768 61.3893
      vertex 82.3293 -23.3553 60.5
      vertex 81.9776 -23.2096 62.4134
    endloop
  endfacet
  facet normal -0.382683 -0.92388 0
    outer loop
      vertex 79.9671 -22.3768 59.6107
      vertex 82.3293 -23.3553 60.5
      vertex 79.9671 -22.3768 61.3893
    endloop
  endfacet
  facet normal -0.382683 -0.92388 6.10751e-07
    outer loop
      vertex 79.9671 -22.3768 59.6107
      vertex 81.9776 -23.2096 58.5866
      vertex 82.3293 -23.3553 60.5
    endloop
  endfacet
  facet normal -0.382683 -0.92388 -3.52629e-07
    outer loop
      vertex 80.9763 -22.7949 56.9645
      vertex 79.9671 -22.3768 59.6107
      vertex 78.9109 -21.9394 58.2483
    endloop
  endfacet
  facet normal -0.382684 -0.923879 -4.42522e-07
    outer loop
      vertex 79.4776 -22.1741 55.8806
      vertex 78.9109 -21.9394 58.2483
      vertex 77.2927 -21.2691 57.9395
    endloop
  endfacet
  facet normal -0.382684 -0.923879 8.13493e-07
    outer loop
      vertex 75.8698 -20.6797 58.8288
      vertex 75.9421 -20.7096 55.8806
      vertex 77.2927 -21.2691 57.9395
    endloop
  endfacet
  facet normal -0.382684 -0.923879 -7.98262e-07
    outer loop
      vertex 79.9671 -22.3768 59.6107
      vertex 80.9763 -22.7949 56.9645
      vertex 81.9776 -23.2096 58.5866
    endloop
  endfacet
  facet normal -0.382683 -0.92388 4.2157e-07
    outer loop
      vertex 77.7099 -21.4419 55.5
      vertex 77.2927 -21.2691 57.9395
      vertex 75.9421 -20.7096 55.8806
    endloop
  endfacet
  facet normal -0.382683 -0.92388 -7.26368e-08
    outer loop
      vertex 78.9109 -21.9394 58.2483
      vertex 79.4776 -22.1741 55.8806
      vertex 80.9763 -22.7949 56.9645
    endloop
  endfacet
  facet normal -0.382683 -0.92388 3.91634e-07
    outer loop
      vertex 77.2927 -21.2691 57.9395
      vertex 77.7099 -21.4419 55.5
      vertex 79.4776 -22.1741 55.8806
    endloop
  endfacet
  facet normal 0.382683 0.92388 -2.046e-07
    outer loop
      vertex 70.807 -26.0357 58.5866
      vertex 72.6727 -26.8085 60.5
      vertex 73.2347 -27.0412 58.8288
    endloop
  endfacet
  facet normal 0.382683 0.92388 -2.59755e-07
    outer loop
      vertex 72.6727 -26.8085 60.5
      vertex 70.807 -26.0357 58.5866
      vertex 70.4554 -25.89 60.5
    endloop
  endfacet
  facet normal 0.382683 0.92388 -2.37324e-07
    outer loop
      vertex 73.307 -27.0712 55.8806
      vertex 73.2347 -27.0412 58.8288
      vertex 74.6577 -27.6307 57.9395
    endloop
  endfacet
  facet normal 0.382684 0.923879 4.42522e-07
    outer loop
      vertex 76.2759 -28.3009 58.2483
      vertex 76.8426 -28.5357 55.8806
      vertex 74.6577 -27.6307 57.9395
    endloop
  endfacet
  facet normal 0.382683 0.92388 -3.11563e-08
    outer loop
      vertex 73.2347 -27.0412 58.8288
      vertex 71.8084 -26.4505 56.9645
      vertex 70.807 -26.0357 58.5866
    endloop
  endfacet
  facet normal 0.382683 0.92388 -3.91634e-07
    outer loop
      vertex 75.0748 -27.8034 55.5
      vertex 74.6577 -27.6307 57.9395
      vertex 76.8426 -28.5357 55.8806
    endloop
  endfacet
  facet normal 0.382683 0.92388 -2.18506e-07
    outer loop
      vertex 73.2347 -27.0412 58.8288
      vertex 73.307 -27.0712 55.8806
      vertex 71.8084 -26.4505 56.9645
    endloop
  endfacet
  facet normal 0.382683 0.92388 -4.2157e-07
    outer loop
      vertex 74.6577 -27.6307 57.9395
      vertex 75.0748 -27.8034 55.5
      vertex 73.307 -27.0712 55.8806
    endloop
  endfacet
  facet normal 0.382684 0.923879 -5.93455e-07
    outer loop
      vertex 75.8392 -28.12 65.3354
      vertex 76.2759 -28.3009 62.7517
      vertex 74.6577 -27.6307 63.0605
    endloop
  endfacet
  facet normal 0.382683 0.92388 1.39749e-06
    outer loop
      vertex 77.332 -28.7384 61.3893
      vertex 78.3412 -29.1564 64.0355
      vertex 79.3426 -29.5712 62.4134
    endloop
  endfacet
  facet normal 0.382684 0.923879 8.33217e-07
    outer loop
      vertex 78.3412 -29.1564 64.0355
      vertex 77.332 -28.7384 61.3893
      vertex 76.2759 -28.3009 62.7517
    endloop
  endfacet
  facet normal 0.382683 0.92388 -2.31366e-07
    outer loop
      vertex 79.6942 -29.7169 60.5
      vertex 77.332 -28.7384 61.3893
      vertex 79.3426 -29.5712 62.4134
    endloop
  endfacet
  facet normal 0.382683 0.92388 0
    outer loop
      vertex 79.6942 -29.7169 60.5
      vertex 77.332 -28.7384 59.6107
      vertex 77.332 -28.7384 61.3893
    endloop
  endfacet
  facet normal 0.382683 0.92388 2.31366e-07
    outer loop
      vertex 79.3426 -29.5712 58.5866
      vertex 77.332 -28.7384 59.6107
      vertex 79.6942 -29.7169 60.5
    endloop
  endfacet
  facet normal 0.382683 0.92388 -1.39749e-06
    outer loop
      vertex 78.3412 -29.1564 56.9645
      vertex 77.332 -28.7384 59.6107
      vertex 79.3426 -29.5712 58.5866
    endloop
  endfacet
  facet normal 0.382684 0.923879 -8.33218e-07
    outer loop
      vertex 77.332 -28.7384 59.6107
      vertex 78.3412 -29.1564 56.9645
      vertex 76.2759 -28.3009 58.2483
    endloop
  endfacet
  facet normal 0.382685 0.923879 7.10047e-07
    outer loop
      vertex 76.8426 -28.5357 55.8806
      vertex 76.2759 -28.3009 58.2483
      vertex 78.3412 -29.1564 56.9645
    endloop
  endfacet
  facet normal 0.382682 0.92388 6.82115e-07
    outer loop
      vertex 74.6577 -27.6307 63.0605
      vertex 75.0748 -27.8034 65.5
      vertex 75.8392 -28.12 65.3354
    endloop
  endfacet
  facet normal 0.382684 0.923879 -5.28133e-07
    outer loop
      vertex 76.2759 -28.3009 62.7517
      vertex 75.8392 -28.12 65.3354
      vertex 76.8426 -28.5357 65.1194
    endloop
  endfacet
  facet normal 0.382685 0.923879 -7.10046e-07
    outer loop
      vertex 76.2759 -28.3009 62.7517
      vertex 76.8426 -28.5357 65.1194
      vertex 78.3412 -29.1564 64.0355
    endloop
  endfacet
  facet normal 0.382683 0.92388 3.68305e-07
    outer loop
      vertex 75.0748 -27.8034 65.5
      vertex 74.6577 -27.6307 63.0605
      vertex 70.2706 -25.8135 65.5
    endloop
  endfacet
  facet normal 0.382683 0.92388 -2.02603e-07
    outer loop
      vertex 73.2347 -27.0412 62.1712
      vertex 70.2706 -25.8135 65.5
      vertex 74.6577 -27.6307 63.0605
    endloop
  endfacet
  facet normal 0.382683 0.92388 1.85579e-07
    outer loop
      vertex 70.4554 -25.89 60.5
      vertex 73.2347 -27.0412 62.1712
      vertex 72.6727 -26.8085 60.5
    endloop
  endfacet
  facet normal 0.382683 0.92388 1.18958e-07
    outer loop
      vertex 73.2347 -27.0412 62.1712
      vertex 70.4554 -25.89 60.5
      vertex 70.2706 -25.8135 65.5
    endloop
  endfacet
  facet normal 0.382681 0.923881 0
    outer loop
      vertex 70.2706 -25.8135 65.5
      vertex 70.4554 -25.89 60.5
      vertex 70.2706 -25.8135 60.5
    endloop
  endfacet
  facet normal 0.923879 -0.382684 0
    outer loop
      vertex 65.3067 -37.7975 65.5
      vertex 67.9417 -31.436 60.5
      vertex 67.9417 -31.436 65.5
    endloop
  endfacet
  facet normal 0.923879 -0.382684 0
    outer loop
      vertex 67.9417 -31.436 60.5
      vertex 65.3067 -37.7975 65.5
      vertex 65.3067 -37.7975 60.5
    endloop
  endfacet
  facet normal 0.382683 0.92388 -4.40761e-07
    outer loop
      vertex 65.8431 -38.0197 58.5866
      vertex 67.7088 -38.7925 60.5
      vertex 68.2708 -39.0253 58.8288
    endloop
  endfacet
  facet normal 0.382682 0.92388 3.69099e-07
    outer loop
      vertex 67.7088 -38.7925 60.5
      vertex 65.8431 -38.0197 58.5866
      vertex 65.4915 -37.8741 60.5
    endloop
  endfacet
  facet normal 0.382682 0.92388 -8.4435e-07
    outer loop
      vertex 68.3431 -39.0552 55.8806
      vertex 68.2708 -39.0253 58.8288
      vertex 69.6937 -39.6147 57.9395
    endloop
  endfacet
  facet normal 0.382685 0.923879 6.91789e-07
    outer loop
      vertex 71.3119 -40.285 58.2483
      vertex 71.8786 -40.5197 55.8806
      vertex 69.6937 -39.6147 57.9395
    endloop
  endfacet
  facet normal 0.382683 0.92388 -4.53253e-07
    outer loop
      vertex 68.2708 -39.0253 58.8288
      vertex 66.8445 -38.4345 56.9645
      vertex 65.8431 -38.0197 58.5866
    endloop
  endfacet
  facet normal 0.382683 0.92388 -1.94942e-06
    outer loop
      vertex 70.1109 -39.7875 55.5
      vertex 69.6937 -39.6147 57.9395
      vertex 71.8786 -40.5197 55.8806
    endloop
  endfacet
  facet normal 0.382683 0.92388 -8.27022e-07
    outer loop
      vertex 68.2708 -39.0253 58.8288
      vertex 68.3431 -39.0552 55.8806
      vertex 66.8445 -38.4345 56.9645
    endloop
  endfacet
  facet normal 0.382684 0.923879 -1.74452e-06
    outer loop
      vertex 69.6937 -39.6147 57.9395
      vertex 70.1109 -39.7875 55.5
      vertex 68.3431 -39.0552 55.8806
    endloop
  endfacet
  facet normal 0.382685 0.923879 -2.40284e-07
    outer loop
      vertex 71.3848 -40.3152 65.2257
      vertex 71.3119 -40.285 62.7517
      vertex 69.6937 -39.6147 63.0605
    endloop
  endfacet
  facet normal 0.382683 0.92388 2.81874e-08
    outer loop
      vertex 72.3681 -40.7225 61.3893
      vertex 73.3773 -41.1405 64.0355
      vertex 74.3786 -41.5552 62.4134
    endloop
  endfacet
  facet normal 0.382683 0.92388 9.37058e-08
    outer loop
      vertex 73.3773 -41.1405 64.0355
      vertex 72.3681 -40.7225 61.3893
      vertex 71.3119 -40.285 62.7517
    endloop
  endfacet
  facet normal 0.382683 0.92388 6.10751e-07
    outer loop
      vertex 74.7303 -41.7009 60.5
      vertex 72.3681 -40.7225 61.3893
      vertex 74.3786 -41.5552 62.4134
    endloop
  endfacet
  facet normal 0.382683 0.92388 0
    outer loop
      vertex 74.7303 -41.7009 60.5
      vertex 72.3681 -40.7225 59.6107
      vertex 72.3681 -40.7225 61.3893
    endloop
  endfacet
  facet normal 0.382683 0.92388 -6.10751e-07
    outer loop
      vertex 74.3786 -41.5552 58.5866
      vertex 72.3681 -40.7225 59.6107
      vertex 74.7303 -41.7009 60.5
    endloop
  endfacet
  facet normal 0.382683 0.92388 -2.81875e-08
    outer loop
      vertex 73.3773 -41.1405 56.9645
      vertex 72.3681 -40.7225 59.6107
      vertex 74.3786 -41.5552 58.5866
    endloop
  endfacet
  facet normal 0.382683 0.92388 -9.37059e-08
    outer loop
      vertex 72.3681 -40.7225 59.6107
      vertex 73.3773 -41.1405 56.9645
      vertex 71.3119 -40.285 58.2483
    endloop
  endfacet
  facet normal 0.382683 0.92388 3.12548e-07
    outer loop
      vertex 71.8786 -40.5197 55.8806
      vertex 71.3119 -40.285 58.2483
      vertex 73.3773 -41.1405 56.9645
    endloop
  endfacet
  facet normal 0.382682 0.92388 1.99947e-06
    outer loop
      vertex 69.6937 -39.6147 63.0605
      vertex 70.1109 -39.7875 65.5
      vertex 71.3848 -40.3152 65.2257
    endloop
  endfacet
  facet normal 0.382683 0.92388 -1.74028e-07
    outer loop
      vertex 71.3119 -40.285 62.7517
      vertex 71.3848 -40.3152 65.2257
      vertex 71.8786 -40.5197 65.1194
    endloop
  endfacet
  facet normal 0.382683 0.92388 -3.12547e-07
    outer loop
      vertex 71.3119 -40.285 62.7517
      vertex 71.8786 -40.5197 65.1194
      vertex 73.3773 -41.1405 64.0355
    endloop
  endfacet
  facet normal 0.382684 0.923879 1.75028e-06
    outer loop
      vertex 70.1109 -39.7875 65.5
      vertex 69.6937 -39.6147 63.0605
      vertex 65.3067 -37.7975 65.5
    endloop
  endfacet
  facet normal 0.382683 0.92388 1.37513e-07
    outer loop
      vertex 68.2708 -39.0253 62.1712
      vertex 65.3067 -37.7975 65.5
      vertex 69.6937 -39.6147 63.0605
    endloop
  endfacet
  facet normal 0.382682 0.92388 7.20056e-07
    outer loop
      vertex 65.4915 -37.8741 60.5
      vertex 68.2708 -39.0253 62.1712
      vertex 67.7088 -38.7925 60.5
    endloop
  endfacet
  facet normal 0.382682 0.92388 -2.71656e-07
    outer loop
      vertex 68.2708 -39.0253 62.1712
      vertex 65.4915 -37.8741 60.5
      vertex 65.3067 -37.7975 65.5
    endloop
  endfacet
  facet normal 0.382689 0.923877 0
    outer loop
      vertex 65.3067 -37.7975 65.5
      vertex 65.4915 -37.8741 60.5
      vertex 65.3067 -37.7975 60.5
    endloop
  endfacet
  facet normal -0.382684 -0.923879 -2.64393e-07
    outer loop
      vertex 72.3288 -33.2531 63.0605
      vertex 72.7459 -33.4259 65.5
      vertex 67.9417 -31.436 65.5
    endloop
  endfacet
  facet normal -0.382684 -0.923879 -1.7036e-07
    outer loop
      vertex 72.7459 -33.4259 65.5
      vertex 72.3288 -33.2531 63.0605
      vertex 73.7493 -33.8415 65.284
    endloop
  endfacet
  facet normal -0.382685 -0.923879 2.27057e-07
    outer loop
      vertex 73.947 -33.9234 62.7517
      vertex 73.7493 -33.8415 65.284
      vertex 72.3288 -33.2531 63.0605
    endloop
  endfacet
  facet normal -0.382679 -0.923881 7.12535e-07
    outer loop
      vertex 73.7493 -33.8415 65.284
      vertex 73.947 -33.9234 62.7517
      vertex 74.5137 -34.1581 65.1194
    endloop
  endfacet
  facet normal -0.382683 -0.92388 7.66126e-07
    outer loop
      vertex 67.9417 -31.436 65.5
      vertex 70.9058 -32.6637 62.1712
      vertex 72.3288 -33.2531 63.0605
    endloop
  endfacet
  facet normal -0.382694 -0.923875 0
    outer loop
      vertex 68.1265 -31.5125 60.5
      vertex 67.9417 -31.436 65.5
      vertex 67.9417 -31.436 60.5
    endloop
  endfacet
  facet normal -0.382684 -0.923879 4.52277e-07
    outer loop
      vertex 67.9417 -31.436 65.5
      vertex 68.1265 -31.5125 60.5
      vertex 70.9058 -32.6637 62.1712
    endloop
  endfacet
  facet normal -0.382683 -0.92388 -1.85579e-07
    outer loop
      vertex 68.1265 -31.5125 60.5
      vertex 70.3438 -32.4309 60.5
      vertex 70.9058 -32.6637 62.1712
    endloop
  endfacet
  facet normal -0.382683 -0.92388 2.59755e-07
    outer loop
      vertex 68.4781 -31.6581 58.5866
      vertex 70.3438 -32.4309 60.5
      vertex 68.1265 -31.5125 60.5
    endloop
  endfacet
  facet normal -0.382683 -0.92388 2.046e-07
    outer loop
      vertex 70.3438 -32.4309 60.5
      vertex 68.4781 -31.6581 58.5866
      vertex 70.9058 -32.6637 58.8288
    endloop
  endfacet
  facet normal -0.382683 -0.92388 -6.41014e-07
    outer loop
      vertex 69.4795 -32.0729 56.9645
      vertex 70.9058 -32.6637 58.8288
      vertex 68.4781 -31.6581 58.5866
    endloop
  endfacet
  facet normal -0.382685 -0.923879 7.78358e-07
    outer loop
      vertex 70.9781 -32.6937 55.8806
      vertex 70.9058 -32.6637 58.8288
      vertex 69.4795 -32.0729 56.9645
    endloop
  endfacet
  facet normal -0.382683 -0.92388 1.58138e-06
    outer loop
      vertex 74.5137 -34.1581 65.1194
      vertex 73.947 -33.9234 62.7517
      vertex 76.0123 -34.7789 64.0355
    endloop
  endfacet
  facet normal -0.382681 -0.92388 -9.46654e-07
    outer loop
      vertex 75.0031 -34.3609 61.3893
      vertex 76.0123 -34.7789 64.0355
      vertex 73.947 -33.9234 62.7517
    endloop
  endfacet
  facet normal -0.382683 -0.92388 -2.81874e-08
    outer loop
      vertex 76.0123 -34.7789 64.0355
      vertex 75.0031 -34.3609 61.3893
      vertex 77.0137 -35.1937 62.4134
    endloop
  endfacet
  facet normal -0.382684 -0.923879 1.07348e-06
    outer loop
      vertex 75.0031 -34.3609 61.3893
      vertex 77.3653 -35.3393 60.5
      vertex 77.0137 -35.1937 62.4134
    endloop
  endfacet
  facet normal -0.382684 -0.923879 0
    outer loop
      vertex 75.0031 -34.3609 59.6107
      vertex 77.3653 -35.3393 60.5
      vertex 75.0031 -34.3609 61.3893
    endloop
  endfacet
  facet normal -0.382684 -0.923879 -1.07348e-06
    outer loop
      vertex 75.0031 -34.3609 59.6107
      vertex 77.0137 -35.1937 58.5866
      vertex 77.3653 -35.3393 60.5
    endloop
  endfacet
  facet normal -0.382681 -0.92388 9.46655e-07
    outer loop
      vertex 76.0123 -34.7789 56.9645
      vertex 75.0031 -34.3609 59.6107
      vertex 73.947 -33.9234 58.2483
    endloop
  endfacet
  facet normal -0.382684 -0.923879 -2.11524e-06
    outer loop
      vertex 74.5137 -34.1581 55.8806
      vertex 73.947 -33.9234 58.2483
      vertex 72.3288 -33.2531 57.9395
    endloop
  endfacet
  facet normal -0.382682 -0.92388 8.4435e-07
    outer loop
      vertex 70.9058 -32.6637 58.8288
      vertex 70.9781 -32.6937 55.8806
      vertex 72.3288 -33.2531 57.9395
    endloop
  endfacet
  facet normal -0.382683 -0.92388 2.81875e-08
    outer loop
      vertex 75.0031 -34.3609 59.6107
      vertex 76.0123 -34.7789 56.9645
      vertex 77.0137 -35.1937 58.5866
    endloop
  endfacet
  facet normal -0.382682 -0.92388 5.98526e-07
    outer loop
      vertex 72.7459 -33.4259 55.5
      vertex 72.3288 -33.2531 57.9395
      vertex 70.9781 -32.6937 55.8806
    endloop
  endfacet
  facet normal -0.382683 -0.92388 -1.58138e-06
    outer loop
      vertex 73.947 -33.9234 58.2483
      vertex 74.5137 -34.1581 55.8806
      vertex 76.0123 -34.7789 56.9645
    endloop
  endfacet
  facet normal -0.382682 -0.92388 5.56023e-07
    outer loop
      vertex 72.3288 -33.2531 57.9395
      vertex 72.7459 -33.4259 55.5
      vertex 74.5137 -34.1581 55.8806
    endloop
  endfacet
  facet normal 0.92388 -0.382683 0
    outer loop
      vertex 60.4958 -49.412 65.5
      vertex 62.9778 -43.42 60.5
      vertex 62.9778 -43.42 65.5
    endloop
  endfacet
  facet normal 0.92388 -0.382683 0
    outer loop
      vertex 62.9778 -43.42 60.5
      vertex 60.4958 -49.412 65.5
      vertex 60.4958 -49.412 60.5
    endloop
  endfacet
  facet normal -0.382684 -0.923879 -1.69832e-06
    outer loop
      vertex 67.3648 -45.2372 63.0605
      vertex 67.782 -45.4099 65.5
      vertex 62.9778 -43.42 65.5
    endloop
  endfacet
  facet normal -0.382683 -0.92388 -1.86416e-06
    outer loop
      vertex 67.782 -45.4099 65.5
      vertex 67.3648 -45.2372 63.0605
      vertex 69.2949 -46.0366 65.1743
    endloop
  endfacet
  facet normal -0.382685 -0.923879 6.28081e-08
    outer loop
      vertex 68.983 -45.9074 62.7517
      vertex 69.2949 -46.0366 65.1743
      vertex 67.3648 -45.2372 63.0605
    endloop
  endfacet
  facet normal -0.38268 -0.923881 -7.02997e-07
    outer loop
      vertex 69.2949 -46.0366 65.1743
      vertex 68.983 -45.9074 62.7517
      vertex 69.5497 -46.1422 65.1194
    endloop
  endfacet
  facet normal -0.382683 -0.92388 1.44248e-07
    outer loop
      vertex 62.9778 -43.42 65.5
      vertex 65.9419 -44.6477 62.1712
      vertex 67.3648 -45.2372 63.0605
    endloop
  endfacet
  facet normal -0.382689 -0.923877 0
    outer loop
      vertex 63.1626 -43.4965 60.5
      vertex 62.9778 -43.42 65.5
      vertex 62.9778 -43.42 60.5
    endloop
  endfacet
  facet normal -0.382683 -0.92388 2.52667e-07
    outer loop
      vertex 62.9778 -43.42 65.5
      vertex 63.1626 -43.4965 60.5
      vertex 65.9419 -44.6477 62.1712
    endloop
  endfacet
  facet normal -0.382682 -0.92388 -4.98669e-07
    outer loop
      vertex 63.1626 -43.4965 60.5
      vertex 65.3799 -44.415 60.5
      vertex 65.9419 -44.6477 62.1712
    endloop
  endfacet
  facet normal -0.382682 -0.92388 -4.90088e-07
    outer loop
      vertex 63.5142 -43.6422 58.5866
      vertex 65.3799 -44.415 60.5
      vertex 63.1626 -43.4965 60.5
    endloop
  endfacet
  facet normal -0.382683 -0.92388 2.45119e-07
    outer loop
      vertex 65.3799 -44.415 60.5
      vertex 63.5142 -43.6422 58.5866
      vertex 65.9419 -44.6477 58.8288
    endloop
  endfacet
  facet normal -0.382683 -0.92388 -7.44167e-07
    outer loop
      vertex 64.5156 -44.057 56.9645
      vertex 65.9419 -44.6477 58.8288
      vertex 63.5142 -43.6422 58.5866
    endloop
  endfacet
  facet normal -0.382685 -0.923879 7.78358e-07
    outer loop
      vertex 66.0142 -44.6777 55.8806
      vertex 65.9419 -44.6477 58.8288
      vertex 64.5156 -44.057 56.9645
    endloop
  endfacet
  facet normal -0.382683 -0.92388 3.12547e-07
    outer loop
      vertex 69.5497 -46.1422 65.1194
      vertex 68.983 -45.9074 62.7517
      vertex 71.0484 -46.7629 64.0355
    endloop
  endfacet
  facet normal -0.382683 -0.92388 -9.37058e-08
    outer loop
      vertex 70.0392 -46.3449 61.3893
      vertex 71.0484 -46.7629 64.0355
      vertex 68.983 -45.9074 62.7517
    endloop
  endfacet
  facet normal -0.382683 -0.92388 -2.81874e-08
    outer loop
      vertex 71.0484 -46.7629 64.0355
      vertex 70.0392 -46.3449 61.3893
      vertex 72.0497 -47.1777 62.4134
    endloop
  endfacet
  facet normal -0.382683 -0.92388 -6.10751e-07
    outer loop
      vertex 70.0392 -46.3449 61.3893
      vertex 72.4014 -47.3234 60.5
      vertex 72.0497 -47.1777 62.4134
    endloop
  endfacet
  facet normal -0.382683 -0.92388 0
    outer loop
      vertex 70.0392 -46.3449 59.6107
      vertex 72.4014 -47.3234 60.5
      vertex 70.0392 -46.3449 61.3893
    endloop
  endfacet
  facet normal -0.382683 -0.92388 6.10751e-07
    outer loop
      vertex 70.0392 -46.3449 59.6107
      vertex 72.0497 -47.1777 58.5866
      vertex 72.4014 -47.3234 60.5
    endloop
  endfacet
  facet normal -0.382683 -0.92388 9.37059e-08
    outer loop
      vertex 71.0484 -46.7629 56.9645
      vertex 70.0392 -46.3449 59.6107
      vertex 68.983 -45.9074 58.2483
    endloop
  endfacet
  facet normal -0.382685 -0.923879 -6.91789e-07
    outer loop
      vertex 69.5497 -46.1422 55.8806
      vertex 68.983 -45.9074 58.2483
      vertex 67.3648 -45.2372 57.9395
    endloop
  endfacet
  facet normal -0.382682 -0.92388 8.4435e-07
    outer loop
      vertex 65.9419 -44.6477 58.8288
      vertex 66.0142 -44.6777 55.8806
      vertex 67.3648 -45.2372 57.9395
    endloop
  endfacet
  facet normal -0.382683 -0.92388 2.81875e-08
    outer loop
      vertex 70.0392 -46.3449 59.6107
      vertex 71.0484 -46.7629 56.9645
      vertex 72.0497 -47.1777 58.5866
    endloop
  endfacet
  facet normal -0.382684 -0.923879 1.74452e-06
    outer loop
      vertex 67.782 -45.4099 55.5
      vertex 67.3648 -45.2372 57.9395
      vertex 66.0142 -44.6777 55.8806
    endloop
  endfacet
  facet normal -0.382683 -0.92388 -3.12548e-07
    outer loop
      vertex 68.983 -45.9074 58.2483
      vertex 69.5497 -46.1422 55.8806
      vertex 71.0484 -46.7629 56.9645
    endloop
  endfacet
  facet normal -0.382683 -0.92388 1.94942e-06
    outer loop
      vertex 67.3648 -45.2372 57.9395
      vertex 67.782 -45.4099 55.5
      vertex 69.5497 -46.1422 55.8806
    endloop
  endfacet
  facet normal 0.868163 -0.359605 0.34202
    outer loop
      vertex 75.3078 -20.4469 60.5
      vertex 78.1987 -15.0572 58.8288
      vertex 77.6367 -14.8244 60.5
    endloop
  endfacet
  facet normal 0.868163 -0.359605 0.34202
    outer loop
      vertex 78.1987 -15.0572 58.8288
      vertex 75.3078 -20.4469 60.5
      vertex 75.8698 -20.6797 58.8288
    endloop
  endfacet
  facet normal 0.868163 -0.359605 0.34202
    outer loop
      vertex 70.3438 -32.4309 60.5
      vertex 73.2347 -27.0412 58.8288
      vertex 72.6727 -26.8085 60.5
    endloop
  endfacet
  facet normal 0.868163 -0.359605 0.34202
    outer loop
      vertex 73.2347 -27.0412 58.8288
      vertex 70.3438 -32.4309 60.5
      vertex 70.9058 -32.6637 58.8288
    endloop
  endfacet
  facet normal 0.868163 -0.359605 0.34202
    outer loop
      vertex 65.3799 -44.415 60.5
      vertex 68.2708 -39.0253 58.8288
      vertex 67.7088 -38.7925 60.5
    endloop
  endfacet
  facet normal 0.868163 -0.359605 0.34202
    outer loop
      vertex 68.2708 -39.0253 58.8288
      vertex 65.3799 -44.415 60.5
      vertex 65.9419 -44.6477 58.8288
    endloop
  endfacet
  facet normal 0.461941 -0.191342 0.866025
    outer loop
      vertex 78.1987 -15.0572 58.8288
      vertex 77.2927 -21.2691 57.9395
      vertex 79.6216 -15.6466 57.9395
    endloop
  endfacet
  facet normal 0.461939 -0.191342 0.866026
    outer loop
      vertex 77.2927 -21.2691 57.9395
      vertex 78.1987 -15.0572 58.8288
      vertex 75.8698 -20.6797 58.8288
    endloop
  endfacet
  facet normal 0.461939 -0.191342 0.866026
    outer loop
      vertex 73.2347 -27.0412 58.8288
      vertex 72.3288 -33.2531 57.9395
      vertex 74.6577 -27.6307 57.9395
    endloop
  endfacet
  facet normal 0.461939 -0.191342 0.866026
    outer loop
      vertex 72.3288 -33.2531 57.9395
      vertex 73.2347 -27.0412 58.8288
      vertex 70.9058 -32.6637 58.8288
    endloop
  endfacet
  facet normal 0.461939 -0.191342 0.866026
    outer loop
      vertex 68.2708 -39.0253 58.8288
      vertex 67.3648 -45.2372 57.9395
      vertex 69.6937 -39.6147 57.9395
    endloop
  endfacet
  facet normal 0.461939 -0.191342 0.866026
    outer loop
      vertex 67.3648 -45.2372 57.9395
      vertex 68.2708 -39.0253 58.8288
      vertex 65.9419 -44.6477 58.8288
    endloop
  endfacet
  facet normal -0.923879 0.382684 0
    outer loop
      vertex 79.9671 -22.3768 59.6107
      vertex 82.296 -16.7544 61.3893
      vertex 82.296 -16.7544 59.6107
    endloop
  endfacet
  facet normal -0.923879 0.382684 0
    outer loop
      vertex 82.296 -16.7544 61.3893
      vertex 79.9671 -22.3768 59.6107
      vertex 79.9671 -22.3768 61.3893
    endloop
  endfacet
  facet normal -0.923879 0.382684 0
    outer loop
      vertex 75.0031 -34.3609 59.6107
      vertex 77.332 -28.7384 61.3893
      vertex 77.332 -28.7384 59.6107
    endloop
  endfacet
  facet normal -0.923879 0.382684 0
    outer loop
      vertex 77.332 -28.7384 61.3893
      vertex 75.0031 -34.3609 59.6107
      vertex 75.0031 -34.3609 61.3893
    endloop
  endfacet
  facet normal -0.923879 0.382684 0
    outer loop
      vertex 70.0392 -46.3449 59.6107
      vertex 72.3681 -40.7225 61.3893
      vertex 72.3681 -40.7225 59.6107
    endloop
  endfacet
  facet normal -0.923879 0.382684 0
    outer loop
      vertex 72.3681 -40.7225 61.3893
      vertex 70.0392 -46.3449 59.6107
      vertex 70.0392 -46.3449 61.3893
    endloop
  endfacet
  facet normal -0.160432 0.066453 0.984807
    outer loop
      vertex 79.6216 -15.6466 57.9395
      vertex 78.9109 -21.9394 58.2483
      vertex 81.2398 -16.3169 58.2483
    endloop
  endfacet
  facet normal -0.160432 0.0664531 0.984807
    outer loop
      vertex 78.9109 -21.9394 58.2483
      vertex 79.6216 -15.6466 57.9395
      vertex 77.2927 -21.2691 57.9395
    endloop
  endfacet
  facet normal -0.160432 0.0664533 0.984807
    outer loop
      vertex 74.6577 -27.6307 57.9395
      vertex 73.947 -33.9234 58.2483
      vertex 76.2759 -28.3009 58.2483
    endloop
  endfacet
  facet normal -0.160432 0.0664533 0.984807
    outer loop
      vertex 73.947 -33.9234 58.2483
      vertex 74.6577 -27.6307 57.9395
      vertex 72.3288 -33.2531 57.9395
    endloop
  endfacet
  facet normal -0.160432 0.0664533 0.984807
    outer loop
      vertex 69.6937 -39.6147 57.9395
      vertex 68.983 -45.9074 58.2483
      vertex 71.3119 -40.285 58.2483
    endloop
  endfacet
  facet normal -0.160432 0.0664533 0.984807
    outer loop
      vertex 68.983 -45.9074 58.2483
      vertex 69.6937 -39.6147 57.9395
      vertex 67.3648 -45.2372 57.9395
    endloop
  endfacet
  facet normal -0.707731 0.293152 -0.642789
    outer loop
      vertex 82.296 -16.7544 61.3893
      vertex 78.9109 -21.9394 62.7517
      vertex 81.2398 -16.3169 62.7517
    endloop
  endfacet
  facet normal -0.707731 0.293152 -0.642789
    outer loop
      vertex 78.9109 -21.9394 62.7517
      vertex 82.296 -16.7544 61.3893
      vertex 79.9671 -22.3768 61.3893
    endloop
  endfacet
  facet normal -0.707731 0.293152 -0.642789
    outer loop
      vertex 77.332 -28.7384 61.3893
      vertex 73.947 -33.9234 62.7517
      vertex 76.2759 -28.3009 62.7517
    endloop
  endfacet
  facet normal -0.707732 0.293152 -0.642789
    outer loop
      vertex 73.947 -33.9234 62.7517
      vertex 77.332 -28.7384 61.3893
      vertex 75.0031 -34.3609 61.3893
    endloop
  endfacet
  facet normal -0.707731 0.293152 -0.642789
    outer loop
      vertex 72.3681 -40.7225 61.3893
      vertex 68.983 -45.9074 62.7517
      vertex 71.3119 -40.285 62.7517
    endloop
  endfacet
  facet normal -0.707731 0.293152 -0.642789
    outer loop
      vertex 68.983 -45.9074 62.7517
      vertex 72.3681 -40.7225 61.3893
      vertex 70.0392 -46.3449 61.3893
    endloop
  endfacet
  facet normal -0.707731 0.293152 0.642789
    outer loop
      vertex 78.9109 -21.9394 58.2483
      vertex 82.296 -16.7544 59.6107
      vertex 81.2398 -16.3169 58.2483
    endloop
  endfacet
  facet normal -0.707731 0.293152 0.642789
    outer loop
      vertex 82.296 -16.7544 59.6107
      vertex 78.9109 -21.9394 58.2483
      vertex 79.9671 -22.3768 59.6107
    endloop
  endfacet
  facet normal -0.707731 0.293152 0.642789
    outer loop
      vertex 73.947 -33.9234 58.2483
      vertex 77.332 -28.7384 59.6107
      vertex 76.2759 -28.3009 58.2483
    endloop
  endfacet
  facet normal -0.707732 0.293152 0.642789
    outer loop
      vertex 77.332 -28.7384 59.6107
      vertex 73.947 -33.9234 58.2483
      vertex 75.0031 -34.3609 59.6107
    endloop
  endfacet
  facet normal -0.707731 0.293152 0.642789
    outer loop
      vertex 68.983 -45.9074 58.2483
      vertex 72.3681 -40.7225 59.6107
      vertex 71.3119 -40.285 58.2483
    endloop
  endfacet
  facet normal -0.707731 0.293152 0.642789
    outer loop
      vertex 72.3681 -40.7225 59.6107
      vertex 68.983 -45.9074 58.2483
      vertex 70.0392 -46.3449 59.6107
    endloop
  endfacet
  facet normal 0.461941 -0.191342 -0.866025
    outer loop
      vertex 77.2927 -21.2691 63.0605
      vertex 78.1987 -15.0572 62.1712
      vertex 79.6216 -15.6466 63.0605
    endloop
  endfacet
  facet normal 0.461939 -0.191342 -0.866026
    outer loop
      vertex 78.1987 -15.0572 62.1712
      vertex 77.2927 -21.2691 63.0605
      vertex 75.8698 -20.6797 62.1712
    endloop
  endfacet
  facet normal 0.461939 -0.191342 -0.866026
    outer loop
      vertex 72.3288 -33.2531 63.0605
      vertex 73.2347 -27.0412 62.1712
      vertex 74.6577 -27.6307 63.0605
    endloop
  endfacet
  facet normal 0.461939 -0.191342 -0.866026
    outer loop
      vertex 73.2347 -27.0412 62.1712
      vertex 72.3288 -33.2531 63.0605
      vertex 70.9058 -32.6637 62.1712
    endloop
  endfacet
  facet normal 0.461939 -0.191342 -0.866026
    outer loop
      vertex 67.3648 -45.2372 63.0605
      vertex 68.2708 -39.0253 62.1712
      vertex 69.6937 -39.6147 63.0605
    endloop
  endfacet
  facet normal 0.461939 -0.191342 -0.866026
    outer loop
      vertex 68.2708 -39.0253 62.1712
      vertex 67.3648 -45.2372 63.0605
      vertex 65.9419 -44.6477 62.1712
    endloop
  endfacet
  facet normal 0.868163 -0.359605 -0.34202
    outer loop
      vertex 78.1987 -15.0572 62.1712
      vertex 75.3078 -20.4469 60.5
      vertex 77.6367 -14.8244 60.5
    endloop
  endfacet
  facet normal 0.868163 -0.359605 -0.34202
    outer loop
      vertex 75.3078 -20.4469 60.5
      vertex 78.1987 -15.0572 62.1712
      vertex 75.8698 -20.6797 62.1712
    endloop
  endfacet
  facet normal 0.868163 -0.359605 -0.34202
    outer loop
      vertex 73.2347 -27.0412 62.1712
      vertex 70.3438 -32.4309 60.5
      vertex 72.6727 -26.8085 60.5
    endloop
  endfacet
  facet normal 0.868163 -0.359605 -0.34202
    outer loop
      vertex 70.3438 -32.4309 60.5
      vertex 73.2347 -27.0412 62.1712
      vertex 70.9058 -32.6637 62.1712
    endloop
  endfacet
  facet normal 0.868163 -0.359605 -0.34202
    outer loop
      vertex 68.2708 -39.0253 62.1712
      vertex 65.3799 -44.415 60.5
      vertex 67.7088 -38.7925 60.5
    endloop
  endfacet
  facet normal 0.868163 -0.359605 -0.34202
    outer loop
      vertex 65.3799 -44.415 60.5
      vertex 68.2708 -39.0253 62.1712
      vertex 65.9419 -44.6477 62.1712
    endloop
  endfacet
  facet normal -0.160432 0.066453 -0.984807
    outer loop
      vertex 78.9109 -21.9394 62.7517
      vertex 79.6216 -15.6466 63.0605
      vertex 81.2398 -16.3169 62.7517
    endloop
  endfacet
  facet normal -0.160432 0.0664531 -0.984807
    outer loop
      vertex 79.6216 -15.6466 63.0605
      vertex 78.9109 -21.9394 62.7517
      vertex 77.2927 -21.2691 63.0605
    endloop
  endfacet
  facet normal -0.160432 0.0664533 -0.984807
    outer loop
      vertex 73.947 -33.9234 62.7517
      vertex 74.6577 -27.6307 63.0605
      vertex 76.2759 -28.3009 62.7517
    endloop
  endfacet
  facet normal -0.160432 0.0664533 -0.984807
    outer loop
      vertex 74.6577 -27.6307 63.0605
      vertex 73.947 -33.9234 62.7517
      vertex 72.3288 -33.2531 63.0605
    endloop
  endfacet
  facet normal -0.160432 0.0664533 -0.984807
    outer loop
      vertex 68.983 -45.9074 62.7517
      vertex 69.6937 -39.6147 63.0605
      vertex 71.3119 -40.285 62.7517
    endloop
  endfacet
  facet normal -0.160432 0.0664533 -0.984807
    outer loop
      vertex 69.6937 -39.6147 63.0605
      vertex 68.983 -45.9074 62.7517
      vertex 67.3648 -45.2372 63.0605
    endloop
  endfacet
  facet normal 0.92388 -0.382683 0
    outer loop
      vertex 57.2494 -57.2494 65.5
      vertex 60.4958 -49.412 60.5
      vertex 60.4958 -49.412 65.5
    endloop
  endfacet
  facet normal 0.92388 -0.382683 0
    outer loop
      vertex 60.4958 -49.412 60.5
      vertex 57.2494 -57.2494 65.5
      vertex 57.2494 -57.2494 60.5
    endloop
  endfacet
  facet normal 0.92388 -0.382683 0
    outer loop
      vertex 77.7166 -7.83743 65.5
      vertex 80.9629 0 60.5
      vertex 80.9629 0 65.5
    endloop
  endfacet
  facet normal 0.92388 -0.382683 0
    outer loop
      vertex 80.9629 0 60.5
      vertex 77.7166 -7.83743 65.5
      vertex 77.7166 -7.83743 60.5
    endloop
  endfacet
  facet normal 0 0 -1
    outer loop
      vertex 45.0033 -29.8124 52.5
      vertex 42.2164 -26.7913 52.5
      vertex 43.8153 -24.0877 52.5
    endloop
  endfacet
  facet normal 0 0 -1
    outer loop
      vertex 38.5257 -31.8712 52.5
      vertex 46.3845 -30.4565 52.5
      vertex 41.7193 -41.7193 52.5
    endloop
  endfacet
  facet normal -0 0 -1
    outer loop
      vertex 46.3845 -30.4565 52.5
      vertex 38.5257 -31.8712 52.5
      vertex 45.0033 -29.8124 52.5
    endloop
  endfacet
  facet normal 0 0 -1
    outer loop
      vertex 45.0033 -29.8124 52.5
      vertex 40.4509 -29.3893 52.5
      vertex 42.2164 -26.7913 52.5
    endloop
  endfacet
  facet normal -0 0 -1
    outer loop
      vertex 45.0033 -29.8124 52.5
      vertex 38.5257 -31.8712 52.5
      vertex 40.4509 -29.3893 52.5
    endloop
  endfacet
  facet normal 0 0 -1
    outer loop
      vertex 41.7193 -41.7193 52.5
      vertex 36.4484 -34.2274 52.5
      vertex 38.5257 -31.8712 52.5
    endloop
  endfacet
  facet normal 0 -0 -1
    outer loop
      vertex 36.4484 -34.2274 52.5
      vertex 41.7193 -41.7193 52.5
      vertex 35.3379 -35.3379 52.5
    endloop
  endfacet
  facet normal 0 0 -1
    outer loop
      vertex 52.6642 -11.3172 52.5
      vertex 59 0 52.5
      vertex 54.0455 -11.9613 52.5
    endloop
  endfacet
  facet normal 0 0 -1
    outer loop
      vertex 49.6057 -6.26666 52.5
      vertex 59 0 52.5
      vertex 52.6642 -11.3172 52.5
    endloop
  endfacet
  facet normal -0 0 -1
    outer loop
      vertex 59 0 52.5
      vertex 49.9013 -3.13953 52.5
      vertex 50 0 52.5
    endloop
  endfacet
  facet normal 0 0 -1
    outer loop
      vertex 59 0 52.5
      vertex 49.6057 -6.26666 52.5
      vertex 49.9013 -3.13953 52.5
    endloop
  endfacet
  facet normal 0 0 -1
    outer loop
      vertex 52.6642 -11.3172 52.5
      vertex 49.1144 -9.36907 52.5
      vertex 49.6057 -6.26666 52.5
    endloop
  endfacet
  facet normal -0 0 -1
    outer loop
      vertex 52.6642 -11.3172 52.5
      vertex 48.4292 -12.4345 52.5
      vertex 49.1144 -9.36907 52.5
    endloop
  endfacet
  facet normal 0 0 -1
    outer loop
      vertex 52.6642 -11.3172 52.5
      vertex 47.5528 -15.4508 52.5
      vertex 48.4292 -12.4345 52.5
    endloop
  endfacet
  facet normal 0 0 -1
    outer loop
      vertex 52.6642 -11.3172 52.5
      vertex 46.4888 -18.4062 52.5
      vertex 47.5528 -15.4508 52.5
    endloop
  endfacet
  facet normal 0 0 -1
    outer loop
      vertex 45.0033 -29.8124 52.5
      vertex 46.4888 -18.4062 52.5
      vertex 52.6642 -11.3172 52.5
    endloop
  endfacet
  facet normal 0 0 -1
    outer loop
      vertex 46.4888 -18.4062 52.5
      vertex 45.0033 -29.8124 52.5
      vertex 45.2414 -21.289 52.5
    endloop
  endfacet
  facet normal 0 0 -1
    outer loop
      vertex 45.2414 -21.289 52.5
      vertex 45.0033 -29.8124 52.5
      vertex 43.8153 -24.0877 52.5
    endloop
  endfacet
  facet normal 0.92388 -0.382683 0
    outer loop
      vertex 59 0 60.5
      vertex 54.0455 -11.9613 56.5
      vertex 59 0 52.5
    endloop
  endfacet
  facet normal 0.92388 -0.382683 1.96315e-07
    outer loop
      vertex 41.7193 -41.7193 60.5
      vertex 54.0455 -11.9613 56.5
      vertex 59 0 60.5
    endloop
  endfacet
  facet normal 0.92388 -0.382683 2.34469e-07
    outer loop
      vertex 54.0455 -11.9613 56.5
      vertex 41.7193 -41.7193 60.5
      vertex 46.3845 -30.4565 56.5
    endloop
  endfacet
  facet normal 0.923879 -0.382684 0
    outer loop
      vertex 41.7193 -41.7193 52.5
      vertex 46.3845 -30.4565 56.5
      vertex 41.7193 -41.7193 60.5
    endloop
  endfacet
  facet normal 0.923879 -0.382684 0
    outer loop
      vertex 46.3845 -30.4565 56.5
      vertex 41.7193 -41.7193 52.5
      vertex 46.3845 -30.4565 52.5
    endloop
  endfacet
  facet normal 0.92388 -0.382683 0
    outer loop
      vertex 59 0 52.5
      vertex 54.0455 -11.9613 56.5
      vertex 54.0455 -11.9613 52.5
    endloop
  endfacet
  facet normal -0.860742 0.509042 0
    outer loop
      vertex 42.2164 -26.7913 52.5
      vertex 43.8153 -24.0877 65.5
      vertex 43.8153 -24.0877 52.5
    endloop
  endfacet
  facet normal -0.860742 0.509042 0
    outer loop
      vertex 43.8153 -24.0877 65.5
      vertex 42.2164 -26.7913 52.5
      vertex 42.2164 -26.7913 65.5
    endloop
  endfacet
  facet normal -0.995562 0.0941082 0
    outer loop
      vertex 49.6057 -6.26666 52.5
      vertex 49.9013 -3.13953 65.5
      vertex 49.9013 -3.13953 52.5
    endloop
  endfacet
  facet normal -0.995562 0.0941082 0
    outer loop
      vertex 49.9013 -3.13953 65.5
      vertex 49.6057 -6.26666 52.5
      vertex 49.6057 -6.26666 65.5
    endloop
  endfacet
  facet normal -0.707107 0.707107 0
    outer loop
      vertex 35.3379 -35.3379 52.5
      vertex 36.4484 -34.2274 65.5
      vertex 36.4484 -34.2274 52.5
    endloop
  endfacet
  facet normal -0.707107 0.707107 0
    outer loop
      vertex 36.4484 -34.2274 65.5
      vertex 35.3379 -35.3379 52.5
      vertex 35.3379 -35.3379 65.5
    endloop
  endfacet
  facet normal -0.750112 0.661311 0
    outer loop
      vertex 36.4484 -34.2274 52.5
      vertex 38.5257 -31.8712 65.5
      vertex 38.5257 -31.8712 52.5
    endloop
  endfacet
  facet normal -0.750112 0.661311 0
    outer loop
      vertex 38.5257 -31.8712 65.5
      vertex 36.4484 -34.2274 52.5
      vertex 36.4484 -34.2274 65.5
    endloop
  endfacet
  facet normal -0.827081 0.562083 0
    outer loop
      vertex 40.4509 -29.3893 52.5
      vertex 42.2164 -26.7913 65.5
      vertex 42.2164 -26.7913 52.5
    endloop
  endfacet
  facet normal -0.827081 0.562083 0
    outer loop
      vertex 42.2164 -26.7913 65.5
      vertex 40.4509 -29.3893 52.5
      vertex 40.4509 -29.3893 65.5
    endloop
  endfacet
  facet normal -0.891007 0.45399 0
    outer loop
      vertex 43.8153 -24.0877 52.5
      vertex 45.2414 -21.289 65.5
      vertex 45.2414 -21.289 52.5
    endloop
  endfacet
  facet normal -0.891007 0.45399 0
    outer loop
      vertex 45.2414 -21.289 65.5
      vertex 43.8153 -24.0877 52.5
      vertex 43.8153 -24.0877 65.5
    endloop
  endfacet
  facet normal -0.940881 0.338738 0
    outer loop
      vertex 46.4888 -18.4062 52.5
      vertex 47.5528 -15.4508 65.5
      vertex 47.5528 -15.4508 52.5
    endloop
  endfacet
  facet normal -0.940881 0.338738 0
    outer loop
      vertex 47.5528 -15.4508 65.5
      vertex 46.4888 -18.4062 52.5
      vertex 46.4888 -18.4062 65.5
    endloop
  endfacet
  facet normal -0.975917 0.218143 0
    outer loop
      vertex 48.4292 -12.4345 52.5
      vertex 49.1144 -9.36907 65.5
      vertex 49.1144 -9.36907 52.5
    endloop
  endfacet
  facet normal -0.975917 0.218143 0
    outer loop
      vertex 49.1144 -9.36907 65.5
      vertex 48.4292 -12.4345 52.5
      vertex 48.4292 -12.4345 65.5
    endloop
  endfacet
  facet normal -0.999507 0.0314107 0
    outer loop
      vertex 49.9013 -3.13953 52.5
      vertex 50 0 65.5
      vertex 50 0 52.5
    endloop
  endfacet
  facet normal -0.999507 0.0314107 0
    outer loop
      vertex 50 0 65.5
      vertex 49.9013 -3.13953 52.5
      vertex 49.9013 -3.13953 65.5
    endloop
  endfacet
  facet normal -0.790154 0.612908 0
    outer loop
      vertex 38.5257 -31.8712 52.5
      vertex 40.4509 -29.3893 65.5
      vertex 40.4509 -29.3893 52.5
    endloop
  endfacet
  facet normal -0.790154 0.612908 0
    outer loop
      vertex 40.4509 -29.3893 65.5
      vertex 38.5257 -31.8712 52.5
      vertex 38.5257 -31.8712 65.5
    endloop
  endfacet
  facet normal -0.917755 0.397148 0
    outer loop
      vertex 45.2414 -21.289 52.5
      vertex 46.4888 -18.4062 65.5
      vertex 46.4888 -18.4062 52.5
    endloop
  endfacet
  facet normal -0.917755 0.397148 0
    outer loop
      vertex 46.4888 -18.4062 65.5
      vertex 45.2414 -21.289 52.5
      vertex 45.2414 -21.289 65.5
    endloop
  endfacet
  facet normal -0.960294 0.278991 0
    outer loop
      vertex 47.5528 -15.4508 52.5
      vertex 48.4292 -12.4345 65.5
      vertex 48.4292 -12.4345 52.5
    endloop
  endfacet
  facet normal -0.960294 0.278991 0
    outer loop
      vertex 48.4292 -12.4345 65.5
      vertex 47.5528 -15.4508 52.5
      vertex 47.5528 -15.4508 65.5
    endloop
  endfacet
  facet normal -0.987688 0.156435 0
    outer loop
      vertex 49.1144 -9.36907 52.5
      vertex 49.6057 -6.26666 65.5
      vertex 49.6057 -6.26666 52.5
    endloop
  endfacet
  facet normal -0.987688 0.156435 0
    outer loop
      vertex 49.6057 -6.26666 65.5
      vertex 49.1144 -9.36907 52.5
      vertex 49.1144 -9.36907 65.5
    endloop
  endfacet
  facet normal -0.707107 -0.707107 -0
    outer loop
      vertex 41.7193 -41.7193 60.5
      vertex 35.3379 -35.3379 52.5
      vertex 41.7193 -41.7193 52.5
    endloop
  endfacet
  facet normal -0.707107 -0.707107 0
    outer loop
      vertex 35.3379 -35.3379 52.5
      vertex 41.7193 -41.7193 60.5
      vertex 35.3379 -35.3379 65.5
    endloop
  endfacet
  facet normal -0.707107 -0.707107 -0
    outer loop
      vertex 57.2494 -57.2494 65.5
      vertex 41.7193 -41.7193 60.5
      vertex 57.2494 -57.2494 60.5
    endloop
  endfacet
  facet normal -0.707107 -0.707107 0
    outer loop
      vertex 41.7193 -41.7193 60.5
      vertex 57.2494 -57.2494 65.5
      vertex 35.3379 -35.3379 65.5
    endloop
  endfacet
  facet normal 0 1 0
    outer loop
      vertex 59 0 60.5
      vertex 80.9629 0 65.5
      vertex 80.9629 0 60.5
    endloop
  endfacet
  facet normal 0 1 0
    outer loop
      vertex 80.9629 0 65.5
      vertex 59 0 60.5
      vertex 50 0 65.5
    endloop
  endfacet
  facet normal 0 1 0
    outer loop
      vertex 50 0 52.5
      vertex 59 0 60.5
      vertex 59 0 52.5
    endloop
  endfacet
  facet normal 0 1 0
    outer loop
      vertex 59 0 60.5
      vertex 50 0 52.5
      vertex 50 0 65.5
    endloop
  endfacet
  facet normal -0.996917 0.0784603 0
    outer loop
      vertex 60.976 -25.2571 60.5
      vertex 61.1215 -23.4087 65.5
      vertex 61.1215 -23.4087 60.5
    endloop
  endfacet
  facet normal -0.996917 0.0784603 0
    outer loop
      vertex 61.1215 -23.4087 65.5
      vertex 60.976 -25.2571 60.5
      vertex 60.976 -25.2571 65.5
    endloop
  endfacet
  facet normal 0.760406 -0.649448 0
    outer loop
      vertex 55.4328 -22.961 65.5
      vertex 56.6369 -21.5511 60.5
      vertex 56.6369 -21.5511 65.5
    endloop
  endfacet
  facet normal 0.760406 -0.649448 0
    outer loop
      vertex 56.6369 -21.5511 60.5
      vertex 55.4328 -22.961 65.5
      vertex 55.4328 -22.961 60.5
    endloop
  endfacet
  facet normal -0.382684 -0.923879 0
    outer loop
      vertex 58.4398 -21.1183 60.5
      vertex 60.1528 -21.8278 65.5
      vertex 58.4398 -21.1183 65.5
    endloop
  endfacet
  facet normal -0.382684 -0.923879 -0
    outer loop
      vertex 60.1528 -21.8278 65.5
      vertex 58.4398 -21.1183 60.5
      vertex 60.1528 -21.8278 60.5
    endloop
  endfacet
  facet normal -0.85264 -0.522499 0
    outer loop
      vertex 61.1215 -23.4087 60.5
      vertex 60.1528 -21.8278 65.5
      vertex 60.1528 -21.8278 60.5
    endloop
  endfacet
  facet normal -0.85264 -0.522499 0
    outer loop
      vertex 60.1528 -21.8278 65.5
      vertex 61.1215 -23.4087 60.5
      vertex 61.1215 -23.4087 65.5
    endloop
  endfacet
  facet normal 0.233446 -0.97237 0
    outer loop
      vertex 56.6369 -21.5511 60.5
      vertex 58.4398 -21.1183 65.5
      vertex 56.6369 -21.5511 65.5
    endloop
  endfacet
  facet normal 0.233446 -0.97237 0
    outer loop
      vertex 58.4398 -21.1183 65.5
      vertex 56.6369 -21.5511 60.5
      vertex 58.4398 -21.1183 60.5
    endloop
  endfacet
  facet normal 0.382683 0.92388 -0
    outer loop
      vertex 57.969 -27.0998 60.5
      vertex 56.2561 -26.3903 65.5
      vertex 57.969 -27.0998 65.5
    endloop
  endfacet
  facet normal 0.382683 0.92388 0
    outer loop
      vertex 56.2561 -26.3903 65.5
      vertex 57.969 -27.0998 60.5
      vertex 56.2561 -26.3903 60.5
    endloop
  endfacet
  facet normal -0.233445 0.97237 0
    outer loop
      vertex 59.7719 -26.667 60.5
      vertex 57.969 -27.0998 65.5
      vertex 59.7719 -26.667 65.5
    endloop
  endfacet
  facet normal -0.233445 0.97237 0
    outer loop
      vertex 57.969 -27.0998 65.5
      vertex 59.7719 -26.667 60.5
      vertex 57.969 -27.0998 60.5
    endloop
  endfacet
  facet normal -0.760406 0.649448 0
    outer loop
      vertex 59.7719 -26.667 60.5
      vertex 60.976 -25.2571 65.5
      vertex 60.976 -25.2571 60.5
    endloop
  endfacet
  facet normal -0.760406 0.649448 0
    outer loop
      vertex 60.976 -25.2571 65.5
      vertex 59.7719 -26.667 60.5
      vertex 59.7719 -26.667 65.5
    endloop
  endfacet
  facet normal 0.85264 0.522498 0
    outer loop
      vertex 56.2561 -26.3903 65.5
      vertex 55.2873 -24.8094 60.5
      vertex 55.2873 -24.8094 65.5
    endloop
  endfacet
  facet normal 0.85264 0.522498 0
    outer loop
      vertex 55.2873 -24.8094 60.5
      vertex 56.2561 -26.3903 65.5
      vertex 56.2561 -26.3903 60.5
    endloop
  endfacet
  facet normal 0.996917 -0.0784584 0
    outer loop
      vertex 55.2873 -24.8094 65.5
      vertex 55.4328 -22.961 60.5
      vertex 55.4328 -22.961 65.5
    endloop
  endfacet
  facet normal 0.996917 -0.0784584 0
    outer loop
      vertex 55.4328 -22.961 60.5
      vertex 55.2873 -24.8094 65.5
      vertex 55.2873 -24.8094 60.5
    endloop
  endfacet
endsolid OpenSCAD_Model
