<?xml version="1.0" standalone="no"?>
<!DOCTYPE svg PUBLIC "-//W3C//DTD SVG 1.1//EN" "http://www.w3.org/Graphics/SVG/1.1/DTD/svg11.dtd">
<svg width="225mm" height="230mm" viewBox="-110 -115 225 230" xmlns="http://www.w3.org/2000/svg" version="1.1">
<title>OpenSCAD Model</title>
<path d="
M 115,-115 L -110,-115 L -110,115 L 115,115 z
M 72.343,-93.7549 L 72.1867,-93.7697 L 72.0315,-93.7943 L 71.8783,-93.8285 L 71.7274,-93.8724 L 71.5797,-93.9256
 L 71.4355,-93.9879 L 71.2956,-94.0592 L 71.1604,-94.1392 L 71.0305,-94.2274 L 70.9064,-94.3237 L 70.7886,-94.4276
 L 70.6776,-94.5386 L 70.5737,-94.6564 L 70.4774,-94.7805 L 70.3892,-94.9104 L 70.3092,-95.0456 L 70.2379,-95.1855
 L 70.1756,-95.3297 L 70.1224,-95.4774 L 70.0785,-95.6283 L 70.0443,-95.7815 L 70.0197,-95.9367 L 70.0049,-96.093
 L 70,-96.25 L 70.0049,-96.407 L 70.0197,-96.5633 L 70.0443,-96.7184 L 70.0785,-96.8717 L 70.1224,-97.0225
 L 70.1756,-97.1703 L 70.2379,-97.3144 L 70.3092,-97.4544 L 70.3892,-97.5896 L 70.4774,-97.7195 L 70.5737,-97.8436
 L 70.6776,-97.9614 L 70.7886,-98.0724 L 70.9064,-98.1763 L 71.0305,-98.2725 L 71.1604,-98.3608 L 71.2956,-98.4408
 L 71.4355,-98.5121 L 71.5797,-98.5744 L 71.7274,-98.6276 L 71.8783,-98.6714 L 72.0315,-98.7057 L 72.1867,-98.7303
 L 72.343,-98.7451 L 72.5,-98.75 L 72.657,-98.7451 L 72.8133,-98.7303 L 72.9684,-98.7057 L 73.1217,-98.6714
 L 73.2725,-98.6276 L 73.4203,-98.5744 L 73.5644,-98.5121 L 73.7044,-98.4408 L 73.8396,-98.3608 L 73.9695,-98.2725
 L 74.0936,-98.1763 L 74.2114,-98.0724 L 74.3224,-97.9614 L 74.4263,-97.8436 L 74.5225,-97.7195 L 74.6108,-97.5896
 L 74.6908,-97.4544 L 74.7621,-97.3144 L 74.8244,-97.1703 L 74.8776,-97.0225 L 74.9214,-96.8717 L 74.9557,-96.7184
 L 74.9803,-96.5633 L 74.9951,-96.407 L 75,-96.25 L 74.9951,-96.093 L 74.9803,-95.9367 L 74.9557,-95.7815
 L 74.9214,-95.6283 L 74.8776,-95.4774 L 74.8244,-95.3297 L 74.7621,-95.1855 L 74.6908,-95.0456 L 74.6108,-94.9104
 L 74.5225,-94.7805 L 74.4263,-94.6564 L 74.3224,-94.5386 L 74.2114,-94.4276 L 74.0936,-94.3237 L 73.9695,-94.2274
 L 73.8396,-94.1392 L 73.7044,-94.0592 L 73.5644,-93.9879 L 73.4203,-93.9256 L 73.2725,-93.8724 L 73.1217,-93.8285
 L 72.9684,-93.7943 L 72.8133,-93.7697 L 72.657,-93.7549 L 72.5,-93.75 z
M -90.157,-91.2549 L -90.3133,-91.2697 L -90.4684,-91.2943 L -90.6217,-91.3285 L -90.7725,-91.3724 L -90.9203,-91.4256
 L -91.0644,-91.4879 L -91.2044,-91.5592 L -91.3396,-91.6392 L -91.4695,-91.7274 L -91.5936,-91.8237 L -91.7114,-91.9276
 L -91.8224,-92.0386 L -91.9263,-92.1564 L -92.0225,-92.2805 L -92.1108,-92.4104 L -92.1908,-92.5456 L -92.2621,-92.6855
 L -92.3244,-92.8297 L -92.3776,-92.9774 L -92.4214,-93.1283 L -92.4557,-93.2815 L -92.4803,-93.4367 L -92.4951,-93.593
 L -92.5,-93.75 L -92.4951,-93.907 L -92.4803,-94.0633 L -92.4557,-94.2184 L -92.4214,-94.3717 L -92.3776,-94.5225
 L -92.3244,-94.6703 L -92.2621,-94.8144 L -92.1908,-94.9544 L -92.1108,-95.0896 L -92.0225,-95.2195 L -91.9263,-95.3436
 L -91.8224,-95.4614 L -91.7114,-95.5724 L -91.5936,-95.6763 L -91.4695,-95.7725 L -91.3396,-95.8608 L -91.2044,-95.9408
 L -91.0644,-96.0121 L -90.9203,-96.0744 L -90.7725,-96.1276 L -90.6217,-96.1714 L -90.4684,-96.2057 L -90.3133,-96.2303
 L -90.157,-96.2451 L -90,-96.25 L -89.843,-96.2451 L -89.6867,-96.2303 L -89.5315,-96.2057 L -89.3783,-96.1714
 L -89.2274,-96.1276 L -89.0797,-96.0744 L -88.9355,-96.0121 L -88.7956,-95.9408 L -88.6604,-95.8608 L -88.5305,-95.7725
 L -88.4064,-95.6763 L -88.2886,-95.5724 L -88.1776,-95.4614 L -88.0737,-95.3436 L -87.9774,-95.2195 L -87.8892,-95.0896
 L -87.8092,-94.9544 L -87.7379,-94.8144 L -87.6756,-94.6703 L -87.6224,-94.5225 L -87.5785,-94.3717 L -87.5443,-94.2184
 L -87.5197,-94.0633 L -87.5049,-93.907 L -87.5,-93.75 L -87.5049,-93.593 L -87.5197,-93.4367 L -87.5443,-93.2815
 L -87.5785,-93.1283 L -87.6224,-92.9774 L -87.6756,-92.8297 L -87.7379,-92.6855 L -87.8092,-92.5456 L -87.8892,-92.4104
 L -87.9774,-92.2805 L -88.0737,-92.1564 L -88.1776,-92.0386 L -88.2886,-91.9276 L -88.4064,-91.8237 L -88.5305,-91.7274
 L -88.6604,-91.6392 L -88.7956,-91.5592 L -88.9355,-91.4879 L -89.0797,-91.4256 L -89.2274,-91.3724 L -89.3783,-91.3285
 L -89.5315,-91.2943 L -89.6867,-91.2697 L -89.843,-91.2549 L -90,-91.25 z
M -90.157,96.2451 L -90.3133,96.2303 L -90.4684,96.2057 L -90.6217,96.1714 L -90.7725,96.1276 L -90.9203,96.0744
 L -91.0644,96.0121 L -91.2044,95.9408 L -91.3396,95.8608 L -91.4695,95.7725 L -91.5936,95.6763 L -91.7114,95.5724
 L -91.8224,95.4614 L -91.9263,95.3436 L -92.0225,95.2195 L -92.1108,95.0896 L -92.1908,94.9544 L -92.2621,94.8144
 L -92.3244,94.6703 L -92.3776,94.5225 L -92.4214,94.3717 L -92.4557,94.2184 L -92.4803,94.0633 L -92.4951,93.907
 L -92.5,93.75 L -92.4951,93.593 L -92.4803,93.4367 L -92.4557,93.2815 L -92.4214,93.1283 L -92.3776,92.9774
 L -92.3244,92.8297 L -92.2621,92.6855 L -92.1908,92.5456 L -92.1108,92.4104 L -92.0225,92.2805 L -91.9263,92.1564
 L -91.8224,92.0386 L -91.7114,91.9276 L -91.5936,91.8237 L -91.4695,91.7274 L -91.3396,91.6392 L -91.2044,91.5592
 L -91.0644,91.4879 L -90.9203,91.4256 L -90.7725,91.3724 L -90.6217,91.3285 L -90.4684,91.2943 L -90.3133,91.2697
 L -90.157,91.2549 L -90,91.25 L -89.843,91.2549 L -89.6867,91.2697 L -89.5315,91.2943 L -89.3783,91.3285
 L -89.2274,91.3724 L -89.0797,91.4256 L -88.9355,91.4879 L -88.7956,91.5592 L -88.6604,91.6392 L -88.5305,91.7274
 L -88.4064,91.8237 L -88.2886,91.9276 L -88.1776,92.0386 L -88.0737,92.1564 L -87.9774,92.2805 L -87.8892,92.4104
 L -87.8092,92.5456 L -87.7379,92.6855 L -87.6756,92.8297 L -87.6224,92.9774 L -87.5785,93.1283 L -87.5443,93.2815
 L -87.5197,93.4367 L -87.5049,93.593 L -87.5,93.75 L -87.5049,93.907 L -87.5197,94.0633 L -87.5443,94.2184
 L -87.5785,94.3717 L -87.6224,94.5225 L -87.6756,94.6703 L -87.7379,94.8144 L -87.8092,94.9544 L -87.8892,95.0896
 L -87.9774,95.2195 L -88.0737,95.3436 L -88.1776,95.4614 L -88.2886,95.5724 L -88.4064,95.6763 L -88.5305,95.7725
 L -88.6604,95.8608 L -88.7956,95.9408 L -88.9355,96.0121 L -89.0797,96.0744 L -89.2274,96.1276 L -89.3783,96.1714
 L -89.5315,96.2057 L -89.6867,96.2303 L -89.843,96.2451 L -90,96.25 z
M 72.343,101.245 L 72.1867,101.23 L 72.0315,101.206 L 71.8783,101.171 L 71.7274,101.128 L 71.5797,101.074
 L 71.4355,101.012 L 71.2956,100.941 L 71.1604,100.861 L 71.0305,100.773 L 70.9064,100.676 L 70.7886,100.572
 L 70.6776,100.461 L 70.5737,100.344 L 70.4774,100.219 L 70.3892,100.09 L 70.3092,99.9544 L 70.2379,99.8144
 L 70.1756,99.6703 L 70.1224,99.5225 L 70.0785,99.3717 L 70.0443,99.2184 L 70.0197,99.0633 L 70.0049,98.907
 L 70,98.75 L 70.0049,98.593 L 70.0197,98.4367 L 70.0443,98.2815 L 70.0785,98.1283 L 70.1224,97.9774
 L 70.1756,97.8297 L 70.2379,97.6855 L 70.3092,97.5456 L 70.3892,97.4104 L 70.4774,97.2805 L 70.5737,97.1564
 L 70.6776,97.0386 L 70.7886,96.9276 L 70.9064,96.8237 L 71.0305,96.7274 L 71.1604,96.6392 L 71.2956,96.5592
 L 71.4355,96.4879 L 71.5797,96.4256 L 71.7274,96.3724 L 71.8783,96.3285 L 72.0315,96.2943 L 72.1867,96.2697
 L 72.343,96.2549 L 72.5,96.25 L 72.657,96.2549 L 72.8133,96.2697 L 72.9684,96.2943 L 73.1217,96.3285
 L 73.2725,96.3724 L 73.4203,96.4256 L 73.5644,96.4879 L 73.7044,96.5592 L 73.8396,96.6392 L 73.9695,96.7274
 L 74.0936,96.8237 L 74.2114,96.9276 L 74.3224,97.0386 L 74.4263,97.1564 L 74.5225,97.2805 L 74.6108,97.4104
 L 74.6908,97.5456 L 74.7621,97.6855 L 74.8244,97.8297 L 74.8776,97.9774 L 74.9214,98.1283 L 74.9557,98.2815
 L 74.9803,98.4367 L 74.9951,98.593 L 75,98.75 L 74.9951,98.907 L 74.9803,99.0633 L 74.9557,99.2184
 L 74.9214,99.3717 L 74.8776,99.5225 L 74.8244,99.6703 L 74.7621,99.8144 L 74.6908,99.9544 L 74.6108,100.09
 L 74.5225,100.219 L 74.4263,100.344 L 74.3224,100.461 L 74.2114,100.572 L 74.0936,100.676 L 73.9695,100.773
 L 73.8396,100.861 L 73.7044,100.941 L 73.5644,101.012 L 73.4203,101.074 L 73.2725,101.128 L 73.1217,101.171
 L 72.9684,101.206 L 72.8133,101.23 L 72.657,101.245 L 72.5,101.25 z
" stroke="black" fill="lightgray" stroke-width="0.5"/></svg>
