<?xml version="1.0" standalone="no"?>
<!DOCTYPE svg PUBLIC "-//W3C//DTD SVG 1.1//EN" "http://www.w3.org/Graphics/SVG/1.1/DTD/svg11.dtd">
<svg width="220mm" height="80mm" viewBox="-110 -80 220 80" xmlns="http://www.w3.org/2000/svg" version="1.1">
<title>OpenSCAD Model</title>
<path d="
M 110,-80 L -110,-80 L -110,-0 L 110,-0 z
M -90,-56.25 L -90.157,-56.2549 L -90.3133,-56.2697 L -90.4684,-56.2943 L -90.6217,-56.3285 L -90.7725,-56.3724
 L -90.9203,-56.4256 L -91.0644,-56.4879 L -91.2044,-56.5592 L -91.3396,-56.6392 L -91.4695,-56.7274 L -91.5936,-56.8237
 L -91.7114,-56.9276 L -91.8224,-57.0386 L -91.9263,-57.1564 L -92.0225,-57.2805 L -92.1108,-57.4104 L -92.1908,-57.5456
 L -92.2621,-57.6855 L -92.3244,-57.8297 L -92.3776,-57.9774 L -92.4214,-58.1283 L -92.4557,-58.2815 L -92.4803,-58.4367
 L -92.4951,-58.593 L -92.5,-58.75 L -92.4951,-58.907 L -92.4803,-59.0633 L -92.4557,-59.2184 L -92.4214,-59.3717
 L -92.3776,-59.5225 L -92.3244,-59.6703 L -92.2621,-59.8144 L -92.1908,-59.9544 L -92.1108,-60.0896 L -92.0225,-60.2195
 L -91.9263,-60.3436 L -91.8224,-60.4614 L -91.7114,-60.5724 L -91.5936,-60.6763 L -91.4695,-60.7725 L -91.3396,-60.8608
 L -91.2044,-60.9408 L -91.0644,-61.0121 L -90.9203,-61.0744 L -90.7725,-61.1276 L -90.6217,-61.1714 L -90.4684,-61.2057
 L -90.3133,-61.2303 L -90.157,-61.2451 L -90,-61.25 L -89.843,-61.2451 L -89.6867,-61.2303 L -89.5315,-61.2057
 L -89.3783,-61.1714 L -89.2274,-61.1276 L -89.0797,-61.0744 L -88.9355,-61.0121 L -88.7956,-60.9408 L -88.6604,-60.8608
 L -88.5305,-60.7725 L -88.4064,-60.6763 L -88.2886,-60.5724 L -88.1776,-60.4614 L -88.0737,-60.3436 L -87.9774,-60.2195
 L -87.8892,-60.0896 L -87.8092,-59.9544 L -87.7379,-59.8144 L -87.6756,-59.6703 L -87.6224,-59.5225 L -87.5785,-59.3717
 L -87.5443,-59.2184 L -87.5197,-59.0633 L -87.5049,-58.907 L -87.5,-58.75 L -87.5049,-58.593 L -87.5197,-58.4367
 L -87.5443,-58.2815 L -87.5785,-58.1283 L -87.6224,-57.9774 L -87.6756,-57.8297 L -87.7379,-57.6855 L -87.8092,-57.5456
 L -87.8892,-57.4104 L -87.9774,-57.2805 L -88.0737,-57.1564 L -88.1776,-57.0386 L -88.2886,-56.9276 L -88.4064,-56.8237
 L -88.5305,-56.7274 L -88.6604,-56.6392 L -88.7956,-56.5592 L -88.9355,-56.4879 L -89.0797,-56.4256 L -89.2274,-56.3724
 L -89.3783,-56.3285 L -89.5315,-56.2943 L -89.6867,-56.2697 L -89.843,-56.2549 z
M 97.5,-56.25 L 97.343,-56.2549 L 97.1867,-56.2697 L 97.0315,-56.2943 L 96.8783,-56.3285 L 96.7274,-56.3724
 L 96.5797,-56.4256 L 96.4355,-56.4879 L 96.2956,-56.5592 L 96.1604,-56.6392 L 96.0305,-56.7274 L 95.9064,-56.8237
 L 95.7886,-56.9276 L 95.6776,-57.0386 L 95.5737,-57.1564 L 95.4774,-57.2805 L 95.3892,-57.4104 L 95.3092,-57.5456
 L 95.2379,-57.6855 L 95.1756,-57.8297 L 95.1224,-57.9774 L 95.0785,-58.1283 L 95.0443,-58.2815 L 95.0197,-58.4367
 L 95.0049,-58.593 L 95,-58.75 L 95.0049,-58.907 L 95.0197,-59.0633 L 95.0443,-59.2184 L 95.0785,-59.3717
 L 95.1224,-59.5225 L 95.1756,-59.6703 L 95.2379,-59.8144 L 95.3092,-59.9544 L 95.3892,-60.0896 L 95.4774,-60.2195
 L 95.5737,-60.3436 L 95.6776,-60.4614 L 95.7886,-60.5724 L 95.9064,-60.6763 L 96.0305,-60.7725 L 96.1604,-60.8608
 L 96.2956,-60.9408 L 96.4355,-61.0121 L 96.5797,-61.0744 L 96.7274,-61.1276 L 96.8783,-61.1714 L 97.0315,-61.2057
 L 97.1867,-61.2303 L 97.343,-61.2451 L 97.5,-61.25 L 97.657,-61.2451 L 97.8133,-61.2303 L 97.9684,-61.2057
 L 98.1217,-61.1714 L 98.2725,-61.1276 L 98.4203,-61.0744 L 98.5644,-61.0121 L 98.7044,-60.9408 L 98.8396,-60.8608
 L 98.9695,-60.7725 L 99.0936,-60.6763 L 99.2114,-60.5724 L 99.3224,-60.4614 L 99.4263,-60.3436 L 99.5225,-60.2195
 L 99.6108,-60.0896 L 99.6908,-59.9544 L 99.7621,-59.8144 L 99.8244,-59.6703 L 99.8776,-59.5225 L 99.9214,-59.3717
 L 99.9557,-59.2184 L 99.9803,-59.0633 L 99.9951,-58.907 L 100,-58.75 L 99.9951,-58.593 L 99.9803,-58.4367
 L 99.9557,-58.2815 L 99.9214,-58.1283 L 99.8776,-57.9774 L 99.8244,-57.8297 L 99.7621,-57.6855 L 99.6908,-57.5456
 L 99.6108,-57.4104 L 99.5225,-57.2805 L 99.4263,-57.1564 L 99.3224,-57.0386 L 99.2114,-56.9276 L 99.0936,-56.8237
 L 98.9695,-56.7274 L 98.8396,-56.6392 L 98.7044,-56.5592 L 98.5644,-56.4879 L 98.4203,-56.4256 L 98.2725,-56.3724
 L 98.1217,-56.3285 L 97.9684,-56.2943 L 97.8133,-56.2697 L 97.657,-56.2549 z
M 94.062,-10.6558 L 94.11,-10.8704 L 94.1713,-11.0816 L 94.2458,-11.2884 L 94.3331,-11.4902 L 94.4329,-11.6861
 L 94.5448,-11.8754 L 94.6684,-12.0572 L 94.8032,-12.231 L 94.9486,-12.3959 L 95.1041,-12.5514 L 95.269,-12.6968
 L 95.4427,-12.8316 L 95.6246,-12.9551 L 95.8139,-13.0671 L 96.0098,-13.1669 L 96.2116,-13.2542 L 96.4184,-13.3287
 L 96.6296,-13.39 L 96.8442,-13.438 L 97.0613,-13.4724 L 97.2802,-13.4931 L 97.5,-13.5 L 97.7198,-13.4931
 L 97.9387,-13.4724 L 98.1558,-13.438 L 98.3704,-13.39 L 98.5816,-13.3287 L 98.7884,-13.2542 L 98.9902,-13.1669
 L 99.1861,-13.0671 L 99.3754,-12.9551 L 99.5573,-12.8316 L 99.731,-12.6968 L 99.8959,-12.5514 L 100.051,-12.3959
 L 100.197,-12.231 L 100.332,-12.0572 L 100.455,-11.8754 L 100.567,-11.6861 L 100.667,-11.4902 L 100.754,-11.2884
 L 100.829,-11.0816 L 100.89,-10.8704 L 100.938,-10.6558 L 100.972,-10.4387 L 100.993,-10.2198 L 101,-10
 L 100.993,-9.78023 L 100.972,-9.56133 L 100.938,-9.34416 L 100.89,-9.12958 L 100.829,-8.91843 L 100.754,-8.71156
 L 100.667,-8.50977 L 100.567,-8.31386 L 100.455,-8.1246 L 100.332,-7.94275 L 100.197,-7.76901 L 100.051,-7.60408
 L 99.8959,-7.44861 L 99.731,-7.30319 L 99.5573,-7.16843 L 99.3754,-7.04485 L 99.1861,-6.93292 L 98.9902,-6.8331
 L 98.7884,-6.74577 L 98.5816,-6.6713 L 98.3704,-6.60995 L 98.1558,-6.56198 L 97.9387,-6.52759 L 97.7198,-6.5069
 L 97.5,-6.49998 L 97.2802,-6.5069 L 97.0613,-6.52759 L 96.8442,-6.56198 L 96.6296,-6.60995 L 96.4184,-6.6713
 L 96.2116,-6.74577 L 96.0098,-6.8331 L 95.8139,-6.93292 L 95.6246,-7.04485 L 95.4427,-7.16843 L 95.269,-7.30319
 L 95.1041,-7.44861 L 94.9486,-7.60408 L 94.8032,-7.76901 L 94.6684,-7.94275 L 94.5448,-8.1246 L 94.4329,-8.31386
 L 94.3331,-8.50977 L 94.2458,-8.71156 L 94.1713,-8.91843 L 94.11,-9.12958 L 94.062,-9.34416 L 94.0276,-9.56133
 L 94.0069,-9.78023 L 94,-10 L 94.0069,-10.2198 L 94.0276,-10.4387 z
M -92.5,-6.49998 L -92.7198,-6.5069 L -92.9387,-6.52759 L -93.1558,-6.56198 L -93.3704,-6.60995 L -93.5816,-6.6713
 L -93.7884,-6.74577 L -93.9902,-6.8331 L -94.1861,-6.93292 L -94.3754,-7.04485 L -94.5573,-7.16843 L -94.731,-7.30319
 L -94.8959,-7.44861 L -95.0514,-7.60408 L -95.1968,-7.76901 L -95.3316,-7.94275 L -95.4551,-8.1246 L -95.5671,-8.31386
 L -95.6669,-8.50977 L -95.7542,-8.71156 L -95.8287,-8.91843 L -95.89,-9.12958 L -95.938,-9.34416 L -95.9724,-9.56133
 L -95.9931,-9.78023 L -96,-10 L -95.9931,-10.2198 L -95.9724,-10.4387 L -95.938,-10.6558 L -95.89,-10.8704
 L -95.8287,-11.0816 L -95.7542,-11.2884 L -95.6669,-11.4902 L -95.5671,-11.6861 L -95.4551,-11.8754 L -95.3316,-12.0572
 L -95.1968,-12.231 L -95.0514,-12.3959 L -94.8959,-12.5514 L -94.731,-12.6968 L -94.5573,-12.8316 L -94.3754,-12.9551
 L -94.1861,-13.0671 L -93.9902,-13.1669 L -93.7884,-13.2542 L -93.5816,-13.3287 L -93.3704,-13.39 L -93.1558,-13.438
 L -92.9387,-13.4724 L -92.7198,-13.4931 L -92.5,-13.5 L -92.2802,-13.4931 L -92.0613,-13.4724 L -91.8442,-13.438
 L -91.6296,-13.39 L -91.4184,-13.3287 L -91.2116,-13.2542 L -91.0098,-13.1669 L -90.8139,-13.0671 L -90.6246,-12.9551
 L -90.4427,-12.8316 L -90.269,-12.6968 L -90.1041,-12.5514 L -89.9486,-12.3959 L -89.8032,-12.231 L -89.6684,-12.0572
 L -89.5448,-11.8754 L -89.4329,-11.6861 L -89.3331,-11.4902 L -89.2458,-11.2884 L -89.1713,-11.0816 L -89.11,-10.8704
 L -89.062,-10.6558 L -89.0276,-10.4387 L -89.0069,-10.2198 L -89,-10 L -89.0069,-9.78023 L -89.0276,-9.56133
 L -89.062,-9.34416 L -89.11,-9.12958 L -89.1713,-8.91843 L -89.2458,-8.71156 L -89.3331,-8.50977 L -89.4329,-8.31386
 L -89.5448,-8.1246 L -89.6684,-7.94275 L -89.8032,-7.76901 L -89.9486,-7.60408 L -90.1041,-7.44861 L -90.269,-7.30319
 L -90.4427,-7.16843 L -90.6246,-7.04485 L -90.8139,-6.93292 L -91.0098,-6.8331 L -91.2116,-6.74577 L -91.4184,-6.6713
 L -91.6296,-6.60995 L -91.8442,-6.56198 L -92.0613,-6.52759 L -92.2802,-6.5069 z
M -67.5,-6.49998 L -67.7198,-6.5069 L -67.9387,-6.52759 L -68.1558,-6.56198 L -68.3704,-6.60995 L -68.5816,-6.6713
 L -68.7884,-6.74577 L -68.9902,-6.8331 L -69.1861,-6.93292 L -69.3754,-7.04485 L -69.5573,-7.16843 L -69.731,-7.30319
 L -69.8959,-7.44861 L -70.0514,-7.60408 L -70.1968,-7.76901 L -70.3316,-7.94275 L -70.4551,-8.1246 L -70.5671,-8.31386
 L -70.6669,-8.50977 L -70.7542,-8.71156 L -70.8287,-8.91843 L -70.89,-9.12958 L -70.938,-9.34416 L -70.9724,-9.56133
 L -70.9931,-9.78023 L -71,-10 L -70.9931,-10.2198 L -70.9724,-10.4387 L -70.938,-10.6558 L -70.89,-10.8704
 L -70.8287,-11.0816 L -70.7542,-11.2884 L -70.6669,-11.4902 L -70.5671,-11.6861 L -70.4551,-11.8754 L -70.3316,-12.0572
 L -70.1968,-12.231 L -70.0514,-12.3959 L -69.8959,-12.5514 L -69.731,-12.6968 L -69.5573,-12.8316 L -69.3754,-12.9551
 L -69.1861,-13.0671 L -68.9902,-13.1669 L -68.7884,-13.2542 L -68.5816,-13.3287 L -68.3704,-13.39 L -68.1558,-13.438
 L -67.9387,-13.4724 L -67.7198,-13.4931 L -67.5,-13.5 L -67.2802,-13.4931 L -67.0613,-13.4724 L -66.8442,-13.438
 L -66.6296,-13.39 L -66.4184,-13.3287 L -66.2116,-13.2542 L -66.0098,-13.1669 L -65.8139,-13.0671 L -65.6246,-12.9551
 L -65.4427,-12.8316 L -65.269,-12.6968 L -65.1041,-12.5514 L -64.9486,-12.3959 L -64.8032,-12.231 L -64.6684,-12.0572
 L -64.5448,-11.8754 L -64.4329,-11.6861 L -64.3331,-11.4902 L -64.2458,-11.2884 L -64.1713,-11.0816 L -64.11,-10.8704
 L -64.062,-10.6558 L -64.0276,-10.4387 L -64.0069,-10.2198 L -64,-10 L -64.0069,-9.78023 L -64.0276,-9.56133
 L -64.062,-9.34416 L -64.11,-9.12958 L -64.1713,-8.91843 L -64.2458,-8.71156 L -64.3331,-8.50977 L -64.4329,-8.31386
 L -64.5448,-8.1246 L -64.6684,-7.94275 L -64.8032,-7.76901 L -64.9486,-7.60408 L -65.1041,-7.44861 L -65.269,-7.30319
 L -65.4427,-7.16843 L -65.6246,-7.04485 L -65.8139,-6.93292 L -66.0098,-6.8331 L -66.2116,-6.74577 L -66.4184,-6.6713
 L -66.6296,-6.60995 L -66.8442,-6.56198 L -67.0613,-6.52759 L -67.2802,-6.5069 z
M 75.9931,-10.2198 L 76,-10 L 75.9931,-9.78023 L 75.9724,-9.56133 L 75.938,-9.34416 L 75.89,-9.12958
 L 75.8287,-8.91843 L 75.7542,-8.71156 L 75.6669,-8.50977 L 75.5671,-8.31386 L 75.4551,-8.1246 L 75.3316,-7.94275
 L 75.1968,-7.76901 L 75.0514,-7.60408 L 74.8959,-7.44861 L 74.731,-7.30319 L 74.5573,-7.16843 L 74.3754,-7.04485
 L 74.1861,-6.93292 L 73.9902,-6.8331 L 73.7884,-6.74577 L 73.5816,-6.6713 L 73.3704,-6.60995 L 73.1558,-6.56198
 L 72.9387,-6.52759 L 72.7198,-6.5069 L 72.5,-6.49998 L 72.2802,-6.5069 L 72.0613,-6.52759 L 71.8442,-6.56198
 L 71.6296,-6.60995 L 71.4184,-6.6713 L 71.2116,-6.74577 L 71.0098,-6.8331 L 70.8139,-6.93292 L 70.6246,-7.04485
 L 70.4427,-7.16843 L 70.269,-7.30319 L 70.1041,-7.44861 L 69.9486,-7.60408 L 69.8032,-7.76901 L 69.6684,-7.94275
 L 69.5448,-8.1246 L 69.4329,-8.31386 L 69.3331,-8.50977 L 69.2458,-8.71156 L 69.1713,-8.91843 L 69.11,-9.12958
 L 69.062,-9.34416 L 69.0276,-9.56133 L 69.0069,-9.78023 L 69,-10 L 69.0069,-10.2198 L 69.0276,-10.4387
 L 69.062,-10.6558 L 69.11,-10.8704 L 69.1713,-11.0816 L 69.2458,-11.2884 L 69.3331,-11.4902 L 69.4329,-11.6861
 L 69.5448,-11.8754 L 69.6684,-12.0572 L 69.8032,-12.231 L 69.9486,-12.3959 L 70.1041,-12.5514 L 70.269,-12.6968
 L 70.4427,-12.8316 L 70.6246,-12.9551 L 70.8139,-13.0671 L 71.0098,-13.1669 L 71.2116,-13.2542 L 71.4184,-13.3287
 L 71.6296,-13.39 L 71.8442,-13.438 L 72.0613,-13.4724 L 72.2802,-13.4931 L 72.5,-13.5 L 72.7198,-13.4931
 L 72.9387,-13.4724 L 73.1558,-13.438 L 73.3704,-13.39 L 73.5816,-13.3287 L 73.7884,-13.2542 L 73.9902,-13.1669
 L 74.1861,-13.0671 L 74.3754,-12.9551 L 74.5573,-12.8316 L 74.731,-12.6968 L 74.8959,-12.5514 L 75.0514,-12.3959
 L 75.1968,-12.231 L 75.3316,-12.0572 L 75.4551,-11.8754 L 75.5671,-11.6861 L 75.6669,-11.4902 L 75.7542,-11.2884
 L 75.8287,-11.0816 L 75.89,-10.8704 L 75.938,-10.6558 L 75.9724,-10.4387 z
" stroke="black" fill="lightgray" stroke-width="0.5"/></svg>
