<?xml version="1.0" standalone="no"?>
<!DOCTYPE svg PUBLIC "-//W3C//DTD SVG 1.1//EN" "http://www.w3.org/Graphics/SVG/1.1/DTD/svg11.dtd">
<svg width="16mm" height="16mm" viewBox="-44 -44 16 16" xmlns="http://www.w3.org/2000/svg" version="1.1">
<title>OpenSCAD Model</title>
<path d="
M -35.4977,-28.0158 L -34.9973,-28.0631 L -34.5009,-28.1417 L -34.0105,-28.2513 L -33.5279,-28.3915 L -33.055,-28.5618
 L -32.5938,-28.7614 L -32.146,-28.9895 L -31.7134,-29.2454 L -31.2977,-29.5279 L -30.9006,-29.8359 L -30.5236,-30.1682
 L -30.1682,-30.5236 L -29.8359,-30.9006 L -29.5279,-31.2977 L -29.2454,-31.7134 L -28.9895,-32.146 L -28.7614,-32.5938
 L -28.5618,-33.055 L -28.3915,-33.5279 L -28.2513,-34.0105 L -28.1417,-34.5009 L -28.0631,-34.9973 L -28.0158,-35.4977
 L -28,-36 L -28.0158,-36.5023 L -28.0631,-37.0027 L -28.1417,-37.499 L -28.2513,-37.9895 L -28.3915,-38.4721
 L -28.5618,-38.945 L -28.7614,-39.4062 L -28.9895,-39.854 L -29.2454,-40.2866 L -29.5279,-40.7023 L -29.8359,-41.0994
 L -30.1682,-41.4764 L -30.5236,-41.8317 L -30.9006,-42.1641 L -31.2977,-42.4721 L -31.7134,-42.7546 L -32.146,-43.0105
 L -32.5938,-43.2386 L -33.055,-43.4382 L -33.5279,-43.6084 L -34.0105,-43.7487 L -34.5009,-43.8583 L -34.9973,-43.9369
 L -35.4977,-43.9842 L -36,-44 L -36.5023,-43.9842 L -37.0027,-43.9369 L -37.499,-43.8583 L -37.9895,-43.7487
 L -38.4721,-43.6084 L -38.945,-43.4382 L -39.4062,-43.2386 L -39.854,-43.0105 L -40.2866,-42.7546 L -40.7023,-42.4721
 L -41.0994,-42.1641 L -41.4764,-41.8317 L -41.8317,-41.4764 L -42.1641,-41.0994 L -42.4721,-40.7023 L -42.7546,-40.2866
 L -43.0105,-39.854 L -43.2386,-39.4062 L -43.4382,-38.945 L -43.6084,-38.4721 L -43.7487,-37.9895 L -43.8583,-37.499
 L -43.9369,-37.0027 L -43.9842,-36.5023 L -44,-36 L -43.9842,-35.4977 L -43.9369,-34.9973 L -43.8583,-34.5009
 L -43.7487,-34.0105 L -43.6084,-33.5279 L -43.4382,-33.055 L -43.2386,-32.5938 L -43.0105,-32.146 L -42.7546,-31.7134
 L -42.4721,-31.2977 L -42.1641,-30.9006 L -41.8317,-30.5236 L -41.4764,-30.1682 L -41.0994,-29.8359 L -40.7023,-29.5279
 L -40.2866,-29.2454 L -39.854,-28.9895 L -39.4062,-28.7614 L -38.945,-28.5618 L -38.4721,-28.3915 L -37.9895,-28.2513
 L -37.499,-28.1417 L -37.0027,-28.0631 L -36.5023,-28.0158 L -36,-28 z
M -36.2512,-32.0079 L -36.5013,-32.0315 L -36.7495,-32.0708 L -36.9948,-32.1257 L -37.2361,-32.1958 L -37.4725,-32.2809
 L -37.7031,-32.3807 L -37.927,-32.4948 L -38.1433,-32.6227 L -38.3511,-32.7639 L -38.5497,-32.9179 L -38.7382,-33.0841
 L -38.9159,-33.2618 L -39.082,-33.4503 L -39.2361,-33.6488 L -39.3773,-33.8567 L -39.5052,-34.073 L -39.6193,-34.2969
 L -39.7191,-34.5275 L -39.8042,-34.7639 L -39.8743,-35.0052 L -39.9291,-35.2505 L -39.9685,-35.4987 L -39.9921,-35.7488
 L -40,-36 L -39.9921,-36.2512 L -39.9685,-36.5013 L -39.9291,-36.7495 L -39.8743,-36.9948 L -39.8042,-37.2361
 L -39.7191,-37.4725 L -39.6193,-37.7031 L -39.5052,-37.927 L -39.3773,-38.1433 L -39.2361,-38.3511 L -39.082,-38.5497
 L -38.9159,-38.7382 L -38.7382,-38.9159 L -38.5497,-39.082 L -38.3511,-39.2361 L -38.1433,-39.3773 L -37.927,-39.5052
 L -37.7031,-39.6193 L -37.4725,-39.7191 L -37.2361,-39.8042 L -36.9948,-39.8743 L -36.7495,-39.9291 L -36.5013,-39.9685
 L -36.2512,-39.9921 L -36,-40 L -35.7488,-39.9921 L -35.4987,-39.9685 L -35.2505,-39.9291 L -35.0052,-39.8743
 L -34.7639,-39.8042 L -34.5275,-39.7191 L -34.2969,-39.6193 L -34.073,-39.5052 L -33.8567,-39.3773 L -33.6488,-39.2361
 L -33.4503,-39.082 L -33.2618,-38.9159 L -33.0841,-38.7382 L -32.9179,-38.5497 L -32.7639,-38.3511 L -32.6227,-38.1433
 L -32.4948,-37.927 L -32.3807,-37.7031 L -32.2809,-37.4725 L -32.1958,-37.2361 L -32.1257,-36.9948 L -32.0708,-36.7495
 L -32.0315,-36.5013 L -32.0079,-36.2512 L -32,-36 L -32.0079,-35.7488 L -32.0315,-35.4987 L -32.0708,-35.2505
 L -32.1257,-35.0052 L -32.1958,-34.7639 L -32.2809,-34.5275 L -32.3807,-34.2969 L -32.4948,-34.073 L -32.6227,-33.8567
 L -32.7639,-33.6488 L -32.9179,-33.4503 L -33.0841,-33.2618 L -33.2618,-33.0841 L -33.4503,-32.9179 L -33.6488,-32.7639
 L -33.8567,-32.6227 L -34.073,-32.4948 L -34.2969,-32.3807 L -34.5275,-32.2809 L -34.7639,-32.1958 L -35.0052,-32.1257
 L -35.2505,-32.0708 L -35.4987,-32.0315 L -35.7488,-32.0079 L -36,-32 z
" stroke="black" fill="lightgray" stroke-width="0.5"/></svg>
