<?xml version="1.0" standalone="no"?>
<!DOCTYPE svg PUBLIC "-//W3C//DTD SVG 1.1//EN" "http://www.w3.org/Graphics/SVG/1.1/DTD/svg11.dtd">
<svg width="80mm" height="230mm" viewBox="-80 -115 80 230" xmlns="http://www.w3.org/2000/svg" version="1.1">
<title>OpenSCAD Model</title>
<path d="
M 0,-115 L -80,-115 L -80,115 L 0,115 z
M -68.75,-95 L -68.907,-95.0049 L -69.0633,-95.0197 L -69.2184,-95.0443 L -69.3717,-95.0785 L -69.5225,-95.1224
 L -69.6703,-95.1756 L -69.8144,-95.2379 L -69.9544,-95.3092 L -70.0896,-95.3892 L -70.2195,-95.4774 L -70.3436,-95.5737
 L -70.4614,-95.6776 L -70.5724,-95.7886 L -70.6763,-95.9064 L -70.7725,-96.0305 L -70.8608,-96.1604 L -70.9408,-96.2956
 L -71.0121,-96.4355 L -71.0744,-96.5797 L -71.1276,-96.7274 L -71.1714,-96.8783 L -71.2057,-97.0315 L -71.2303,-97.1867
 L -71.2451,-97.343 L -71.25,-97.5 L -71.2451,-97.657 L -71.2303,-97.8133 L -71.2057,-97.9684 L -71.1714,-98.1217
 L -71.1276,-98.2725 L -71.0744,-98.4203 L -71.0121,-98.5644 L -70.9408,-98.7044 L -70.8608,-98.8396 L -70.7725,-98.9695
 L -70.6763,-99.0936 L -70.5724,-99.2114 L -70.4614,-99.3224 L -70.3436,-99.4263 L -70.2195,-99.5225 L -70.0896,-99.6108
 L -69.9544,-99.6908 L -69.8144,-99.7621 L -69.6703,-99.8244 L -69.5225,-99.8776 L -69.3717,-99.9214 L -69.2184,-99.9557
 L -69.0633,-99.9803 L -68.907,-99.9951 L -68.75,-100 L -68.593,-99.9951 L -68.4367,-99.9803 L -68.2815,-99.9557
 L -68.1283,-99.9214 L -67.9774,-99.8776 L -67.8297,-99.8244 L -67.6855,-99.7621 L -67.5456,-99.6908 L -67.4104,-99.6108
 L -67.2805,-99.5225 L -67.1564,-99.4263 L -67.0386,-99.3224 L -66.9276,-99.2114 L -66.8237,-99.0936 L -66.7274,-98.9695
 L -66.6392,-98.8396 L -66.5592,-98.7044 L -66.4879,-98.5644 L -66.4256,-98.4203 L -66.3724,-98.2725 L -66.3285,-98.1217
 L -66.2943,-97.9684 L -66.2697,-97.8133 L -66.2549,-97.657 L -66.25,-97.5 L -66.2549,-97.343 L -66.2697,-97.1867
 L -66.2943,-97.0315 L -66.3285,-96.8783 L -66.3724,-96.7274 L -66.4256,-96.5797 L -66.4879,-96.4355 L -66.5592,-96.2956
 L -66.6392,-96.1604 L -66.7274,-96.0305 L -66.8237,-95.9064 L -66.9276,-95.7886 L -67.0386,-95.6776 L -67.1564,-95.5737
 L -67.2805,-95.4774 L -67.4104,-95.3892 L -67.5456,-95.3092 L -67.6855,-95.2379 L -67.8297,-95.1756 L -67.9774,-95.1224
 L -68.1283,-95.0785 L -68.2815,-95.0443 L -68.4367,-95.0197 L -68.593,-95.0049 z
M -31.25,-95 L -31.407,-95.0049 L -31.5633,-95.0197 L -31.7184,-95.0443 L -31.8717,-95.0785 L -32.0225,-95.1224
 L -32.1703,-95.1756 L -32.3144,-95.2379 L -32.4544,-95.3092 L -32.5896,-95.3892 L -32.7195,-95.4774 L -32.8436,-95.5737
 L -32.9614,-95.6776 L -33.0724,-95.7886 L -33.1763,-95.9064 L -33.2725,-96.0305 L -33.3608,-96.1604 L -33.4408,-96.2956
 L -33.5121,-96.4355 L -33.5744,-96.5797 L -33.6276,-96.7274 L -33.6714,-96.8783 L -33.7057,-97.0315 L -33.7303,-97.1867
 L -33.7451,-97.343 L -33.75,-97.5 L -33.7451,-97.657 L -33.7303,-97.8133 L -33.7057,-97.9684 L -33.6714,-98.1217
 L -33.6276,-98.2725 L -33.5744,-98.4203 L -33.5121,-98.5644 L -33.4408,-98.7044 L -33.3608,-98.8396 L -33.2725,-98.9695
 L -33.1763,-99.0936 L -33.0724,-99.2114 L -32.9614,-99.3224 L -32.8436,-99.4263 L -32.7195,-99.5225 L -32.5896,-99.6108
 L -32.4544,-99.6908 L -32.3144,-99.7621 L -32.1703,-99.8244 L -32.0225,-99.8776 L -31.8717,-99.9214 L -31.7184,-99.9557
 L -31.5633,-99.9803 L -31.407,-99.9951 L -31.25,-100 L -31.093,-99.9951 L -30.9367,-99.9803 L -30.7815,-99.9557
 L -30.6283,-99.9214 L -30.4774,-99.8776 L -30.3297,-99.8244 L -30.1855,-99.7621 L -30.0456,-99.6908 L -29.9104,-99.6108
 L -29.7805,-99.5225 L -29.6564,-99.4263 L -29.5386,-99.3224 L -29.4276,-99.2114 L -29.3237,-99.0936 L -29.2274,-98.9695
 L -29.1392,-98.8396 L -29.0592,-98.7044 L -28.9879,-98.5644 L -28.9256,-98.4203 L -28.8723,-98.2725 L -28.8285,-98.1217
 L -28.7943,-97.9684 L -28.7697,-97.8133 L -28.7549,-97.657 L -28.75,-97.5 L -28.7549,-97.343 L -28.7697,-97.1867
 L -28.7943,-97.0315 L -28.8285,-96.8783 L -28.8723,-96.7274 L -28.9256,-96.5797 L -28.9879,-96.4355 L -29.0592,-96.2956
 L -29.1392,-96.1604 L -29.2274,-96.0305 L -29.3237,-95.9064 L -29.4276,-95.7886 L -29.5386,-95.6776 L -29.6564,-95.5737
 L -29.7805,-95.4774 L -29.9104,-95.3892 L -30.0456,-95.3092 L -30.1855,-95.2379 L -30.3297,-95.1756 L -30.4774,-95.1224
 L -30.6283,-95.0785 L -30.7815,-95.0443 L -30.9367,-95.0197 L -31.093,-95.0049 z
M -46.157,-17.7549 L -46.3133,-17.7697 L -46.4684,-17.7943 L -46.6217,-17.8285 L -46.7725,-17.8723 L -46.9203,-17.9256
 L -47.0644,-17.9879 L -47.2044,-18.0592 L -47.3396,-18.1392 L -47.4695,-18.2274 L -47.5936,-18.3237 L -47.7114,-18.4276
 L -47.8224,-18.5386 L -47.9263,-18.6564 L -48.0225,-18.7805 L -48.1108,-18.9104 L -48.1908,-19.0456 L -48.2621,-19.1855
 L -48.3244,-19.3297 L -48.3776,-19.4774 L -48.4214,-19.6283 L -48.4557,-19.7815 L -48.4803,-19.9367 L -48.4951,-20.093
 L -48.5,-20.25 L -48.4951,-20.407 L -48.4803,-20.5633 L -48.4557,-20.7184 L -48.4214,-20.8717 L -48.3776,-21.0225
 L -48.3244,-21.1703 L -48.2621,-21.3144 L -48.1908,-21.4544 L -48.1108,-21.5896 L -48.0225,-21.7195 L -47.9263,-21.8436
 L -47.8224,-21.9614 L -47.7114,-22.0724 L -47.5936,-22.1763 L -47.4695,-22.2725 L -47.3396,-22.3608 L -47.2044,-22.4408
 L -47.0644,-22.5121 L -46.9203,-22.5744 L -46.7725,-22.6276 L -46.6217,-22.6714 L -46.4684,-22.7057 L -46.3133,-22.7303
 L -46.157,-22.7451 L -46,-22.75 L -45.843,-22.7451 L -45.6867,-22.7303 L -45.5315,-22.7057 L -45.3783,-22.6714
 L -45.2274,-22.6276 L -45.0797,-22.5744 L -44.9355,-22.5121 L -44.7956,-22.4408 L -44.6604,-22.3608 L -44.5305,-22.2725
 L -44.4064,-22.1763 L -44.2886,-22.0724 L -44.1776,-21.9614 L -44.0737,-21.8436 L -43.9774,-21.7195 L -43.8892,-21.5896
 L -43.8092,-21.4544 L -43.7379,-21.3144 L -43.6756,-21.1703 L -43.6223,-21.0225 L -43.5785,-20.8717 L -43.5443,-20.7184
 L -43.5197,-20.5633 L -43.5049,-20.407 L -43.5,-20.25 L -43.5049,-20.093 L -43.5197,-19.9367 L -43.5443,-19.7815
 L -43.5785,-19.6283 L -43.6223,-19.4774 L -43.6756,-19.3297 L -43.7379,-19.1855 L -43.8092,-19.0456 L -43.8892,-18.9104
 L -43.9774,-18.7805 L -44.0737,-18.6564 L -44.1776,-18.5386 L -44.2886,-18.4276 L -44.4064,-18.3237 L -44.5305,-18.2274
 L -44.6604,-18.1392 L -44.7956,-18.0592 L -44.9355,-17.9879 L -45.0797,-17.9256 L -45.2274,-17.8723 L -45.3783,-17.8285
 L -45.5315,-17.7943 L -45.6867,-17.7697 L -45.843,-17.7549 L -46,-17.75 z
M -14.157,-17.7549 L -14.3133,-17.7697 L -14.4684,-17.7943 L -14.6217,-17.8285 L -14.7725,-17.8723 L -14.9203,-17.9256
 L -15.0644,-17.9879 L -15.2044,-18.0592 L -15.3396,-18.1392 L -15.4695,-18.2274 L -15.5936,-18.3237 L -15.7114,-18.4276
 L -15.8224,-18.5386 L -15.9263,-18.6564 L -16.0225,-18.7805 L -16.1108,-18.9104 L -16.1908,-19.0456 L -16.2621,-19.1855
 L -16.3244,-19.3297 L -16.3776,-19.4774 L -16.4214,-19.6283 L -16.4557,-19.7815 L -16.4803,-19.9367 L -16.4951,-20.093
 L -16.5,-20.25 L -16.4951,-20.407 L -16.4803,-20.5633 L -16.4557,-20.7184 L -16.4214,-20.8717 L -16.3776,-21.0225
 L -16.3244,-21.1703 L -16.2621,-21.3144 L -16.1908,-21.4544 L -16.1108,-21.5896 L -16.0225,-21.7195 L -15.9263,-21.8436
 L -15.8224,-21.9614 L -15.7114,-22.0724 L -15.5936,-22.1763 L -15.4695,-22.2725 L -15.3396,-22.3608 L -15.2044,-22.4408
 L -15.0644,-22.5121 L -14.9203,-22.5744 L -14.7725,-22.6276 L -14.6217,-22.6714 L -14.4684,-22.7057 L -14.3133,-22.7303
 L -14.157,-22.7451 L -14,-22.75 L -13.843,-22.7451 L -13.6867,-22.7303 L -13.5315,-22.7057 L -13.3783,-22.6714
 L -13.2274,-22.6276 L -13.0797,-22.5744 L -12.9355,-22.5121 L -12.7956,-22.4408 L -12.6604,-22.3608 L -12.5305,-22.2725
 L -12.4064,-22.1763 L -12.2886,-22.0724 L -12.1776,-21.9614 L -12.0737,-21.8436 L -11.9774,-21.7195 L -11.8892,-21.5896
 L -11.8092,-21.4544 L -11.7379,-21.3144 L -11.6756,-21.1703 L -11.6223,-21.0225 L -11.5785,-20.8717 L -11.5443,-20.7184
 L -11.5197,-20.5633 L -11.5049,-20.407 L -11.5,-20.25 L -11.5049,-20.093 L -11.5197,-19.9367 L -11.5443,-19.7815
 L -11.5785,-19.6283 L -11.6223,-19.4774 L -11.6756,-19.3297 L -11.7379,-19.1855 L -11.8092,-19.0456 L -11.8892,-18.9104
 L -11.9774,-18.7805 L -12.0737,-18.6564 L -12.1776,-18.5386 L -12.2886,-18.4276 L -12.4064,-18.3237 L -12.5305,-18.2274
 L -12.6604,-18.1392 L -12.7956,-18.0592 L -12.9355,-17.9879 L -13.0797,-17.9256 L -13.2274,-17.8723 L -13.3783,-17.8285
 L -13.5315,-17.7943 L -13.6867,-17.7697 L -13.843,-17.7549 L -14,-17.75 z
M -27.157,-7.50493 L -27.3133,-7.5197 L -27.4684,-7.54428 L -27.6217,-7.57854 L -27.7725,-7.62234 L -27.9203,-7.67555
 L -28.0644,-7.73793 L -28.2044,-7.80922 L -28.3396,-7.88918 L -28.4695,-7.97745 L -28.5936,-8.07372 L -28.7114,-8.17757
 L -28.8224,-8.28862 L -28.9263,-8.40643 L -29.0225,-8.53053 L -29.1108,-8.66043 L -29.1908,-8.79561 L -29.2621,-8.93555
 L -29.3244,-9.07968 L -29.3776,-9.22745 L -29.4214,-9.37827 L -29.4557,-9.53154 L -29.4803,-9.68666 L -29.4951,-9.84302
 L -29.5,-10 L -29.4951,-10.157 L -29.4803,-10.3133 L -29.4557,-10.4684 L -29.4214,-10.6217 L -29.3776,-10.7725
 L -29.3244,-10.9203 L -29.2621,-11.0644 L -29.1908,-11.2044 L -29.1108,-11.3396 L -29.0225,-11.4695 L -28.9263,-11.5936
 L -28.8224,-11.7114 L -28.7114,-11.8224 L -28.5936,-11.9263 L -28.4695,-12.0225 L -28.3396,-12.1108 L -28.2044,-12.1908
 L -28.0644,-12.2621 L -27.9203,-12.3244 L -27.7725,-12.3776 L -27.6217,-12.4214 L -27.4684,-12.4557 L -27.3133,-12.4803
 L -27.157,-12.4951 L -27,-12.5 L -26.843,-12.4951 L -26.6867,-12.4803 L -26.5315,-12.4557 L -26.3783,-12.4214
 L -26.2274,-12.3776 L -26.0797,-12.3244 L -25.9355,-12.2621 L -25.7956,-12.1908 L -25.6604,-12.1108 L -25.5305,-12.0225
 L -25.4064,-11.9263 L -25.2886,-11.8224 L -25.1776,-11.7114 L -25.0737,-11.5936 L -24.9774,-11.4695 L -24.8892,-11.3396
 L -24.8092,-11.2044 L -24.7379,-11.0644 L -24.6756,-10.9203 L -24.6223,-10.7725 L -24.5785,-10.6217 L -24.5443,-10.4684
 L -24.5197,-10.3133 L -24.5049,-10.157 L -24.5,-10 L -24.5049,-9.84302 L -24.5197,-9.68666 L -24.5443,-9.53154
 L -24.5785,-9.37827 L -24.6223,-9.22745 L -24.6756,-9.07968 L -24.7379,-8.93555 L -24.8092,-8.79561 L -24.8892,-8.66043
 L -24.9774,-8.53053 L -25.0737,-8.40643 L -25.1776,-8.28862 L -25.2886,-8.17757 L -25.4064,-8.07372 L -25.5305,-7.97745
 L -25.6604,-7.88918 L -25.7956,-7.80922 L -25.9355,-7.73793 L -26.0797,-7.67555 L -26.2274,-7.62234 L -26.3783,-7.57854
 L -26.5315,-7.54428 L -26.6867,-7.5197 L -26.843,-7.50493 L -27,-7.5 z
M -27.157,2.49506 L -27.3133,2.48029 L -27.4684,2.4557 L -27.6217,2.42145 L -27.7725,2.37764 L -27.9203,2.32443
 L -28.0644,2.26205 L -28.2044,2.19077 L -28.3396,2.11081 L -28.4695,2.02254 L -28.5936,1.92627 L -28.7114,1.82242
 L -28.8224,1.71136 L -28.9263,1.59355 L -29.0225,1.46945 L -29.1108,1.33955 L -29.1908,1.20438 L -29.2621,1.06444
 L -29.3244,0.920303 L -29.3776,0.772537 L -29.4214,0.621719 L -29.4557,0.468445 L -29.4803,0.313324 L -29.4951,0.156967
 L -29.5,-0 L -29.4951,-0.156967 L -29.4803,-0.313324 L -29.4557,-0.468445 L -29.4214,-0.621719 L -29.3776,-0.772537
 L -29.3244,-0.920303 L -29.2621,-1.06444 L -29.1908,-1.20438 L -29.1108,-1.33955 L -29.0225,-1.46945 L -28.9263,-1.59355
 L -28.8224,-1.71136 L -28.7114,-1.82242 L -28.5936,-1.92627 L -28.4695,-2.02254 L -28.3396,-2.11081 L -28.2044,-2.19077
 L -28.0644,-2.26205 L -27.9203,-2.32443 L -27.7725,-2.37764 L -27.6217,-2.42145 L -27.4684,-2.4557 L -27.3133,-2.48029
 L -27.157,-2.49506 L -27,-2.5 L -26.843,-2.49506 L -26.6867,-2.48029 L -26.5315,-2.4557 L -26.3783,-2.42145
 L -26.2274,-2.37764 L -26.0797,-2.32443 L -25.9355,-2.26205 L -25.7956,-2.19077 L -25.6604,-2.11081 L -25.5305,-2.02254
 L -25.4064,-1.92627 L -25.2886,-1.82242 L -25.1776,-1.71136 L -25.0737,-1.59355 L -24.9774,-1.46945 L -24.8892,-1.33955
 L -24.8092,-1.20438 L -24.7379,-1.06444 L -24.6756,-0.920303 L -24.6223,-0.772537 L -24.5785,-0.621719 L -24.5443,-0.468445
 L -24.5197,-0.313324 L -24.5049,-0.156967 L -24.5,-0 L -24.5049,0.156967 L -24.5197,0.313324 L -24.5443,0.468445
 L -24.5785,0.621719 L -24.6223,0.772537 L -24.6756,0.920303 L -24.7379,1.06444 L -24.8092,1.20438 L -24.8892,1.33955
 L -24.9774,1.46945 L -25.0737,1.59355 L -25.1776,1.71136 L -25.2886,1.82242 L -25.4064,1.92627 L -25.5305,2.02254
 L -25.6604,2.11081 L -25.7956,2.19077 L -25.9355,2.26205 L -26.0797,2.32443 L -26.2274,2.37764 L -26.3783,2.42145
 L -26.5315,2.4557 L -26.6867,2.48029 L -26.843,2.49506 L -27,2.5 z
M -27.157,12.4951 L -27.3133,12.4803 L -27.4684,12.4557 L -27.6217,12.4214 L -27.7725,12.3776 L -27.9203,12.3244
 L -28.0644,12.2621 L -28.2044,12.1908 L -28.3396,12.1108 L -28.4695,12.0225 L -28.5936,11.9263 L -28.7114,11.8224
 L -28.8224,11.7114 L -28.9263,11.5936 L -29.0225,11.4695 L -29.1108,11.3396 L -29.1908,11.2044 L -29.2621,11.0644
 L -29.3244,10.9203 L -29.3776,10.7725 L -29.4214,10.6217 L -29.4557,10.4684 L -29.4803,10.3133 L -29.4951,10.157
 L -29.5,10 L -29.4951,9.84302 L -29.4803,9.68666 L -29.4557,9.53154 L -29.4214,9.37827 L -29.3776,9.22745
 L -29.3244,9.07968 L -29.2621,8.93555 L -29.1908,8.79561 L -29.1108,8.66043 L -29.0225,8.53053 L -28.9263,8.40643
 L -28.8224,8.28862 L -28.7114,8.17757 L -28.5936,8.07372 L -28.4695,7.97745 L -28.3396,7.88918 L -28.2044,7.80922
 L -28.0644,7.73793 L -27.9203,7.67555 L -27.7725,7.62234 L -27.6217,7.57854 L -27.4684,7.54428 L -27.3133,7.5197
 L -27.157,7.50493 L -27,7.5 L -26.843,7.50493 L -26.6867,7.5197 L -26.5315,7.54428 L -26.3783,7.57854
 L -26.2274,7.62234 L -26.0797,7.67555 L -25.9355,7.73793 L -25.7956,7.80922 L -25.6604,7.88918 L -25.5305,7.97745
 L -25.4064,8.07372 L -25.2886,8.17757 L -25.1776,8.28862 L -25.0737,8.40643 L -24.9774,8.53053 L -24.8892,8.66043
 L -24.8092,8.79561 L -24.7379,8.93555 L -24.6756,9.07968 L -24.6223,9.22745 L -24.5785,9.37827 L -24.5443,9.53154
 L -24.5197,9.68666 L -24.5049,9.84302 L -24.5,10 L -24.5049,10.157 L -24.5197,10.3133 L -24.5443,10.4684
 L -24.5785,10.6217 L -24.6223,10.7725 L -24.6756,10.9203 L -24.7379,11.0644 L -24.8092,11.2044 L -24.8892,11.3396
 L -24.9774,11.4695 L -25.0737,11.5936 L -25.1776,11.7114 L -25.2886,11.8224 L -25.4064,11.9263 L -25.5305,12.0225
 L -25.6604,12.1108 L -25.7956,12.1908 L -25.9355,12.2621 L -26.0797,12.3244 L -26.2274,12.3776 L -26.3783,12.4214
 L -26.5315,12.4557 L -26.6867,12.4803 L -26.843,12.4951 L -27,12.5 z
M -46.157,22.7451 L -46.3133,22.7303 L -46.4684,22.7057 L -46.6217,22.6714 L -46.7725,22.6276 L -46.9203,22.5744
 L -47.0644,22.5121 L -47.2044,22.4408 L -47.3396,22.3608 L -47.4695,22.2725 L -47.5936,22.1763 L -47.7114,22.0724
 L -47.8224,21.9614 L -47.9263,21.8436 L -48.0225,21.7195 L -48.1108,21.5896 L -48.1908,21.4544 L -48.2621,21.3144
 L -48.3244,21.1703 L -48.3776,21.0225 L -48.4214,20.8717 L -48.4557,20.7184 L -48.4803,20.5633 L -48.4951,20.407
 L -48.5,20.25 L -48.4951,20.093 L -48.4803,19.9367 L -48.4557,19.7815 L -48.4214,19.6283 L -48.3776,19.4774
 L -48.3244,19.3297 L -48.2621,19.1855 L -48.1908,19.0456 L -48.1108,18.9104 L -48.0225,18.7805 L -47.9263,18.6564
 L -47.8224,18.5386 L -47.7114,18.4276 L -47.5936,18.3237 L -47.4695,18.2274 L -47.3396,18.1392 L -47.2044,18.0592
 L -47.0644,17.9879 L -46.9203,17.9256 L -46.7725,17.8723 L -46.6217,17.8285 L -46.4684,17.7943 L -46.3133,17.7697
 L -46.157,17.7549 L -46,17.75 L -45.843,17.7549 L -45.6867,17.7697 L -45.5315,17.7943 L -45.3783,17.8285
 L -45.2274,17.8723 L -45.0797,17.9256 L -44.9355,17.9879 L -44.7956,18.0592 L -44.6604,18.1392 L -44.5305,18.2274
 L -44.4064,18.3237 L -44.2886,18.4276 L -44.1776,18.5386 L -44.0737,18.6564 L -43.9774,18.7805 L -43.8892,18.9104
 L -43.8092,19.0456 L -43.7379,19.1855 L -43.6756,19.3297 L -43.6223,19.4774 L -43.5785,19.6283 L -43.5443,19.7815
 L -43.5197,19.9367 L -43.5049,20.093 L -43.5,20.25 L -43.5049,20.407 L -43.5197,20.5633 L -43.5443,20.7184
 L -43.5785,20.8717 L -43.6223,21.0225 L -43.6756,21.1703 L -43.7379,21.3144 L -43.8092,21.4544 L -43.8892,21.5896
 L -43.9774,21.7195 L -44.0737,21.8436 L -44.1776,21.9614 L -44.2886,22.0724 L -44.4064,22.1763 L -44.5305,22.2725
 L -44.6604,22.3608 L -44.7956,22.4408 L -44.9355,22.5121 L -45.0797,22.5744 L -45.2274,22.6276 L -45.3783,22.6714
 L -45.5315,22.7057 L -45.6867,22.7303 L -45.843,22.7451 L -46,22.75 z
M -14.157,22.7451 L -14.3133,22.7303 L -14.4684,22.7057 L -14.6217,22.6714 L -14.7725,22.6276 L -14.9203,22.5744
 L -15.0644,22.5121 L -15.2044,22.4408 L -15.3396,22.3608 L -15.4695,22.2725 L -15.5936,22.1763 L -15.7114,22.0724
 L -15.8224,21.9614 L -15.9263,21.8436 L -16.0225,21.7195 L -16.1108,21.5896 L -16.1908,21.4544 L -16.2621,21.3144
 L -16.3244,21.1703 L -16.3776,21.0225 L -16.4214,20.8717 L -16.4557,20.7184 L -16.4803,20.5633 L -16.4951,20.407
 L -16.5,20.25 L -16.4951,20.093 L -16.4803,19.9367 L -16.4557,19.7815 L -16.4214,19.6283 L -16.3776,19.4774
 L -16.3244,19.3297 L -16.2621,19.1855 L -16.1908,19.0456 L -16.1108,18.9104 L -16.0225,18.7805 L -15.9263,18.6564
 L -15.8224,18.5386 L -15.7114,18.4276 L -15.5936,18.3237 L -15.4695,18.2274 L -15.3396,18.1392 L -15.2044,18.0592
 L -15.0644,17.9879 L -14.9203,17.9256 L -14.7725,17.8723 L -14.6217,17.8285 L -14.4684,17.7943 L -14.3133,17.7697
 L -14.157,17.7549 L -14,17.75 L -13.843,17.7549 L -13.6867,17.7697 L -13.5315,17.7943 L -13.3783,17.8285
 L -13.2274,17.8723 L -13.0797,17.9256 L -12.9355,17.9879 L -12.7956,18.0592 L -12.6604,18.1392 L -12.5305,18.2274
 L -12.4064,18.3237 L -12.2886,18.4276 L -12.1776,18.5386 L -12.0737,18.6564 L -11.9774,18.7805 L -11.8892,18.9104
 L -11.8092,19.0456 L -11.7379,19.1855 L -11.6756,19.3297 L -11.6223,19.4774 L -11.5785,19.6283 L -11.5443,19.7815
 L -11.5197,19.9367 L -11.5049,20.093 L -11.5,20.25 L -11.5049,20.407 L -11.5197,20.5633 L -11.5443,20.7184
 L -11.5785,20.8717 L -11.6223,21.0225 L -11.6756,21.1703 L -11.7379,21.3144 L -11.8092,21.4544 L -11.8892,21.5896
 L -11.9774,21.7195 L -12.0737,21.8436 L -12.1776,21.9614 L -12.2886,22.0724 L -12.4064,22.1763 L -12.5305,22.2725
 L -12.6604,22.3608 L -12.7956,22.4408 L -12.9355,22.5121 L -13.0797,22.5744 L -13.2274,22.6276 L -13.3783,22.6714
 L -13.5315,22.7057 L -13.6867,22.7303 L -13.843,22.7451 L -14,22.75 z
M -68.75,100 L -68.907,99.9951 L -69.0633,99.9803 L -69.2184,99.9557 L -69.3717,99.9214 L -69.5225,99.8776
 L -69.6703,99.8244 L -69.8144,99.7621 L -69.9544,99.6908 L -70.0896,99.6108 L -70.2195,99.5225 L -70.3436,99.4263
 L -70.4614,99.3224 L -70.5724,99.2114 L -70.6763,99.0936 L -70.7725,98.9695 L -70.8608,98.8396 L -70.9408,98.7044
 L -71.0121,98.5644 L -71.0744,98.4203 L -71.1276,98.2725 L -71.1714,98.1217 L -71.2057,97.9684 L -71.2303,97.8133
 L -71.2451,97.657 L -71.25,97.5 L -71.2451,97.343 L -71.2303,97.1867 L -71.2057,97.0315 L -71.1714,96.8783
 L -71.1276,96.7274 L -71.0744,96.5797 L -71.0121,96.4355 L -70.9408,96.2956 L -70.8608,96.1604 L -70.7725,96.0305
 L -70.6763,95.9064 L -70.5724,95.7886 L -70.4614,95.6776 L -70.3436,95.5737 L -70.2195,95.4774 L -70.0896,95.3892
 L -69.9544,95.3092 L -69.8144,95.2379 L -69.6703,95.1756 L -69.5225,95.1224 L -69.3717,95.0785 L -69.2184,95.0443
 L -69.0633,95.0197 L -68.907,95.0049 L -68.75,95 L -68.593,95.0049 L -68.4367,95.0197 L -68.2815,95.0443
 L -68.1283,95.0785 L -67.9774,95.1224 L -67.8297,95.1756 L -67.6855,95.2379 L -67.5456,95.3092 L -67.4104,95.3892
 L -67.2805,95.4774 L -67.1564,95.5737 L -67.0386,95.6776 L -66.9276,95.7886 L -66.8237,95.9064 L -66.7274,96.0305
 L -66.6392,96.1604 L -66.5592,96.2956 L -66.4879,96.4355 L -66.4256,96.5797 L -66.3724,96.7274 L -66.3285,96.8783
 L -66.2943,97.0315 L -66.2697,97.1867 L -66.2549,97.343 L -66.25,97.5 L -66.2549,97.657 L -66.2697,97.8133
 L -66.2943,97.9684 L -66.3285,98.1217 L -66.3724,98.2725 L -66.4256,98.4203 L -66.4879,98.5644 L -66.5592,98.7044
 L -66.6392,98.8396 L -66.7274,98.9695 L -66.8237,99.0936 L -66.9276,99.2114 L -67.0386,99.3224 L -67.1564,99.4263
 L -67.2805,99.5225 L -67.4104,99.6108 L -67.5456,99.6908 L -67.6855,99.7621 L -67.8297,99.8244 L -67.9774,99.8776
 L -68.1283,99.9214 L -68.2815,99.9557 L -68.4367,99.9803 L -68.593,99.9951 z
M -31.25,100 L -31.407,99.9951 L -31.5633,99.9803 L -31.7184,99.9557 L -31.8717,99.9214 L -32.0225,99.8776
 L -32.1703,99.8244 L -32.3144,99.7621 L -32.4544,99.6908 L -32.5896,99.6108 L -32.7195,99.5225 L -32.8436,99.4263
 L -32.9614,99.3224 L -33.0724,99.2114 L -33.1763,99.0936 L -33.2725,98.9695 L -33.3608,98.8396 L -33.4408,98.7044
 L -33.5121,98.5644 L -33.5744,98.4203 L -33.6276,98.2725 L -33.6714,98.1217 L -33.7057,97.9684 L -33.7303,97.8133
 L -33.7451,97.657 L -33.75,97.5 L -33.7451,97.343 L -33.7303,97.1867 L -33.7057,97.0315 L -33.6714,96.8783
 L -33.6276,96.7274 L -33.5744,96.5797 L -33.5121,96.4355 L -33.4408,96.2956 L -33.3608,96.1604 L -33.2725,96.0305
 L -33.1763,95.9064 L -33.0724,95.7886 L -32.9614,95.6776 L -32.8436,95.5737 L -32.7195,95.4774 L -32.5896,95.3892
 L -32.4544,95.3092 L -32.3144,95.2379 L -32.1703,95.1756 L -32.0225,95.1224 L -31.8717,95.0785 L -31.7184,95.0443
 L -31.5633,95.0197 L -31.407,95.0049 L -31.25,95 L -31.093,95.0049 L -30.9367,95.0197 L -30.7815,95.0443
 L -30.6283,95.0785 L -30.4774,95.1224 L -30.3297,95.1756 L -30.1855,95.2379 L -30.0456,95.3092 L -29.9104,95.3892
 L -29.7805,95.4774 L -29.6564,95.5737 L -29.5386,95.6776 L -29.4276,95.7886 L -29.3237,95.9064 L -29.2274,96.0305
 L -29.1392,96.1604 L -29.0592,96.2956 L -28.9879,96.4355 L -28.9256,96.5797 L -28.8723,96.7274 L -28.8285,96.8783
 L -28.7943,97.0315 L -28.7697,97.1867 L -28.7549,97.343 L -28.75,97.5 L -28.7549,97.657 L -28.7697,97.8133
 L -28.7943,97.9684 L -28.8285,98.1217 L -28.8723,98.2725 L -28.9256,98.4203 L -28.9879,98.5644 L -29.0592,98.7044
 L -29.1392,98.8396 L -29.2274,98.9695 L -29.3237,99.0936 L -29.4276,99.2114 L -29.5386,99.3224 L -29.6564,99.4263
 L -29.7805,99.5225 L -29.9104,99.6108 L -30.0456,99.6908 L -30.1855,99.7621 L -30.3297,99.8244 L -30.4774,99.8776
 L -30.6283,99.9214 L -30.7815,99.9557 L -30.9367,99.9803 L -31.093,99.9951 z
" stroke="black" fill="lightgray" stroke-width="0.5"/></svg>
