<?xml version="1.0" standalone="no"?>
<!DOCTYPE svg PUBLIC "-//W3C//DTD SVG 1.1//EN" "http://www.w3.org/Graphics/SVG/1.1/DTD/svg11.dtd">
<svg width="80mm" height="220mm" viewBox="-80 -110 80 220" xmlns="http://www.w3.org/2000/svg" version="1.1">
<title>OpenSCAD Model</title>
<path d="
M -20.01,89.99 L 0,89.99 L 0,-89.99 L -20.01,-89.99 L -20.01,-110 L -80,-110
 L -80,110 L -20.01,110 z
M -68.75,-92.5 L -68.907,-92.5049 L -69.0633,-92.5197 L -69.2184,-92.5443 L -69.3717,-92.5785 L -69.5225,-92.6224
 L -69.6703,-92.6756 L -69.8144,-92.7379 L -69.9544,-92.8092 L -70.0896,-92.8892 L -70.2195,-92.9774 L -70.3436,-93.0737
 L -70.4614,-93.1776 L -70.5724,-93.2886 L -70.6763,-93.4064 L -70.7725,-93.5305 L -70.8608,-93.6604 L -70.9408,-93.7956
 L -71.0121,-93.9355 L -71.0744,-94.0797 L -71.1276,-94.2274 L -71.1714,-94.3783 L -71.2057,-94.5315 L -71.2303,-94.6867
 L -71.2451,-94.843 L -71.25,-95 L -71.2451,-95.157 L -71.2303,-95.3133 L -71.2057,-95.4684 L -71.1714,-95.6217
 L -71.1276,-95.7725 L -71.0744,-95.9203 L -71.0121,-96.0644 L -70.9408,-96.2044 L -70.8608,-96.3396 L -70.7725,-96.4695
 L -70.6763,-96.5936 L -70.5724,-96.7114 L -70.4614,-96.8224 L -70.3436,-96.9263 L -70.2195,-97.0225 L -70.0896,-97.1108
 L -69.9544,-97.1908 L -69.8144,-97.2621 L -69.6703,-97.3244 L -69.5225,-97.3776 L -69.3717,-97.4214 L -69.2184,-97.4557
 L -69.0633,-97.4803 L -68.907,-97.4951 L -68.75,-97.5 L -68.593,-97.4951 L -68.4367,-97.4803 L -68.2815,-97.4557
 L -68.1283,-97.4214 L -67.9774,-97.3776 L -67.8297,-97.3244 L -67.6855,-97.2621 L -67.5456,-97.1908 L -67.4104,-97.1108
 L -67.2805,-97.0225 L -67.1564,-96.9263 L -67.0386,-96.8224 L -66.9276,-96.7114 L -66.8237,-96.5936 L -66.7274,-96.4695
 L -66.6392,-96.3396 L -66.5592,-96.2044 L -66.4879,-96.0644 L -66.4256,-95.9203 L -66.3724,-95.7725 L -66.3285,-95.6217
 L -66.2943,-95.4684 L -66.2697,-95.3133 L -66.2549,-95.157 L -66.25,-95 L -66.2549,-94.843 L -66.2697,-94.6867
 L -66.2943,-94.5315 L -66.3285,-94.3783 L -66.3724,-94.2274 L -66.4256,-94.0797 L -66.4879,-93.9355 L -66.5592,-93.7956
 L -66.6392,-93.6604 L -66.7274,-93.5305 L -66.8237,-93.4064 L -66.9276,-93.2886 L -67.0386,-93.1776 L -67.1564,-93.0737
 L -67.2805,-92.9774 L -67.4104,-92.8892 L -67.5456,-92.8092 L -67.6855,-92.7379 L -67.8297,-92.6756 L -67.9774,-92.6224
 L -68.1283,-92.5785 L -68.2815,-92.5443 L -68.4367,-92.5197 L -68.593,-92.5049 z
M -30,-74 L -30.2198,-74.0069 L -30.4387,-74.0276 L -30.6558,-74.062 L -30.8704,-74.11 L -31.0816,-74.1713
 L -31.2884,-74.2458 L -31.4902,-74.3331 L -31.6861,-74.4329 L -31.8754,-74.5448 L -32.0572,-74.6684 L -32.231,-74.8032
 L -32.3959,-74.9486 L -32.5514,-75.1041 L -32.6968,-75.269 L -32.8316,-75.4427 L -32.9551,-75.6246 L -33.0671,-75.8139
 L -33.1669,-76.0098 L -33.2542,-76.2116 L -33.3287,-76.4184 L -33.39,-76.6296 L -33.438,-76.8442 L -33.4724,-77.0613
 L -33.4931,-77.2802 L -33.5,-77.5 L -33.4931,-77.7198 L -33.4724,-77.9387 L -33.438,-78.1558 L -33.39,-78.3704
 L -33.3287,-78.5816 L -33.2542,-78.7884 L -33.1669,-78.9902 L -33.0671,-79.1861 L -32.9551,-79.3754 L -32.8316,-79.5573
 L -32.6968,-79.731 L -32.5514,-79.8959 L -32.3959,-80.0514 L -32.231,-80.1968 L -32.0572,-80.3316 L -31.8754,-80.4551
 L -31.6861,-80.5671 L -31.4902,-80.6669 L -31.2884,-80.7542 L -31.0816,-80.8287 L -30.8704,-80.89 L -30.6558,-80.938
 L -30.4387,-80.9724 L -30.2198,-80.9931 L -30,-81 L -29.7802,-80.9931 L -29.5613,-80.9724 L -29.3442,-80.938
 L -29.1296,-80.89 L -28.9184,-80.8287 L -28.7116,-80.7542 L -28.5098,-80.6669 L -28.3139,-80.5671 L -28.1246,-80.4551
 L -27.9427,-80.3316 L -27.769,-80.1968 L -27.6041,-80.0514 L -27.4486,-79.8959 L -27.3032,-79.731 L -27.1684,-79.5573
 L -27.0448,-79.3754 L -26.9329,-79.1861 L -26.8331,-78.9902 L -26.7458,-78.7884 L -26.6713,-78.5816 L -26.61,-78.3704
 L -26.562,-78.1558 L -26.5276,-77.9387 L -26.5069,-77.7198 L -26.5,-77.5 L -26.5069,-77.2802 L -26.5276,-77.0613
 L -26.562,-76.8442 L -26.61,-76.6296 L -26.6713,-76.4184 L -26.7458,-76.2116 L -26.8331,-76.0098 L -26.9329,-75.8139
 L -27.0448,-75.6246 L -27.1684,-75.4427 L -27.3032,-75.269 L -27.4486,-75.1041 L -27.6041,-74.9486 L -27.769,-74.8032
 L -27.9427,-74.6684 L -28.1246,-74.5448 L -28.3139,-74.4329 L -28.5098,-74.3331 L -28.7116,-74.2458 L -28.9184,-74.1713
 L -29.1296,-74.11 L -29.3442,-74.062 L -29.5613,-74.0276 L -29.7802,-74.0069 z
M -10,-69 L -10.2198,-69.0069 L -10.4387,-69.0276 L -10.6558,-69.062 L -10.8704,-69.11 L -11.0816,-69.1713
 L -11.2884,-69.2458 L -11.4902,-69.3331 L -11.6861,-69.4329 L -11.8754,-69.5448 L -12.0572,-69.6684 L -12.231,-69.8032
 L -12.3959,-69.9486 L -12.5514,-70.1041 L -12.6968,-70.269 L -12.8316,-70.4427 L -12.9551,-70.6246 L -13.0671,-70.8139
 L -13.1669,-71.0098 L -13.2542,-71.2116 L -13.3287,-71.4184 L -13.39,-71.6296 L -13.438,-71.8442 L -13.4724,-72.0613
 L -13.4931,-72.2802 L -13.5,-72.5 L -13.4931,-72.7198 L -13.4724,-72.9387 L -13.438,-73.1558 L -13.39,-73.3704
 L -13.3287,-73.5816 L -13.2542,-73.7884 L -13.1669,-73.9902 L -13.0671,-74.1861 L -12.9551,-74.3754 L -12.8316,-74.5573
 L -12.6968,-74.731 L -12.5514,-74.8959 L -12.3959,-75.0514 L -12.231,-75.1968 L -12.0572,-75.3316 L -11.8754,-75.4551
 L -11.6861,-75.5671 L -11.4902,-75.6669 L -11.2884,-75.7542 L -11.0816,-75.8287 L -10.8704,-75.89 L -10.6558,-75.938
 L -10.4387,-75.9724 L -10.2198,-75.9931 L -10,-76 L -9.78023,-75.9931 L -9.56133,-75.9724 L -9.34416,-75.938
 L -9.12958,-75.89 L -8.91843,-75.8287 L -8.71156,-75.7542 L -8.50977,-75.6669 L -8.31386,-75.5671 L -8.1246,-75.4551
 L -7.94275,-75.3316 L -7.76901,-75.1968 L -7.60408,-75.0514 L -7.44861,-74.8959 L -7.30319,-74.731 L -7.16843,-74.5573
 L -7.04485,-74.3754 L -6.93292,-74.1861 L -6.8331,-73.9902 L -6.74577,-73.7884 L -6.6713,-73.5816 L -6.60995,-73.3704
 L -6.56198,-73.1558 L -6.52759,-72.9387 L -6.5069,-72.7198 L -6.49998,-72.5 L -6.5069,-72.2802 L -6.52759,-72.0613
 L -6.56198,-71.8442 L -6.60995,-71.6296 L -6.6713,-71.4184 L -6.74577,-71.2116 L -6.8331,-71.0098 L -6.93292,-70.8139
 L -7.04485,-70.6246 L -7.16843,-70.4427 L -7.30319,-70.269 L -7.44861,-70.1041 L -7.60408,-69.9486 L -7.76901,-69.8032
 L -7.94275,-69.6684 L -8.1246,-69.5448 L -8.31386,-69.4329 L -8.50977,-69.3331 L -8.71156,-69.2458 L -8.91843,-69.1713
 L -9.12958,-69.11 L -9.34416,-69.062 L -9.56133,-69.0276 L -9.78023,-69.0069 z
M -10,76 L -10.2198,75.9931 L -10.4387,75.9724 L -10.6558,75.938 L -10.8704,75.89 L -11.0816,75.8287
 L -11.2884,75.7542 L -11.4902,75.6669 L -11.6861,75.5671 L -11.8754,75.4551 L -12.0572,75.3316 L -12.231,75.1968
 L -12.3959,75.0514 L -12.5514,74.8959 L -12.6968,74.731 L -12.8316,74.5573 L -12.9551,74.3754 L -13.0671,74.1861
 L -13.1669,73.9902 L -13.2542,73.7884 L -13.3287,73.5816 L -13.39,73.3704 L -13.438,73.1558 L -13.4724,72.9387
 L -13.4931,72.7198 L -13.5,72.5 L -13.4931,72.2802 L -13.4724,72.0613 L -13.438,71.8442 L -13.39,71.6296
 L -13.3287,71.4184 L -13.2542,71.2116 L -13.1669,71.0098 L -13.0671,70.8139 L -12.9551,70.6246 L -12.8316,70.4427
 L -12.6968,70.269 L -12.5514,70.1041 L -12.3959,69.9486 L -12.231,69.8032 L -12.0572,69.6684 L -11.8754,69.5448
 L -11.6861,69.4329 L -11.4902,69.3331 L -11.2884,69.2458 L -11.0816,69.1713 L -10.8704,69.11 L -10.6558,69.062
 L -10.4387,69.0276 L -10.2198,69.0069 L -10,69 L -9.78023,69.0069 L -9.56133,69.0276 L -9.34416,69.062
 L -9.12958,69.11 L -8.91843,69.1713 L -8.71156,69.2458 L -8.50977,69.3331 L -8.31386,69.4329 L -8.1246,69.5448
 L -7.94275,69.6684 L -7.76901,69.8032 L -7.60408,69.9486 L -7.44861,70.1041 L -7.30319,70.269 L -7.16843,70.4427
 L -7.04485,70.6246 L -6.93292,70.8139 L -6.8331,71.0098 L -6.74577,71.2116 L -6.6713,71.4184 L -6.60995,71.6296
 L -6.56198,71.8442 L -6.52759,72.0613 L -6.5069,72.2802 L -6.49998,72.5 L -6.5069,72.7198 L -6.52759,72.9387
 L -6.56198,73.1558 L -6.60995,73.3704 L -6.6713,73.5816 L -6.74577,73.7884 L -6.8331,73.9902 L -6.93292,74.1861
 L -7.04485,74.3754 L -7.16843,74.5573 L -7.30319,74.731 L -7.44861,74.8959 L -7.60408,75.0514 L -7.76901,75.1968
 L -7.94275,75.3316 L -8.1246,75.4551 L -8.31386,75.5671 L -8.50977,75.6669 L -8.71156,75.7542 L -8.91843,75.8287
 L -9.12958,75.89 L -9.34416,75.938 L -9.56133,75.9724 L -9.78023,75.9931 z
M -30,81 L -30.2198,80.9931 L -30.4387,80.9724 L -30.6558,80.938 L -30.8704,80.89 L -31.0816,80.8287
 L -31.2884,80.7542 L -31.4902,80.6669 L -31.6861,80.5671 L -31.8754,80.4551 L -32.0572,80.3316 L -32.231,80.1968
 L -32.3959,80.0514 L -32.5514,79.8959 L -32.6968,79.731 L -32.8316,79.5573 L -32.9551,79.3754 L -33.0671,79.1861
 L -33.1669,78.9902 L -33.2542,78.7884 L -33.3287,78.5816 L -33.39,78.3704 L -33.438,78.1558 L -33.4724,77.9387
 L -33.4931,77.7198 L -33.5,77.5 L -33.4931,77.2802 L -33.4724,77.0613 L -33.438,76.8442 L -33.39,76.6296
 L -33.3287,76.4184 L -33.2542,76.2116 L -33.1669,76.0098 L -33.0671,75.8139 L -32.9551,75.6246 L -32.8316,75.4427
 L -32.6968,75.269 L -32.5514,75.1041 L -32.3959,74.9486 L -32.231,74.8032 L -32.0572,74.6684 L -31.8754,74.5448
 L -31.6861,74.4329 L -31.4902,74.3331 L -31.2884,74.2458 L -31.0816,74.1713 L -30.8704,74.11 L -30.6558,74.062
 L -30.4387,74.0276 L -30.2198,74.0069 L -30,74 L -29.7802,74.0069 L -29.5613,74.0276 L -29.3442,74.062
 L -29.1296,74.11 L -28.9184,74.1713 L -28.7116,74.2458 L -28.5098,74.3331 L -28.3139,74.4329 L -28.1246,74.5448
 L -27.9427,74.6684 L -27.769,74.8032 L -27.6041,74.9486 L -27.4486,75.1041 L -27.3032,75.269 L -27.1684,75.4427
 L -27.0448,75.6246 L -26.9329,75.8139 L -26.8331,76.0098 L -26.7458,76.2116 L -26.6713,76.4184 L -26.61,76.6296
 L -26.562,76.8442 L -26.5276,77.0613 L -26.5069,77.2802 L -26.5,77.5 L -26.5069,77.7198 L -26.5276,77.9387
 L -26.562,78.1558 L -26.61,78.3704 L -26.6713,78.5816 L -26.7458,78.7884 L -26.8331,78.9902 L -26.9329,79.1861
 L -27.0448,79.3754 L -27.1684,79.5573 L -27.3032,79.731 L -27.4486,79.8959 L -27.6041,80.0514 L -27.769,80.1968
 L -27.9427,80.3316 L -28.1246,80.4551 L -28.3139,80.5671 L -28.5098,80.6669 L -28.7116,80.7542 L -28.9184,80.8287
 L -29.1296,80.89 L -29.3442,80.938 L -29.5613,80.9724 L -29.7802,80.9931 z
M -68.75,97.5 L -68.907,97.4951 L -69.0633,97.4803 L -69.2184,97.4557 L -69.3717,97.4214 L -69.5225,97.3776
 L -69.6703,97.3244 L -69.8144,97.2621 L -69.9544,97.1908 L -70.0896,97.1108 L -70.2195,97.0225 L -70.3436,96.9263
 L -70.4614,96.8224 L -70.5724,96.7114 L -70.6763,96.5936 L -70.7725,96.4695 L -70.8608,96.3396 L -70.9408,96.2044
 L -71.0121,96.0644 L -71.0744,95.9203 L -71.1276,95.7725 L -71.1714,95.6217 L -71.2057,95.4684 L -71.2303,95.3133
 L -71.2451,95.157 L -71.25,95 L -71.2451,94.843 L -71.2303,94.6867 L -71.2057,94.5315 L -71.1714,94.3783
 L -71.1276,94.2274 L -71.0744,94.0797 L -71.0121,93.9355 L -70.9408,93.7956 L -70.8608,93.6604 L -70.7725,93.5305
 L -70.6763,93.4064 L -70.5724,93.2886 L -70.4614,93.1776 L -70.3436,93.0737 L -70.2195,92.9774 L -70.0896,92.8892
 L -69.9544,92.8092 L -69.8144,92.7379 L -69.6703,92.6756 L -69.5225,92.6224 L -69.3717,92.5785 L -69.2184,92.5443
 L -69.0633,92.5197 L -68.907,92.5049 L -68.75,92.5 L -68.593,92.5049 L -68.4367,92.5197 L -68.2815,92.5443
 L -68.1283,92.5785 L -67.9774,92.6224 L -67.8297,92.6756 L -67.6855,92.7379 L -67.5456,92.8092 L -67.4104,92.8892
 L -67.2805,92.9774 L -67.1564,93.0737 L -67.0386,93.1776 L -66.9276,93.2886 L -66.8237,93.4064 L -66.7274,93.5305
 L -66.6392,93.6604 L -66.5592,93.7956 L -66.4879,93.9355 L -66.4256,94.0797 L -66.3724,94.2274 L -66.3285,94.3783
 L -66.2943,94.5315 L -66.2697,94.6867 L -66.2549,94.843 L -66.25,95 L -66.2549,95.157 L -66.2697,95.3133
 L -66.2943,95.4684 L -66.3285,95.6217 L -66.3724,95.7725 L -66.4256,95.9203 L -66.4879,96.0644 L -66.5592,96.2044
 L -66.6392,96.3396 L -66.7274,96.4695 L -66.8237,96.5936 L -66.9276,96.7114 L -67.0386,96.8224 L -67.1564,96.9263
 L -67.2805,97.0225 L -67.4104,97.1108 L -67.5456,97.1908 L -67.6855,97.2621 L -67.8297,97.3244 L -67.9774,97.3776
 L -68.1283,97.4214 L -68.2815,97.4557 L -68.4367,97.4803 L -68.593,97.4951 z
" stroke="black" fill="lightgray" stroke-width="0.5"/></svg>
