<?xml version="1.0" standalone="no"?>
<!DOCTYPE svg PUBLIC "-//W3C//DTD SVG 1.1//EN" "http://www.w3.org/Graphics/SVG/1.1/DTD/svg11.dtd">
<svg width="245mm" height="230mm" viewBox="-130 -115 245 230" xmlns="http://www.w3.org/2000/svg" version="1.1">
<title>OpenSCAD Model</title>
<path d="
M 115,-115 L -70,-115 L -70,-89.3898 L -109.39,-50 L -130,-50 L -130,50
 L -109.39,50 L -70,89.3898 L -70,115 L 115,115 z
M 99.7802,-96.5069 L 99.5613,-96.5276 L 99.3442,-96.562 L 99.1296,-96.61 L 98.9184,-96.6713 L 98.7116,-96.7458
 L 98.5098,-96.8331 L 98.3139,-96.9329 L 98.1246,-97.0448 L 97.9427,-97.1684 L 97.769,-97.3032 L 97.6041,-97.4486
 L 97.4486,-97.6041 L 97.3032,-97.769 L 97.1684,-97.9427 L 97.0448,-98.1246 L 96.9329,-98.3139 L 96.8331,-98.5098
 L 96.7458,-98.7116 L 96.6713,-98.9184 L 96.61,-99.1296 L 96.562,-99.3442 L 96.5276,-99.5613 L 96.5069,-99.7802
 L 96.5,-100 L 96.5069,-100.22 L 96.5276,-100.439 L 96.562,-100.656 L 96.61,-100.87 L 96.6713,-101.082
 L 96.7458,-101.288 L 96.8331,-101.49 L 96.9329,-101.686 L 97.0448,-101.875 L 97.1684,-102.057 L 97.3032,-102.231
 L 97.4486,-102.396 L 97.6041,-102.551 L 97.769,-102.697 L 97.9427,-102.832 L 98.1246,-102.955 L 98.3139,-103.067
 L 98.5098,-103.167 L 98.7116,-103.254 L 98.9184,-103.329 L 99.1296,-103.39 L 99.3442,-103.438 L 99.5613,-103.472
 L 99.7802,-103.493 L 100,-103.5 L 100.22,-103.493 L 100.439,-103.472 L 100.656,-103.438 L 100.87,-103.39
 L 101.082,-103.329 L 101.288,-103.254 L 101.49,-103.167 L 101.686,-103.067 L 101.875,-102.955 L 102.057,-102.832
 L 102.231,-102.697 L 102.396,-102.551 L 102.551,-102.396 L 102.697,-102.231 L 102.832,-102.057 L 102.955,-101.875
 L 103.067,-101.686 L 103.167,-101.49 L 103.254,-101.288 L 103.329,-101.082 L 103.39,-100.87 L 103.438,-100.656
 L 103.472,-100.439 L 103.493,-100.22 L 103.5,-100 L 103.493,-99.7802 L 103.472,-99.5613 L 103.438,-99.3442
 L 103.39,-99.1296 L 103.329,-98.9184 L 103.254,-98.7116 L 103.167,-98.5098 L 103.067,-98.3139 L 102.955,-98.1246
 L 102.832,-97.9427 L 102.697,-97.769 L 102.551,-97.6041 L 102.396,-97.4486 L 102.231,-97.3032 L 102.057,-97.1684
 L 101.875,-97.0448 L 101.686,-96.9329 L 101.49,-96.8331 L 101.288,-96.7458 L 101.082,-96.6713 L 100.87,-96.61
 L 100.656,-96.562 L 100.439,-96.5276 L 100.22,-96.5069 L 100,-96.5 z
M -0.31395,-93.0099 L -0.626663,-93.0394 L -0.936905,-93.0886 L -1.24344,-93.1571 L -1.54507,-93.2447 L -1.84062,-93.3511
 L -2.12889,-93.4759 L -2.40877,-93.6185 L -2.67912,-93.7784 L -2.93892,-93.9549 L -3.18712,-94.1474 L -3.42273,-94.3551
 L -3.64484,-94.5773 L -3.85255,-94.8129 L -4.04507,-95.0611 L -4.22163,-95.3209 L -4.38153,-95.5912 L -4.52412,-95.8711
 L -4.64888,-96.1594 L -4.75528,-96.4549 L -4.84291,-96.7565 L -4.91142,-97.0631 L -4.96057,-97.3733 L -4.99013,-97.6861
 L -4.99998,-98 L -4.99013,-98.3139 L -4.96057,-98.6267 L -4.91142,-98.9369 L -4.84291,-99.2434 L -4.75528,-99.5451
 L -4.64888,-99.8406 L -4.52412,-100.129 L -4.38153,-100.409 L -4.22163,-100.679 L -4.04507,-100.939 L -3.85255,-101.187
 L -3.64484,-101.423 L -3.42273,-101.645 L -3.18712,-101.853 L -2.93892,-102.045 L -2.67912,-102.222 L -2.40877,-102.382
 L -2.12889,-102.524 L -1.84062,-102.649 L -1.54507,-102.755 L -1.24344,-102.843 L -0.936905,-102.911 L -0.626663,-102.961
 L -0.31395,-102.99 L 0,-103 L 0.31395,-102.99 L 0.626663,-102.961 L 0.936905,-102.911 L 1.24344,-102.843
 L 1.54507,-102.755 L 1.84062,-102.649 L 2.12889,-102.524 L 2.40877,-102.382 L 2.67912,-102.222 L 2.93892,-102.045
 L 3.18712,-101.853 L 3.42273,-101.645 L 3.64484,-101.423 L 3.85255,-101.187 L 4.04507,-100.939 L 4.22163,-100.679
 L 4.38153,-100.409 L 4.52412,-100.129 L 4.64888,-99.8406 L 4.75528,-99.5451 L 4.84291,-99.2434 L 4.91142,-98.9369
 L 4.96057,-98.6267 L 4.99013,-98.3139 L 5,-98 L 4.99013,-97.6861 L 4.96057,-97.3733 L 4.91142,-97.0631
 L 4.84291,-96.7565 L 4.75528,-96.4549 L 4.64888,-96.1594 L 4.52412,-95.8711 L 4.38153,-95.5912 L 4.22163,-95.3209
 L 4.04507,-95.0611 L 3.85255,-94.8129 L 3.64484,-94.5773 L 3.42273,-94.3551 L 3.18712,-94.1474 L 2.93892,-93.9549
 L 2.67912,-93.7784 L 2.40877,-93.6185 L 2.12889,-93.4759 L 1.84062,-93.3511 L 1.54507,-93.2447 L 1.24344,-93.1571
 L 0.936905,-93.0886 L 0.626663,-93.0394 L 0.31395,-93.0099 L 0,-93 z
M 2.5,-78.5298 L 2.5,-83.1492 L 31.7355,-83.1492 L 29.8221,-78.5298 z
M -29.8221,-78.5298 L -31.7355,-83.1492 L -2.49998,-83.1492 L -2.49998,-78.5298 z
M 34.4415,-76.6163 L 36.3549,-81.2357 L 57.0276,-60.5631 L 53.7612,-57.2967 z
M -57.0276,-60.5631 L -36.3549,-81.2357 L -34.4415,-76.6163 L -53.7612,-57.2967 z
M 69.1394,-64.2989 L 68.8259,-64.3186 L 68.5143,-64.358 L 68.2057,-64.4169 L 67.9015,-64.495 L 67.6028,-64.5921
 L 67.3107,-64.7077 L 67.0265,-64.8414 L 66.7513,-64.9928 L 66.486,-65.1611 L 66.2319,-65.3457 L 65.9899,-65.5459
 L 65.7609,-65.7609 L 65.5459,-65.9899 L 65.3457,-66.2319 L 65.1611,-66.486 L 64.9928,-66.7513 L 64.8414,-67.0265
 L 64.7077,-67.3107 L 64.5921,-67.6028 L 64.495,-67.9015 L 64.4169,-68.2057 L 64.358,-68.5143 L 64.3186,-68.8259
 L 64.2989,-69.1394 L 64.2989,-69.4535 L 64.3186,-69.767 L 64.358,-70.0786 L 64.4169,-70.3872 L 64.495,-70.6914
 L 64.5921,-70.9901 L 64.7077,-71.2822 L 64.8414,-71.5664 L 64.9928,-71.8417 L 65.1611,-72.1069 L 65.3457,-72.361
 L 65.5459,-72.603 L 65.7609,-72.832 L 65.9899,-73.047 L 66.2319,-73.2472 L 66.486,-73.4319 L 66.7513,-73.6002
 L 67.0265,-73.7515 L 67.3107,-73.8852 L 67.6028,-74.0009 L 67.9015,-74.0979 L 68.2057,-74.176 L 68.5143,-74.2349
 L 68.8259,-74.2743 L 69.1394,-74.294 L 69.4535,-74.294 L 69.767,-74.2743 L 70.0786,-74.2349 L 70.3872,-74.176
 L 70.6914,-74.0979 L 70.9901,-74.0009 L 71.2822,-73.8852 L 71.5664,-73.7515 L 71.8417,-73.6002 L 72.1069,-73.4319
 L 72.361,-73.2472 L 72.603,-73.047 L 72.832,-72.832 L 73.047,-72.603 L 73.2472,-72.361 L 73.4319,-72.1069
 L 73.6002,-71.8417 L 73.7515,-71.5664 L 73.8852,-71.2822 L 74.0009,-70.9901 L 74.0979,-70.6914 L 74.176,-70.3872
 L 74.2349,-70.0786 L 74.2743,-69.767 L 74.294,-69.4535 L 74.294,-69.1394 L 74.2743,-68.8259 L 74.2349,-68.5143
 L 74.176,-68.2057 L 74.0979,-67.9015 L 74.0009,-67.6028 L 73.8852,-67.3107 L 73.7515,-67.0265 L 73.6002,-66.7513
 L 73.4319,-66.486 L 73.2472,-66.2319 L 73.047,-65.9899 L 72.832,-65.7609 L 72.603,-65.5459 L 72.361,-65.3457
 L 72.1069,-65.1611 L 71.8417,-64.9928 L 71.5664,-64.8414 L 71.2822,-64.7077 L 70.9901,-64.5921 L 70.6914,-64.495
 L 70.3872,-64.4169 L 70.0786,-64.358 L 69.767,-64.3186 L 69.4535,-64.2989 z
M -69.4535,-64.2989 L -69.767,-64.3186 L -70.0786,-64.358 L -70.3872,-64.4169 L -70.6914,-64.495 L -70.9901,-64.5921
 L -71.2822,-64.7077 L -71.5664,-64.8414 L -71.8417,-64.9928 L -72.1069,-65.1611 L -72.361,-65.3457 L -72.603,-65.5459
 L -72.832,-65.7609 L -73.047,-65.9899 L -73.2472,-66.2319 L -73.4319,-66.486 L -73.6002,-66.7513 L -73.7515,-67.0265
 L -73.8852,-67.3107 L -74.0009,-67.6028 L -74.0979,-67.9015 L -74.176,-68.2057 L -74.2349,-68.5143 L -74.2743,-68.8259
 L -74.294,-69.1394 L -74.294,-69.4535 L -74.2743,-69.767 L -74.2349,-70.0786 L -74.176,-70.3872 L -74.0979,-70.6914
 L -74.0009,-70.9901 L -73.8852,-71.2822 L -73.7515,-71.5664 L -73.6002,-71.8417 L -73.4319,-72.1069 L -73.2472,-72.361
 L -73.047,-72.603 L -72.832,-72.832 L -72.603,-73.047 L -72.361,-73.2472 L -72.1069,-73.4319 L -71.8417,-73.6002
 L -71.5664,-73.7515 L -71.2822,-73.8852 L -70.9901,-74.0009 L -70.6914,-74.0979 L -70.3872,-74.176 L -70.0786,-74.2349
 L -69.767,-74.2743 L -69.4535,-74.294 L -69.1394,-74.294 L -68.8259,-74.2743 L -68.5143,-74.2349 L -68.2057,-74.176
 L -67.9015,-74.0979 L -67.6028,-74.0009 L -67.3107,-73.8852 L -67.0265,-73.7515 L -66.7513,-73.6002 L -66.486,-73.4319
 L -66.2319,-73.2472 L -65.9899,-73.047 L -65.7609,-72.832 L -65.5459,-72.603 L -65.3457,-72.361 L -65.1611,-72.1069
 L -64.9928,-71.8417 L -64.8414,-71.5664 L -64.7077,-71.2822 L -64.5921,-70.9901 L -64.495,-70.6914 L -64.4169,-70.3872
 L -64.358,-70.0786 L -64.3186,-69.767 L -64.2989,-69.4535 L -64.2989,-69.1394 L -64.3186,-68.8259 L -64.358,-68.5143
 L -64.4169,-68.2057 L -64.495,-67.9015 L -64.5921,-67.6028 L -64.7077,-67.3107 L -64.8414,-67.0265 L -64.9928,-66.7513
 L -65.1611,-66.486 L -65.3457,-66.2319 L -65.5459,-65.9899 L -65.7609,-65.7609 L -65.9899,-65.5459 L -66.2319,-65.3457
 L -66.486,-65.1611 L -66.7513,-64.9928 L -67.0265,-64.8414 L -67.3107,-64.7077 L -67.6028,-64.5921 L -67.9015,-64.495
 L -68.2057,-64.4169 L -68.5143,-64.358 L -68.8259,-64.3186 L -69.1394,-64.2989 z
M -27.9087,-73.9104 L -2.49998,-73.9104 L -2.49998,-69.291 L -25.9953,-69.291 z
M -50.4948,-54.0303 L -32.5281,-71.9969 L -30.6147,-67.3775 L -47.2283,-50.7639 z
M 30.6147,-67.3775 L 32.5281,-71.9969 L 50.4948,-54.0303 L 47.2283,-50.7639 z
M -22.1684,-60.0522 L -24.0818,-64.6716 L -2.49998,-64.6716 L -2.49998,-60.0522 z
M 2.49998,-60.0522 L 2.49998,-64.6716 L 24.0818,-64.6716 L 22.1684,-60.0522 z
M 26.7878,-58.1387 L 28.7012,-62.7581 L 43.9619,-47.4975 L 40.6955,-44.2311 z
M -43.9619,-47.4975 L -28.7012,-62.7581 L -26.7878,-58.1387 L -40.6955,-44.2311 z
M -81.2357,-36.3549 L -60.5631,-57.0276 L -57.2967,-53.7612 L -76.6163,-34.4415 z
M 57.2967,-53.7612 L 60.5631,-57.0276 L 81.2357,-36.3549 L 76.6163,-34.4415 z
M -18.3416,-50.8134 L -20.255,-55.4328 L -2.49998,-55.4328 L -2.49998,-50.8134 z
M 2.49998,-50.8134 L 2.49998,-55.4328 L 20.255,-55.4328 L 18.3416,-50.8134 z
M 22.961,-48.8999 L 24.8744,-53.5193 L 37.4291,-40.9646 L 34.1627,-37.6982 z
M -37.4291,-40.9646 L -24.8744,-53.5193 L -22.961,-48.8999 L -34.1627,-37.6982 z
M 50.7639,-47.2283 L 54.0303,-50.4948 L 71.9969,-32.5281 L 67.3775,-30.6147 z
M -71.9969,-32.5281 L -54.0303,-50.4948 L -50.7639,-47.2283 L -67.3775,-30.6147 z
M 44.2311,-40.6955 L 47.4975,-43.9619 L 62.7581,-28.7012 L 58.1387,-26.7878 z
M -62.7581,-28.7012 L -47.4975,-43.9619 L -44.2311,-40.6955 L -58.1387,-26.7878 z
M -53.5193,-24.8744 L -40.9646,-37.4291 L -37.6982,-34.1627 L -48.8999,-22.961 z
M 37.6982,-34.1627 L 40.9646,-37.4291 L 53.5193,-24.8744 L 48.8999,-22.961 z
M 78.5298,-2.49998 L 78.5298,-29.8221 L 83.1492,-31.7355 L 83.1492,-2.49998 z
M -83.1492,-2.5 L -83.1492,-31.7355 L -78.5298,-29.8221 L -78.5298,-2.5 z
M -73.9104,-2.5 L -73.9104,-27.9087 L -69.291,-25.9953 L -69.291,-2.49998 z
M 69.291,-2.49998 L 69.291,-25.9953 L 73.9104,-27.9087 L 73.9104,-2.49998 z
M -64.6716,-2.49998 L -64.6716,-24.0818 L -60.0522,-22.1684 L -60.0522,-2.49998 z
M 60.0522,-2.49998 L 60.0522,-22.1684 L 64.6716,-24.0818 L 64.6716,-2.49998 z
M 50.8134,-2.49998 L 50.8134,-18.3416 L 55.4328,-20.255 L 55.4328,-2.49998 z
M -55.4328,-2.49998 L -55.4328,-20.255 L -50.8134,-18.3416 L -50.8134,-2.49998 z
M -98.3139,4.99013 L -98.6267,4.96057 L -98.9369,4.91142 L -99.2434,4.84291 L -99.5451,4.75528 L -99.8406,4.64888
 L -100.129,4.52412 L -100.409,4.38153 L -100.679,4.22163 L -100.939,4.04507 L -101.187,3.85255 L -101.423,3.64484
 L -101.645,3.42273 L -101.853,3.18712 L -102.045,2.93892 L -102.222,2.67912 L -102.382,2.40877 L -102.524,2.12889
 L -102.649,1.84062 L -102.755,1.54507 L -102.843,1.24344 L -102.911,0.936905 L -102.961,0.626663 L -102.99,0.31395
 L -103,-0 L -102.99,-0.31395 L -102.961,-0.626663 L -102.911,-0.936905 L -102.843,-1.24344 L -102.755,-1.54507
 L -102.649,-1.84062 L -102.524,-2.12889 L -102.382,-2.40877 L -102.222,-2.67912 L -102.045,-2.93892 L -101.853,-3.18712
 L -101.645,-3.42273 L -101.423,-3.64484 L -101.187,-3.85255 L -100.939,-4.04507 L -100.679,-4.22163 L -100.409,-4.38153
 L -100.129,-4.52412 L -99.8406,-4.64888 L -99.5451,-4.75528 L -99.2434,-4.84291 L -98.9369,-4.91142 L -98.6267,-4.96057
 L -98.3139,-4.99013 L -98,-5 L -97.6861,-4.99013 L -97.3733,-4.96057 L -97.0631,-4.91142 L -96.7565,-4.84291
 L -96.4549,-4.75528 L -96.1594,-4.64888 L -95.8711,-4.52412 L -95.5912,-4.38153 L -95.3209,-4.22163 L -95.0611,-4.04507
 L -94.8129,-3.85255 L -94.5773,-3.64484 L -94.3551,-3.42273 L -94.1474,-3.18712 L -93.9549,-2.93892 L -93.7784,-2.67912
 L -93.6185,-2.40877 L -93.4759,-2.12889 L -93.3511,-1.84062 L -93.2447,-1.54507 L -93.1571,-1.24344 L -93.0886,-0.936905
 L -93.0394,-0.626663 L -93.0099,-0.31395 L -93,-0 L -93.0099,0.31395 L -93.0394,0.626663 L -93.0886,0.936905
 L -93.1571,1.24344 L -93.2447,1.54507 L -93.3511,1.84062 L -93.4759,2.12889 L -93.6185,2.40877 L -93.7784,2.67912
 L -93.9549,2.93892 L -94.1474,3.18712 L -94.3551,3.42273 L -94.5773,3.64484 L -94.8129,3.85255 L -95.0611,4.04507
 L -95.3209,4.22163 L -95.5912,4.38153 L -95.8711,4.52412 L -96.1594,4.64888 L -96.4549,4.75528 L -96.7565,4.84291
 L -97.0631,4.91142 L -97.3733,4.96057 L -97.6861,4.99013 L -98,4.99998 z
M 97.6861,4.99013 L 97.3733,4.96057 L 97.0631,4.91142 L 96.7565,4.84291 L 96.4549,4.75528 L 96.1594,4.64888
 L 95.8711,4.52412 L 95.5912,4.38153 L 95.3209,4.22163 L 95.0611,4.04507 L 94.8129,3.85255 L 94.5773,3.64484
 L 94.3551,3.42273 L 94.1474,3.18712 L 93.9549,2.93892 L 93.7784,2.67912 L 93.6185,2.40877 L 93.4759,2.12889
 L 93.3511,1.84062 L 93.2447,1.54507 L 93.1571,1.24344 L 93.0886,0.936905 L 93.0394,0.626663 L 93.0099,0.31395
 L 93,-0 L 93.0099,-0.31395 L 93.0394,-0.626663 L 93.0886,-0.936905 L 93.1571,-1.24344 L 93.2447,-1.54507
 L 93.3511,-1.84062 L 93.4759,-2.12889 L 93.6185,-2.40877 L 93.7784,-2.67912 L 93.9549,-2.93892 L 94.1474,-3.18712
 L 94.3551,-3.42273 L 94.5773,-3.64484 L 94.8129,-3.85255 L 95.0611,-4.04507 L 95.3209,-4.22163 L 95.5912,-4.38153
 L 95.8711,-4.52412 L 96.1594,-4.64888 L 96.4549,-4.75528 L 96.7565,-4.84291 L 97.0631,-4.91142 L 97.3733,-4.96057
 L 97.6861,-4.99013 L 98,-4.99998 L 98.3139,-4.99013 L 98.6267,-4.96057 L 98.9369,-4.91142 L 99.2434,-4.84291
 L 99.5451,-4.75528 L 99.8406,-4.64888 L 100.129,-4.52412 L 100.409,-4.38153 L 100.679,-4.22163 L 100.939,-4.04507
 L 101.187,-3.85255 L 101.423,-3.64484 L 101.645,-3.42273 L 101.853,-3.18712 L 102.045,-2.93892 L 102.222,-2.67912
 L 102.382,-2.40877 L 102.524,-2.12889 L 102.649,-1.84062 L 102.755,-1.54507 L 102.843,-1.24344 L 102.911,-0.936905
 L 102.961,-0.626663 L 102.99,-0.31395 L 103,-0 L 102.99,0.31395 L 102.961,0.626663 L 102.911,0.936905
 L 102.843,1.24344 L 102.755,1.54507 L 102.649,1.84062 L 102.524,2.12889 L 102.382,2.40877 L 102.222,2.67912
 L 102.045,2.93892 L 101.853,3.18712 L 101.645,3.42273 L 101.423,3.64484 L 101.187,3.85255 L 100.939,4.04507
 L 100.679,4.22163 L 100.409,4.38153 L 100.129,4.52412 L 99.8406,4.64888 L 99.5451,4.75528 L 99.2434,4.84291
 L 98.9369,4.91142 L 98.6267,4.96057 L 98.3139,4.99013 L 98,5 z
M -120.22,3.49309 L -120.439,3.4724 L -120.656,3.438 L -120.87,3.39003 L -121.082,3.32869 L -121.288,3.25421
 L -121.49,3.16689 L -121.686,3.06706 L -121.875,2.95514 L -122.057,2.83156 L -122.231,2.69679 L -122.396,2.55138
 L -122.551,2.3959 L -122.697,2.23097 L -122.832,2.05724 L -122.955,1.87538 L -123.067,1.68613 L -123.167,1.49022
 L -123.254,1.28842 L -123.329,1.08156 L -123.39,0.870407 L -123.438,0.655823 L -123.472,0.43866 L -123.493,0.219757
 L -123.5,-0 L -123.493,-0.219757 L -123.472,-0.43866 L -123.438,-0.655823 L -123.39,-0.870407 L -123.329,-1.08156
 L -123.254,-1.28842 L -123.167,-1.49022 L -123.067,-1.68613 L -122.955,-1.87538 L -122.832,-2.05724 L -122.697,-2.23097
 L -122.551,-2.3959 L -122.396,-2.55138 L -122.231,-2.69679 L -122.057,-2.83156 L -121.875,-2.95514 L -121.686,-3.06706
 L -121.49,-3.16689 L -121.288,-3.25421 L -121.082,-3.32869 L -120.87,-3.39003 L -120.656,-3.438 L -120.439,-3.4724
 L -120.22,-3.49309 L -120,-3.5 L -119.78,-3.49309 L -119.561,-3.4724 L -119.344,-3.438 L -119.13,-3.39003
 L -118.918,-3.32869 L -118.712,-3.25421 L -118.51,-3.16689 L -118.314,-3.06706 L -118.125,-2.95514 L -117.943,-2.83156
 L -117.769,-2.69679 L -117.604,-2.55138 L -117.449,-2.3959 L -117.303,-2.23097 L -117.168,-2.05724 L -117.045,-1.87538
 L -116.933,-1.68613 L -116.833,-1.49022 L -116.746,-1.28842 L -116.671,-1.08156 L -116.61,-0.870407 L -116.562,-0.655823
 L -116.528,-0.43866 L -116.507,-0.219757 L -116.5,-0 L -116.507,0.219757 L -116.528,0.43866 L -116.562,0.655823
 L -116.61,0.870407 L -116.671,1.08156 L -116.746,1.28842 L -116.833,1.49022 L -116.933,1.68613 L -117.045,1.87538
 L -117.168,2.05724 L -117.303,2.23097 L -117.449,2.3959 L -117.604,2.55138 L -117.769,2.69679 L -117.943,2.83156
 L -118.125,2.95514 L -118.314,3.06706 L -118.51,3.16689 L -118.712,3.25421 L -118.918,3.32869 L -119.13,3.39003
 L -119.344,3.438 L -119.561,3.4724 L -119.78,3.49309 L -120,3.5 z
M 69.291,25.9953 L 69.291,2.49998 L 73.9104,2.5 L 73.9104,27.9087 z
M -73.9104,2.49998 L -69.291,2.49998 L -69.291,25.9953 L -73.9104,27.9087 z
M -64.6716,2.49998 L -60.0522,2.49998 L -60.0522,22.1684 L -64.6716,24.0818 z
M 50.8134,18.3416 L 50.8134,2.49998 L 55.4328,2.49998 L 55.4328,20.255 z
M -83.1492,2.49998 L -78.5298,2.49998 L -78.5298,29.8221 L -83.1492,31.7355 z
M -55.4328,2.49998 L -50.8134,2.49998 L -50.8134,18.3416 L -55.4328,20.255 z
M 60.0522,22.1684 L 60.0522,2.49998 L 64.6716,2.49998 L 64.6716,24.0818 z
M 78.5298,29.8221 L 78.5298,2.5 L 83.1492,2.5 L 83.1492,31.7355 z
M -53.5193,24.8744 L -48.8999,22.961 L -37.6982,34.1627 L -40.9646,37.4291 z
M 37.6982,34.1627 L 48.8999,22.961 L 53.5193,24.8744 L 40.9646,37.4291 z
M -62.7581,28.7012 L -58.1387,26.7878 L -44.2311,40.6955 L -47.4975,43.9619 z
M 44.2311,40.6955 L 58.1387,26.7878 L 62.7581,28.7012 L 47.4975,43.9619 z
M 50.7639,47.2283 L 67.3775,30.6147 L 71.9969,32.5281 L 54.0303,50.4948 z
M -71.9969,32.5281 L -67.3775,30.6147 L -50.7639,47.2283 L -54.0303,50.4948 z
M -81.2357,36.3549 L -76.6163,34.4415 L -57.2967,53.7612 L -60.5631,57.0276 z
M 57.2967,53.7612 L 76.6163,34.4415 L 81.2357,36.3549 L 60.5631,57.0276 z
M 22.961,48.8999 L 34.1627,37.6982 L 37.4291,40.9646 L 24.8744,53.5193 z
M -37.4291,40.9646 L -34.1627,37.6982 L -22.961,48.8999 L -24.8744,53.5193 z
M 26.7878,58.1387 L 40.6955,44.2311 L 43.9619,47.4975 L 28.7012,62.7581 z
M -43.9619,47.4975 L -40.6955,44.2311 L -26.7878,58.1387 L -28.7012,62.7581 z
M -50.4948,54.0303 L -47.2283,50.7639 L -30.6147,67.3775 L -32.5281,71.9969 z
M 30.6147,67.3775 L 47.2283,50.7639 L 50.4948,54.0303 L 32.5281,71.9969 z
M 2.49998,55.4328 L 2.49998,50.8134 L 18.3416,50.8134 L 20.255,55.4328 z
M -20.255,55.4328 L -18.3416,50.8134 L -2.49998,50.8134 L -2.49998,55.4328 z
M -57.0276,60.5631 L -53.7612,57.2967 L -34.4415,76.6163 L -36.3549,81.2357 z
M 34.4415,76.6163 L 53.7612,57.2967 L 57.0276,60.5631 L 36.3549,81.2357 z
M -24.0818,64.6716 L -22.1684,60.0522 L -2.49998,60.0522 L -2.49998,64.6716 z
M 2.49998,64.6716 L 2.49998,60.0522 L 22.1684,60.0522 L 24.0818,64.6716 z
M -69.4535,74.294 L -69.767,74.2743 L -70.0786,74.2349 L -70.3872,74.176 L -70.6914,74.0979 L -70.9901,74.0009
 L -71.2822,73.8852 L -71.5664,73.7515 L -71.8417,73.6002 L -72.1069,73.4319 L -72.361,73.2472 L -72.603,73.047
 L -72.832,72.832 L -73.047,72.603 L -73.2472,72.361 L -73.4319,72.1069 L -73.6002,71.8417 L -73.7515,71.5664
 L -73.8852,71.2822 L -74.0009,70.9901 L -74.0979,70.6914 L -74.176,70.3872 L -74.2349,70.0786 L -74.2743,69.767
 L -74.294,69.4535 L -74.294,69.1394 L -74.2743,68.8259 L -74.2349,68.5143 L -74.176,68.2057 L -74.0979,67.9015
 L -74.0009,67.6028 L -73.8852,67.3107 L -73.7515,67.0265 L -73.6002,66.7513 L -73.4319,66.486 L -73.2472,66.2319
 L -73.047,65.9899 L -72.832,65.7609 L -72.603,65.5459 L -72.361,65.3457 L -72.1069,65.1611 L -71.8417,64.9928
 L -71.5664,64.8414 L -71.2822,64.7077 L -70.9901,64.5921 L -70.6914,64.495 L -70.3872,64.4169 L -70.0786,64.358
 L -69.767,64.3186 L -69.4535,64.2989 L -69.1394,64.2989 L -68.8259,64.3186 L -68.5143,64.358 L -68.2057,64.4169
 L -67.9015,64.495 L -67.6028,64.5921 L -67.3107,64.7077 L -67.0265,64.8414 L -66.7513,64.9928 L -66.486,65.1611
 L -66.2319,65.3457 L -65.9899,65.5459 L -65.7609,65.7609 L -65.5459,65.9899 L -65.3457,66.2319 L -65.1611,66.486
 L -64.9928,66.7513 L -64.8414,67.0265 L -64.7077,67.3107 L -64.5921,67.6028 L -64.495,67.9015 L -64.4169,68.2057
 L -64.358,68.5143 L -64.3186,68.8259 L -64.2989,69.1394 L -64.2989,69.4535 L -64.3186,69.767 L -64.358,70.0786
 L -64.4169,70.3872 L -64.495,70.6914 L -64.5921,70.9901 L -64.7077,71.2822 L -64.8414,71.5664 L -64.9928,71.8417
 L -65.1611,72.1069 L -65.3457,72.361 L -65.5459,72.603 L -65.7609,72.832 L -65.9899,73.047 L -66.2319,73.2472
 L -66.486,73.4319 L -66.7513,73.6002 L -67.0265,73.7515 L -67.3107,73.8852 L -67.6028,74.0009 L -67.9015,74.0979
 L -68.2057,74.176 L -68.5143,74.2349 L -68.8259,74.2743 L -69.1394,74.294 z
M 69.1394,74.294 L 68.8259,74.2743 L 68.5143,74.2349 L 68.2057,74.176 L 67.9015,74.0979 L 67.6028,74.0009
 L 67.3107,73.8852 L 67.0265,73.7515 L 66.7513,73.6002 L 66.486,73.4319 L 66.2319,73.2472 L 65.9899,73.047
 L 65.7609,72.832 L 65.5459,72.603 L 65.3457,72.361 L 65.1611,72.1069 L 64.9928,71.8417 L 64.8414,71.5664
 L 64.7077,71.2822 L 64.5921,70.9901 L 64.495,70.6914 L 64.4169,70.3872 L 64.358,70.0786 L 64.3186,69.767
 L 64.2989,69.4535 L 64.2989,69.1394 L 64.3186,68.8259 L 64.358,68.5143 L 64.4169,68.2057 L 64.495,67.9015
 L 64.5921,67.6028 L 64.7077,67.3107 L 64.8414,67.0265 L 64.9928,66.7513 L 65.1611,66.486 L 65.3457,66.2319
 L 65.5459,65.9899 L 65.7609,65.7609 L 65.9899,65.5459 L 66.2319,65.3457 L 66.486,65.1611 L 66.7513,64.9928
 L 67.0265,64.8414 L 67.3107,64.7077 L 67.6028,64.5921 L 67.9015,64.495 L 68.2057,64.4169 L 68.5143,64.358
 L 68.8259,64.3186 L 69.1394,64.2989 L 69.4535,64.2989 L 69.767,64.3186 L 70.0786,64.358 L 70.3872,64.4169
 L 70.6914,64.495 L 70.9901,64.5921 L 71.2822,64.7077 L 71.5664,64.8414 L 71.8417,64.9928 L 72.1069,65.1611
 L 72.361,65.3457 L 72.603,65.5459 L 72.832,65.7609 L 73.047,65.9899 L 73.2472,66.2319 L 73.4319,66.486
 L 73.6002,66.7513 L 73.7515,67.0265 L 73.8852,67.3107 L 74.0009,67.6028 L 74.0979,67.9015 L 74.176,68.2057
 L 74.2349,68.5143 L 74.2743,68.8259 L 74.294,69.1394 L 74.294,69.4535 L 74.2743,69.767 L 74.2349,70.0786
 L 74.176,70.3872 L 74.0979,70.6914 L 74.0009,70.9901 L 73.8852,71.2822 L 73.7515,71.5664 L 73.6002,71.8417
 L 73.4319,72.1069 L 73.2472,72.361 L 73.047,72.603 L 72.832,72.832 L 72.603,73.047 L 72.361,73.2472
 L 72.1069,73.4319 L 71.8417,73.6002 L 71.5664,73.7515 L 71.2822,73.8852 L 70.9901,74.0009 L 70.6914,74.0979
 L 70.3872,74.176 L 70.0786,74.2349 L 69.767,74.2743 L 69.4535,74.294 z
M 2.49998,73.9104 L 2.49998,69.291 L 25.9953,69.291 L 27.9087,73.9104 z
M -27.9087,73.9104 L -25.9953,69.291 L -2.49998,69.291 L -2.5,73.9104 z
M 2.49998,83.1492 L 2.49998,78.5298 L 29.8221,78.5298 L 31.7355,83.1492 z
M -31.7355,83.1492 L -29.8221,78.5298 L -2.5,78.5298 L -2.5,83.1492 z
M -0.31395,102.99 L -0.626663,102.961 L -0.936905,102.911 L -1.24344,102.843 L -1.54507,102.755 L -1.84062,102.649
 L -2.12889,102.524 L -2.40877,102.382 L -2.67912,102.222 L -2.93892,102.045 L -3.18712,101.853 L -3.42273,101.645
 L -3.64484,101.423 L -3.85255,101.187 L -4.04507,100.939 L -4.22163,100.679 L -4.38153,100.409 L -4.52412,100.129
 L -4.64888,99.8406 L -4.75528,99.5451 L -4.84291,99.2434 L -4.91142,98.9369 L -4.96057,98.6267 L -4.99013,98.3139
 L -5,98 L -4.99013,97.6861 L -4.96057,97.3733 L -4.91142,97.0631 L -4.84291,96.7565 L -4.75528,96.4549
 L -4.64888,96.1594 L -4.52412,95.8711 L -4.38153,95.5912 L -4.22163,95.3209 L -4.04507,95.0611 L -3.85255,94.8129
 L -3.64484,94.5773 L -3.42273,94.3551 L -3.18712,94.1474 L -2.93892,93.9549 L -2.67912,93.7784 L -2.40877,93.6185
 L -2.12889,93.4759 L -1.84062,93.3511 L -1.54507,93.2447 L -1.24344,93.1571 L -0.936905,93.0886 L -0.626663,93.0394
 L -0.31395,93.0099 L 0,93 L 0.31395,93.0099 L 0.626663,93.0394 L 0.936905,93.0886 L 1.24344,93.1571
 L 1.54507,93.2447 L 1.84062,93.3511 L 2.12889,93.4759 L 2.40877,93.6185 L 2.67912,93.7784 L 2.93892,93.9549
 L 3.18712,94.1474 L 3.42273,94.3551 L 3.64484,94.5773 L 3.85255,94.8129 L 4.04507,95.0611 L 4.22163,95.3209
 L 4.38153,95.5912 L 4.52412,95.8711 L 4.64888,96.1594 L 4.75528,96.4549 L 4.84291,96.7565 L 4.91142,97.0631
 L 4.96057,97.3733 L 4.99013,97.6861 L 4.99998,98 L 4.99013,98.3139 L 4.96057,98.6267 L 4.91142,98.9369
 L 4.84291,99.2434 L 4.75528,99.5451 L 4.64888,99.8406 L 4.52412,100.129 L 4.38153,100.409 L 4.22163,100.679
 L 4.04507,100.939 L 3.85255,101.187 L 3.64484,101.423 L 3.42273,101.645 L 3.18712,101.853 L 2.93892,102.045
 L 2.67912,102.222 L 2.40877,102.382 L 2.12889,102.524 L 1.84062,102.649 L 1.54507,102.755 L 1.24344,102.843
 L 0.936905,102.911 L 0.626663,102.961 L 0.31395,102.99 L 0,103 z
M 99.7802,103.493 L 99.5613,103.472 L 99.3442,103.438 L 99.1296,103.39 L 98.9184,103.329 L 98.7116,103.254
 L 98.5098,103.167 L 98.3139,103.067 L 98.1246,102.955 L 97.9427,102.832 L 97.769,102.697 L 97.6041,102.551
 L 97.4486,102.396 L 97.3032,102.231 L 97.1684,102.057 L 97.0448,101.875 L 96.9329,101.686 L 96.8331,101.49
 L 96.7458,101.288 L 96.6713,101.082 L 96.61,100.87 L 96.562,100.656 L 96.5276,100.439 L 96.5069,100.22
 L 96.5,100 L 96.5069,99.7802 L 96.5276,99.5613 L 96.562,99.3442 L 96.61,99.1296 L 96.6713,98.9184
 L 96.7458,98.7116 L 96.8331,98.5098 L 96.9329,98.3139 L 97.0448,98.1246 L 97.1684,97.9427 L 97.3032,97.769
 L 97.4486,97.6041 L 97.6041,97.4486 L 97.769,97.3032 L 97.9427,97.1684 L 98.1246,97.0448 L 98.3139,96.9329
 L 98.5098,96.8331 L 98.7116,96.7458 L 98.9184,96.6713 L 99.1296,96.61 L 99.3442,96.562 L 99.5613,96.5276
 L 99.7802,96.5069 L 100,96.5 L 100.22,96.5069 L 100.439,96.5276 L 100.656,96.562 L 100.87,96.61
 L 101.082,96.6713 L 101.288,96.7458 L 101.49,96.8331 L 101.686,96.9329 L 101.875,97.0448 L 102.057,97.1684
 L 102.231,97.3032 L 102.396,97.4486 L 102.551,97.6041 L 102.697,97.769 L 102.832,97.9427 L 102.955,98.1246
 L 103.067,98.3139 L 103.167,98.5098 L 103.254,98.7116 L 103.329,98.9184 L 103.39,99.1296 L 103.438,99.3442
 L 103.472,99.5613 L 103.493,99.7802 L 103.5,100 L 103.493,100.22 L 103.472,100.439 L 103.438,100.656
 L 103.39,100.87 L 103.329,101.082 L 103.254,101.288 L 103.167,101.49 L 103.067,101.686 L 102.955,101.875
 L 102.832,102.057 L 102.697,102.231 L 102.551,102.396 L 102.396,102.551 L 102.231,102.697 L 102.057,102.832
 L 101.875,102.955 L 101.686,103.067 L 101.49,103.167 L 101.288,103.254 L 101.082,103.329 L 100.87,103.39
 L 100.656,103.438 L 100.439,103.472 L 100.22,103.493 L 100,103.5 z
M 27.9087,-73.9104 L 25.9953,-69.291 L 2.49998,-69.291 L 2.5,-73.9104 z
" stroke="black" fill="lightgray" stroke-width="0.5"/></svg>
