<?xml version="1.0" standalone="no"?>
<!DOCTYPE svg PUBLIC "-//W3C//DTD SVG 1.1//EN" "http://www.w3.org/Graphics/SVG/1.1/DTD/svg11.dtd">
<svg width="228mm" height="234mm" viewBox="-114 -117 228 234" xmlns="http://www.w3.org/2000/svg" version="1.1">
<title>OpenSCAD Model</title>
<path d="
M -24.7174,-97.0089 L -24.436,-97.0355 L -24.1568,-97.0797 L -23.8809,-97.1414 L -23.6094,-97.2202 L -23.3434,-97.316
 L -23.084,-97.4283 L -22.8321,-97.5566 L -22.5888,-97.7005 L -22.355,-97.8594 L -22.1316,-98.0327 L -21.9195,-98.2196
 L -21.7196,-98.4195 L -21.5327,-98.6316 L -21.3594,-98.855 L -21.2005,-99.0888 L -21.0566,-99.3321 L -20.9283,-99.584
 L -20.816,-99.8434 L -20.7202,-100.109 L -20.6414,-100.381 L -20.5797,-100.657 L -20.5355,-100.936 L -20.5089,-101.217
 L -20.5,-101.5 L -20.5,-112 L -20.5089,-112.283 L -20.5355,-112.564 L -20.5797,-112.843 L -20.6414,-113.119
 L -20.7202,-113.391 L -20.816,-113.657 L -20.9283,-113.916 L -21.0566,-114.168 L -21.2005,-114.411 L -21.3594,-114.645
 L -21.5327,-114.868 L -21.7196,-115.08 L -21.9195,-115.28 L -22.1316,-115.467 L -22.355,-115.641 L -22.5888,-115.799
 L -22.8321,-115.943 L -23.084,-116.072 L -23.3434,-116.184 L -23.6094,-116.28 L -23.8809,-116.359 L -24.1568,-116.42
 L -24.436,-116.465 L -24.7174,-116.491 L -25,-116.5 L -25.2825,-116.491 L -25.564,-116.465 L -25.8432,-116.42
 L -26.1191,-116.359 L -26.3906,-116.28 L -26.6566,-116.184 L -26.916,-116.072 L -27.1679,-115.943 L -27.4112,-115.799
 L -27.645,-115.641 L -27.8684,-115.467 L -28.0805,-115.28 L -28.2803,-115.08 L -28.4673,-114.868 L -28.6406,-114.645
 L -28.7995,-114.411 L -28.9434,-114.168 L -29.0717,-113.916 L -29.184,-113.657 L -29.2798,-113.391 L -29.3586,-113.119
 L -29.4203,-112.843 L -29.4645,-112.564 L -29.4911,-112.283 L -29.5,-112 L -29.5,-101.5 L -29.4911,-101.217
 L -29.4645,-100.936 L -29.4203,-100.657 L -29.3586,-100.381 L -29.2798,-100.109 L -29.184,-99.8434 L -29.0717,-99.584
 L -28.9434,-99.3321 L -28.7995,-99.0888 L -28.6406,-98.855 L -28.4673,-98.6316 L -28.2803,-98.4195 L -28.0805,-98.2196
 L -27.8684,-98.0327 L -27.645,-97.8594 L -27.4112,-97.7005 L -27.1679,-97.5566 L -26.916,-97.4283 L -26.6566,-97.316
 L -26.3906,-97.2202 L -26.1191,-97.1414 L -25.8432,-97.0797 L -25.564,-97.0355 L -25.2825,-97.0089 L -25,-97
 z
M 25.2825,-97.0089 L 25.564,-97.0355 L 25.8432,-97.0797 L 26.1191,-97.1414 L 26.3906,-97.2202 L 26.6566,-97.316
 L 26.916,-97.4283 L 27.1679,-97.5566 L 27.4112,-97.7005 L 27.645,-97.8594 L 27.8684,-98.0327 L 28.0805,-98.2196
 L 28.2803,-98.4195 L 28.4673,-98.6316 L 28.6406,-98.855 L 28.7995,-99.0888 L 28.9434,-99.3321 L 29.0717,-99.584
 L 29.184,-99.8434 L 29.2798,-100.109 L 29.3586,-100.381 L 29.4203,-100.657 L 29.4645,-100.936 L 29.4911,-101.217
 L 29.5,-101.5 L 29.5,-112 L 29.4911,-112.283 L 29.4645,-112.564 L 29.4203,-112.843 L 29.3586,-113.119
 L 29.2798,-113.391 L 29.184,-113.657 L 29.0717,-113.916 L 28.9434,-114.168 L 28.7995,-114.411 L 28.6406,-114.645
 L 28.4673,-114.868 L 28.2803,-115.08 L 28.0805,-115.28 L 27.8684,-115.467 L 27.645,-115.641 L 27.4112,-115.799
 L 27.1679,-115.943 L 26.916,-116.072 L 26.6566,-116.184 L 26.3906,-116.28 L 26.1191,-116.359 L 25.8432,-116.42
 L 25.564,-116.465 L 25.2825,-116.491 L 25,-116.5 L 24.7174,-116.491 L 24.436,-116.465 L 24.1568,-116.42
 L 23.8809,-116.359 L 23.6094,-116.28 L 23.3434,-116.184 L 23.084,-116.072 L 22.8321,-115.943 L 22.5888,-115.799
 L 22.355,-115.641 L 22.1316,-115.467 L 21.9195,-115.28 L 21.7196,-115.08 L 21.5327,-114.868 L 21.3594,-114.645
 L 21.2005,-114.411 L 21.0566,-114.168 L 20.9283,-113.916 L 20.816,-113.657 L 20.7202,-113.391 L 20.6414,-113.119
 L 20.5797,-112.843 L 20.5355,-112.564 L 20.5089,-112.283 L 20.5,-112 L 20.5,-101.5 L 20.5089,-101.217
 L 20.5355,-100.936 L 20.5797,-100.657 L 20.6414,-100.381 L 20.7202,-100.109 L 20.816,-99.8434 L 20.9283,-99.584
 L 21.0566,-99.3321 L 21.2005,-99.0888 L 21.3594,-98.855 L 21.5327,-98.6316 L 21.7196,-98.4195 L 21.9195,-98.2196
 L 22.1316,-98.0327 L 22.355,-97.8594 L 22.5888,-97.7005 L 22.8321,-97.5566 L 23.084,-97.4283 L 23.3434,-97.316
 L 23.6094,-97.2202 L 23.8809,-97.1414 L 24.1568,-97.0797 L 24.436,-97.0355 L 24.7174,-97.0089 L 25,-97
 z
M 53.8971,-84.3525 L 53.8971,-88.8525 L 50,-91.1025 L 46.1029,-88.8525 L 46.1029,-84.3525 L 50,-82.1025
 z
M -46.1029,-84.3525 L -46.1029,-88.8525 L -50,-91.1025 L -53.8971,-88.8525 L -53.8971,-84.3525 L -50,-82.1025
 z
M -75.2131,-67.9046 L -74.9312,-67.9253 L -74.6511,-67.9637 L -74.374,-68.0195 L -74.1009,-68.0927 L -73.833,-68.1829
 L -73.5713,-68.2897 L -73.3167,-68.4127 L -73.0704,-68.5515 L -72.8334,-68.7055 L -72.6064,-68.874 L -72.3905,-69.0565
 L -72.1864,-69.2522 L -71.9951,-69.4602 L -71.8172,-69.6799 L -71.6534,-69.9104 L -71.5045,-70.1506 L -71.3709,-70.3998
 L -71.2532,-70.6568 L -71.1519,-70.9207 L -71.0673,-71.1905 L -70.9999,-71.465 L -70.9498,-71.7433 L -70.9174,-72.0241
 L -70.9026,-72.3064 L -70.9055,-72.5891 L -70.9262,-72.871 L -70.9646,-73.1511 L -71.0205,-73.4282 L -71.0936,-73.7013
 L -71.1838,-73.9692 L -71.2906,-74.2309 L -71.4137,-74.4855 L -71.5524,-74.7318 L -71.7064,-74.9688 L -71.875,-75.1958
 L -72.0574,-75.4117 L -72.2531,-75.6158 L -72.4612,-75.8071 L -72.6809,-75.985 L -72.9113,-76.1488 L -73.1516,-76.2977
 L -82.2448,-81.5477 L -82.494,-81.6813 L -82.751,-81.799 L -83.0149,-81.9003 L -83.2847,-81.9849 L -83.5592,-82.0523
 L -83.8375,-82.1024 L -84.1183,-82.1348 L -84.4006,-82.1496 L -84.6833,-82.1467 L -84.9652,-82.126 L -85.2453,-82.0876
 L -85.5224,-82.0317 L -85.7955,-81.9586 L -86.0634,-81.8684 L -86.3251,-81.7616 L -86.5797,-81.6385 L -86.826,-81.4998
 L -87.063,-81.3458 L -87.29,-81.1772 L -87.5059,-80.9948 L -87.71,-80.7991 L -87.9013,-80.591 L -88.0792,-80.3713
 L -88.243,-80.1409 L -88.392,-79.9006 L -88.5255,-79.6515 L -88.6432,-79.3945 L -88.7445,-79.1305 L -88.8291,-78.8608
 L -88.8965,-78.5862 L -88.9466,-78.308 L -88.9791,-78.0272 L -88.9939,-77.7449 L -88.9909,-77.4622 L -88.9702,-77.1803
 L -88.9318,-76.9002 L -88.8759,-76.623 L -88.8028,-76.35 L -88.7126,-76.0821 L -88.6058,-75.8203 L -88.4828,-75.5658
 L -88.344,-75.3195 L -88.19,-75.0824 L -88.0215,-74.8555 L -87.839,-74.6395 L -87.6433,-74.4355 L -87.4352,-74.2442
 L -87.2155,-74.0663 L -86.9851,-73.9025 L -86.7448,-73.7535 L -77.6516,-68.5035 L -77.4024,-68.3699 L -77.1454,-68.2522
 L -76.8815,-68.1509 L -76.6117,-68.0664 L -76.3372,-67.999 L -76.0589,-67.9489 L -75.7781,-67.9164 L -75.4958,-67.9016
 z
M 0.282547,-53.0089 L 0.563995,-53.0355 L 0.843201,-53.0797 L 1.11909,-53.1414 L 1.39056,-53.2202 L 1.65656,-53.316
 L 1.916,-53.4283 L 2.16788,-53.5566 L 2.41121,-53.7005 L 2.64502,-53.8594 L 2.86839,-54.0327 L 3.08046,-54.2196
 L 3.28035,-54.4195 L 3.4673,-54.6316 L 3.64056,-54.855 L 3.79947,-55.0888 L 3.94337,-55.3321 L 4.07172,-55.584
 L 4.18399,-55.8434 L 4.27974,-56.1094 L 4.35861,-56.3809 L 4.42029,-56.6568 L 4.46451,-56.936 L 4.49112,-57.2174
 L 4.5,-57.5 L 4.5,-68 L 4.49112,-68.2825 L 4.46451,-68.564 L 4.42029,-68.8432 L 4.35861,-69.1191
 L 4.27974,-69.3906 L 4.18399,-69.6566 L 4.07172,-69.916 L 3.94337,-70.1679 L 3.79947,-70.4112 L 3.64056,-70.645
 L 3.4673,-70.8684 L 3.28035,-71.0805 L 3.08046,-71.2803 L 2.86839,-71.4673 L 2.64502,-71.6406 L 2.41121,-71.7995
 L 2.16788,-71.9434 L 1.916,-72.0717 L 1.65656,-72.184 L 1.39056,-72.2798 L 1.11909,-72.3586 L 0.843201,-72.4203
 L 0.563995,-72.4645 L 0.282547,-72.4911 L 0,-72.5 L -0.282547,-72.4911 L -0.563995,-72.4645 L -0.843201,-72.4203
 L -1.11909,-72.3586 L -1.39056,-72.2798 L -1.65656,-72.184 L -1.916,-72.0717 L -2.16788,-71.9434 L -2.41121,-71.7995
 L -2.64502,-71.6406 L -2.86839,-71.4673 L -3.08046,-71.2803 L -3.28035,-71.0805 L -3.4673,-70.8684 L -3.64056,-70.645
 L -3.79947,-70.4112 L -3.94337,-70.1679 L -4.07172,-69.916 L -4.18399,-69.6566 L -4.27974,-69.3906 L -4.35861,-69.1191
 L -4.42029,-68.8432 L -4.46451,-68.564 L -4.49112,-68.2825 L -4.5,-68 L -4.5,-57.5 L -4.49112,-57.2174
 L -4.46451,-56.936 L -4.42029,-56.6568 L -4.35861,-56.3809 L -4.27974,-56.1094 L -4.18399,-55.8434 L -4.07172,-55.584
 L -3.94337,-55.3321 L -3.79947,-55.0888 L -3.64056,-54.855 L -3.4673,-54.6316 L -3.28035,-54.4195 L -3.08046,-54.2196
 L -2.86839,-54.0327 L -2.64502,-53.8594 L -2.41121,-53.7005 L -2.16788,-53.5566 L -1.916,-53.4283 L -1.65656,-53.316
 L -1.39056,-53.2202 L -1.11909,-53.1414 L -0.843201,-53.0797 L -0.563995,-53.0355 L -0.282547,-53.0089 L 0,-53
 z
M -100.213,-24.6033 L -99.9312,-24.624 L -99.6511,-24.6624 L -99.374,-24.7182 L -99.1009,-24.7914 L -98.833,-24.8816
 L -98.5713,-24.9884 L -98.3167,-25.1114 L -98.0704,-25.2502 L -97.8334,-25.4042 L -97.6064,-25.5727 L -97.3905,-25.7552
 L -97.1864,-25.9509 L -96.9951,-26.159 L -96.8172,-26.3787 L -96.6534,-26.6091 L -96.5045,-26.8494 L -96.3709,-27.0985
 L -96.2532,-27.3555 L -96.1519,-27.6195 L -96.0673,-27.8892 L -95.9999,-28.1638 L -95.9498,-28.442 L -95.9174,-28.7228
 L -95.9026,-29.0051 L -95.9055,-29.2878 L -95.9262,-29.5697 L -95.9646,-29.8498 L -96.0205,-30.1269 L -96.0936,-30.4
 L -96.1838,-30.6679 L -96.2906,-30.9297 L -96.4137,-31.1842 L -96.5524,-31.4305 L -96.7064,-31.6676 L -96.875,-31.8945
 L -97.0574,-32.1104 L -97.2531,-32.3145 L -97.4612,-32.5058 L -97.6809,-32.6837 L -97.9113,-32.8475 L -98.1516,-32.9965
 L -107.245,-38.2465 L -107.494,-38.3801 L -107.751,-38.4977 L -108.015,-38.5991 L -108.285,-38.6836 L -108.559,-38.751
 L -108.837,-38.8011 L -109.118,-38.8336 L -109.401,-38.8484 L -109.683,-38.8454 L -109.965,-38.8247 L -110.245,-38.7863
 L -110.522,-38.7305 L -110.795,-38.6573 L -111.063,-38.5671 L -111.325,-38.4603 L -111.58,-38.3373 L -111.826,-38.1985
 L -112.063,-38.0445 L -112.29,-37.876 L -112.506,-37.6935 L -112.71,-37.4978 L -112.901,-37.2897 L -113.079,-37.0701
 L -113.243,-36.8396 L -113.392,-36.5994 L -113.526,-36.3502 L -113.643,-36.0932 L -113.745,-35.8293 L -113.829,-35.5595
 L -113.896,-35.285 L -113.947,-35.0067 L -113.979,-34.7259 L -113.994,-34.4436 L -113.991,-34.1609 L -113.97,-33.879
 L -113.932,-33.5989 L -113.876,-33.3218 L -113.803,-33.0487 L -113.713,-32.7808 L -113.606,-32.519 L -113.483,-32.2645
 L -113.344,-32.0182 L -113.19,-31.7811 L -113.021,-31.5542 L -112.839,-31.3383 L -112.643,-31.1342 L -112.435,-30.9429
 L -112.216,-30.765 L -111.985,-30.6012 L -111.745,-30.4522 L -102.652,-25.2022 L -102.402,-25.0686 L -102.145,-24.951
 L -101.881,-24.8497 L -101.612,-24.7651 L -101.337,-24.6977 L -101.059,-24.6476 L -100.778,-24.6151 L -100.496,-24.6003
 z
M -49.608,-24.2539 L -49.3261,-24.2746 L -49.046,-24.313 L -48.7689,-24.3689 L -48.4958,-24.4421 L -48.2279,-24.5322
 L -47.9661,-24.639 L -47.7116,-24.7621 L -47.4653,-24.9008 L -47.2282,-25.0548 L -47.0013,-25.2234 L -46.7854,-25.4058
 L -46.5813,-25.6015 L -46.39,-25.8096 L -46.2121,-26.0293 L -46.0483,-26.2597 L -45.8993,-26.5 L -45.7657,-26.7491
 L -45.6481,-27.0062 L -45.5468,-27.2701 L -45.4622,-27.5399 L -45.3948,-27.8144 L -45.3447,-28.0926 L -45.3122,-28.3734
 L -45.2974,-28.6557 L -45.3004,-28.9384 L -45.3211,-29.2204 L -45.3595,-29.5005 L -45.4153,-29.7776 L -45.4885,-30.0506
 L -45.5787,-30.3186 L -45.6855,-30.5803 L -45.8085,-30.8348 L -45.9473,-31.0811 L -46.1013,-31.3182 L -46.2698,-31.5452
 L -46.4523,-31.7611 L -46.648,-31.9651 L -46.8561,-32.1565 L -47.0758,-32.3344 L -47.3062,-32.4981 L -47.5464,-32.6471
 L -56.6397,-37.8971 L -56.8889,-38.0307 L -57.1459,-38.1484 L -57.4098,-38.2497 L -57.6796,-38.3342 L -57.9541,-38.4017
 L -58.2323,-38.4517 L -58.5132,-38.4842 L -58.7955,-38.499 L -59.0782,-38.496 L -59.3601,-38.4753 L -59.6402,-38.437
 L -59.9173,-38.3811 L -60.1904,-38.3079 L -60.4583,-38.2178 L -60.72,-38.1109 L -60.9745,-37.9879 L -61.2208,-37.8491
 L -61.4579,-37.6952 L -61.6849,-37.5266 L -61.9008,-37.3441 L -62.1048,-37.1485 L -62.2962,-36.9404 L -62.4741,-36.7207
 L -62.6379,-36.4902 L -62.7868,-36.25 L -62.9204,-36.0009 L -63.0381,-35.7438 L -63.1394,-35.4799 L -63.224,-35.2101
 L -63.2914,-34.9356 L -63.3414,-34.6574 L -63.3739,-34.3765 L -63.3887,-34.0942 L -63.3858,-33.8116 L -63.3651,-33.5296
 L -63.3267,-33.2495 L -63.2708,-32.9724 L -63.1977,-32.6994 L -63.1075,-32.4314 L -63.0007,-32.1697 L -62.8776,-31.9152
 L -62.7389,-31.6689 L -62.5849,-31.4318 L -62.4163,-31.2048 L -62.2339,-30.9889 L -62.0382,-30.7849 L -61.8301,-30.5935
 L -61.6104,-30.4156 L -61.38,-30.2518 L -61.1397,-30.1029 L -52.0464,-24.8529 L -51.7973,-24.7193 L -51.5403,-24.6016
 L -51.2764,-24.5003 L -51.0066,-24.4158 L -50.7321,-24.3483 L -50.4538,-24.2983 L -50.173,-24.2658 L -49.8907,-24.251
 z
M -96.1029,2.24998 L -96.1029,-2.25 L -100,-4.5 L -103.897,-2.25 L -103.897,2.24998 L -100,4.49998
 z
M 103.897,2.25 L 103.897,-2.24998 L 100,-4.49998 L 96.1029,-2.24998 L 96.1029,2.25 L 100,4.5
 z
M -78.5648,18.3865 L -78.283,18.3638 L -78.0032,18.3235 L -77.7265,18.2657 L -77.4539,18.1906 L -77.1866,18.0986
 L -76.9256,17.9899 L -76.672,17.8651 L -76.4267,17.7246 L -76.1907,17.569 L -75.9649,17.3989 L -75.7503,17.2149
 L -75.5476,17.0178 L -75.3577,16.8084 L -75.1813,16.5874 L -75.0192,16.3559 L -74.8719,16.1146 L -74.74,15.8645
 L -74.6242,15.6067 L -74.5247,15.342 L -74.442,15.0717 L -74.3765,14.7967 L -74.3284,14.5181 L -74.2979,14.2371
 L -74.285,13.9547 L -74.29,13.672 L -74.3127,13.3902 L -74.353,13.1104 L -74.4108,12.8337 L -74.4859,12.5612
 L -74.5779,12.2939 L -74.6865,12.0329 L -74.8114,11.7792 L -74.9518,11.5339 L -75.1075,11.2979 L -75.2776,11.0721
 L -75.4616,10.8575 L -75.6587,10.6548 L -75.8681,10.4649 L -76.089,10.2886 L -76.3206,10.1264 L -76.5619,9.97913
 L -76.812,9.84727 L -77.0698,9.73138 L -77.3344,9.63193 L -77.6048,9.54927 L -77.8798,9.48376 L -78.1583,9.43564
 L -78.4394,9.40511 L -78.7218,9.39229 L -79.0044,9.39722 L -79.2862,9.41989 L -79.566,9.46021 L -79.8428,9.51802
 L -80.1153,9.59309 L -80.3826,9.68513 L -80.6436,9.79378 L -80.8972,9.91858 L -81.1425,10.0591 L -81.3786,10.2147
 L -81.6043,10.3848 L -81.819,10.5688 L -82.0217,10.7659 L -82.2115,10.9753 L -82.3879,11.1962 L -82.55,11.4278
 L -82.6973,11.6691 L -82.8292,11.9192 L -82.9451,12.177 L -83.0445,12.4417 L -83.1272,12.712 L -83.1927,12.987
 L -83.2408,13.2656 L -83.2713,13.5466 L -83.2842,13.829 L -83.2793,14.1117 L -83.2566,14.3935 L -83.2162,14.6733
 L -83.1584,14.95 L -83.0834,15.2225 L -82.9913,15.4898 L -82.8827,15.7508 L -82.7579,16.0045 L -82.6174,16.2498
 L -82.4618,16.4858 L -82.2916,16.7116 L -82.1077,16.9262 L -81.9106,17.1289 L -81.7012,17.3188 L -81.4802,17.4951
 L -81.2487,17.6573 L -81.0074,17.8046 L -80.7573,17.9364 L -80.4994,18.0523 L -80.2348,18.1518 L -79.9645,18.2344
 L -79.6895,18.2999 L -79.4109,18.3481 L -79.1299,18.3786 L -78.8474,18.3914 z
M -98.2609,21.8594 L -97.9792,21.8368 L -97.6994,21.7964 L -97.4226,21.7386 L -97.1501,21.6636 L -96.8828,21.5715
 L -96.6218,21.4629 L -96.3681,21.3381 L -96.1228,21.1976 L -95.8868,21.042 L -95.6611,20.8718 L -95.4464,20.6879
 L -95.2437,20.4908 L -95.0538,20.2814 L -94.8775,20.0604 L -94.7153,19.8288 L -94.568,19.5876 L -94.4362,19.3375
 L -94.3203,19.0796 L -94.2209,18.815 L -94.1382,18.5447 L -94.0727,18.2697 L -94.0246,17.9911 L -93.994,17.7101
 L -93.9812,17.4276 L -93.9861,17.145 L -94.0088,16.8632 L -94.0491,16.5834 L -94.1069,16.3067 L -94.182,16.0341
 L -94.2741,15.7668 L -94.3827,15.5058 L -94.5075,15.2522 L -94.648,15.0069 L -94.8036,14.7709 L -94.9738,14.5451
 L -95.1577,14.3304 L -95.3548,14.1278 L -95.5642,13.9379 L -95.7852,13.7615 L -96.0167,13.5994 L -96.258,13.4521
 L -96.5081,13.3202 L -96.766,13.2043 L -97.0306,13.1049 L -97.3009,13.0222 L -97.5759,12.9567 L -97.8545,12.9086
 L -98.1355,12.8781 L -98.4179,12.8652 L -98.7006,12.8702 L -98.9824,12.8929 L -99.2622,12.9332 L -99.5389,12.991
 L -99.8115,13.0661 L -100.079,13.1581 L -100.34,13.2667 L -100.593,13.3915 L -100.839,13.532 L -101.075,13.6877
 L -101.3,13.8578 L -101.515,14.0418 L -101.718,14.2388 L -101.908,14.4483 L -102.084,14.6692 L -102.246,14.9008
 L -102.393,15.1421 L -102.525,15.3921 L -102.641,15.65 L -102.741,15.9146 L -102.823,16.185 L -102.889,16.46
 L -102.937,16.7385 L -102.968,17.0196 L -102.98,17.302 L -102.975,17.5846 L -102.953,17.8664 L -102.912,18.1462
 L -102.855,18.4229 L -102.78,18.6955 L -102.687,18.9628 L -102.579,19.2238 L -102.454,19.4774 L -102.314,19.7227
 L -102.158,19.9588 L -101.988,20.1845 L -101.804,20.3992 L -101.607,20.6018 L -101.397,20.7917 L -101.176,20.9681
 L -100.945,21.1302 L -100.704,21.2775 L -100.453,21.4094 L -100.196,21.5253 L -99.931,21.6247 L -99.6606,21.7074
 L -99.3856,21.7729 L -99.1071,21.821 L -98.826,21.8515 L -98.5436,21.8644 z
M 59.0782,38.496 L 59.3601,38.4753 L 59.6402,38.437 L 59.9173,38.3811 L 60.1904,38.3079 L 60.4583,38.2178
 L 60.72,38.1109 L 60.9745,37.9879 L 61.2208,37.8491 L 61.4579,37.6952 L 61.6849,37.5266 L 61.9008,37.3441
 L 62.1048,37.1485 L 62.2962,36.9404 L 62.4741,36.7207 L 62.6379,36.4902 L 62.7868,36.25 L 62.9204,36.0009
 L 63.0381,35.7438 L 63.1394,35.4799 L 63.224,35.2101 L 63.2914,34.9356 L 63.3414,34.6574 L 63.3739,34.3765
 L 63.3887,34.0942 L 63.3858,33.8116 L 63.3651,33.5296 L 63.3267,33.2495 L 63.2708,32.9724 L 63.1977,32.6994
 L 63.1075,32.4314 L 63.0007,32.1697 L 62.8776,31.9152 L 62.7389,31.6689 L 62.5849,31.4318 L 62.4163,31.2048
 L 62.2339,30.9889 L 62.0382,30.7849 L 61.8301,30.5935 L 61.6104,30.4156 L 61.38,30.2518 L 61.1397,30.1029
 L 52.0464,24.8529 L 51.7973,24.7193 L 51.5403,24.6016 L 51.2764,24.5003 L 51.0066,24.4158 L 50.7321,24.3483
 L 50.4538,24.2983 L 50.173,24.2658 L 49.8907,24.251 L 49.608,24.2539 L 49.3261,24.2746 L 49.046,24.313
 L 48.7689,24.3689 L 48.4958,24.4421 L 48.2279,24.5322 L 47.9661,24.639 L 47.7116,24.7621 L 47.4653,24.9008
 L 47.2282,25.0548 L 47.0013,25.2234 L 46.7854,25.4058 L 46.5813,25.6015 L 46.39,25.8096 L 46.2121,26.0293
 L 46.0483,26.2597 L 45.8993,26.5 L 45.7657,26.7491 L 45.6481,27.0062 L 45.5468,27.2701 L 45.4622,27.5399
 L 45.3948,27.8144 L 45.3447,28.0926 L 45.3122,28.3734 L 45.2974,28.6557 L 45.3004,28.9384 L 45.3211,29.2204
 L 45.3595,29.5005 L 45.4153,29.7776 L 45.4885,30.0506 L 45.5787,30.3186 L 45.6855,30.5803 L 45.8085,30.8348
 L 45.9473,31.0811 L 46.1013,31.3182 L 46.2698,31.5452 L 46.4523,31.7611 L 46.648,31.9651 L 46.8561,32.1565
 L 47.0758,32.3344 L 47.3062,32.4981 L 47.5464,32.6471 L 56.6397,37.8971 L 56.8889,38.0307 L 57.1459,38.1484
 L 57.4098,38.2497 L 57.6796,38.3342 L 57.9541,38.4017 L 58.2323,38.4517 L 58.5132,38.4842 L 58.7955,38.499
 z
M 109.683,38.8454 L 109.965,38.8247 L 110.245,38.7863 L 110.522,38.7305 L 110.795,38.6573 L 111.063,38.5671
 L 111.325,38.4603 L 111.58,38.3373 L 111.826,38.1985 L 112.063,38.0445 L 112.29,37.876 L 112.506,37.6935
 L 112.71,37.4978 L 112.901,37.2897 L 113.079,37.0701 L 113.243,36.8396 L 113.392,36.5994 L 113.526,36.3502
 L 113.643,36.0932 L 113.745,35.8293 L 113.829,35.5595 L 113.896,35.285 L 113.947,35.0067 L 113.979,34.7259
 L 113.994,34.4436 L 113.991,34.1609 L 113.97,33.879 L 113.932,33.5989 L 113.876,33.3218 L 113.803,33.0487
 L 113.713,32.7808 L 113.606,32.519 L 113.483,32.2645 L 113.344,32.0182 L 113.19,31.7811 L 113.021,31.5542
 L 112.839,31.3383 L 112.643,31.1342 L 112.435,30.9429 L 112.216,30.765 L 111.985,30.6012 L 111.745,30.4522
 L 102.652,25.2022 L 102.402,25.0686 L 102.145,24.951 L 101.881,24.8497 L 101.612,24.7651 L 101.337,24.6977
 L 101.059,24.6476 L 100.778,24.6151 L 100.496,24.6003 L 100.213,24.6033 L 99.9312,24.624 L 99.6511,24.6624
 L 99.374,24.7182 L 99.1009,24.7914 L 98.833,24.8816 L 98.5713,24.9884 L 98.3167,25.1114 L 98.0704,25.2502
 L 97.8334,25.4042 L 97.6064,25.5727 L 97.3905,25.7552 L 97.1864,25.9509 L 96.9951,26.159 L 96.8172,26.3787
 L 96.6534,26.6091 L 96.5045,26.8494 L 96.3709,27.0985 L 96.2532,27.3555 L 96.1519,27.6195 L 96.0673,27.8892
 L 95.9999,28.1638 L 95.9498,28.442 L 95.9174,28.7228 L 95.9026,29.0051 L 95.9055,29.2878 L 95.9262,29.5697
 L 95.9646,29.8498 L 96.0205,30.1269 L 96.0936,30.4 L 96.1838,30.6679 L 96.2906,30.9297 L 96.4137,31.1842
 L 96.5524,31.4305 L 96.7064,31.6676 L 96.875,31.8945 L 97.0574,32.1104 L 97.2531,32.3145 L 97.4612,32.5058
 L 97.6809,32.6837 L 97.9113,32.8475 L 98.1516,32.9965 L 107.245,38.2465 L 107.494,38.3801 L 107.751,38.4977
 L 108.015,38.5991 L 108.285,38.6836 L 108.559,38.751 L 108.837,38.8011 L 109.118,38.8336 L 109.401,38.8484
 z
M -86.226,54.4842 L -85.9452,54.4517 L -85.6669,54.4017 L -85.3924,54.3342 L -85.1226,54.2497 L -84.8587,54.1484
 L -84.6017,54.0307 L -84.3525,53.8971 L -84.1123,53.7481 L -83.8818,53.5844 L -83.6621,53.4065 L -83.4541,53.2151
 L -83.2584,53.0111 L -83.0759,52.7952 L -82.9074,52.5682 L -82.7534,52.3311 L -82.6146,52.0848 L -82.4916,51.8303
 L -82.3848,51.5686 L -82.2946,51.3006 L -82.2214,51.0276 L -82.1656,50.7505 L -82.1272,50.4704 L -82.1065,50.1884
 L -82.1035,49.9057 L -82.1183,49.6234 L -82.1508,49.3426 L -82.2009,49.0644 L -82.2683,48.7899 L -82.3528,48.5201
 L -82.4541,48.2562 L -82.5718,47.9991 L -82.7054,47.75 L -82.8544,47.5097 L -83.0182,47.2793 L -83.1961,47.0596
 L -83.3874,46.8515 L -83.5914,46.6558 L -83.8074,46.4734 L -84.0343,46.3048 L -84.2714,46.1508 L -84.5177,46.0121
 L -84.7722,45.889 L -85.034,45.7822 L -85.3019,45.6921 L -85.575,45.6189 L -85.8521,45.563 L -86.1322,45.5246
 L -86.4141,45.5039 L -86.6968,45.501 L -86.9791,45.5158 L -87.2599,45.5483 L -87.5381,45.5983 L -87.8127,45.6658
 L -88.0824,45.7503 L -88.3464,45.8516 L -88.6034,45.9693 L -88.8525,46.1029 L -89.0928,46.2518 L -89.3232,46.4156
 L -89.5429,46.5935 L -89.751,46.7849 L -89.9467,46.9889 L -90.1292,47.2048 L -90.2977,47.4318 L -90.4517,47.6689
 L -90.5905,47.9152 L -90.7135,48.1697 L -90.8203,48.4314 L -90.9105,48.6994 L -90.9836,48.9724 L -91.0395,49.2495
 L -91.0779,49.5296 L -91.0986,49.8116 L -91.1015,50.0942 L -91.0868,50.3765 L -91.0543,50.6574 L -91.0042,50.9356
 L -90.9368,51.2101 L -90.8522,51.4799 L -90.7509,51.7438 L -90.6332,52.0009 L -90.4996,52.25 L -90.3507,52.4902
 L -90.1869,52.7207 L -90.009,52.9404 L -89.8177,53.1485 L -89.6136,53.3441 L -89.3977,53.5266 L -89.1707,53.6952
 L -88.9337,53.8491 L -88.6874,53.9879 L -88.4328,54.1109 L -88.1711,54.2178 L -87.9032,54.3079 L -87.6301,54.3811
 L -87.353,54.437 L -87.0729,54.4753 L -86.791,54.496 L -86.5083,54.499 z
M 0.282547,72.4911 L 0.563995,72.4645 L 0.843201,72.4203 L 1.11909,72.3586 L 1.39056,72.2798 L 1.65656,72.184
 L 1.916,72.0717 L 2.16788,71.9434 L 2.41121,71.7995 L 2.64502,71.6406 L 2.86839,71.4673 L 3.08046,71.2803
 L 3.28035,71.0805 L 3.4673,70.8684 L 3.64056,70.645 L 3.79947,70.4112 L 3.94337,70.1679 L 4.07172,69.916
 L 4.18399,69.6566 L 4.27974,69.3906 L 4.35861,69.1191 L 4.42029,68.8432 L 4.46451,68.564 L 4.49112,68.2825
 L 4.5,68 L 4.5,57.5 L 4.49112,57.2174 L 4.46451,56.936 L 4.42029,56.6568 L 4.35861,56.3809
 L 4.27974,56.1094 L 4.18399,55.8434 L 4.07172,55.584 L 3.94337,55.3321 L 3.79947,55.0888 L 3.64056,54.855
 L 3.4673,54.6316 L 3.28035,54.4195 L 3.08046,54.2196 L 2.86839,54.0327 L 2.64502,53.8594 L 2.41121,53.7005
 L 2.16788,53.5566 L 1.916,53.4283 L 1.65656,53.316 L 1.39056,53.2202 L 1.11909,53.1414 L 0.843201,53.0797
 L 0.563995,53.0355 L 0.282547,53.0089 L 0,53 L -0.282547,53.0089 L -0.563995,53.0355 L -0.843201,53.0797
 L -1.11909,53.1414 L -1.39056,53.2202 L -1.65656,53.316 L -1.916,53.4283 L -2.16788,53.5566 L -2.41121,53.7005
 L -2.64502,53.8594 L -2.86839,54.0327 L -3.08046,54.2196 L -3.28035,54.4195 L -3.4673,54.6316 L -3.64056,54.855
 L -3.79947,55.0888 L -3.94337,55.3321 L -4.07172,55.584 L -4.18399,55.8434 L -4.27974,56.1094 L -4.35861,56.3809
 L -4.42029,56.6568 L -4.46451,56.936 L -4.49112,57.2174 L -4.5,57.5 L -4.5,68 L -4.49112,68.2825
 L -4.46451,68.564 L -4.42029,68.8432 L -4.35861,69.1191 L -4.27974,69.3906 L -4.18399,69.6566 L -4.07172,69.916
 L -3.94337,70.1679 L -3.79947,70.4112 L -3.64056,70.645 L -3.4673,70.8684 L -3.28035,71.0805 L -3.08046,71.2803
 L -2.86839,71.4673 L -2.64502,71.6406 L -2.41121,71.7995 L -2.16788,71.9434 L -1.916,72.0717 L -1.65656,72.184
 L -1.39056,72.2798 L -1.11909,72.3586 L -0.843201,72.4203 L -0.563995,72.4645 L -0.282547,72.4911 L 0,72.5
 z
M -51.1718,65.7765 L -50.8902,65.7519 L -50.6107,65.7096 L -50.3344,65.6499 L -50.0623,65.5729 L -49.7957,65.479
 L -49.5355,65.3685 L -49.2827,65.242 L -49.0384,65.0998 L -48.8035,64.9425 L -48.5789,64.7708 L -48.3655,64.5853
 L -48.1642,64.3868 L -47.9758,64.1761 L -47.801,63.9539 L -47.6405,63.7212 L -47.4949,63.4789 L -47.3648,63.2279
 L -47.2507,62.9693 L -47.1531,62.704 L -47.0723,62.4331 L -47.0087,62.1576 L -46.9625,61.8787 L -46.934,61.5975
 L -46.9231,61.315 L -46.93,61.0323 L -46.9547,60.7507 L -46.9969,60.4712 L -47.0567,60.1949 L -47.1337,59.9229
 L -47.2275,59.6562 L -47.338,59.396 L -47.4646,59.1432 L -47.6068,58.8989 L -47.7641,58.664 L -47.9357,58.4394
 L -48.1212,58.2261 L -48.3197,58.0248 L -48.5305,57.8363 L -48.7526,57.6615 L -48.9853,57.501 L -49.2276,57.3554
 L -49.4786,57.2253 L -49.7373,57.1112 L -50.0026,57.0136 L -50.2735,56.9328 L -50.549,56.8692 L -50.8279,56.8231
 L -51.1091,56.7945 L -51.3916,56.7837 L -51.6742,56.7906 L -51.9558,56.8152 L -52.2353,56.8575 L -52.5117,56.9172
 L -52.7837,56.9942 L -53.0503,57.0881 L -53.3105,57.1985 L -53.5633,57.3251 L -53.8076,57.4673 L -54.0426,57.6246
 L -54.2671,57.7963 L -54.4805,57.9818 L -54.6818,58.1803 L -54.8702,58.391 L -55.045,58.6132 L -55.2056,58.8459
 L -55.3512,59.0882 L -55.4812,59.3392 L -55.5953,59.5978 L -55.6929,59.8631 L -55.7737,60.134 L -55.8373,60.4095
 L -55.8835,60.6884 L -55.912,60.9697 L -55.9229,61.2521 L -55.916,61.5347 L -55.8913,61.8164 L -55.8491,62.0959
 L -55.7893,62.3722 L -55.7124,62.6442 L -55.6185,62.9109 L -55.508,63.1711 L -55.3814,63.4239 L -55.2392,63.6682
 L -55.082,63.9031 L -54.9102,64.1277 L -54.7248,64.341 L -54.5263,64.5423 L -54.3156,64.7308 L -54.0934,64.9056
 L -53.8607,65.0661 L -53.6184,65.2117 L -53.3674,65.3418 L -53.1087,65.4559 L -52.8434,65.5535 L -52.5725,65.6343
 L -52.2971,65.6978 L -52.0182,65.744 L -51.7369,65.7726 L -51.4544,65.7834 z
M 84.6833,82.1467 L 84.9652,82.126 L 85.2453,82.0876 L 85.5224,82.0317 L 85.7955,81.9586 L 86.0634,81.8684
 L 86.3251,81.7616 L 86.5797,81.6385 L 86.826,81.4998 L 87.063,81.3458 L 87.29,81.1772 L 87.5059,80.9948
 L 87.71,80.7991 L 87.9013,80.591 L 88.0792,80.3713 L 88.243,80.1409 L 88.392,79.9006 L 88.5255,79.6515
 L 88.6432,79.3945 L 88.7445,79.1305 L 88.8291,78.8608 L 88.8965,78.5862 L 88.9466,78.308 L 88.9791,78.0272
 L 88.9939,77.7449 L 88.9909,77.4622 L 88.9702,77.1803 L 88.9318,76.9002 L 88.8759,76.623 L 88.8028,76.35
 L 88.7126,76.0821 L 88.6058,75.8203 L 88.4828,75.5658 L 88.344,75.3195 L 88.19,75.0824 L 88.0215,74.8555
 L 87.839,74.6395 L 87.6433,74.4355 L 87.4352,74.2442 L 87.2155,74.0663 L 86.9851,73.9025 L 86.7448,73.7535
 L 77.6516,68.5035 L 77.4024,68.3699 L 77.1454,68.2522 L 76.8815,68.1509 L 76.6117,68.0664 L 76.3372,67.999
 L 76.0589,67.9489 L 75.7781,67.9164 L 75.4958,67.9016 L 75.2131,67.9046 L 74.9312,67.9253 L 74.6511,67.9637
 L 74.374,68.0195 L 74.1009,68.0927 L 73.833,68.1829 L 73.5713,68.2897 L 73.3167,68.4127 L 73.0704,68.5515
 L 72.8334,68.7055 L 72.6064,68.874 L 72.3905,69.0565 L 72.1864,69.2522 L 71.9951,69.4602 L 71.8172,69.6799
 L 71.6534,69.9104 L 71.5045,70.1506 L 71.3709,70.3998 L 71.2532,70.6568 L 71.1519,70.9207 L 71.0673,71.1905
 L 70.9999,71.465 L 70.9498,71.7433 L 70.9174,72.0241 L 70.9026,72.3064 L 70.9055,72.5891 L 70.9262,72.871
 L 70.9646,73.1511 L 71.0205,73.4282 L 71.0936,73.7013 L 71.1838,73.9692 L 71.2906,74.2309 L 71.4137,74.4855
 L 71.5524,74.7318 L 71.7064,74.9688 L 71.875,75.1958 L 72.0574,75.4117 L 72.2531,75.6158 L 72.4612,75.8071
 L 72.6809,75.985 L 72.9113,76.1488 L 73.1516,76.2977 L 82.2448,81.5477 L 82.494,81.6813 L 82.751,81.799
 L 83.0149,81.9003 L 83.2847,81.9849 L 83.5592,82.0523 L 83.8375,82.1024 L 84.1183,82.1348 L 84.4006,82.1496
 z
M -64.0276,81.0974 L -63.7459,81.0728 L -63.4664,81.0305 L -63.1901,80.9708 L -62.9181,80.8938 L -62.6514,80.7999
 L -62.3912,80.6894 L -62.1384,80.5629 L -61.8941,80.4207 L -61.6592,80.2634 L -61.4346,80.0917 L -61.2213,79.9062
 L -61.02,79.7077 L -60.8316,79.497 L -60.6567,79.2748 L -60.4962,79.0421 L -60.3506,78.7998 L -60.2205,78.5488
 L -60.1064,78.2902 L -60.0088,78.0249 L -59.9281,77.754 L -59.8645,77.4785 L -59.8183,77.1996 L -59.7897,76.9184
 L -59.7789,76.6358 L -59.7858,76.3532 L -59.8104,76.0716 L -59.8527,75.7921 L -59.9124,75.5158 L -59.9894,75.2438
 L -60.0833,74.9771 L -60.1938,74.7169 L -60.3203,74.4641 L -60.4625,74.2198 L -60.6198,73.9849 L -60.7915,73.7603
 L -60.977,73.547 L -61.1755,73.3457 L -61.3862,73.1572 L -61.6084,72.9824 L -61.8411,72.8219 L -62.0834,72.6763
 L -62.3344,72.5462 L -62.593,72.4321 L -62.8583,72.3345 L -63.1292,72.2537 L -63.4047,72.1901 L -63.6836,72.144
 L -63.9648,72.1154 L -64.2473,72.1046 L -64.53,72.1115 L -64.8116,72.1361 L -65.0911,72.1784 L -65.3674,72.2381
 L -65.6394,72.3151 L -65.9061,72.409 L -66.1663,72.5194 L -66.4191,72.646 L -66.6634,72.7882 L -66.8983,72.9455
 L -67.1229,73.1172 L -67.3362,73.3027 L -67.5375,73.5012 L -67.726,73.7119 L -67.9008,73.9341 L -68.0613,74.1667
 L -68.2069,74.4091 L -68.337,74.66 L -68.4511,74.9187 L -68.5487,75.184 L -68.6295,75.4549 L -68.6931,75.7304
 L -68.7392,76.0093 L -68.7678,76.2905 L -68.7786,76.573 L -68.7717,76.8556 L -68.7471,77.1373 L -68.7048,77.4168
 L -68.6451,77.6931 L -68.5681,77.9651 L -68.4742,78.2318 L -68.3638,78.492 L -68.2372,78.7448 L -68.095,78.9891
 L -67.9377,79.224 L -67.766,79.4486 L -67.5805,79.6619 L -67.382,79.8632 L -67.1713,80.0516 L -66.9491,80.2265
 L -66.7164,80.387 L -66.4741,80.5326 L -66.2231,80.6627 L -65.9645,80.7768 L -65.6992,80.8744 L -65.4283,80.9551
 L -65.1528,81.0187 L -64.8739,81.0649 L -64.5927,81.0935 L -64.3102,81.1043 z
M 53.8971,88.8525 L 53.8971,84.3525 L 50,82.1025 L 46.1029,84.3525 L 46.1029,88.8525 L 50,91.1025
 z
M -46.1029,88.8525 L -46.1029,84.3525 L -50,82.1025 L -53.8971,84.3525 L -53.8971,88.8525 L -50,91.1025
 z
M 25.2825,116.491 L 25.564,116.465 L 25.8432,116.42 L 26.1191,116.359 L 26.3906,116.28 L 26.6566,116.184
 L 26.916,116.072 L 27.1679,115.943 L 27.4112,115.799 L 27.645,115.641 L 27.8684,115.467 L 28.0805,115.28
 L 28.2803,115.08 L 28.4673,114.868 L 28.6406,114.645 L 28.7995,114.411 L 28.9434,114.168 L 29.0717,113.916
 L 29.184,113.657 L 29.2797,113.391 L 29.3586,113.119 L 29.4203,112.843 L 29.4645,112.564 L 29.4911,112.283
 L 29.5,112 L 29.5,101.5 L 29.4911,101.217 L 29.4645,100.936 L 29.4203,100.657 L 29.3586,100.381
 L 29.2797,100.109 L 29.184,99.8434 L 29.0717,99.584 L 28.9434,99.3321 L 28.7995,99.0888 L 28.6406,98.855
 L 28.4673,98.6316 L 28.2803,98.4195 L 28.0805,98.2196 L 27.8684,98.0327 L 27.645,97.8594 L 27.4112,97.7005
 L 27.1679,97.5566 L 26.916,97.4283 L 26.6566,97.316 L 26.3906,97.2202 L 26.1191,97.1414 L 25.8432,97.0797
 L 25.564,97.0355 L 25.2825,97.0089 L 25,97 L 24.7174,97.0089 L 24.436,97.0355 L 24.1568,97.0797
 L 23.8809,97.1414 L 23.6094,97.2202 L 23.3434,97.316 L 23.084,97.4283 L 22.8321,97.5566 L 22.5888,97.7005
 L 22.355,97.8594 L 22.1316,98.0327 L 21.9195,98.2196 L 21.7196,98.4195 L 21.5327,98.6316 L 21.3594,98.855
 L 21.2005,99.0888 L 21.0566,99.3321 L 20.9283,99.584 L 20.816,99.8434 L 20.7202,100.109 L 20.6414,100.381
 L 20.5797,100.657 L 20.5355,100.936 L 20.5089,101.217 L 20.5,101.5 L 20.5,112 L 20.5089,112.283
 L 20.5355,112.564 L 20.5797,112.843 L 20.6414,113.119 L 20.7202,113.391 L 20.816,113.657 L 20.9283,113.916
 L 21.0566,114.168 L 21.2005,114.411 L 21.3594,114.645 L 21.5327,114.868 L 21.7196,115.08 L 21.9195,115.28
 L 22.1316,115.467 L 22.355,115.641 L 22.5888,115.799 L 22.8321,115.943 L 23.084,116.072 L 23.3434,116.184
 L 23.6094,116.28 L 23.8809,116.359 L 24.1568,116.42 L 24.436,116.465 L 24.7174,116.491 L 25,116.5
 z
M -24.7174,116.491 L -24.436,116.465 L -24.1568,116.42 L -23.8809,116.359 L -23.6094,116.28 L -23.3434,116.184
 L -23.084,116.072 L -22.8321,115.943 L -22.5888,115.799 L -22.355,115.641 L -22.1316,115.467 L -21.9195,115.28
 L -21.7196,115.08 L -21.5327,114.868 L -21.3594,114.645 L -21.2005,114.411 L -21.0566,114.168 L -20.9283,113.916
 L -20.816,113.657 L -20.7202,113.391 L -20.6414,113.119 L -20.5797,112.843 L -20.5355,112.564 L -20.5089,112.283
 L -20.5,112 L -20.5,101.5 L -20.5089,101.217 L -20.5355,100.936 L -20.5797,100.657 L -20.6414,100.381
 L -20.7202,100.109 L -20.816,99.8434 L -20.9283,99.584 L -21.0566,99.3321 L -21.2005,99.0888 L -21.3594,98.855
 L -21.5327,98.6316 L -21.7196,98.4195 L -21.9195,98.2196 L -22.1316,98.0327 L -22.355,97.8594 L -22.5888,97.7005
 L -22.8321,97.5566 L -23.084,97.4283 L -23.3434,97.316 L -23.6094,97.2202 L -23.8809,97.1414 L -24.1568,97.0797
 L -24.436,97.0355 L -24.7174,97.0089 L -25,97 L -25.2825,97.0089 L -25.564,97.0355 L -25.8432,97.0797
 L -26.1191,97.1414 L -26.3906,97.2202 L -26.6566,97.316 L -26.916,97.4283 L -27.1679,97.5566 L -27.4112,97.7005
 L -27.645,97.8594 L -27.8684,98.0327 L -28.0805,98.2196 L -28.2803,98.4195 L -28.4673,98.6316 L -28.6406,98.855
 L -28.7995,99.0888 L -28.9434,99.3321 L -29.0717,99.584 L -29.184,99.8434 L -29.2798,100.109 L -29.3586,100.381
 L -29.4203,100.657 L -29.4645,100.936 L -29.4911,101.217 L -29.5,101.5 L -29.5,112 L -29.4911,112.283
 L -29.4645,112.564 L -29.4203,112.843 L -29.3586,113.119 L -29.2798,113.391 L -29.184,113.657 L -29.0717,113.916
 L -28.9434,114.168 L -28.7995,114.411 L -28.6406,114.645 L -28.4673,114.868 L -28.2803,115.08 L -28.0805,115.28
 L -27.8684,115.467 L -27.645,115.641 L -27.4112,115.799 L -27.1679,115.943 L -26.916,116.072 L -26.6566,116.184
 L -26.3906,116.28 L -26.1191,116.359 L -25.8432,116.42 L -25.564,116.465 L -25.2825,116.491 L -25,116.5
 z
" stroke="black" fill="lightgray" stroke-width="0.5"/></svg>
