<?xml version="1.0" standalone="no"?>
<!DOCTYPE svg PUBLIC "-//W3C//DTD SVG 1.1//EN" "http://www.w3.org/Graphics/SVG/1.1/DTD/svg11.dtd">
<svg width="240mm" height="240mm" viewBox="-120 -120 240 240" xmlns="http://www.w3.org/2000/svg" version="1.1">
<title>OpenSCAD Model</title>
<path d="
M 7.53485,119.763 L 15.04,119.054 L 22.4857,117.874 L 29.8428,116.23 L 37.082,114.127 L 44.1749,111.573
 L 51.0935,108.579 L 57.8104,105.157 L 64.2992,101.319 L 70.5342,97.082 L 76.4909,92.4616 L 82.1456,87.4762
 L 87.4762,82.1456 L 92.4616,76.4909 L 97.082,70.5342 L 101.319,64.2992 L 105.157,57.8104 L 108.579,51.0935
 L 111.573,44.1749 L 114.127,37.082 L 116.23,29.8428 L 117.874,22.4857 L 119.054,15.04 L 119.763,7.53485
 L 120,-0 L 119.763,-7.53485 L 119.054,-15.04 L 117.874,-22.4857 L 116.23,-29.8428 L 114.734,-34.9915
 L 114.115,-33.7112 L 113.098,-31.9051 L 111.968,-30.1664 L 110.732,-28.5021 L 109.394,-26.9187 L 107.959,-25.4224
 L 106.433,-24.0191 L 104.822,-22.7145 L 103.132,-21.5136 L 101.37,-20.4212 L 92.2772,-15.1712 L 90.4502,-14.1915
 L 88.5652,-13.3285 L 86.6298,-12.5856 L 84.6516,-11.9656 L 82.6383,-11.4711 L 80.598,-11.104 L 78.5386,-10.8657
 L 76.4683,-10.7572 L 74.3953,-10.7789 L 72.3278,-10.9308 L 70.2738,-11.2121 L 68.2416,-11.6219 L 66.2392,-12.1584
 L 64.2743,-12.8197 L 62.3549,-13.603 L 60.4884,-14.5053 L 58.6823,-15.523 L 56.9437,-16.6521 L 55.2793,-17.8881
 L 53.6959,-19.2262 L 52.1996,-20.6611 L 50.7964,-22.1871 L 49.4917,-23.7982 L 48.2908,-25.4881 L 47.1984,-27.25
 L 46.2187,-29.077 L 45.3557,-30.962 L 44.6128,-32.8974 L 43.9929,-34.8756 L 43.4984,-36.8889 L 43.1312,-38.9293
 L 42.893,-40.9886 L 42.7845,-43.0589 L 42.8062,-45.1319 L 42.958,-47.1994 L 43.2393,-49.2534 L 43.6491,-51.2856
 L 44.1857,-53.288 L 44.8469,-55.2529 L 45.6302,-57.1723 L 46.5325,-59.0388 L 47.5502,-60.8449 L 48.6793,-62.5835
 L 49.9153,-64.2479 L 51.2534,-65.8313 L 52.6883,-67.3276 L 54.2143,-68.7308 L 55.8254,-70.0355 L 57.5153,-71.2364
 L 59.2772,-72.3288 L 68.3705,-77.5788 L 70.1975,-78.5585 L 72.0825,-79.4215 L 74.0179,-80.1644 L 75.9961,-80.7844
 L 78.0094,-81.2789 L 80.0497,-81.646 L 82.1091,-81.8843 L 84.1794,-81.9928 L 86.2524,-81.9711 L 87.7255,-81.8629
 L 87.4762,-82.1456 L 82.1456,-87.4762 L 76.4909,-92.4616 L 70.5342,-97.082 L 64.2992,-101.319 L 57.8104,-105.157
 L 51.0935,-108.579 L 44.1749,-111.573 L 37.082,-114.127 L 29.8428,-116.23 L 22.4857,-117.874 L 15.04,-119.054
 L 7.53485,-119.763 L 0,-120 L -7.53485,-119.763 L -15.04,-119.054 L -22.4857,-117.874 L -29.8428,-116.23
 L -37.082,-114.127 L -44.1749,-111.573 L -51.0935,-108.579 L -57.8104,-105.157 L -64.2992,-101.319 L -70.5342,-97.082
 L -76.4909,-92.4616 L -82.1456,-87.4762 L -87.4762,-82.1456 L -92.4616,-76.4909 L -97.082,-70.5342 L -101.319,-64.2992
 L -105.157,-57.8104 L -108.579,-51.0935 L -111.573,-44.1749 L -114.127,-37.082 L -116.23,-29.8428 L -117.874,-22.4857
 L -119.054,-15.04 L -119.763,-7.53485 L -120,-0 L -119.763,7.53485 L -119.054,15.04 L -117.874,22.4857
 L -116.23,29.8428 L -114.127,37.082 L -111.573,44.1749 L -108.579,51.0935 L -105.157,57.8104 L -101.319,64.2992
 L -97.082,70.5342 L -92.4616,76.4909 L -87.4762,82.1456 L -82.1456,87.4762 L -76.4909,92.4616 L -70.5342,97.082
 L -64.2992,101.319 L -57.8104,105.157 L -51.0935,108.579 L -44.1749,111.573 L -37.082,114.127 L -29.8428,116.23
 L -22.4857,117.874 L -15.04,119.054 L -7.53485,119.763 L 0,120 z
M 24.843,-99.0049 L 24.6867,-99.0197 L 24.5315,-99.0443 L 24.3783,-99.0785 L 24.2274,-99.1224 L 24.0797,-99.1756
 L 23.9355,-99.2379 L 23.7956,-99.3092 L 23.6604,-99.3892 L 23.5305,-99.4774 L 23.4064,-99.5737 L 23.2886,-99.6776
 L 23.1776,-99.7886 L 23.0737,-99.9064 L 22.9774,-100.031 L 22.8892,-100.16 L 22.8092,-100.296 L 22.7379,-100.436
 L 22.6756,-100.58 L 22.6223,-100.727 L 22.5785,-100.878 L 22.5443,-101.032 L 22.5197,-101.187 L 22.5049,-101.343
 L 22.5,-101.5 L 22.5,-112 L 22.5049,-112.157 L 22.5197,-112.313 L 22.5443,-112.468 L 22.5785,-112.622
 L 22.6223,-112.773 L 22.6756,-112.92 L 22.7379,-113.064 L 22.8092,-113.204 L 22.8892,-113.34 L 22.9774,-113.469
 L 23.0737,-113.594 L 23.1776,-113.711 L 23.2886,-113.822 L 23.4064,-113.926 L 23.5305,-114.023 L 23.6604,-114.111
 L 23.7956,-114.191 L 23.9355,-114.262 L 24.0797,-114.324 L 24.2274,-114.378 L 24.3783,-114.421 L 24.5315,-114.456
 L 24.6867,-114.48 L 24.843,-114.495 L 25,-114.5 L 25.157,-114.495 L 25.3133,-114.48 L 25.4684,-114.456
 L 25.6217,-114.421 L 25.7725,-114.378 L 25.9203,-114.324 L 26.0644,-114.262 L 26.2044,-114.191 L 26.3396,-114.111
 L 26.4695,-114.023 L 26.5936,-113.926 L 26.7114,-113.822 L 26.8224,-113.711 L 26.9263,-113.594 L 27.0225,-113.469
 L 27.1108,-113.34 L 27.1908,-113.204 L 27.2621,-113.064 L 27.3244,-112.92 L 27.3776,-112.773 L 27.4214,-112.622
 L 27.4557,-112.468 L 27.4803,-112.313 L 27.4951,-112.157 L 27.5,-112 L 27.5,-101.5 L 27.4951,-101.343
 L 27.4803,-101.187 L 27.4557,-101.032 L 27.4214,-100.878 L 27.3776,-100.727 L 27.3244,-100.58 L 27.2621,-100.436
 L 27.1908,-100.296 L 27.1108,-100.16 L 27.0225,-100.031 L 26.9263,-99.9064 L 26.8224,-99.7886 L 26.7114,-99.6776
 L 26.5936,-99.5737 L 26.4695,-99.4774 L 26.3396,-99.3892 L 26.2044,-99.3092 L 26.0644,-99.2379 L 25.9203,-99.1756
 L 25.7725,-99.1224 L 25.6217,-99.0785 L 25.4684,-99.0443 L 25.3133,-99.0197 L 25.157,-99.0049 L 25,-99
 z
M -25.157,-99.0049 L -25.3133,-99.0197 L -25.4684,-99.0443 L -25.6217,-99.0785 L -25.7725,-99.1224 L -25.9203,-99.1756
 L -26.0644,-99.2379 L -26.2044,-99.3092 L -26.3396,-99.3892 L -26.4695,-99.4774 L -26.5936,-99.5737 L -26.7114,-99.6776
 L -26.8224,-99.7886 L -26.9263,-99.9064 L -27.0225,-100.031 L -27.1108,-100.16 L -27.1908,-100.296 L -27.2621,-100.436
 L -27.3244,-100.58 L -27.3776,-100.727 L -27.4214,-100.878 L -27.4557,-101.032 L -27.4803,-101.187 L -27.4951,-101.343
 L -27.5,-101.5 L -27.5,-112 L -27.4951,-112.157 L -27.4803,-112.313 L -27.4557,-112.468 L -27.4214,-112.622
 L -27.3776,-112.773 L -27.3244,-112.92 L -27.2621,-113.064 L -27.1908,-113.204 L -27.1108,-113.34 L -27.0225,-113.469
 L -26.9263,-113.594 L -26.8224,-113.711 L -26.7114,-113.822 L -26.5936,-113.926 L -26.4695,-114.023 L -26.3396,-114.111
 L -26.2044,-114.191 L -26.0644,-114.262 L -25.9203,-114.324 L -25.7725,-114.378 L -25.6217,-114.421 L -25.4684,-114.456
 L -25.3133,-114.48 L -25.157,-114.495 L -25,-114.5 L -24.843,-114.495 L -24.6867,-114.48 L -24.5315,-114.456
 L -24.3783,-114.421 L -24.2274,-114.378 L -24.0797,-114.324 L -23.9355,-114.262 L -23.7956,-114.191 L -23.6604,-114.111
 L -23.5305,-114.023 L -23.4064,-113.926 L -23.2886,-113.822 L -23.1776,-113.711 L -23.0737,-113.594 L -22.9774,-113.469
 L -22.8892,-113.34 L -22.8092,-113.204 L -22.7379,-113.064 L -22.6756,-112.92 L -22.6223,-112.773 L -22.5785,-112.622
 L -22.5443,-112.468 L -22.5197,-112.313 L -22.5049,-112.157 L -22.5,-112 L -22.5,-101.5 L -22.5049,-101.343
 L -22.5197,-101.187 L -22.5443,-101.032 L -22.5785,-100.878 L -22.6223,-100.727 L -22.6756,-100.58 L -22.7379,-100.436
 L -22.8092,-100.296 L -22.8892,-100.16 L -22.9774,-100.031 L -23.0737,-99.9064 L -23.1776,-99.7886 L -23.2886,-99.6776
 L -23.4064,-99.5737 L -23.5305,-99.4774 L -23.6604,-99.3892 L -23.7956,-99.3092 L -23.9355,-99.2379 L -24.0797,-99.1756
 L -24.2274,-99.1224 L -24.3783,-99.0785 L -24.5315,-99.0443 L -24.6867,-99.0197 L -24.843,-99.0049 L -25,-99
 z
M -0.627899,-75.5197 L -1.25333,-75.5788 L -1.87381,-75.6771 L -2.48689,-75.8142 L -3.09016,-75.9894 L -3.68124,-76.2022
 L -4.25778,-76.4517 L -4.81754,-76.7369 L -5.35826,-77.0567 L -5.87784,-77.4098 L -6.37424,-77.7949 L -6.84546,-78.2103
 L -7.28967,-78.6545 L -7.70512,-79.1258 L -8.09016,-79.6221 L -8.44327,-80.1417 L -8.76306,-80.6825 L -9.04826,-81.2422
 L -9.29776,-81.8188 L -9.51056,-82.4098 L -9.68582,-83.0131 L -9.82286,-83.6262 L -9.92114,-84.2467 L -9.98026,-84.8721
 L -10,-85.5 L -10,-100 L -9.98026,-100.628 L -9.92114,-101.253 L -9.82286,-101.874 L -9.68582,-102.487
 L -9.51056,-103.09 L -9.29776,-103.681 L -9.04826,-104.258 L -8.76306,-104.818 L -8.44327,-105.358 L -8.09016,-105.878
 L -7.70512,-106.374 L -7.28967,-106.845 L -6.84546,-107.29 L -6.37424,-107.705 L -5.87784,-108.09 L -5.35826,-108.443
 L -4.81754,-108.763 L -4.25778,-109.048 L -3.68124,-109.298 L -3.09016,-109.511 L -2.48689,-109.686 L -1.87381,-109.823
 L -1.25333,-109.921 L -0.627899,-109.98 L 0,-110 L 0.627899,-109.98 L 1.25333,-109.921 L 1.87381,-109.823
 L 2.48689,-109.686 L 3.09016,-109.511 L 3.68124,-109.298 L 4.25778,-109.048 L 4.81754,-108.763 L 5.35826,-108.443
 L 5.87784,-108.09 L 6.37424,-107.705 L 6.84546,-107.29 L 7.28967,-106.845 L 7.70512,-106.374 L 8.09016,-105.878
 L 8.44327,-105.358 L 8.76306,-104.818 L 9.04826,-104.258 L 9.29776,-103.681 L 9.51056,-103.09 L 9.68582,-102.487
 L 9.82286,-101.874 L 9.92114,-101.253 L 9.98026,-100.628 L 10,-100 L 10,-85.5 L 9.98026,-84.8721
 L 9.92114,-84.2467 L 9.82286,-83.6262 L 9.68582,-83.0131 L 9.51056,-82.4098 L 9.29776,-81.8188 L 9.04826,-81.2422
 L 8.76306,-80.6825 L 8.44327,-80.1417 L 8.09016,-79.6221 L 7.70512,-79.1258 L 7.28967,-78.6545 L 6.84546,-78.2103
 L 6.37424,-77.7949 L 5.87784,-77.4098 L 5.35826,-77.0567 L 4.81754,-76.7369 L 4.25778,-76.4517 L 3.68124,-76.2022
 L 3.09016,-75.9894 L 2.48689,-75.8142 L 1.87381,-75.6771 L 1.25333,-75.5788 L 0.627899,-75.5197 L 0,-75.5
 z
M 49.7908,-84.1113 L 49.6348,-84.1293 L 49.4802,-84.1572 L 49.3277,-84.1946 L 49.1778,-84.2416 L 49.0312,-84.2979
 L 48.8884,-84.3633 L 48.75,-84.4375 L 48.6165,-84.5202 L 48.4885,-84.6112 L 48.3664,-84.7101 L 48.2508,-84.8164
 L 48.1421,-84.9297 L 48.0408,-85.0497 L 47.9471,-85.1758 L 47.8616,-85.3075 L 47.7845,-85.4443 L 47.7161,-85.5857
 L 47.6568,-85.7311 L 47.6067,-85.88 L 47.566,-86.0317 L 47.535,-86.1856 L 47.5137,-86.3412 L 47.5022,-86.4978
 L 47.5005,-86.6549 L 47.5088,-86.8117 L 47.5268,-86.9677 L 47.5546,-87.1223 L 47.5921,-87.2748 L 47.6391,-87.4247
 L 47.6953,-87.5713 L 47.7607,-87.7141 L 47.8349,-87.8525 L 47.9177,-87.986 L 48.0087,-88.114 L 48.1075,-88.2361
 L 48.2138,-88.3517 L 48.3272,-88.4604 L 48.4471,-88.5618 L 48.5732,-88.6554 L 48.7049,-88.741 L 48.8418,-88.818
 L 48.9832,-88.8864 L 49.1286,-88.9457 L 49.2774,-88.9958 L 49.4291,-89.0365 L 49.5831,-89.0675 L 49.7387,-89.0888
 L 49.8953,-89.1003 L 50.0524,-89.102 L 50.2092,-89.0938 L 50.3652,-89.0757 L 50.5198,-89.0479 L 50.6723,-89.0104
 L 50.8222,-88.9635 L 50.9688,-88.9072 L 51.1116,-88.8418 L 51.25,-88.7676 L 51.3835,-88.6848 L 51.5115,-88.5939
 L 51.6335,-88.495 L 51.7491,-88.3887 L 51.8578,-88.2754 L 51.9592,-88.1554 L 52.0529,-88.0293 L 52.1384,-87.8976
 L 52.2155,-87.7608 L 52.2839,-87.6194 L 52.3432,-87.474 L 52.3933,-87.3251 L 52.4339,-87.1734 L 52.465,-87.0195
 L 52.4863,-86.8639 L 52.4978,-86.7072 L 52.4995,-86.5502 L 52.4912,-86.3933 L 52.4732,-86.2373 L 52.4454,-86.0828
 L 52.4079,-85.9302 L 52.3609,-85.7804 L 52.3047,-85.6337 L 52.2393,-85.491 L 52.1651,-85.3525 L 52.0823,-85.2191
 L 51.9913,-85.091 L 51.8925,-84.969 L 51.7862,-84.8534 L 51.6728,-84.7447 L 51.5529,-84.6433 L 51.4268,-84.5497
 L 51.2951,-84.4641 L 51.1582,-84.387 L 51.0168,-84.3187 L 50.8714,-84.2593 L 50.7226,-84.2092 L 50.5709,-84.1686
 L 50.4169,-84.1375 L 50.2613,-84.1162 L 50.1047,-84.1047 L 49.9476,-84.1031 z
M -50.1047,-84.1047 L -50.2613,-84.1162 L -50.4169,-84.1375 L -50.5709,-84.1686 L -50.7226,-84.2092 L -50.8714,-84.2593
 L -51.0168,-84.3187 L -51.1582,-84.387 L -51.2951,-84.4641 L -51.4268,-84.5497 L -51.5529,-84.6433 L -51.6728,-84.7447
 L -51.7862,-84.8534 L -51.8925,-84.969 L -51.9913,-85.091 L -52.0823,-85.2191 L -52.1651,-85.3525 L -52.2393,-85.491
 L -52.3047,-85.6337 L -52.3609,-85.7804 L -52.4079,-85.9302 L -52.4454,-86.0828 L -52.4732,-86.2373 L -52.4912,-86.3933
 L -52.4995,-86.5502 L -52.4978,-86.7072 L -52.4863,-86.8639 L -52.465,-87.0195 L -52.4339,-87.1734 L -52.3933,-87.3251
 L -52.3432,-87.474 L -52.2839,-87.6194 L -52.2155,-87.7608 L -52.1384,-87.8976 L -52.0529,-88.0293 L -51.9592,-88.1554
 L -51.8578,-88.2754 L -51.7491,-88.3887 L -51.6335,-88.495 L -51.5115,-88.5939 L -51.3835,-88.6848 L -51.25,-88.7676
 L -51.1116,-88.8418 L -50.9688,-88.9072 L -50.8222,-88.9635 L -50.6723,-89.0104 L -50.5198,-89.0479 L -50.3652,-89.0757
 L -50.2092,-89.0938 L -50.0524,-89.102 L -49.8953,-89.1003 L -49.7387,-89.0888 L -49.5831,-89.0675 L -49.4291,-89.0365
 L -49.2774,-88.9958 L -49.1286,-88.9457 L -48.9832,-88.8864 L -48.8418,-88.818 L -48.7049,-88.741 L -48.5732,-88.6554
 L -48.4471,-88.5618 L -48.3272,-88.4604 L -48.2138,-88.3517 L -48.1075,-88.2361 L -48.0087,-88.114 L -47.9177,-87.986
 L -47.8349,-87.8525 L -47.7607,-87.7141 L -47.6953,-87.5713 L -47.6391,-87.4247 L -47.5921,-87.2748 L -47.5546,-87.1223
 L -47.5268,-86.9677 L -47.5088,-86.8117 L -47.5005,-86.6549 L -47.5022,-86.4978 L -47.5137,-86.3412 L -47.535,-86.1856
 L -47.566,-86.0317 L -47.6067,-85.88 L -47.6568,-85.7311 L -47.7161,-85.5857 L -47.7845,-85.4443 L -47.8616,-85.3075
 L -47.9471,-85.1758 L -48.0408,-85.0497 L -48.1421,-84.9297 L -48.2508,-84.8164 L -48.3664,-84.7101 L -48.4885,-84.6112
 L -48.6165,-84.5202 L -48.75,-84.4375 L -48.8884,-84.3633 L -49.0312,-84.2979 L -49.1778,-84.2416 L -49.3277,-84.1946
 L -49.4802,-84.1572 L -49.6348,-84.1293 L -49.7908,-84.1113 L -49.9476,-84.1031 z
M -75.6108,-69.9094 L -75.7668,-69.9274 L -75.9214,-69.9553 L -76.0739,-69.9927 L -76.2237,-70.0397 L -76.3704,-70.096
 L -76.5132,-70.1613 L -76.6516,-70.2356 L -85.7448,-75.4856 L -85.8783,-75.5683 L -86.0063,-75.6593 L -86.1284,-75.7581
 L -86.244,-75.8645 L -86.3527,-75.9778 L -86.4541,-76.0978 L -86.5477,-76.2238 L -86.6333,-76.3556 L -86.7103,-76.4924
 L -86.7787,-76.6338 L -86.838,-76.7792 L -86.8881,-76.9281 L -86.9288,-77.0798 L -86.9598,-77.2337 L -86.9811,-77.3893
 L -86.9926,-77.5459 L -86.9943,-77.703 L -86.9861,-77.8598 L -86.968,-78.0158 L -86.9402,-78.1704 L -86.9027,-78.3229
 L -86.8558,-78.4728 L -86.7995,-78.6194 L -86.7341,-78.7622 L -86.6599,-78.9006 L -86.5771,-79.0341 L -86.4862,-79.1621
 L -86.3873,-79.2842 L -86.281,-79.3998 L -86.1677,-79.5085 L -86.0477,-79.6099 L -85.9216,-79.7035 L -85.7899,-79.789
 L -85.6531,-79.8661 L -85.5117,-79.9345 L -85.3663,-79.9938 L -85.2174,-80.0439 L -85.0657,-80.0846 L -84.9118,-80.1156
 L -84.7562,-80.1369 L -84.5995,-80.1484 L -84.4425,-80.1501 L -84.2856,-80.1419 L -84.1296,-80.1238 L -83.9751,-80.096
 L -83.8225,-80.0585 L -83.6727,-80.0116 L -83.526,-79.9553 L -83.3833,-79.8899 L -83.2448,-79.8157 L -74.1516,-74.5657
 L -74.0181,-74.4829 L -73.8901,-74.392 L -73.768,-74.2931 L -73.6524,-74.1868 L -73.5437,-74.0735 L -73.4423,-73.9535
 L -73.3487,-73.8274 L -73.2632,-73.6957 L -73.1861,-73.5589 L -73.1177,-73.4175 L -73.0584,-73.2721 L -73.0083,-73.1232
 L -72.9676,-72.9715 L -72.9366,-72.8176 L -72.9153,-72.662 L -72.9038,-72.5053 L -72.9021,-72.3483 L -72.9103,-72.1914
 L -72.9284,-72.0354 L -72.9562,-71.8808 L -72.9937,-71.7283 L -73.0406,-71.5785 L -73.0969,-71.4318 L -73.1623,-71.289
 L -73.2365,-71.1506 L -73.3193,-71.0172 L -73.4102,-70.8891 L -73.5091,-70.7671 L -73.6154,-70.6515 L -73.7287,-70.5428
 L -73.8487,-70.4414 L -73.9748,-70.3478 L -74.1065,-70.2622 L -74.2433,-70.1851 L -74.3847,-70.1168 L -74.5302,-70.0574
 L -74.679,-70.0073 L -74.8307,-69.9667 L -74.9846,-69.9356 L -75.1403,-69.9143 L -75.2969,-69.9028 L -75.4539,-69.9012
 z
M -0.156967,-55.0049 L -0.313324,-55.0197 L -0.468445,-55.0443 L -0.621719,-55.0785 L -0.772537,-55.1224 L -0.920303,-55.1756
 L -1.06444,-55.2379 L -1.20438,-55.3092 L -1.33955,-55.3892 L -1.46945,-55.4774 L -1.59355,-55.5737 L -1.71136,-55.6776
 L -1.82242,-55.7886 L -1.92627,-55.9064 L -2.02254,-56.0305 L -2.11081,-56.1604 L -2.19077,-56.2956 L -2.26205,-56.4355
 L -2.32443,-56.5797 L -2.37764,-56.7274 L -2.42145,-56.8783 L -2.4557,-57.0315 L -2.48029,-57.1867 L -2.49506,-57.343
 L -2.5,-57.5 L -2.5,-68 L -2.49506,-68.157 L -2.48029,-68.3133 L -2.4557,-68.4684 L -2.42145,-68.6217
 L -2.37764,-68.7725 L -2.32443,-68.9203 L -2.26205,-69.0644 L -2.19077,-69.2044 L -2.11081,-69.3396 L -2.02254,-69.4695
 L -1.92627,-69.5936 L -1.82242,-69.7114 L -1.71136,-69.8224 L -1.59355,-69.9263 L -1.46945,-70.0225 L -1.33955,-70.1108
 L -1.20438,-70.1908 L -1.06444,-70.2621 L -0.920303,-70.3244 L -0.772537,-70.3776 L -0.621719,-70.4214 L -0.468445,-70.4557
 L -0.313324,-70.4803 L -0.156967,-70.4951 L 0,-70.5 L 0.156967,-70.4951 L 0.313324,-70.4803 L 0.468445,-70.4557
 L 0.621719,-70.4214 L 0.772537,-70.3776 L 0.920303,-70.3244 L 1.06444,-70.2621 L 1.20438,-70.1908 L 1.33955,-70.1108
 L 1.46945,-70.0225 L 1.59355,-69.9263 L 1.71136,-69.8224 L 1.82242,-69.7114 L 1.92627,-69.5936 L 2.02254,-69.4695
 L 2.11081,-69.3396 L 2.19077,-69.2044 L 2.26205,-69.0644 L 2.32443,-68.9203 L 2.37764,-68.7725 L 2.42145,-68.6217
 L 2.4557,-68.4684 L 2.48029,-68.3133 L 2.49506,-68.157 L 2.5,-68 L 2.5,-57.5 L 2.49506,-57.343
 L 2.48029,-57.1867 L 2.4557,-57.0315 L 2.42145,-56.8783 L 2.37764,-56.7274 L 2.32443,-56.5797 L 2.26205,-56.4355
 L 2.19077,-56.2956 L 2.11081,-56.1604 L 2.02254,-56.0305 L 1.92627,-55.9064 L 1.82242,-55.7886 L 1.71136,-55.6776
 L 1.59355,-55.5737 L 1.46945,-55.4774 L 1.33955,-55.3892 L 1.20438,-55.3092 L 1.06444,-55.2379 L 0.920303,-55.1756
 L 0.772537,-55.1224 L 0.621719,-55.0785 L 0.468445,-55.0443 L 0.313324,-55.0197 L 0.156967,-55.0049 L 0,-55
 z
M -74.8819,-32.7851 L -75.506,-32.8573 L -76.1243,-32.9685 L -76.7344,-33.1184 L -77.3338,-33.3062 L -77.9203,-33.5314
 L -78.4915,-33.7929 L -79.0452,-34.0897 L -91.6025,-41.3397 L -92.1364,-41.6708 L -92.6485,-42.0347 L -93.1367,-42.43
 L -93.5992,-42.8553 L -94.034,-43.3087 L -94.4395,-43.7885 L -94.814,-44.2929 L -95.1562,-44.8197 L -95.4646,-45.367
 L -95.738,-45.9326 L -95.9754,-46.5143 L -96.1757,-47.1097 L -96.3383,-47.7165 L -96.4625,-48.3323 L -96.5478,-48.9547
 L -96.5938,-49.5812 L -96.6003,-50.2094 L -96.5675,-50.8368 L -96.4953,-51.4608 L -96.384,-52.0791 L -96.2342,-52.6892
 L -96.0463,-53.2887 L -95.8212,-53.8752 L -95.5596,-54.4464 L -95.2628,-55 L -94.9317,-55.5339 L -94.5678,-56.046
 L -94.1725,-56.5342 L -93.7473,-56.9966 L -93.2938,-57.4314 L -92.814,-57.8369 L -92.3097,-58.2115 L -91.7828,-58.5536
 L -91.2355,-58.862 L -90.6699,-59.1355 L -90.0883,-59.3728 L -89.4929,-59.5732 L -88.886,-59.7358 L -88.2702,-59.86
 L -87.6478,-59.9452 L -87.0213,-59.9912 L -86.3931,-59.9978 L -85.7658,-59.9649 L -85.1417,-59.8927 L -84.5234,-59.7815
 L -83.9133,-59.6316 L -83.3139,-59.4438 L -82.7274,-59.2186 L -82.1562,-58.9571 L -81.6025,-58.6602 L -69.0452,-51.4102
 L -68.5112,-51.0792 L -67.9992,-50.7153 L -67.511,-50.3199 L -67.0485,-49.8947 L -66.6137,-49.4413 L -66.2082,-48.9615
 L -65.8337,-48.4571 L -65.4915,-47.9303 L -65.1831,-47.3829 L -64.9097,-46.8174 L -64.6723,-46.2357 L -64.472,-45.6403
 L -64.3094,-45.0335 L -64.1852,-44.4177 L -64.0999,-43.7953 L -64.0539,-43.1687 L -64.0474,-42.5406 L -64.0802,-41.9132
 L -64.1525,-41.2892 L -64.2637,-40.6709 L -64.4135,-40.0608 L -64.6014,-39.4613 L -64.8265,-38.8748 L -65.088,-38.3036
 L -65.3849,-37.75 L -65.716,-37.2161 L -66.0799,-36.704 L -66.4752,-36.2158 L -66.9004,-35.7534 L -67.3539,-35.3185
 L -67.8337,-34.9131 L -68.338,-34.5385 L -68.8649,-34.1964 L -69.4122,-33.888 L -69.9778,-33.6145 L -70.5594,-33.3772
 L -71.1548,-33.1768 L -71.7617,-33.0142 L -72.3775,-32.89 L -72.9999,-32.8048 L -73.6264,-32.7588 L -74.2546,-32.7522
 z
M -100.611,-26.6081 L -100.767,-26.6262 L -100.921,-26.654 L -101.074,-26.6915 L -101.224,-26.7384 L -101.37,-26.7947
 L -101.513,-26.8601 L -101.652,-26.9343 L -110.745,-32.1843 L -110.878,-32.2671 L -111.006,-32.358 L -111.128,-32.4569
 L -111.244,-32.5632 L -111.353,-32.6765 L -111.454,-32.7965 L -111.548,-32.9226 L -111.633,-33.0543 L -111.71,-33.1911
 L -111.779,-33.3325 L -111.838,-33.4779 L -111.888,-33.6268 L -111.929,-33.7785 L -111.96,-33.9324 L -111.981,-34.088
 L -111.993,-34.2447 L -111.994,-34.4017 L -111.986,-34.5585 L -111.968,-34.7146 L -111.94,-34.8691 L -111.903,-35.0217
 L -111.856,-35.1715 L -111.799,-35.3181 L -111.734,-35.461 L -111.66,-35.5994 L -111.577,-35.7328 L -111.486,-35.8609
 L -111.387,-35.9829 L -111.281,-36.0985 L -111.168,-36.2072 L -111.048,-36.3086 L -110.922,-36.4022 L -110.79,-36.4878
 L -110.653,-36.5649 L -110.512,-36.6332 L -110.366,-36.6926 L -110.217,-36.7427 L -110.066,-36.7833 L -109.912,-36.8143
 L -109.756,-36.8357 L -109.6,-36.8472 L -109.442,-36.8488 L -109.286,-36.8406 L -109.13,-36.8225 L -108.975,-36.7947
 L -108.823,-36.7573 L -108.673,-36.7103 L -108.526,-36.654 L -108.383,-36.5886 L -108.245,-36.5144 L -99.1516,-31.2644
 L -99.0181,-31.1817 L -98.8901,-31.0907 L -98.768,-30.9919 L -98.6524,-30.8855 L -98.5437,-30.7722 L -98.4423,-30.6522
 L -98.3487,-30.5261 L -98.2632,-30.3944 L -98.1861,-30.2576 L -98.1177,-30.1162 L -98.0584,-29.9708 L -98.0083,-29.8219
 L -97.9676,-29.6702 L -97.9366,-29.5163 L -97.9153,-29.3607 L -97.9038,-29.204 L -97.9021,-29.047 L -97.9103,-28.8902
 L -97.9284,-28.7341 L -97.9562,-28.5796 L -97.9937,-28.4271 L -98.0406,-28.2772 L -98.0969,-28.1306 L -98.1623,-27.9878
 L -98.2365,-27.8494 L -98.3193,-27.7159 L -98.4102,-27.5879 L -98.5091,-27.4658 L -98.6154,-27.3502 L -98.7287,-27.2415
 L -98.8487,-27.1401 L -98.9748,-27.0465 L -99.1065,-26.961 L -99.2433,-26.8839 L -99.3847,-26.8155 L -99.5301,-26.7561
 L -99.679,-26.7061 L -99.8307,-26.6654 L -99.9846,-26.6344 L -100.14,-26.6131 L -100.297,-26.6015 L -100.454,-26.5999
 z
M -50.0056,-26.2588 L -50.1617,-26.2768 L -50.3162,-26.3046 L -50.4688,-26.3421 L -50.6186,-26.3891 L -50.7652,-26.4453
 L -50.908,-26.5107 L -51.0464,-26.5849 L -60.1397,-31.8349 L -60.2732,-31.9177 L -60.4012,-32.0087 L -60.5233,-32.1075
 L -60.6389,-32.2138 L -60.7476,-32.3272 L -60.849,-32.4471 L -60.9426,-32.5732 L -61.0281,-32.7049 L -61.1052,-32.8418
 L -61.1736,-32.9832 L -61.2329,-33.1286 L -61.283,-33.2774 L -61.3237,-33.4291 L -61.3547,-33.5831 L -61.376,-33.7387
 L -61.3875,-33.8953 L -61.3892,-34.0524 L -61.381,-34.2092 L -61.3629,-34.3652 L -61.3351,-34.5198 L -61.2976,-34.6723
 L -61.2507,-34.8222 L -61.1944,-34.9688 L -61.129,-35.1116 L -61.0548,-35.25 L -60.972,-35.3835 L -60.881,-35.5115
 L -60.7822,-35.6335 L -60.6759,-35.7491 L -60.5625,-35.8578 L -60.4426,-35.9592 L -60.3165,-36.0529 L -60.1848,-36.1384
 L -60.048,-36.2155 L -59.9066,-36.2839 L -59.7612,-36.3432 L -59.6123,-36.3933 L -59.4606,-36.4339 L -59.3066,-36.465
 L -59.151,-36.4863 L -58.9944,-36.4978 L -58.8374,-36.4995 L -58.6805,-36.4912 L -58.5245,-36.4732 L -58.3699,-36.4454
 L -58.2174,-36.4079 L -58.0676,-36.3609 L -57.9209,-36.3047 L -57.7781,-36.2393 L -57.6397,-36.1651 L -48.5464,-30.9151
 L -48.413,-30.8323 L -48.285,-30.7413 L -48.1629,-30.6425 L -48.0473,-30.5362 L -47.9386,-30.4228 L -47.8372,-30.3029
 L -47.7436,-30.1768 L -47.6581,-30.0451 L -47.5809,-29.9082 L -47.5126,-29.7668 L -47.4532,-29.6214 L -47.4032,-29.4726
 L -47.3625,-29.3209 L -47.3315,-29.1669 L -47.3102,-29.0113 L -47.2986,-28.8547 L -47.297,-28.6976 L -47.3052,-28.5408
 L -47.3233,-28.3848 L -47.3511,-28.2302 L -47.3885,-28.0777 L -47.4355,-27.9278 L -47.4918,-27.7812 L -47.5572,-27.6384
 L -47.6314,-27.5 L -47.7142,-27.3665 L -47.8051,-27.2385 L -47.904,-27.1164 L -48.0103,-27.0008 L -48.1236,-26.8921
 L -48.2436,-26.7908 L -48.3697,-26.6971 L -48.5014,-26.6116 L -48.6382,-26.5345 L -48.7796,-26.4661 L -48.925,-26.4068
 L -49.0739,-26.3567 L -49.2256,-26.316 L -49.3795,-26.285 L -49.5351,-26.2637 L -49.6918,-26.2522 L -49.8488,-26.2505
 z
M -2.27301,36.1286 L -4.53705,35.9146 L -6.7832,35.5588 L -9.00256,35.0627 L -11.1864,34.4282 L -13.3261,33.6579
 L -15.4132,32.7547 L -17.4395,31.7223 L -19.3969,30.5647 L -21.2778,29.2864 L -23.0747,27.8926 L -24.7806,26.3887
 L -26.3887,24.7806 L -27.8926,23.0747 L -29.2864,21.2778 L -30.5647,19.3969 L -31.7223,17.4395 L -32.7547,15.4132
 L -33.6579,13.3261 L -34.4282,11.1864 L -35.0627,9.00256 L -35.5588,6.7832 L -35.9146,4.53705 L -36.1286,2.27301
 L -36.2,-0 L -36.1286,-2.27301 L -35.9146,-4.53705 L -35.5588,-6.7832 L -35.0627,-9.00256 L -34.4282,-11.1864
 L -33.6579,-13.3261 L -32.7547,-15.4132 L -31.7223,-17.4395 L -30.5647,-19.3969 L -29.2864,-21.2778 L -27.8926,-23.0747
 L -26.3887,-24.7806 L -24.7806,-26.3887 L -23.0747,-27.8926 L -21.2778,-29.2864 L -19.3969,-30.5647 L -17.4395,-31.7223
 L -15.4132,-32.7547 L -13.3261,-33.6579 L -11.1864,-34.4282 L -9.00256,-35.0627 L -6.7832,-35.5588 L -4.53705,-35.9146
 L -2.27301,-36.1286 L 0,-36.2 L 2.27301,-36.1286 L 4.53705,-35.9146 L 6.7832,-35.5588 L 9.00256,-35.0627
 L 11.1864,-34.4282 L 13.3261,-33.6579 L 15.4132,-32.7547 L 17.4395,-31.7223 L 19.3969,-30.5647 L 21.2778,-29.2864
 L 23.0747,-27.8926 L 24.7806,-26.3887 L 26.3887,-24.7806 L 27.8926,-23.0747 L 29.2864,-21.2778 L 30.5647,-19.3969
 L 31.7223,-17.4395 L 32.7547,-15.4132 L 33.6579,-13.3261 L 34.4282,-11.1864 L 35.0627,-9.00256 L 35.5588,-6.7832
 L 35.9146,-4.53705 L 36.1286,-2.27301 L 36.2,-0 L 36.1286,2.27301 L 35.9146,4.53705 L 35.5588,6.7832
 L 35.0627,9.00256 L 34.4282,11.1864 L 33.6579,13.3261 L 32.7547,15.4132 L 31.7223,17.4395 L 30.5647,19.3969
 L 29.2864,21.2778 L 27.8926,23.0747 L 26.3887,24.7806 L 24.7806,26.3887 L 23.0747,27.8926 L 21.2778,29.2864
 L 19.3969,30.5647 L 17.4395,31.7223 L 15.4132,32.7547 L 13.3261,33.6579 L 11.1864,34.4282 L 9.00256,35.0627
 L 6.7832,35.5588 L 4.53705,35.9146 L 2.27301,36.1286 L 0,36.2 z
M -100.157,2.49506 L -100.313,2.48029 L -100.468,2.4557 L -100.622,2.42145 L -100.773,2.37764 L -100.92,2.32443
 L -101.064,2.26205 L -101.204,2.19077 L -101.34,2.11081 L -101.469,2.02254 L -101.594,1.92627 L -101.711,1.82242
 L -101.822,1.71136 L -101.926,1.59355 L -102.023,1.46945 L -102.111,1.33955 L -102.191,1.20438 L -102.262,1.06444
 L -102.324,0.920303 L -102.378,0.772537 L -102.421,0.621719 L -102.456,0.468445 L -102.48,0.313324 L -102.495,0.156967
 L -102.5,-0 L -102.495,-0.156967 L -102.48,-0.313324 L -102.456,-0.468445 L -102.421,-0.621719 L -102.378,-0.772537
 L -102.324,-0.920303 L -102.262,-1.06444 L -102.191,-1.20438 L -102.111,-1.33955 L -102.023,-1.46945 L -101.926,-1.59355
 L -101.822,-1.71136 L -101.711,-1.82242 L -101.594,-1.92627 L -101.469,-2.02254 L -101.34,-2.11081 L -101.204,-2.19077
 L -101.064,-2.26205 L -100.92,-2.32443 L -100.773,-2.37764 L -100.622,-2.42145 L -100.468,-2.4557 L -100.313,-2.48029
 L -100.157,-2.49506 L -100,-2.5 L -99.843,-2.49506 L -99.6867,-2.48029 L -99.5315,-2.4557 L -99.3783,-2.42145
 L -99.2274,-2.37764 L -99.0797,-2.32443 L -98.9355,-2.26205 L -98.7956,-2.19077 L -98.6604,-2.11081 L -98.5305,-2.02254
 L -98.4064,-1.92627 L -98.2886,-1.82242 L -98.1776,-1.71136 L -98.0737,-1.59355 L -97.9774,-1.46945 L -97.8892,-1.33955
 L -97.8092,-1.20438 L -97.7379,-1.06444 L -97.6756,-0.920303 L -97.6224,-0.772537 L -97.5785,-0.621719 L -97.5443,-0.468445
 L -97.5197,-0.313324 L -97.5049,-0.156967 L -97.5,-0 L -97.5049,0.156967 L -97.5197,0.313324 L -97.5443,0.468445
 L -97.5785,0.621719 L -97.6224,0.772537 L -97.6756,0.920303 L -97.7379,1.06444 L -97.8092,1.20438 L -97.8892,1.33955
 L -97.9774,1.46945 L -98.0737,1.59355 L -98.1776,1.71136 L -98.2886,1.82242 L -98.4064,1.92627 L -98.5305,2.02254
 L -98.6604,2.11081 L -98.7956,2.19077 L -98.9355,2.26205 L -99.0797,2.32443 L -99.2274,2.37764 L -99.3783,2.42145
 L -99.5315,2.4557 L -99.6867,2.48029 L -99.843,2.49506 L -100,2.49998 z
M 99.843,2.49506 L 99.6867,2.48029 L 99.5315,2.4557 L 99.3783,2.42145 L 99.2274,2.37764 L 99.0797,2.32443
 L 98.9355,2.26205 L 98.7956,2.19077 L 98.6604,2.11081 L 98.5305,2.02254 L 98.4064,1.92627 L 98.2886,1.82242
 L 98.1776,1.71136 L 98.0737,1.59355 L 97.9774,1.46945 L 97.8892,1.33955 L 97.8092,1.20438 L 97.7379,1.06444
 L 97.6756,0.920303 L 97.6224,0.772537 L 97.5785,0.621719 L 97.5443,0.468445 L 97.5197,0.313324 L 97.5049,0.156967
 L 97.5,-0 L 97.5049,-0.156967 L 97.5197,-0.313324 L 97.5443,-0.468445 L 97.5785,-0.621719 L 97.6224,-0.772537
 L 97.6756,-0.920303 L 97.7379,-1.06444 L 97.8092,-1.20438 L 97.8892,-1.33955 L 97.9774,-1.46945 L 98.0737,-1.59355
 L 98.1776,-1.71136 L 98.2886,-1.82242 L 98.4064,-1.92627 L 98.5305,-2.02254 L 98.6604,-2.11081 L 98.7956,-2.19077
 L 98.9355,-2.26205 L 99.0797,-2.32443 L 99.2274,-2.37764 L 99.3783,-2.42145 L 99.5315,-2.4557 L 99.6867,-2.48029
 L 99.843,-2.49506 L 100,-2.49998 L 100.157,-2.49506 L 100.313,-2.48029 L 100.468,-2.4557 L 100.622,-2.42145
 L 100.773,-2.37764 L 100.92,-2.32443 L 101.064,-2.26205 L 101.204,-2.19077 L 101.34,-2.11081 L 101.469,-2.02254
 L 101.594,-1.92627 L 101.711,-1.82242 L 101.822,-1.71136 L 101.926,-1.59355 L 102.023,-1.46945 L 102.111,-1.33955
 L 102.191,-1.20438 L 102.262,-1.06444 L 102.324,-0.920303 L 102.378,-0.772537 L 102.421,-0.621719 L 102.456,-0.468445
 L 102.48,-0.313324 L 102.495,-0.156967 L 102.5,-0 L 102.495,0.156967 L 102.48,0.313324 L 102.456,0.468445
 L 102.421,0.621719 L 102.378,0.772537 L 102.324,0.920303 L 102.262,1.06444 L 102.191,1.20438 L 102.111,1.33955
 L 102.023,1.46945 L 101.926,1.59355 L 101.822,1.71136 L 101.711,1.82242 L 101.594,1.92627 L 101.469,2.02254
 L 101.34,2.11081 L 101.204,2.19077 L 101.064,2.26205 L 100.92,2.32443 L 100.773,2.37764 L 100.622,2.42145
 L 100.468,2.4557 L 100.313,2.48029 L 100.157,2.49506 L 100,2.5 z
M -78.9764,16.3845 L -79.1326,16.3675 L -79.2873,16.3408 L -79.4401,16.3044 L -79.5903,16.2585 L -79.7373,16.2032
 L -79.8805,16.1388 L -80.0195,16.0656 L -80.1535,15.9838 L -80.2822,15.8937 L -80.4049,15.7957 L -80.5213,15.6902
 L -80.6308,15.5776 L -80.733,15.4584 L -80.8275,15.3329 L -80.9139,15.2018 L -80.992,15.0655 L -81.0613,14.9246
 L -81.1217,14.7796 L -81.1728,14.6311 L -81.2145,14.4797 L -81.2466,14.326 L -81.269,14.1705 L -81.2816,14.014
 L -81.2844,13.8569 L -81.2773,13.7 L -81.2603,13.5439 L -81.2336,13.3891 L -81.1972,13.2364 L -81.1512,13.0862
 L -81.096,12.9392 L -81.0316,12.7959 L -80.9584,12.657 L -80.8765,12.5229 L -80.7864,12.3943 L -80.6885,12.2715
 L -80.583,12.1552 L -80.4704,12.0457 L -80.3511,11.9435 L -80.2257,11.849 L -80.0946,11.7625 L -79.9583,11.6845
 L -79.8174,11.6151 L -79.6724,11.5548 L -79.5239,11.5036 L -79.3725,11.4619 L -79.2187,11.4298 L -79.0633,11.4074
 L -78.9067,11.3948 L -78.7497,11.3921 L -78.5928,11.3992 L -78.4367,11.4162 L -78.2819,11.4429 L -78.1292,11.4793
 L -77.979,11.5252 L -77.8319,11.5805 L -77.6887,11.6449 L -77.5498,11.7181 L -77.4157,11.7999 L -77.2871,11.89
 L -77.1643,11.988 L -77.048,12.0935 L -76.9385,12.2061 L -76.8363,12.3253 L -76.7418,12.4508 L -76.6553,12.5819
 L -76.5772,12.7182 L -76.5079,12.8591 L -76.4476,13.0041 L -76.3964,13.1526 L -76.3547,13.304 L -76.3226,13.4577
 L -76.3002,13.6132 L -76.2876,13.7697 L -76.2849,13.9268 L -76.292,14.0836 L -76.3089,14.2398 L -76.3357,14.3945
 L -76.3721,14.5473 L -76.418,14.6975 L -76.4733,14.8445 L -76.5376,14.9878 L -76.6109,15.1267 L -76.6927,15.2608
 L -76.7828,15.3894 L -76.8808,15.5121 L -76.9863,15.6285 L -77.0989,15.738 L -77.2181,15.8402 L -77.3435,15.9347
 L -77.4747,16.0212 L -77.6109,16.0992 L -77.7519,16.1686 L -77.8969,16.2289 L -78.0453,16.28 L -78.1968,16.3217
 L -78.3505,16.3539 L -78.506,16.3763 L -78.6625,16.3889 L -78.8195,16.3916 z
M -98.6726,19.8574 L -98.8287,19.8405 L -98.9835,19.8138 L -99.1362,19.7774 L -99.2864,19.7314 L -99.4334,19.6762
 L -99.5767,19.6118 L -99.7156,19.5385 L -99.8497,19.4567 L -99.9783,19.3666 L -100.101,19.2687 L -100.217,19.1632
 L -100.327,19.0506 L -100.429,18.9313 L -100.524,18.8059 L -100.61,18.6748 L -100.688,18.5385 L -100.757,18.3976
 L -100.818,18.2526 L -100.869,18.1041 L -100.911,17.9527 L -100.943,17.7989 L -100.965,17.6435 L -100.978,17.4869
 L -100.981,17.3299 L -100.973,17.173 L -100.956,17.0169 L -100.93,16.8621 L -100.893,16.7093 L -100.847,16.5591
 L -100.792,16.4121 L -100.728,16.2689 L -100.655,16.13 L -100.573,15.9959 L -100.483,15.8672 L -100.385,15.7445
 L -100.279,15.6282 L -100.167,15.5187 L -100.047,15.4165 L -99.9219,15.3219 L -99.7907,15.2355 L -99.6544,15.1574
 L -99.5135,15.0881 L -99.3685,15.0277 L -99.22,14.9766 L -99.0686,14.9349 L -98.9149,14.9028 L -98.7594,14.8804
 L -98.6029,14.8678 L -98.4459,14.8651 L -98.289,14.8722 L -98.1328,14.8891 L -97.9781,14.9159 L -97.8253,14.9523
 L -97.6751,14.9982 L -97.5281,15.0535 L -97.3848,15.1178 L -97.2459,15.1911 L -97.1119,15.2729 L -96.9832,15.363
 L -96.8605,15.461 L -96.7441,15.5665 L -96.6346,15.679 L -96.5324,15.7983 L -96.4379,15.9237 L -96.3515,16.0548
 L -96.2734,16.1911 L -96.2041,16.332 L -96.1437,16.4771 L -96.0926,16.6255 L -96.0509,16.777 L -96.0188,16.9307
 L -95.9964,17.0861 L -95.9837,17.2427 L -95.981,17.3997 L -95.9881,17.5566 L -96.0051,17.7127 L -96.0318,17.8675
 L -96.0682,18.0203 L -96.1142,18.1705 L -96.1694,18.3175 L -96.2338,18.4607 L -96.307,18.5997 L -96.3889,18.7337
 L -96.4789,18.8624 L -96.5769,18.9851 L -96.6824,19.1015 L -96.795,19.211 L -96.9143,19.3132 L -97.0397,19.4077
 L -97.1708,19.4941 L -97.3071,19.5722 L -97.448,19.6415 L -97.593,19.7019 L -97.7415,19.753 L -97.8929,19.7947
 L -98.0466,19.8268 L -98.2021,19.8492 L -98.3586,19.8618 L -98.5157,19.8646 z
M 58.6805,36.4912 L 58.5245,36.4732 L 58.3699,36.4454 L 58.2174,36.4079 L 58.0676,36.3609 L 57.9209,36.3047
 L 57.7781,36.2393 L 57.6397,36.1651 L 48.5464,30.9151 L 48.413,30.8323 L 48.285,30.7413 L 48.1629,30.6425
 L 48.0473,30.5362 L 47.9386,30.4228 L 47.8372,30.3029 L 47.7436,30.1768 L 47.6581,30.0451 L 47.5809,29.9082
 L 47.5126,29.7668 L 47.4532,29.6214 L 47.4032,29.4726 L 47.3625,29.3209 L 47.3315,29.1669 L 47.3102,29.0113
 L 47.2986,28.8547 L 47.297,28.6976 L 47.3052,28.5408 L 47.3233,28.3848 L 47.3511,28.2302 L 47.3885,28.0777
 L 47.4355,27.9278 L 47.4918,27.7812 L 47.5572,27.6384 L 47.6314,27.5 L 47.7142,27.3665 L 47.8051,27.2385
 L 47.904,27.1164 L 48.0103,27.0008 L 48.1236,26.8921 L 48.2436,26.7908 L 48.3697,26.6971 L 48.5014,26.6116
 L 48.6382,26.5345 L 48.7796,26.4661 L 48.925,26.4068 L 49.0739,26.3567 L 49.2256,26.316 L 49.3795,26.285
 L 49.5351,26.2637 L 49.6918,26.2522 L 49.8488,26.2505 L 50.0056,26.2588 L 50.1617,26.2768 L 50.3162,26.3046
 L 50.4688,26.3421 L 50.6186,26.3891 L 50.7652,26.4453 L 50.908,26.5107 L 51.0464,26.5849 L 60.1397,31.8349
 L 60.2732,31.9177 L 60.4012,32.0087 L 60.5233,32.1075 L 60.6389,32.2138 L 60.7476,32.3272 L 60.849,32.4471
 L 60.9426,32.5732 L 61.0281,32.7049 L 61.1052,32.8418 L 61.1736,32.9832 L 61.2329,33.1286 L 61.283,33.2774
 L 61.3237,33.4291 L 61.3547,33.5831 L 61.376,33.7387 L 61.3875,33.8953 L 61.3892,34.0524 L 61.381,34.2092
 L 61.3629,34.3652 L 61.3351,34.5198 L 61.2976,34.6723 L 61.2507,34.8222 L 61.1944,34.9688 L 61.129,35.1116
 L 61.0548,35.25 L 60.972,35.3835 L 60.881,35.5115 L 60.7822,35.6335 L 60.6759,35.7491 L 60.5625,35.8578
 L 60.4426,35.9592 L 60.3165,36.0529 L 60.1848,36.1384 L 60.048,36.2155 L 59.9066,36.2839 L 59.7612,36.3432
 L 59.6123,36.3933 L 59.4606,36.4339 L 59.3066,36.465 L 59.151,36.4863 L 58.9944,36.4978 L 58.8374,36.4995
 z
M 109.286,36.8406 L 109.13,36.8225 L 108.975,36.7947 L 108.823,36.7573 L 108.673,36.7103 L 108.526,36.654
 L 108.383,36.5886 L 108.245,36.5144 L 99.1516,31.2644 L 99.0181,31.1817 L 98.8901,31.0907 L 98.768,30.9919
 L 98.6524,30.8855 L 98.5437,30.7722 L 98.4423,30.6522 L 98.3487,30.5261 L 98.2632,30.3944 L 98.1861,30.2576
 L 98.1177,30.1162 L 98.0584,29.9708 L 98.0083,29.8219 L 97.9676,29.6702 L 97.9366,29.5163 L 97.9153,29.3607
 L 97.9038,29.204 L 97.9021,29.047 L 97.9103,28.8902 L 97.9284,28.7341 L 97.9562,28.5796 L 97.9937,28.4271
 L 98.0406,28.2772 L 98.0969,28.1306 L 98.1623,27.9878 L 98.2365,27.8494 L 98.3193,27.7159 L 98.4102,27.5879
 L 98.5091,27.4658 L 98.6154,27.3502 L 98.7287,27.2415 L 98.8487,27.1401 L 98.9748,27.0465 L 99.1065,26.961
 L 99.2433,26.8839 L 99.3847,26.8155 L 99.5301,26.7561 L 99.679,26.7061 L 99.8307,26.6654 L 99.9846,26.6344
 L 100.14,26.6131 L 100.297,26.6015 L 100.454,26.5999 L 100.611,26.6081 L 100.767,26.6262 L 100.921,26.654
 L 101.074,26.6915 L 101.224,26.7384 L 101.37,26.7947 L 101.513,26.8601 L 101.652,26.9343 L 110.745,32.1843
 L 110.878,32.2671 L 111.006,32.358 L 111.128,32.4569 L 111.244,32.5632 L 111.353,32.6765 L 111.454,32.7965
 L 111.548,32.9226 L 111.633,33.0543 L 111.71,33.1911 L 111.779,33.3325 L 111.838,33.4779 L 111.888,33.6268
 L 111.929,33.7785 L 111.96,33.9324 L 111.981,34.088 L 111.993,34.2447 L 111.994,34.4017 L 111.986,34.5585
 L 111.968,34.7146 L 111.94,34.8691 L 111.903,35.0217 L 111.856,35.1715 L 111.799,35.3181 L 111.734,35.461
 L 111.66,35.5994 L 111.577,35.7328 L 111.486,35.8609 L 111.387,35.9829 L 111.281,36.0985 L 111.168,36.2072
 L 111.048,36.3086 L 110.922,36.4022 L 110.79,36.4878 L 110.653,36.5649 L 110.512,36.6332 L 110.366,36.6926
 L 110.217,36.7427 L 110.066,36.7833 L 109.912,36.8143 L 109.756,36.8357 L 109.6,36.8472 L 109.442,36.8488
 z
M 85.7658,59.9649 L 85.1417,59.8927 L 84.5234,59.7815 L 83.9133,59.6316 L 83.3139,59.4438 L 82.7274,59.2186
 L 82.1562,58.9571 L 81.6025,58.6602 L 69.0452,51.4102 L 68.5112,51.0792 L 67.9992,50.7153 L 67.511,50.3199
 L 67.0485,49.8947 L 66.6137,49.4413 L 66.2082,48.9615 L 65.8337,48.4571 L 65.4915,47.9303 L 65.1831,47.3829
 L 64.9097,46.8174 L 64.6723,46.2357 L 64.472,45.6403 L 64.3094,45.0335 L 64.1852,44.4177 L 64.0999,43.7953
 L 64.0539,43.1687 L 64.0474,42.5406 L 64.0802,41.9132 L 64.1525,41.2892 L 64.2637,40.6709 L 64.4135,40.0608
 L 64.6014,39.4613 L 64.8265,38.8748 L 65.088,38.3036 L 65.3849,37.75 L 65.716,37.2161 L 66.0799,36.704
 L 66.4752,36.2158 L 66.9004,35.7534 L 67.3539,35.3185 L 67.8337,34.9131 L 68.338,34.5385 L 68.8649,34.1964
 L 69.4122,33.888 L 69.9778,33.6145 L 70.5594,33.3772 L 71.1548,33.1768 L 71.7617,33.0142 L 72.3775,32.89
 L 72.9999,32.8048 L 73.6264,32.7588 L 74.2546,32.7522 L 74.8819,32.7851 L 75.506,32.8573 L 76.1243,32.9685
 L 76.7344,33.1184 L 77.3338,33.3062 L 77.9203,33.5314 L 78.4915,33.7929 L 79.0452,34.0897 L 91.6025,41.3397
 L 92.1364,41.6708 L 92.6485,42.0347 L 93.1367,42.43 L 93.5992,42.8553 L 94.034,43.3087 L 94.4395,43.7885
 L 94.814,44.2929 L 95.1562,44.8197 L 95.4646,45.367 L 95.738,45.9326 L 95.9754,46.5143 L 96.1757,47.1097
 L 96.3383,47.7165 L 96.4625,48.3323 L 96.5478,48.9547 L 96.5938,49.5812 L 96.6003,50.2094 L 96.5675,50.8368
 L 96.4953,51.4608 L 96.384,52.0791 L 96.2342,52.6892 L 96.0463,53.2887 L 95.8212,53.8752 L 95.5596,54.4464
 L 95.2628,55 L 94.9317,55.5339 L 94.5678,56.046 L 94.1725,56.5342 L 93.7473,56.9966 L 93.2938,57.4314
 L 92.814,57.8369 L 92.3097,58.2115 L 91.7828,58.5536 L 91.2355,58.862 L 90.6699,59.1355 L 90.0883,59.3728
 L 89.4929,59.5732 L 88.886,59.7358 L 88.2702,59.86 L 87.6478,59.9452 L 87.0213,59.9912 L 86.3931,59.9978
 z
M -86.7072,52.4978 L -86.8639,52.4863 L -87.0195,52.465 L -87.1734,52.4339 L -87.3251,52.3933 L -87.474,52.3432
 L -87.6194,52.2839 L -87.7608,52.2155 L -87.8976,52.1384 L -88.0293,52.0529 L -88.1554,51.9592 L -88.2754,51.8578
 L -88.3887,51.7491 L -88.495,51.6335 L -88.5939,51.5115 L -88.6848,51.3835 L -88.7676,51.25 L -88.8418,51.1116
 L -88.9072,50.9688 L -88.9635,50.8222 L -89.0104,50.6723 L -89.0479,50.5198 L -89.0757,50.3652 L -89.0938,50.2092
 L -89.102,50.0524 L -89.1003,49.8953 L -89.0888,49.7387 L -89.0675,49.5831 L -89.0365,49.4291 L -88.9958,49.2774
 L -88.9457,49.1286 L -88.8864,48.9832 L -88.818,48.8418 L -88.741,48.7049 L -88.6554,48.5732 L -88.5618,48.4471
 L -88.4604,48.3272 L -88.3517,48.2138 L -88.2361,48.1075 L -88.114,48.0087 L -87.986,47.9177 L -87.8525,47.8349
 L -87.7141,47.7607 L -87.5713,47.6953 L -87.4247,47.6391 L -87.2748,47.5921 L -87.1223,47.5546 L -86.9677,47.5268
 L -86.8117,47.5088 L -86.6549,47.5005 L -86.4978,47.5022 L -86.3412,47.5137 L -86.1856,47.535 L -86.0317,47.566
 L -85.88,47.6067 L -85.7311,47.6568 L -85.5857,47.7161 L -85.4443,47.7845 L -85.3075,47.8616 L -85.1758,47.9471
 L -85.0497,48.0408 L -84.9297,48.1421 L -84.8164,48.2508 L -84.7101,48.3664 L -84.6112,48.4885 L -84.5202,48.6165
 L -84.4375,48.75 L -84.3633,48.8884 L -84.2979,49.0312 L -84.2416,49.1778 L -84.1946,49.3277 L -84.1572,49.4802
 L -84.1293,49.6348 L -84.1113,49.7908 L -84.1031,49.9476 L -84.1047,50.1047 L -84.1162,50.2613 L -84.1375,50.4169
 L -84.1686,50.5709 L -84.2092,50.7226 L -84.2593,50.8714 L -84.3187,51.0168 L -84.387,51.1582 L -84.4641,51.2951
 L -84.5497,51.4268 L -84.6433,51.5529 L -84.7447,51.6728 L -84.8534,51.7862 L -84.969,51.8925 L -85.091,51.9913
 L -85.2191,52.0823 L -85.3525,52.1651 L -85.491,52.2393 L -85.6337,52.3047 L -85.7804,52.3609 L -85.9302,52.4079
 L -86.0828,52.4454 L -86.2373,52.4732 L -86.3933,52.4912 L -86.5502,52.4995 z
M -0.156967,70.4951 L -0.313324,70.4803 L -0.468445,70.4557 L -0.621719,70.4214 L -0.772537,70.3776 L -0.920303,70.3244
 L -1.06444,70.2621 L -1.20438,70.1908 L -1.33955,70.1108 L -1.46945,70.0225 L -1.59355,69.9263 L -1.71136,69.8224
 L -1.82242,69.7114 L -1.92627,69.5936 L -2.02254,69.4695 L -2.11081,69.3396 L -2.19077,69.2044 L -2.26205,69.0644
 L -2.32443,68.9203 L -2.37764,68.7725 L -2.42145,68.6217 L -2.4557,68.4684 L -2.48029,68.3133 L -2.49506,68.157
 L -2.5,68 L -2.5,57.5 L -2.49506,57.343 L -2.48029,57.1867 L -2.4557,57.0315 L -2.42145,56.8783
 L -2.37764,56.7274 L -2.32443,56.5797 L -2.26205,56.4355 L -2.19077,56.2956 L -2.11081,56.1604 L -2.02254,56.0305
 L -1.92627,55.9064 L -1.82242,55.7886 L -1.71136,55.6776 L -1.59355,55.5737 L -1.46945,55.4774 L -1.33955,55.3892
 L -1.20438,55.3092 L -1.06444,55.2379 L -0.920303,55.1756 L -0.772537,55.1223 L -0.621719,55.0785 L -0.468445,55.0443
 L -0.313324,55.0197 L -0.156967,55.0049 L 0,55 L 0.156967,55.0049 L 0.313324,55.0197 L 0.468445,55.0443
 L 0.621719,55.0785 L 0.772537,55.1224 L 0.920303,55.1756 L 1.06444,55.2379 L 1.20438,55.3092 L 1.33955,55.3892
 L 1.46945,55.4774 L 1.59355,55.5737 L 1.71136,55.6776 L 1.82242,55.7886 L 1.92627,55.9064 L 2.02254,56.0305
 L 2.11081,56.1604 L 2.19077,56.2956 L 2.26205,56.4355 L 2.32443,56.5797 L 2.37764,56.7274 L 2.42145,56.8783
 L 2.4557,57.0315 L 2.48029,57.1867 L 2.49506,57.343 L 2.5,57.5 L 2.5,68 L 2.49506,68.157
 L 2.48029,68.3133 L 2.4557,68.4684 L 2.42145,68.6217 L 2.37764,68.7725 L 2.32443,68.9203 L 2.26205,69.0644
 L 2.19077,69.2044 L 2.11081,69.3396 L 2.02254,69.4695 L 1.92627,69.5936 L 1.82242,69.7114 L 1.71136,69.8224
 L 1.59355,69.9263 L 1.46945,70.0225 L 1.33955,70.1108 L 1.20438,70.1908 L 1.06444,70.2621 L 0.920303,70.3244
 L 0.772537,70.3776 L 0.621719,70.4214 L 0.468445,70.4557 L 0.313324,70.4803 L 0.156967,70.4951 L 0,70.5
 z
M -51.5974,63.7775 L -51.7536,63.7616 L -51.9086,63.7359 L -52.0616,63.7006 L -52.2121,63.6557 L -52.3595,63.6015
 L -52.5032,63.5381 L -52.6427,63.4659 L -52.7773,63.385 L -52.9066,63.2958 L -53.03,63.1987 L -53.147,63.094
 L -53.2573,62.9821 L -53.3604,62.8636 L -53.4557,62.7389 L -53.5431,62.6084 L -53.6221,62.4726 L -53.6924,62.3322
 L -53.7538,62.1876 L -53.806,62.0395 L -53.8487,61.8884 L -53.8819,61.7348 L -53.9054,61.5796 L -53.9191,61.4231
 L -53.9229,61.2661 L -53.9169,61.1092 L -53.901,60.9529 L -53.8754,60.798 L -53.8401,60.6449 L -53.7952,60.4944
 L -53.741,60.347 L -53.6776,60.2033 L -53.6053,60.0639 L -53.5244,59.9293 L -53.4352,59.8 L -53.3381,59.6766
 L -53.2334,59.5595 L -53.1216,59.4492 L -53.0031,59.3462 L -52.8783,59.2508 L -52.7478,59.1634 L -52.6121,59.0844
 L -52.4716,59.0141 L -52.3271,58.9527 L -52.1789,58.9006 L -52.0278,58.8578 L -51.8743,58.8246 L -51.719,58.8011
 L -51.5626,58.7874 L -51.4055,58.7836 L -51.2486,58.7896 L -51.0924,58.8055 L -50.9374,58.8312 L -50.7844,58.8665
 L -50.6339,58.9114 L -50.4865,58.9656 L -50.3428,59.029 L -50.2034,59.1012 L -50.0687,59.1821 L -49.9395,59.2713
 L -49.816,59.3684 L -49.699,59.4731 L -49.5887,59.5849 L -49.4856,59.7035 L -49.3902,59.8282 L -49.3029,59.9588
 L -49.2239,60.0945 L -49.1536,60.2349 L -49.0922,60.3795 L -49.04,60.5276 L -48.9973,60.6787 L -48.9641,60.8322
 L -48.9406,60.9875 L -48.9269,61.144 L -48.9231,61.301 L -48.9291,61.4579 L -48.945,61.6142 L -48.9706,61.7691
 L -49.006,61.9222 L -49.0508,62.0727 L -49.105,62.2201 L -49.1684,62.3638 L -49.2407,62.5032 L -49.3216,62.6378
 L -49.4108,62.7671 L -49.5079,62.8905 L -49.6126,63.0076 L -49.7244,63.1179 L -49.8429,63.2209 L -49.9677,63.3163
 L -50.0982,63.4037 L -50.2339,63.4827 L -50.3744,63.553 L -50.5189,63.6144 L -50.6671,63.6665 L -50.8182,63.7093
 L -50.9717,63.7425 L -51.127,63.766 L -51.2834,63.7796 L -51.4405,63.7835 z
M 84.2856,80.1419 L 84.1296,80.1238 L 83.9751,80.096 L 83.8225,80.0585 L 83.6727,80.0116 L 83.526,79.9553
 L 83.3833,79.8899 L 83.2448,79.8157 L 74.1516,74.5657 L 74.0181,74.4829 L 73.8901,74.392 L 73.768,74.2931
 L 73.6524,74.1868 L 73.5437,74.0735 L 73.4423,73.9535 L 73.3487,73.8274 L 73.2632,73.6957 L 73.1861,73.5589
 L 73.1177,73.4175 L 73.0584,73.2721 L 73.0083,73.1232 L 72.9676,72.9715 L 72.9366,72.8176 L 72.9153,72.662
 L 72.9038,72.5053 L 72.9021,72.3483 L 72.9103,72.1914 L 72.9284,72.0354 L 72.9562,71.8808 L 72.9937,71.7283
 L 73.0406,71.5785 L 73.0969,71.4318 L 73.1623,71.289 L 73.2365,71.1506 L 73.3193,71.0172 L 73.4102,70.8891
 L 73.5091,70.7671 L 73.6154,70.6515 L 73.7287,70.5428 L 73.8487,70.4414 L 73.9748,70.3478 L 74.1065,70.2622
 L 74.2433,70.1851 L 74.3847,70.1168 L 74.5302,70.0574 L 74.679,70.0073 L 74.8307,69.9667 L 74.9846,69.9356
 L 75.1403,69.9143 L 75.2969,69.9028 L 75.4539,69.9012 L 75.6108,69.9094 L 75.7668,69.9274 L 75.9214,69.9553
 L 76.0739,69.9927 L 76.2237,70.0397 L 76.3704,70.096 L 76.5132,70.1613 L 76.6516,70.2356 L 85.7448,75.4856
 L 85.8783,75.5683 L 86.0063,75.6593 L 86.1284,75.7581 L 86.244,75.8645 L 86.3527,75.9778 L 86.4541,76.0978
 L 86.5477,76.2238 L 86.6333,76.3556 L 86.7103,76.4924 L 86.7787,76.6338 L 86.838,76.7792 L 86.8881,76.9281
 L 86.9288,77.0798 L 86.9598,77.2337 L 86.9811,77.3893 L 86.9926,77.5459 L 86.9943,77.703 L 86.9861,77.8598
 L 86.968,78.0158 L 86.9402,78.1704 L 86.9027,78.3229 L 86.8558,78.4728 L 86.7995,78.6194 L 86.7341,78.7622
 L 86.6599,78.9006 L 86.5771,79.0341 L 86.4862,79.1621 L 86.3873,79.2842 L 86.281,79.3998 L 86.1677,79.5085
 L 86.0477,79.6099 L 85.9216,79.7035 L 85.7899,79.789 L 85.6531,79.8661 L 85.5117,79.9345 L 85.3663,79.9938
 L 85.2174,80.0439 L 85.0657,80.0846 L 84.9118,80.1156 L 84.7562,80.1369 L 84.5995,80.1484 L 84.4425,80.1501
 z
M -64.4532,79.0984 L -64.6094,79.0825 L -64.7643,79.0568 L -64.9174,79.0215 L -65.0679,78.9766 L -65.2153,78.9224
 L -65.359,78.859 L -65.4984,78.7867 L -65.633,78.7059 L -65.7623,78.6167 L -65.8857,78.5195 L -66.0028,78.4149
 L -66.1131,78.303 L -66.2161,78.1845 L -66.3115,78.0598 L -66.3989,77.9292 L -66.4779,77.7935 L -66.5482,77.6531
 L -66.6096,77.5085 L -66.6617,77.3604 L -66.7045,77.2092 L -66.7377,77.0557 L -66.7612,76.9005 L -66.7749,76.744
 L -66.7787,76.587 L -66.7727,76.4301 L -66.7568,76.2738 L -66.7311,76.1189 L -66.6958,75.9658 L -66.6509,75.8153
 L -66.5967,75.6679 L -66.5333,75.5242 L -66.4611,75.3848 L -66.3802,75.2502 L -66.291,75.1209 L -66.1939,74.9975
 L -66.0892,74.8804 L -65.9774,74.7701 L -65.8588,74.6671 L -65.7341,74.5717 L -65.6036,74.4843 L -65.4678,74.4053
 L -65.3274,74.335 L -65.1828,74.2736 L -65.0347,74.2215 L -64.8836,74.1787 L -64.7301,74.1455 L -64.5748,74.122
 L -64.4183,74.1083 L -64.2613,74.1045 L -64.1044,74.1105 L -63.9481,74.1264 L -63.7932,74.1521 L -63.6401,74.1874
 L -63.4896,74.2323 L -63.3422,74.2865 L -63.1985,74.3499 L -63.0591,74.4221 L -62.9245,74.503 L -62.7952,74.5922
 L -62.6718,74.6893 L -62.5547,74.794 L -62.4444,74.9058 L -62.3414,75.0244 L -62.246,75.1491 L -62.1586,75.2796
 L -62.0796,75.4154 L -62.0093,75.5558 L -61.948,75.7004 L -61.8958,75.8485 L -61.853,75.9996 L -61.8198,76.1531
 L -61.7963,76.3084 L -61.7827,76.4649 L -61.7788,76.6219 L -61.7849,76.7788 L -61.8007,76.9351 L -61.8264,77.09
 L -61.8617,77.2431 L -61.9066,77.3936 L -61.9608,77.541 L -62.0242,77.6847 L -62.0965,77.8241 L -62.1773,77.9587
 L -62.2665,78.088 L -62.3636,78.2114 L -62.4683,78.3285 L -62.5802,78.4388 L -62.6987,78.5418 L -62.8234,78.6372
 L -62.954,78.7246 L -63.0897,78.8036 L -63.2301,78.8739 L -63.3747,78.9353 L -63.5228,78.9874 L -63.674,79.0302
 L -63.8275,79.0634 L -63.9827,79.0869 L -64.1392,79.1005 L -64.2962,79.1044 z
M -0.627899,109.98 L -1.25333,109.921 L -1.87381,109.823 L -2.48689,109.686 L -3.09016,109.511 L -3.68124,109.298
 L -4.25778,109.048 L -4.81754,108.763 L -5.35826,108.443 L -5.87784,108.09 L -6.37424,107.705 L -6.84546,107.29
 L -7.28967,106.845 L -7.70512,106.374 L -8.09016,105.878 L -8.44327,105.358 L -8.76306,104.818 L -9.04826,104.258
 L -9.29776,103.681 L -9.51056,103.09 L -9.68582,102.487 L -9.82286,101.874 L -9.92114,101.253 L -9.98026,100.628
 L -10,100 L -10,85.5 L -9.98026,84.8721 L -9.92114,84.2467 L -9.82286,83.6262 L -9.68582,83.0131
 L -9.51056,82.4098 L -9.29776,81.8188 L -9.04826,81.2422 L -8.76306,80.6825 L -8.44327,80.1417 L -8.09016,79.6221
 L -7.70512,79.1258 L -7.28967,78.6545 L -6.84546,78.2103 L -6.37424,77.7949 L -5.87784,77.4098 L -5.35826,77.0567
 L -4.81754,76.7369 L -4.25778,76.4517 L -3.68124,76.2022 L -3.09016,75.9894 L -2.48689,75.8142 L -1.87381,75.6771
 L -1.25333,75.5788 L -0.627899,75.5197 L 0,75.5 L 0.627899,75.5197 L 1.25333,75.5788 L 1.87381,75.6771
 L 2.48689,75.8142 L 3.09016,75.9894 L 3.68124,76.2022 L 4.25778,76.4517 L 4.81754,76.7369 L 5.35826,77.0567
 L 5.87784,77.4098 L 6.37424,77.7949 L 6.84546,78.2103 L 7.28967,78.6545 L 7.70512,79.1258 L 8.09016,79.6221
 L 8.44327,80.1417 L 8.76306,80.6825 L 9.04826,81.2422 L 9.29776,81.8188 L 9.51056,82.4098 L 9.68582,83.0131
 L 9.82286,83.6262 L 9.92114,84.2467 L 9.98026,84.8721 L 10,85.5 L 10,100 L 9.98026,100.628
 L 9.92114,101.253 L 9.82286,101.874 L 9.68582,102.487 L 9.51056,103.09 L 9.29776,103.681 L 9.04826,104.258
 L 8.76306,104.818 L 8.44327,105.358 L 8.09016,105.878 L 7.70512,106.374 L 7.28967,106.845 L 6.84546,107.29
 L 6.37424,107.705 L 5.87784,108.09 L 5.35826,108.443 L 4.81754,108.763 L 4.25778,109.048 L 3.68124,109.298
 L 3.09016,109.511 L 2.48689,109.686 L 1.87381,109.823 L 1.25333,109.921 L 0.627899,109.98 L 0,110
 z
M -50.2092,89.0938 L -50.3652,89.0757 L -50.5198,89.0479 L -50.6723,89.0104 L -50.8222,88.9635 L -50.9688,88.9072
 L -51.1116,88.8418 L -51.25,88.7676 L -51.3835,88.6848 L -51.5115,88.5939 L -51.6335,88.495 L -51.7491,88.3887
 L -51.8578,88.2754 L -51.9592,88.1554 L -52.0529,88.0293 L -52.1384,87.8976 L -52.2155,87.7608 L -52.2839,87.6194
 L -52.3432,87.474 L -52.3933,87.3251 L -52.4339,87.1734 L -52.465,87.0195 L -52.4863,86.8639 L -52.4978,86.7072
 L -52.4995,86.5502 L -52.4912,86.3933 L -52.4732,86.2373 L -52.4454,86.0828 L -52.4079,85.9302 L -52.3609,85.7804
 L -52.3047,85.6337 L -52.2393,85.491 L -52.1651,85.3525 L -52.0823,85.2191 L -51.9913,85.091 L -51.8925,84.969
 L -51.7862,84.8534 L -51.6728,84.7447 L -51.5529,84.6433 L -51.4268,84.5497 L -51.2951,84.4641 L -51.1582,84.387
 L -51.0168,84.3187 L -50.8714,84.2593 L -50.7226,84.2092 L -50.5709,84.1686 L -50.4169,84.1375 L -50.2613,84.1162
 L -50.1047,84.1047 L -49.9476,84.1031 L -49.7908,84.1113 L -49.6348,84.1293 L -49.4802,84.1572 L -49.3277,84.1946
 L -49.1778,84.2416 L -49.0312,84.2979 L -48.8884,84.3633 L -48.75,84.4375 L -48.6165,84.5202 L -48.4885,84.6112
 L -48.3664,84.7101 L -48.2508,84.8164 L -48.1421,84.9297 L -48.0408,85.0497 L -47.9471,85.1758 L -47.8616,85.3075
 L -47.7845,85.4443 L -47.7161,85.5857 L -47.6568,85.7311 L -47.6067,85.88 L -47.566,86.0317 L -47.535,86.1856
 L -47.5137,86.3412 L -47.5022,86.4978 L -47.5005,86.6549 L -47.5088,86.8117 L -47.5268,86.9677 L -47.5546,87.1223
 L -47.5921,87.2748 L -47.6391,87.4247 L -47.6953,87.5713 L -47.7607,87.7141 L -47.8349,87.8525 L -47.9177,87.986
 L -48.0087,88.114 L -48.1075,88.2361 L -48.2138,88.3517 L -48.3272,88.4604 L -48.4471,88.5618 L -48.5732,88.6554
 L -48.7049,88.741 L -48.8418,88.818 L -48.9832,88.8864 L -49.1286,88.9457 L -49.2774,88.9958 L -49.4291,89.0365
 L -49.5831,89.0675 L -49.7387,89.0888 L -49.8953,89.1003 L -50.0524,89.102 z
M 49.8953,89.1003 L 49.7387,89.0888 L 49.5831,89.0675 L 49.4291,89.0365 L 49.2774,88.9958 L 49.1286,88.9457
 L 48.9832,88.8864 L 48.8418,88.818 L 48.7049,88.741 L 48.5732,88.6554 L 48.4471,88.5618 L 48.3272,88.4604
 L 48.2138,88.3517 L 48.1075,88.2361 L 48.0087,88.114 L 47.9177,87.986 L 47.8349,87.8525 L 47.7607,87.7141
 L 47.6953,87.5713 L 47.6391,87.4247 L 47.5921,87.2748 L 47.5546,87.1223 L 47.5268,86.9677 L 47.5088,86.8117
 L 47.5005,86.6549 L 47.5022,86.4978 L 47.5137,86.3412 L 47.535,86.1856 L 47.566,86.0317 L 47.6067,85.88
 L 47.6568,85.7311 L 47.7161,85.5857 L 47.7845,85.4443 L 47.8616,85.3075 L 47.9471,85.1758 L 48.0408,85.0497
 L 48.1421,84.9297 L 48.2508,84.8164 L 48.3664,84.7101 L 48.4885,84.6112 L 48.6165,84.5202 L 48.75,84.4375
 L 48.8884,84.3633 L 49.0312,84.2979 L 49.1778,84.2416 L 49.3277,84.1946 L 49.4802,84.1572 L 49.6348,84.1293
 L 49.7908,84.1113 L 49.9476,84.1031 L 50.1047,84.1047 L 50.2613,84.1162 L 50.4169,84.1375 L 50.5709,84.1686
 L 50.7226,84.2092 L 50.8714,84.2593 L 51.0168,84.3187 L 51.1582,84.387 L 51.2951,84.4641 L 51.4268,84.5497
 L 51.5529,84.6433 L 51.6728,84.7447 L 51.7862,84.8534 L 51.8925,84.969 L 51.9913,85.091 L 52.0823,85.2191
 L 52.1651,85.3525 L 52.2393,85.491 L 52.3047,85.6337 L 52.3609,85.7804 L 52.4079,85.9302 L 52.4454,86.0828
 L 52.4732,86.2373 L 52.4912,86.3933 L 52.4995,86.5502 L 52.4978,86.7072 L 52.4863,86.8639 L 52.465,87.0195
 L 52.4339,87.1734 L 52.3933,87.3251 L 52.3432,87.474 L 52.2839,87.6194 L 52.2155,87.7608 L 52.1384,87.8976
 L 52.0529,88.0293 L 51.9592,88.1554 L 51.8578,88.2754 L 51.7491,88.3887 L 51.6335,88.495 L 51.5115,88.5939
 L 51.3835,88.6848 L 51.25,88.7676 L 51.1116,88.8418 L 50.9688,88.9072 L 50.8222,88.9635 L 50.6723,89.0104
 L 50.5198,89.0479 L 50.3652,89.0757 L 50.2092,89.0938 L 50.0524,89.102 z
M -25.157,114.495 L -25.3133,114.48 L -25.4684,114.456 L -25.6217,114.421 L -25.7725,114.378 L -25.9203,114.324
 L -26.0644,114.262 L -26.2044,114.191 L -26.3396,114.111 L -26.4695,114.023 L -26.5936,113.926 L -26.7114,113.822
 L -26.8224,113.711 L -26.9263,113.594 L -27.0225,113.469 L -27.1108,113.34 L -27.1908,113.204 L -27.2621,113.064
 L -27.3244,112.92 L -27.3776,112.773 L -27.4214,112.622 L -27.4557,112.468 L -27.4803,112.313 L -27.4951,112.157
 L -27.5,112 L -27.5,101.5 L -27.4951,101.343 L -27.4803,101.187 L -27.4557,101.032 L -27.4214,100.878
 L -27.3776,100.727 L -27.3244,100.58 L -27.2621,100.436 L -27.1908,100.296 L -27.1108,100.16 L -27.0225,100.031
 L -26.9263,99.9064 L -26.8224,99.7886 L -26.7114,99.6776 L -26.5936,99.5737 L -26.4695,99.4774 L -26.3396,99.3892
 L -26.2044,99.3092 L -26.0644,99.2379 L -25.9203,99.1756 L -25.7725,99.1224 L -25.6217,99.0785 L -25.4684,99.0443
 L -25.3133,99.0197 L -25.157,99.0049 L -25,99 L -24.843,99.0049 L -24.6867,99.0197 L -24.5315,99.0443
 L -24.3783,99.0785 L -24.2274,99.1224 L -24.0797,99.1756 L -23.9355,99.2379 L -23.7956,99.3092 L -23.6604,99.3892
 L -23.5305,99.4774 L -23.4064,99.5737 L -23.2886,99.6776 L -23.1776,99.7886 L -23.0737,99.9064 L -22.9774,100.031
 L -22.8892,100.16 L -22.8092,100.296 L -22.7379,100.436 L -22.6756,100.58 L -22.6223,100.727 L -22.5785,100.878
 L -22.5443,101.032 L -22.5197,101.187 L -22.5049,101.343 L -22.5,101.5 L -22.5,112 L -22.5049,112.157
 L -22.5197,112.313 L -22.5443,112.468 L -22.5785,112.622 L -22.6223,112.773 L -22.6756,112.92 L -22.7379,113.064
 L -22.8092,113.204 L -22.8892,113.34 L -22.9774,113.469 L -23.0737,113.594 L -23.1776,113.711 L -23.2886,113.822
 L -23.4064,113.926 L -23.5305,114.023 L -23.6604,114.111 L -23.7956,114.191 L -23.9355,114.262 L -24.0797,114.324
 L -24.2274,114.378 L -24.3783,114.421 L -24.5315,114.456 L -24.6867,114.48 L -24.843,114.495 L -25,114.5
 z
M 24.843,114.495 L 24.6867,114.48 L 24.5315,114.456 L 24.3783,114.421 L 24.2274,114.378 L 24.0797,114.324
 L 23.9355,114.262 L 23.7956,114.191 L 23.6604,114.111 L 23.5305,114.023 L 23.4064,113.926 L 23.2886,113.822
 L 23.1776,113.711 L 23.0737,113.594 L 22.9774,113.469 L 22.8892,113.34 L 22.8092,113.204 L 22.7379,113.064
 L 22.6756,112.92 L 22.6223,112.773 L 22.5785,112.622 L 22.5443,112.468 L 22.5197,112.313 L 22.5049,112.157
 L 22.5,112 L 22.5,101.5 L 22.5049,101.343 L 22.5197,101.187 L 22.5443,101.032 L 22.5785,100.878
 L 22.6223,100.727 L 22.6756,100.58 L 22.7379,100.436 L 22.8092,100.296 L 22.8892,100.16 L 22.9774,100.031
 L 23.0737,99.9064 L 23.1776,99.7886 L 23.2886,99.6776 L 23.4064,99.5737 L 23.5305,99.4774 L 23.6604,99.3892
 L 23.7956,99.3092 L 23.9355,99.2379 L 24.0797,99.1756 L 24.2274,99.1224 L 24.3783,99.0785 L 24.5315,99.0443
 L 24.6867,99.0197 L 24.843,99.0049 L 25,99 L 25.157,99.0049 L 25.3133,99.0197 L 25.4684,99.0443
 L 25.6217,99.0785 L 25.7725,99.1224 L 25.9203,99.1756 L 26.0644,99.2379 L 26.2044,99.3092 L 26.3396,99.3892
 L 26.4695,99.4774 L 26.5936,99.5737 L 26.7114,99.6776 L 26.8224,99.7886 L 26.9263,99.9064 L 27.0225,100.031
 L 27.1108,100.16 L 27.1908,100.296 L 27.2621,100.436 L 27.3244,100.58 L 27.3776,100.727 L 27.4214,100.878
 L 27.4557,101.032 L 27.4803,101.187 L 27.4951,101.343 L 27.5,101.5 L 27.5,112 L 27.4951,112.157
 L 27.4803,112.313 L 27.4557,112.468 L 27.4214,112.622 L 27.3776,112.773 L 27.3244,112.92 L 27.2621,113.064
 L 27.1908,113.204 L 27.1108,113.34 L 27.0225,113.469 L 26.9263,113.594 L 26.8224,113.711 L 26.7114,113.822
 L 26.5936,113.926 L 26.4695,114.023 L 26.3396,114.111 L 26.2044,114.191 L 26.0644,114.262 L 25.9203,114.324
 L 25.7725,114.378 L 25.6217,114.421 L 25.4684,114.456 L 25.3133,114.48 L 25.157,114.495 L 25,114.5
 z
" stroke="black" fill="lightgray" stroke-width="0.5"/></svg>
