<?xml version="1.0" standalone="no"?>
<!DOCTYPE svg PUBLIC "-//W3C//DTD SVG 1.1//EN" "http://www.w3.org/Graphics/SVG/1.1/DTD/svg11.dtd">
<svg width="240mm" height="234mm" viewBox="-120 -117 240 234" xmlns="http://www.w3.org/2000/svg" version="1.1">
<title>OpenSCAD Model</title>
<path d="
M -119.054,15.04 L -117.874,22.4857 L -116.23,29.8428 L -114.127,37.082 L -112.423,41.8136 L -79.282,22.6795
 L -59.282,57.3205 L -92.4692,76.4811 L -87.4762,82.1456 L -82.1456,87.4762 L -76.4909,92.4616 L -70.5342,97.082
 L -64.2992,101.319 L -57.8104,105.157 L -51.0935,108.579 L -44.1749,111.573 L -37.082,114.127 L -30.4,116.068
 L -30.4,77.6 L -20.4,77.6 L -20.4,39.6 L 20.4,39.6 L 20.4,77.6 L 30.4,77.6
 L 30.4,116.068 L 37.082,114.127 L 44.1749,111.573 L 51.0935,108.579 L 57.8104,105.157 L 64.2992,101.319
 L 70.5342,97.082 L 76.4909,92.4616 L 82.1456,87.4762 L 85.2816,84.3403 L 52.0036,65.1272 L 57.0036,56.4669
 L 24.0946,37.4669 L 44.4946,2.13307 L 77.4036,21.1331 L 82.4036,12.4728 L 115.693,31.6923 L 116.23,29.8428
 L 117.874,22.4857 L 119.054,15.04 L 119.763,7.53485 L 120,-0 L 119.763,-7.53485 L 119.054,-15.04
 L 117.874,-22.4857 L 116.23,-29.8428 L 114.734,-34.9915 L 114.115,-33.7112 L 113.098,-31.9051 L 111.968,-30.1664
 L 110.732,-28.5021 L 109.394,-26.9187 L 107.959,-25.4224 L 106.433,-24.0191 L 104.822,-22.7145 L 103.132,-21.5136
 L 101.37,-20.4212 L 92.2772,-15.1712 L 90.4502,-14.1915 L 88.5652,-13.3285 L 86.6298,-12.5856 L 84.6516,-11.9656
 L 82.6383,-11.4711 L 80.598,-11.104 L 78.5386,-10.8657 L 76.4683,-10.7572 L 74.3953,-10.7789 L 72.3278,-10.9308
 L 70.2738,-11.2121 L 68.2416,-11.6219 L 66.2392,-12.1584 L 64.2743,-12.8197 L 62.3549,-13.603 L 60.4884,-14.5053
 L 58.6823,-15.523 L 56.9437,-16.6521 L 55.2793,-17.8881 L 53.6959,-19.2262 L 52.1996,-20.6611 L 50.7964,-22.1871
 L 49.4917,-23.7982 L 48.2908,-25.4881 L 47.1984,-27.25 L 46.2187,-29.077 L 45.3557,-30.962 L 44.6128,-32.8974
 L 43.9929,-34.8756 L 43.4984,-36.8889 L 43.1312,-38.9293 L 42.893,-40.9886 L 42.7845,-43.0589 L 42.8062,-45.1319
 L 42.958,-47.1994 L 43.2393,-49.2534 L 43.6491,-51.2856 L 44.1857,-53.288 L 44.8469,-55.2529 L 45.6302,-57.1723
 L 46.5325,-59.0388 L 47.5502,-60.8449 L 48.6793,-62.5835 L 49.9153,-64.2479 L 51.2534,-65.8313 L 52.6883,-67.3276
 L 54.2143,-68.7308 L 55.8254,-70.0355 L 57.5153,-71.2364 L 59.2772,-72.3288 L 68.3705,-77.5788 L 70.1975,-78.5585
 L 72.0825,-79.4215 L 74.0179,-80.1644 L 75.9961,-80.7844 L 78.0094,-81.2789 L 80.0497,-81.646 L 82.1091,-81.8843
 L 84.1794,-81.9928 L 86.2524,-81.9711 L 87.7255,-81.8629 L 87.4762,-82.1456 L 82.1456,-87.4762 L 76.4909,-92.4616
 L 70.5342,-97.082 L 64.2992,-101.319 L 57.8104,-105.157 L 51.0935,-108.579 L 44.1749,-111.573 L 37.082,-114.127
 L 30.4,-116.068 L 30.4,-77.6 L 20.4,-77.6 L 20.4,-39.6 L -20.4,-39.6 L -20.4,-77.6
 L -30.4,-77.6 L -30.4,-116.068 L -37.082,-114.127 L -44.1749,-111.573 L -51.0935,-108.579 L -57.8104,-105.157
 L -64.2992,-101.319 L -70.5342,-97.082 L -76.4909,-92.4616 L -82.1456,-87.4762 L -85.2816,-84.3403 L -52.0036,-65.1272
 L -57.0036,-56.4669 L -24.0946,-37.4669 L -44.4946,-2.13307 L -77.4036,-21.1331 L -82.4036,-12.4728 L -115.693,-31.6923
 L -116.23,-29.8428 L -117.874,-22.4857 L -119.054,-15.04 L -119.763,-7.53485 L -120,-0 L -119.763,7.53485
 z
M -102.48,-0.313324 L -102.456,-0.468445 L -102.421,-0.621719 L -102.378,-0.772537 L -102.324,-0.920303 L -102.262,-1.06444
 L -102.191,-1.20438 L -102.111,-1.33955 L -102.023,-1.46945 L -101.926,-1.59355 L -101.822,-1.71136 L -101.711,-1.82242
 L -101.594,-1.92627 L -101.469,-2.02254 L -101.34,-2.11081 L -101.204,-2.19077 L -101.064,-2.26205 L -100.92,-2.32443
 L -100.773,-2.37764 L -100.622,-2.42145 L -100.468,-2.4557 L -100.313,-2.48029 L -100.157,-2.49506 L -100,-2.5
 L -99.843,-2.49506 L -99.6867,-2.48029 L -99.5315,-2.4557 L -99.3783,-2.42145 L -99.2274,-2.37764 L -99.0797,-2.32443
 L -98.9355,-2.26205 L -98.7956,-2.19077 L -98.6604,-2.11081 L -98.5305,-2.02254 L -98.4064,-1.92627 L -98.2886,-1.82242
 L -98.1776,-1.71136 L -98.0737,-1.59355 L -97.9774,-1.46945 L -97.8892,-1.33955 L -97.8092,-1.20438 L -97.7379,-1.06444
 L -97.6756,-0.920303 L -97.6224,-0.772537 L -97.5785,-0.621719 L -97.5443,-0.468445 L -97.5197,-0.313324 L -97.5049,-0.156967
 L -97.5,-0 L -97.5049,0.156967 L -97.5197,0.313324 L -97.5443,0.468445 L -97.5785,0.621719 L -97.6224,0.772537
 L -97.6756,0.920303 L -97.7379,1.06444 L -97.8092,1.20438 L -97.8892,1.33955 L -97.9774,1.46945 L -98.0737,1.59355
 L -98.1776,1.71136 L -98.2886,1.82242 L -98.4064,1.92627 L -98.5305,2.02254 L -98.6604,2.11081 L -98.7956,2.19077
 L -98.9355,2.26205 L -99.0797,2.32443 L -99.2274,2.37764 L -99.3783,2.42145 L -99.5315,2.4557 L -99.6867,2.48029
 L -99.843,2.49506 L -100,2.49998 L -100.157,2.49506 L -100.313,2.48029 L -100.468,2.4557 L -100.622,2.42145
 L -100.773,2.37764 L -100.92,2.32443 L -101.064,2.26205 L -101.204,2.19077 L -101.34,2.11081 L -101.469,2.02254
 L -101.594,1.92627 L -101.711,1.82242 L -101.822,1.71136 L -101.926,1.59355 L -102.023,1.46945 L -102.111,1.33955
 L -102.191,1.20438 L -102.262,1.06444 L -102.324,0.920303 L -102.378,0.772537 L -102.421,0.621719 L -102.456,0.468445
 L -102.48,0.313324 L -102.495,0.156967 L -102.5,-0 L -102.495,-0.156967 z
M 49.7908,-84.1113 L 49.6348,-84.1293 L 49.4802,-84.1572 L 49.3277,-84.1946 L 49.1778,-84.2416 L 49.0312,-84.2979
 L 48.8884,-84.3633 L 48.75,-84.4375 L 48.6165,-84.5202 L 48.4885,-84.6112 L 48.3664,-84.7101 L 48.2508,-84.8164
 L 48.1421,-84.9297 L 48.0408,-85.0497 L 47.9471,-85.1758 L 47.8616,-85.3075 L 47.7845,-85.4443 L 47.7161,-85.5857
 L 47.6568,-85.7311 L 47.6067,-85.88 L 47.566,-86.0317 L 47.535,-86.1856 L 47.5137,-86.3412 L 47.5022,-86.4978
 L 47.5005,-86.6549 L 47.5088,-86.8117 L 47.5268,-86.9677 L 47.5546,-87.1223 L 47.5921,-87.2748 L 47.6391,-87.4247
 L 47.6953,-87.5713 L 47.7607,-87.7141 L 47.8349,-87.8525 L 47.9177,-87.986 L 48.0087,-88.114 L 48.1075,-88.2361
 L 48.2138,-88.3517 L 48.3272,-88.4604 L 48.4471,-88.5618 L 48.5732,-88.6554 L 48.7049,-88.741 L 48.8418,-88.818
 L 48.9832,-88.8864 L 49.1286,-88.9457 L 49.2774,-88.9958 L 49.4291,-89.0365 L 49.5831,-89.0675 L 49.7387,-89.0888
 L 49.8953,-89.1003 L 50.0524,-89.102 L 50.2092,-89.0938 L 50.3652,-89.0757 L 50.5198,-89.0479 L 50.6723,-89.0104
 L 50.8222,-88.9635 L 50.9688,-88.9072 L 51.1116,-88.8418 L 51.25,-88.7676 L 51.3835,-88.6848 L 51.5115,-88.5939
 L 51.6335,-88.495 L 51.7491,-88.3887 L 51.8578,-88.2754 L 51.9592,-88.1554 L 52.0529,-88.0293 L 52.1384,-87.8976
 L 52.2155,-87.7608 L 52.2839,-87.6194 L 52.3432,-87.474 L 52.3933,-87.3251 L 52.4339,-87.1734 L 52.465,-87.0195
 L 52.4863,-86.8639 L 52.4978,-86.7072 L 52.4995,-86.5502 L 52.4912,-86.3933 L 52.4732,-86.2373 L 52.4454,-86.0828
 L 52.4079,-85.9302 L 52.3609,-85.7804 L 52.3047,-85.6337 L 52.2393,-85.491 L 52.1651,-85.3525 L 52.0823,-85.2191
 L 51.9913,-85.091 L 51.8925,-84.969 L 51.7862,-84.8534 L 51.6728,-84.7447 L 51.5529,-84.6433 L 51.4268,-84.5497
 L 51.2951,-84.4641 L 51.1582,-84.387 L 51.0168,-84.3187 L 50.8714,-84.2593 L 50.7226,-84.2092 L 50.5709,-84.1686
 L 50.4169,-84.1375 L 50.2613,-84.1162 L 50.1047,-84.1047 L 49.9476,-84.1031 z
M -50.1047,-84.1047 L -50.2613,-84.1162 L -50.4169,-84.1375 L -50.5709,-84.1686 L -50.7226,-84.2092 L -50.8714,-84.2593
 L -51.0168,-84.3187 L -51.1582,-84.387 L -51.2951,-84.4641 L -51.4268,-84.5497 L -51.5529,-84.6433 L -51.6728,-84.7447
 L -51.7862,-84.8534 L -51.8925,-84.969 L -51.9913,-85.091 L -52.0823,-85.2191 L -52.1651,-85.3525 L -52.2393,-85.491
 L -52.3047,-85.6337 L -52.3609,-85.7804 L -52.4079,-85.9302 L -52.4454,-86.0828 L -52.4732,-86.2373 L -52.4912,-86.3933
 L -52.4995,-86.5502 L -52.4978,-86.7072 L -52.4863,-86.8639 L -52.465,-87.0195 L -52.4339,-87.1734 L -52.3933,-87.3251
 L -52.3432,-87.474 L -52.2839,-87.6194 L -52.2155,-87.7608 L -52.1384,-87.8976 L -52.0529,-88.0293 L -51.9592,-88.1554
 L -51.8578,-88.2754 L -51.7491,-88.3887 L -51.6335,-88.495 L -51.5115,-88.5939 L -51.3835,-88.6848 L -51.25,-88.7676
 L -51.1116,-88.8418 L -50.9688,-88.9072 L -50.8222,-88.9635 L -50.6723,-89.0104 L -50.5198,-89.0479 L -50.3652,-89.0757
 L -50.2092,-89.0938 L -50.0524,-89.102 L -49.8953,-89.1003 L -49.7387,-89.0888 L -49.5831,-89.0675 L -49.4291,-89.0365
 L -49.2774,-88.9958 L -49.1286,-88.9457 L -48.9832,-88.8864 L -48.8418,-88.818 L -48.7049,-88.741 L -48.5732,-88.6554
 L -48.4471,-88.5618 L -48.3272,-88.4604 L -48.2138,-88.3517 L -48.1075,-88.2361 L -48.0087,-88.114 L -47.9177,-87.986
 L -47.8349,-87.8525 L -47.7607,-87.7141 L -47.6953,-87.5713 L -47.6391,-87.4247 L -47.5921,-87.2748 L -47.5546,-87.1223
 L -47.5268,-86.9677 L -47.5088,-86.8117 L -47.5005,-86.6549 L -47.5022,-86.4978 L -47.5137,-86.3412 L -47.535,-86.1856
 L -47.566,-86.0317 L -47.6067,-85.88 L -47.6568,-85.7311 L -47.7161,-85.5857 L -47.7845,-85.4443 L -47.8616,-85.3075
 L -47.9471,-85.1758 L -48.0408,-85.0497 L -48.1421,-84.9297 L -48.2508,-84.8164 L -48.3664,-84.7101 L -48.4885,-84.6112
 L -48.6165,-84.5202 L -48.75,-84.4375 L -48.8884,-84.3633 L -49.0312,-84.2979 L -49.1778,-84.2416 L -49.3277,-84.1946
 L -49.4802,-84.1572 L -49.6348,-84.1293 L -49.7908,-84.1113 L -49.9476,-84.1031 z
M -0.156967,-27.5049 L -0.313324,-27.5197 L -0.468445,-27.5443 L -0.621719,-27.5785 L -0.772537,-27.6223 L -0.920303,-27.6756
 L -1.06444,-27.7379 L -1.20438,-27.8092 L -1.33955,-27.8892 L -1.46945,-27.9774 L -1.59355,-28.0737 L -1.71136,-28.1776
 L -1.82242,-28.2886 L -1.92627,-28.4064 L -2.02254,-28.5305 L -2.11081,-28.6604 L -2.19077,-28.7956 L -2.26205,-28.9355
 L -2.32443,-29.0797 L -2.37764,-29.2274 L -2.42145,-29.3783 L -2.4557,-29.5315 L -2.48029,-29.6867 L -2.49506,-29.843
 L -2.5,-30 L -2.49506,-30.157 L -2.48029,-30.3133 L -2.4557,-30.4684 L -2.42145,-30.6217 L -2.37764,-30.7725
 L -2.32443,-30.9203 L -2.26205,-31.0644 L -2.19077,-31.2044 L -2.11081,-31.3396 L -2.02254,-31.4695 L -1.92627,-31.5936
 L -1.82242,-31.7114 L -1.71136,-31.8224 L -1.59355,-31.9263 L -1.46945,-32.0225 L -1.33955,-32.1108 L -1.20438,-32.1908
 L -1.06444,-32.2621 L -0.920303,-32.3244 L -0.772537,-32.3776 L -0.621719,-32.4214 L -0.468445,-32.4557 L -0.313324,-32.4803
 L -0.156967,-32.4951 L 0,-32.5 L 0.156967,-32.4951 L 0.313324,-32.4803 L 0.468445,-32.4557 L 0.621719,-32.4214
 L 0.772537,-32.3776 L 0.920303,-32.3244 L 1.06444,-32.2621 L 1.20438,-32.1908 L 1.33955,-32.1108 L 1.46945,-32.0225
 L 1.59355,-31.9263 L 1.71136,-31.8224 L 1.82242,-31.7114 L 1.92627,-31.5936 L 2.02254,-31.4695 L 2.11081,-31.3396
 L 2.19077,-31.2044 L 2.26205,-31.0644 L 2.32443,-30.9203 L 2.37764,-30.7725 L 2.42145,-30.6217 L 2.4557,-30.4684
 L 2.48029,-30.3133 L 2.49506,-30.157 L 2.5,-30 L 2.49506,-29.843 L 2.48029,-29.6867 L 2.4557,-29.5315
 L 2.42145,-29.3783 L 2.37764,-29.2274 L 2.32443,-29.0797 L 2.26205,-28.9355 L 2.19077,-28.7956 L 2.11081,-28.6604
 L 2.02254,-28.5305 L 1.92627,-28.4064 L 1.82242,-28.2886 L 1.71136,-28.1776 L 1.59355,-28.0737 L 1.46945,-27.9774
 L 1.33955,-27.8892 L 1.20438,-27.8092 L 1.06444,-27.7379 L 0.920303,-27.6756 L 0.772537,-27.6223 L 0.621719,-27.5785
 L 0.468445,-27.5443 L 0.313324,-27.5197 L 0.156967,-27.5049 L 0,-27.5 z
M -26.19,-12.5088 L -26.346,-12.5268 L -26.5005,-12.5546 L -26.6531,-12.5921 L -26.8029,-12.6391 L -26.9495,-12.6953
 L -27.0923,-12.7607 L -27.2308,-12.8349 L -27.3642,-12.9177 L -27.4922,-13.0087 L -27.6143,-13.1075 L -27.7299,-13.2138
 L -27.8386,-13.3272 L -27.94,-13.4471 L -28.0336,-13.5732 L -28.1192,-13.7049 L -28.1963,-13.8418 L -28.2646,-13.9832
 L -28.324,-14.1286 L -28.3741,-14.2774 L -28.4147,-14.4291 L -28.4457,-14.5831 L -28.4671,-14.7387 L -28.4786,-14.8953
 L -28.4802,-15.0524 L -28.472,-15.2092 L -28.4539,-15.3652 L -28.4261,-15.5198 L -28.3887,-15.6723 L -28.3417,-15.8222
 L -28.2854,-15.9688 L -28.22,-16.1116 L -28.1458,-16.25 L -28.0631,-16.3835 L -27.9721,-16.5115 L -27.8732,-16.6335
 L -27.7669,-16.7491 L -27.6536,-16.8578 L -27.5336,-16.9592 L -27.4075,-17.0529 L -27.2758,-17.1384 L -27.139,-17.2155
 L -26.9976,-17.2839 L -26.8522,-17.3432 L -26.7033,-17.3933 L -26.5516,-17.4339 L -26.3977,-17.465 L -26.2421,-17.4863
 L -26.0854,-17.4978 L -25.9284,-17.4995 L -25.7716,-17.4912 L -25.6156,-17.4732 L -25.461,-17.4454 L -25.3085,-17.4079
 L -25.1586,-17.3609 L -25.012,-17.3047 L -24.8692,-17.2393 L -24.7308,-17.1651 L -24.5973,-17.0823 L -24.4693,-16.9913
 L -24.3472,-16.8925 L -24.2316,-16.7862 L -24.1229,-16.6728 L -24.0215,-16.5529 L -23.9279,-16.4268 L -23.8423,-16.2951
 L -23.7652,-16.1582 L -23.6969,-16.0168 L -23.6376,-15.8714 L -23.5875,-15.7226 L -23.5468,-15.5709 L -23.5158,-15.4169
 L -23.4944,-15.2613 L -23.483,-15.1047 L -23.4813,-14.9476 L -23.4895,-14.7908 L -23.5076,-14.6348 L -23.5354,-14.4802
 L -23.5728,-14.3277 L -23.6198,-14.1778 L -23.6761,-14.0312 L -23.7415,-13.8884 L -23.8157,-13.75 L -23.8985,-13.6165
 L -23.9894,-13.4885 L -24.0883,-13.3664 L -24.1946,-13.2508 L -24.3079,-13.1421 L -24.4279,-13.0408 L -24.554,-12.9471
 L -24.6857,-12.8616 L -24.8225,-12.7845 L -24.9639,-12.7161 L -25.1093,-12.6568 L -25.2582,-12.6067 L -25.4099,-12.566
 L -25.5638,-12.535 L -25.7194,-12.5137 L -25.8761,-12.5022 L -26.0331,-12.5005 z
M 25.8761,-12.5022 L 25.7194,-12.5137 L 25.5638,-12.535 L 25.4099,-12.566 L 25.2582,-12.6067 L 25.1093,-12.6568
 L 24.9639,-12.7161 L 24.8225,-12.7845 L 24.6857,-12.8616 L 24.554,-12.9471 L 24.4279,-13.0408 L 24.3079,-13.1421
 L 24.1946,-13.2508 L 24.0883,-13.3664 L 23.9894,-13.4885 L 23.8985,-13.6165 L 23.8157,-13.75 L 23.7415,-13.8884
 L 23.6761,-14.0312 L 23.6198,-14.1778 L 23.5728,-14.3277 L 23.5354,-14.4802 L 23.5076,-14.6348 L 23.4895,-14.7908
 L 23.4813,-14.9476 L 23.483,-15.1047 L 23.4944,-15.2613 L 23.5158,-15.4169 L 23.5468,-15.5709 L 23.5875,-15.7226
 L 23.6376,-15.8714 L 23.6969,-16.0168 L 23.7652,-16.1582 L 23.8423,-16.2951 L 23.9279,-16.4268 L 24.0215,-16.5529
 L 24.1229,-16.6728 L 24.2316,-16.7862 L 24.3472,-16.8925 L 24.4693,-16.9913 L 24.5973,-17.0823 L 24.7308,-17.1651
 L 24.8692,-17.2393 L 25.012,-17.3047 L 25.1586,-17.3609 L 25.3085,-17.4079 L 25.461,-17.4454 L 25.6156,-17.4732
 L 25.7716,-17.4912 L 25.9284,-17.4995 L 26.0854,-17.4978 L 26.2421,-17.4863 L 26.3977,-17.465 L 26.5516,-17.4339
 L 26.7033,-17.3933 L 26.8522,-17.3432 L 26.9976,-17.2839 L 27.139,-17.2155 L 27.2758,-17.1384 L 27.4075,-17.0529
 L 27.5336,-16.9592 L 27.6536,-16.8578 L 27.7669,-16.7491 L 27.8732,-16.6335 L 27.9721,-16.5115 L 28.0631,-16.3835
 L 28.1458,-16.25 L 28.22,-16.1116 L 28.2854,-15.9688 L 28.3417,-15.8222 L 28.3887,-15.6723 L 28.4261,-15.5198
 L 28.4539,-15.3652 L 28.472,-15.2092 L 28.4802,-15.0524 L 28.4786,-14.8953 L 28.4671,-14.7387 L 28.4457,-14.5831
 L 28.4147,-14.4291 L 28.3741,-14.2774 L 28.324,-14.1286 L 28.2646,-13.9832 L 28.1963,-13.8418 L 28.1192,-13.7049
 L 28.0336,-13.5732 L 27.94,-13.4471 L 27.8386,-13.3272 L 27.7299,-13.2138 L 27.6143,-13.1075 L 27.4922,-13.0087
 L 27.3642,-12.9177 L 27.2308,-12.8349 L 27.0923,-12.7607 L 26.9495,-12.6953 L 26.8029,-12.6391 L 26.6531,-12.5921
 L 26.5005,-12.5546 L 26.346,-12.5268 L 26.19,-12.5088 L 26.0331,-12.5005 z
M -0.156967,-7.50493 L -0.313324,-7.5197 L -0.468445,-7.54428 L -0.621719,-7.57854 L -0.772537,-7.62234 L -0.920303,-7.67555
 L -1.06444,-7.73793 L -1.20438,-7.80922 L -1.33955,-7.88918 L -1.46945,-7.97745 L -1.59355,-8.07372 L -1.71136,-8.17757
 L -1.82242,-8.28862 L -1.92627,-8.40643 L -2.02254,-8.53053 L -2.11081,-8.66043 L -2.19077,-8.79561 L -2.26205,-8.93555
 L -2.32443,-9.07968 L -2.37764,-9.22745 L -2.42145,-9.37827 L -2.4557,-9.53154 L -2.48029,-9.68666 L -2.49506,-9.84302
 L -2.5,-10 L -2.49506,-10.157 L -2.48029,-10.3133 L -2.4557,-10.4684 L -2.42145,-10.6217 L -2.37764,-10.7725
 L -2.32443,-10.9203 L -2.26205,-11.0644 L -2.19077,-11.2044 L -2.11081,-11.3396 L -2.02254,-11.4695 L -1.92627,-11.5936
 L -1.82242,-11.7114 L -1.71136,-11.8224 L -1.59355,-11.9263 L -1.46945,-12.0225 L -1.33955,-12.1108 L -1.20438,-12.1908
 L -1.06444,-12.2621 L -0.920303,-12.3244 L -0.772537,-12.3776 L -0.621719,-12.4214 L -0.468445,-12.4557 L -0.313324,-12.4803
 L -0.156967,-12.4951 L 0,-12.5 L 0.156967,-12.4951 L 0.313324,-12.4803 L 0.468445,-12.4557 L 0.621719,-12.4214
 L 0.772537,-12.3776 L 0.920303,-12.3244 L 1.06444,-12.2621 L 1.20438,-12.1908 L 1.33955,-12.1108 L 1.46945,-12.0225
 L 1.59355,-11.9263 L 1.71136,-11.8224 L 1.82242,-11.7114 L 1.92627,-11.5936 L 2.02254,-11.4695 L 2.11081,-11.3396
 L 2.19077,-11.2044 L 2.26205,-11.0644 L 2.32443,-10.9203 L 2.37764,-10.7725 L 2.42145,-10.6217 L 2.4557,-10.4684
 L 2.48029,-10.3133 L 2.49506,-10.157 L 2.5,-10 L 2.49506,-9.84302 L 2.48029,-9.68666 L 2.4557,-9.53154
 L 2.42145,-9.37827 L 2.37764,-9.22745 L 2.32443,-9.07968 L 2.26205,-8.93555 L 2.19077,-8.79561 L 2.11081,-8.66043
 L 2.02254,-8.53053 L 1.92627,-8.40643 L 1.82242,-8.28862 L 1.71136,-8.17757 L 1.59355,-8.07372 L 1.46945,-7.97745
 L 1.33955,-7.88918 L 1.20438,-7.80922 L 1.06444,-7.73793 L 0.920303,-7.67555 L 0.772537,-7.62234 L 0.621719,-7.57854
 L 0.468445,-7.54428 L 0.313324,-7.5197 L 0.156967,-7.50493 L 0,-7.5 z
M 8.55556,-2.50218 L 8.39893,-2.51369 L 8.24333,-2.535 L 8.08937,-2.56604 L 7.93767,-2.60669 L 7.78882,-2.65678
 L 7.6434,-2.71613 L 7.502,-2.78448 L 7.36517,-2.86159 L 7.23346,-2.94711 L 7.10738,-3.04076 L 6.98743,-3.14214
 L 6.87407,-3.25084 L 6.76776,-3.36644 L 6.66891,-3.48849 L 6.57794,-3.61652 L 6.49518,-3.75 L 6.42096,-3.8884
 L 6.35559,-4.0312 L 6.2993,-4.17783 L 6.25233,-4.3277 L 6.21487,-4.48021 L 6.18707,-4.63478 L 6.16902,-4.7908
 L 6.1608,-4.94763 L 6.16245,-5.10468 L 6.17393,-5.26131 L 6.19525,-5.41692 L 6.2263,-5.57088 L 6.26695,-5.72256
 L 6.31705,-5.87143 L 6.37639,-6.01683 L 6.44473,-6.15823 L 6.52184,-6.29506 L 6.60738,-6.42677 L 6.70102,-6.55286
 L 6.80238,-6.67282 L 6.91109,-6.78618 L 7.02669,-6.89249 L 7.14874,-6.99132 L 7.27676,-7.08229 L 7.41025,-7.16505
 L 7.54866,-7.23927 L 7.69145,-7.30466 L 7.83807,-7.36093 L 7.98795,-7.4079 L 8.14047,-7.44536 L 8.29504,-7.47318
 L 8.45105,-7.49123 L 8.60789,-7.49945 L 8.76494,-7.4978 L 8.92157,-7.4863 L 9.07716,-7.46498 L 9.23112,-7.43394
 L 9.38283,-7.3933 L 9.53168,-7.3432 L 9.67709,-7.28386 L 9.81848,-7.2155 L 9.95531,-7.1384 L 10.087,-7.05287
 L 10.2131,-6.95923 L 10.3331,-6.85785 L 10.4464,-6.74915 L 10.5527,-6.63354 L 10.6516,-6.51149 L 10.7426,-6.38347
 L 10.8253,-6.25 L 10.8995,-6.11159 L 10.9649,-5.96878 L 11.0212,-5.82216 L 11.0681,-5.67229 L 11.1056,-5.51978
 L 11.1334,-5.3652 L 11.1515,-5.20918 L 11.1597,-5.05235 L 11.1581,-4.89531 L 11.1465,-4.73868 L 11.1252,-4.58307
 L 11.0942,-4.42911 L 11.0535,-4.27742 L 11.0034,-4.12856 L 10.9441,-3.98315 L 10.8758,-3.84175 L 10.7987,-3.70493
 L 10.7131,-3.57321 L 10.6195,-3.44713 L 10.5181,-3.32716 L 10.4094,-3.21381 L 10.2938,-3.1075 L 10.1717,-3.00867
 L 10.0437,-2.91769 L 9.91025,-2.83493 L 9.77184,-2.76071 L 9.62903,-2.69533 L 9.48241,-2.63905 L 9.33255,-2.59209
 L 9.18002,-2.55463 L 9.02545,-2.52681 L 8.86945,-2.50876 L 8.7126,-2.50053 z
M -8.86945,-2.50876 L -9.02545,-2.52681 L -9.18002,-2.55463 L -9.33255,-2.59209 L -9.48241,-2.63905 L -9.62903,-2.69533
 L -9.77184,-2.76071 L -9.91025,-2.83493 L -10.0437,-2.91769 L -10.1717,-3.00867 L -10.2938,-3.1075 L -10.4094,-3.21381
 L -10.5181,-3.32716 L -10.6195,-3.44713 L -10.7131,-3.57321 L -10.7987,-3.70493 L -10.8758,-3.84175 L -10.9441,-3.98315
 L -11.0034,-4.12856 L -11.0535,-4.27742 L -11.0942,-4.42911 L -11.1252,-4.58307 L -11.1465,-4.73868 L -11.1581,-4.89531
 L -11.1597,-5.05235 L -11.1515,-5.20918 L -11.1334,-5.3652 L -11.1056,-5.51978 L -11.0681,-5.67229 L -11.0212,-5.82216
 L -10.9649,-5.96878 L -10.8995,-6.11159 L -10.8253,-6.25 L -10.7426,-6.38347 L -10.6516,-6.51149 L -10.5527,-6.63354
 L -10.4464,-6.74915 L -10.3331,-6.85785 L -10.2131,-6.95923 L -10.087,-7.05287 L -9.95531,-7.1384 L -9.81848,-7.2155
 L -9.67709,-7.28386 L -9.53168,-7.3432 L -9.38283,-7.3933 L -9.23112,-7.43394 L -9.07716,-7.46498 L -8.92157,-7.4863
 L -8.76494,-7.4978 L -8.60789,-7.49945 L -8.45105,-7.49123 L -8.29504,-7.47318 L -8.14047,-7.44536 L -7.98795,-7.4079
 L -7.83807,-7.36093 L -7.69145,-7.30466 L -7.54866,-7.23927 L -7.41025,-7.16505 L -7.27676,-7.08229 L -7.14874,-6.99132
 L -7.02669,-6.89249 L -6.91109,-6.78618 L -6.80238,-6.67282 L -6.70102,-6.55286 L -6.60738,-6.42677 L -6.52184,-6.29506
 L -6.44473,-6.15823 L -6.37639,-6.01683 L -6.31705,-5.87143 L -6.26695,-5.72256 L -6.2263,-5.57088 L -6.19525,-5.41692
 L -6.17393,-5.26131 L -6.16245,-5.10468 L -6.1608,-4.94763 L -6.16902,-4.7908 L -6.18707,-4.63478 L -6.21487,-4.48021
 L -6.25233,-4.3277 L -6.2993,-4.17783 L -6.35559,-4.0312 L -6.42096,-3.8884 L -6.49518,-3.75 L -6.57794,-3.61652
 L -6.66891,-3.48849 L -6.76776,-3.36644 L -6.87407,-3.25084 L -6.98743,-3.14214 L -7.10738,-3.04076 L -7.23346,-2.94711
 L -7.36517,-2.86159 L -7.502,-2.78448 L -7.6434,-2.71613 L -7.78882,-2.65678 L -7.93767,-2.60669 L -8.08937,-2.56604
 L -8.24333,-2.535 L -8.39893,-2.51369 L -8.55556,-2.50218 L -8.7126,-2.50053 z
M 99.843,2.49506 L 99.6867,2.48029 L 99.5315,2.4557 L 99.3783,2.42145 L 99.2274,2.37764 L 99.0797,2.32443
 L 98.9355,2.26205 L 98.7956,2.19077 L 98.6604,2.11081 L 98.5305,2.02254 L 98.4064,1.92627 L 98.2886,1.82242
 L 98.1776,1.71136 L 98.0737,1.59355 L 97.9774,1.46945 L 97.8892,1.33955 L 97.8092,1.20438 L 97.7379,1.06444
 L 97.6756,0.920303 L 97.6224,0.772537 L 97.5785,0.621719 L 97.5443,0.468445 L 97.5197,0.313324 L 97.5049,0.156967
 L 97.5,-0 L 97.5049,-0.156967 L 97.5197,-0.313324 L 97.5443,-0.468445 L 97.5785,-0.621719 L 97.6224,-0.772537
 L 97.6756,-0.920303 L 97.7379,-1.06444 L 97.8092,-1.20438 L 97.8892,-1.33955 L 97.9774,-1.46945 L 98.0737,-1.59355
 L 98.1776,-1.71136 L 98.2886,-1.82242 L 98.4064,-1.92627 L 98.5305,-2.02254 L 98.6604,-2.11081 L 98.7956,-2.19077
 L 98.9355,-2.26205 L 99.0797,-2.32443 L 99.2274,-2.37764 L 99.3783,-2.42145 L 99.5315,-2.4557 L 99.6867,-2.48029
 L 99.843,-2.49506 L 100,-2.49998 L 100.157,-2.49506 L 100.313,-2.48029 L 100.468,-2.4557 L 100.622,-2.42145
 L 100.773,-2.37764 L 100.92,-2.32443 L 101.064,-2.26205 L 101.204,-2.19077 L 101.34,-2.11081 L 101.469,-2.02254
 L 101.594,-1.92627 L 101.711,-1.82242 L 101.822,-1.71136 L 101.926,-1.59355 L 102.023,-1.46945 L 102.111,-1.33955
 L 102.191,-1.20438 L 102.262,-1.06444 L 102.324,-0.920303 L 102.378,-0.772537 L 102.421,-0.621719 L 102.456,-0.468445
 L 102.48,-0.313324 L 102.495,-0.156967 L 102.5,-0 L 102.495,0.156967 L 102.48,0.313324 L 102.456,0.468445
 L 102.421,0.621719 L 102.378,0.772537 L 102.324,0.920303 L 102.262,1.06444 L 102.191,1.20438 L 102.111,1.33955
 L 102.023,1.46945 L 101.926,1.59355 L 101.822,1.71136 L 101.711,1.82242 L 101.594,1.92627 L 101.469,2.02254
 L 101.34,2.11081 L 101.204,2.19077 L 101.064,2.26205 L 100.92,2.32443 L 100.773,2.37764 L 100.622,2.42145
 L 100.468,2.4557 L 100.313,2.48029 L 100.157,2.49506 L 100,2.5 z
M -8.76494,7.4978 L -8.92157,7.4863 L -9.07716,7.46498 L -9.23112,7.43394 L -9.38283,7.3933 L -9.53168,7.3432
 L -9.67709,7.28386 L -9.81848,7.2155 L -9.95531,7.1384 L -10.087,7.05287 L -10.2131,6.95923 L -10.3331,6.85785
 L -10.4464,6.74915 L -10.5527,6.63354 L -10.6516,6.51149 L -10.7426,6.38347 L -10.8253,6.24998 L -10.8995,6.11159
 L -10.9649,5.96878 L -11.0212,5.82216 L -11.0681,5.67229 L -11.1056,5.51978 L -11.1334,5.3652 L -11.1515,5.20918
 L -11.1597,5.05235 L -11.1581,4.89531 L -11.1465,4.73868 L -11.1252,4.58307 L -11.0942,4.42911 L -11.0535,4.27742
 L -11.0034,4.12856 L -10.9441,3.98315 L -10.8758,3.84175 L -10.7987,3.70493 L -10.7131,3.57321 L -10.6195,3.44713
 L -10.5181,3.32716 L -10.4094,3.21381 L -10.2938,3.1075 L -10.1717,3.00867 L -10.0437,2.91769 L -9.91025,2.83493
 L -9.77184,2.76071 L -9.62903,2.69533 L -9.48241,2.63905 L -9.33255,2.59209 L -9.18002,2.55463 L -9.02545,2.52681
 L -8.86945,2.50876 L -8.7126,2.50053 L -8.55556,2.50218 L -8.39893,2.51369 L -8.24333,2.535 L -8.08937,2.56604
 L -7.93767,2.60669 L -7.78882,2.65678 L -7.6434,2.71613 L -7.502,2.78448 L -7.36517,2.86159 L -7.23346,2.94711
 L -7.10738,3.04076 L -6.98743,3.14214 L -6.87407,3.25084 L -6.76776,3.36644 L -6.66891,3.48849 L -6.57794,3.61652
 L -6.49518,3.74998 L -6.42096,3.8884 L -6.35559,4.0312 L -6.2993,4.17783 L -6.25233,4.3277 L -6.21487,4.48021
 L -6.18707,4.63478 L -6.16902,4.7908 L -6.1608,4.94763 L -6.16245,5.10468 L -6.17393,5.26131 L -6.19525,5.41692
 L -6.2263,5.57088 L -6.26695,5.72256 L -6.31705,5.87143 L -6.37639,6.01683 L -6.44473,6.15823 L -6.52184,6.29506
 L -6.60738,6.42677 L -6.70102,6.55286 L -6.80238,6.67282 L -6.91109,6.78618 L -7.02669,6.89249 L -7.14874,6.99132
 L -7.27676,7.08229 L -7.41025,7.16505 L -7.54866,7.23927 L -7.69145,7.30466 L -7.83807,7.36093 L -7.98795,7.4079
 L -8.14047,7.44536 L -8.29504,7.47318 L -8.45105,7.49123 L -8.60789,7.49945 z
M 8.45105,7.49123 L 8.29504,7.47318 L 8.14047,7.44536 L 7.98795,7.4079 L 7.83807,7.36093 L 7.69145,7.30466
 L 7.54866,7.23927 L 7.41025,7.16505 L 7.27676,7.08229 L 7.14874,6.99132 L 7.02669,6.89249 L 6.91109,6.78618
 L 6.80238,6.67282 L 6.70102,6.55286 L 6.60738,6.42677 L 6.52184,6.29506 L 6.44473,6.15823 L 6.37639,6.01683
 L 6.31705,5.87143 L 6.26695,5.72256 L 6.2263,5.57088 L 6.19525,5.41692 L 6.17393,5.26131 L 6.16245,5.10468
 L 6.1608,4.94763 L 6.16902,4.7908 L 6.18707,4.63478 L 6.21487,4.48021 L 6.25233,4.3277 L 6.2993,4.17783
 L 6.35559,4.0312 L 6.42096,3.8884 L 6.49518,3.75 L 6.57794,3.61652 L 6.66891,3.48849 L 6.76776,3.36644
 L 6.87407,3.25084 L 6.98743,3.14214 L 7.10738,3.04076 L 7.23346,2.94711 L 7.36517,2.86159 L 7.502,2.78448
 L 7.6434,2.71613 L 7.78882,2.65678 L 7.93767,2.60669 L 8.08937,2.56604 L 8.24333,2.535 L 8.39893,2.51369
 L 8.55556,2.50218 L 8.7126,2.50053 L 8.86945,2.50876 L 9.02545,2.52681 L 9.18002,2.55463 L 9.33255,2.59209
 L 9.48241,2.63905 L 9.62903,2.69533 L 9.77184,2.76071 L 9.91025,2.83493 L 10.0437,2.91769 L 10.1717,3.00867
 L 10.2938,3.1075 L 10.4094,3.21381 L 10.5181,3.32716 L 10.6195,3.44713 L 10.7131,3.57321 L 10.7987,3.70493
 L 10.8758,3.84175 L 10.9441,3.98315 L 11.0034,4.12856 L 11.0535,4.27742 L 11.0942,4.42911 L 11.1252,4.58307
 L 11.1465,4.73868 L 11.1581,4.89531 L 11.1597,5.05235 L 11.1515,5.20918 L 11.1334,5.3652 L 11.1056,5.51978
 L 11.0681,5.67229 L 11.0212,5.82216 L 10.9649,5.96878 L 10.8995,6.11159 L 10.8253,6.25 L 10.7426,6.38347
 L 10.6516,6.51149 L 10.5527,6.63354 L 10.4464,6.74915 L 10.3331,6.85785 L 10.2131,6.95923 L 10.087,7.05287
 L 9.95531,7.1384 L 9.81848,7.2155 L 9.67709,7.28386 L 9.53168,7.3432 L 9.38283,7.3933 L 9.23112,7.43394
 L 9.07716,7.46498 L 8.92157,7.4863 L 8.76494,7.4978 L 8.60789,7.49945 z
M -0.156967,12.4951 L -0.313324,12.4803 L -0.468445,12.4557 L -0.621719,12.4214 L -0.772537,12.3776 L -0.920303,12.3244
 L -1.06444,12.2621 L -1.20438,12.1908 L -1.33955,12.1108 L -1.46945,12.0225 L -1.59355,11.9263 L -1.71136,11.8224
 L -1.82242,11.7114 L -1.92627,11.5936 L -2.02254,11.4695 L -2.11081,11.3396 L -2.19077,11.2044 L -2.26205,11.0644
 L -2.32443,10.9203 L -2.37764,10.7725 L -2.42145,10.6217 L -2.4557,10.4684 L -2.48029,10.3133 L -2.49506,10.157
 L -2.5,10 L -2.49506,9.84302 L -2.48029,9.68666 L -2.4557,9.53154 L -2.42145,9.37827 L -2.37764,9.22745
 L -2.32443,9.07968 L -2.26205,8.93555 L -2.19077,8.79561 L -2.11081,8.66043 L -2.02254,8.53053 L -1.92627,8.40643
 L -1.82242,8.28862 L -1.71136,8.17757 L -1.59355,8.07372 L -1.46945,7.97745 L -1.33955,7.88918 L -1.20438,7.80922
 L -1.06444,7.73793 L -0.920303,7.67555 L -0.772537,7.62234 L -0.621719,7.57854 L -0.468445,7.54428 L -0.313324,7.5197
 L -0.156967,7.50493 L 0,7.5 L 0.156967,7.50493 L 0.313324,7.5197 L 0.468445,7.54428 L 0.621719,7.57854
 L 0.772537,7.62234 L 0.920303,7.67555 L 1.06444,7.73793 L 1.20438,7.80922 L 1.33955,7.88918 L 1.46945,7.97745
 L 1.59355,8.07372 L 1.71136,8.17757 L 1.82242,8.28862 L 1.92627,8.40643 L 2.02254,8.53053 L 2.11081,8.66043
 L 2.19077,8.79561 L 2.26205,8.93555 L 2.32443,9.07968 L 2.37764,9.22745 L 2.42145,9.37827 L 2.4557,9.53154
 L 2.48029,9.68666 L 2.49506,9.84302 L 2.49998,10 L 2.49506,10.157 L 2.48029,10.3133 L 2.4557,10.4684
 L 2.42145,10.6217 L 2.37764,10.7725 L 2.32443,10.9203 L 2.26205,11.0644 L 2.19077,11.2044 L 2.11081,11.3396
 L 2.02254,11.4695 L 1.92627,11.5936 L 1.82242,11.7114 L 1.71136,11.8224 L 1.59355,11.9263 L 1.46945,12.0225
 L 1.33955,12.1108 L 1.20438,12.1908 L 1.06444,12.2621 L 0.920303,12.3244 L 0.772537,12.3776 L 0.621719,12.4214
 L 0.468445,12.4557 L 0.313324,12.4803 L 0.156967,12.4951 L 0,12.5 z
M -78.9764,16.3845 L -79.1326,16.3675 L -79.2873,16.3408 L -79.4401,16.3044 L -79.5903,16.2585 L -79.7373,16.2032
 L -79.8805,16.1388 L -80.0195,16.0656 L -80.1535,15.9838 L -80.2822,15.8937 L -80.4049,15.7957 L -80.5213,15.6902
 L -80.6308,15.5776 L -80.733,15.4584 L -80.8275,15.3329 L -80.9139,15.2018 L -80.992,15.0655 L -81.0613,14.9246
 L -81.1217,14.7796 L -81.1728,14.6311 L -81.2145,14.4797 L -81.2466,14.326 L -81.269,14.1705 L -81.2816,14.014
 L -81.2844,13.8569 L -81.2773,13.7 L -81.2603,13.5439 L -81.2336,13.3891 L -81.1972,13.2364 L -81.1512,13.0862
 L -81.096,12.9392 L -81.0316,12.7959 L -80.9584,12.657 L -80.8765,12.5229 L -80.7864,12.3943 L -80.6885,12.2715
 L -80.583,12.1552 L -80.4704,12.0457 L -80.3511,11.9435 L -80.2257,11.849 L -80.0946,11.7625 L -79.9583,11.6845
 L -79.8174,11.6151 L -79.6724,11.5548 L -79.5239,11.5036 L -79.3725,11.4619 L -79.2187,11.4298 L -79.0633,11.4074
 L -78.9067,11.3948 L -78.7497,11.3921 L -78.5928,11.3992 L -78.4367,11.4162 L -78.2819,11.4429 L -78.1292,11.4793
 L -77.979,11.5252 L -77.8319,11.5805 L -77.6887,11.6449 L -77.5498,11.7181 L -77.4157,11.7999 L -77.2871,11.89
 L -77.1643,11.988 L -77.048,12.0935 L -76.9385,12.2061 L -76.8363,12.3253 L -76.7418,12.4508 L -76.6553,12.5819
 L -76.5772,12.7182 L -76.5079,12.8591 L -76.4476,13.0041 L -76.3964,13.1526 L -76.3547,13.304 L -76.3226,13.4577
 L -76.3002,13.6132 L -76.2876,13.7697 L -76.2849,13.9268 L -76.292,14.0836 L -76.3089,14.2398 L -76.3357,14.3945
 L -76.3721,14.5473 L -76.418,14.6975 L -76.4733,14.8445 L -76.5376,14.9878 L -76.6109,15.1267 L -76.6927,15.2608
 L -76.7828,15.3894 L -76.8808,15.5121 L -76.9863,15.6285 L -77.0989,15.738 L -77.2181,15.8402 L -77.3435,15.9347
 L -77.4747,16.0212 L -77.6109,16.0992 L -77.7519,16.1686 L -77.8969,16.2289 L -78.0453,16.28 L -78.1968,16.3217
 L -78.3505,16.3539 L -78.506,16.3763 L -78.6625,16.3889 L -78.8195,16.3916 z
M 25.7716,17.4912 L 25.6156,17.4732 L 25.461,17.4454 L 25.3085,17.4079 L 25.1586,17.3609 L 25.012,17.3047
 L 24.8692,17.2393 L 24.7308,17.1651 L 24.5973,17.0823 L 24.4693,16.9913 L 24.3472,16.8925 L 24.2316,16.7862
 L 24.1229,16.6728 L 24.0215,16.5529 L 23.9279,16.4268 L 23.8423,16.2951 L 23.7652,16.1582 L 23.6969,16.0168
 L 23.6376,15.8714 L 23.5875,15.7226 L 23.5468,15.5709 L 23.5158,15.4169 L 23.4944,15.2613 L 23.483,15.1047
 L 23.4813,14.9476 L 23.4895,14.7908 L 23.5076,14.6348 L 23.5354,14.4802 L 23.5728,14.3277 L 23.6198,14.1778
 L 23.6761,14.0312 L 23.7415,13.8884 L 23.8157,13.75 L 23.8985,13.6165 L 23.9894,13.4885 L 24.0883,13.3664
 L 24.1946,13.2508 L 24.3079,13.1421 L 24.4279,13.0408 L 24.554,12.9471 L 24.6857,12.8616 L 24.8225,12.7845
 L 24.9639,12.7161 L 25.1093,12.6568 L 25.2582,12.6067 L 25.4099,12.566 L 25.5638,12.535 L 25.7194,12.5137
 L 25.8761,12.5022 L 26.0331,12.5005 L 26.19,12.5088 L 26.346,12.5268 L 26.5005,12.5546 L 26.6531,12.5921
 L 26.8029,12.6391 L 26.9495,12.6953 L 27.0923,12.7607 L 27.2308,12.8349 L 27.3642,12.9177 L 27.4922,13.0087
 L 27.6143,13.1075 L 27.7299,13.2138 L 27.8386,13.3272 L 27.94,13.4471 L 28.0336,13.5732 L 28.1192,13.7049
 L 28.1963,13.8418 L 28.2646,13.9832 L 28.324,14.1286 L 28.3741,14.2774 L 28.4147,14.4291 L 28.4457,14.5831
 L 28.4671,14.7387 L 28.4786,14.8953 L 28.4802,15.0524 L 28.472,15.2092 L 28.4539,15.3652 L 28.4261,15.5198
 L 28.3887,15.6723 L 28.3417,15.8222 L 28.2854,15.9688 L 28.22,16.1116 L 28.1458,16.25 L 28.0631,16.3835
 L 27.9721,16.5115 L 27.8732,16.6335 L 27.7669,16.7491 L 27.6536,16.8578 L 27.5336,16.9592 L 27.4075,17.0529
 L 27.2758,17.1384 L 27.139,17.2155 L 26.9976,17.2839 L 26.8522,17.3432 L 26.7033,17.3933 L 26.5516,17.4339
 L 26.3977,17.465 L 26.2421,17.4863 L 26.0854,17.4978 L 25.9284,17.4995 z
M -26.0854,17.4978 L -26.2421,17.4863 L -26.3977,17.465 L -26.5516,17.4339 L -26.7033,17.3933 L -26.8522,17.3432
 L -26.9976,17.2839 L -27.139,17.2155 L -27.2758,17.1384 L -27.4075,17.0529 L -27.5336,16.9592 L -27.6536,16.8578
 L -27.7669,16.7491 L -27.8732,16.6335 L -27.9721,16.5115 L -28.0631,16.3835 L -28.1458,16.25 L -28.22,16.1116
 L -28.2854,15.9688 L -28.3417,15.8222 L -28.3887,15.6723 L -28.4261,15.5198 L -28.4539,15.3652 L -28.472,15.2092
 L -28.4802,15.0524 L -28.4786,14.8953 L -28.4671,14.7387 L -28.4457,14.5831 L -28.4147,14.4291 L -28.3741,14.2774
 L -28.324,14.1286 L -28.2646,13.9832 L -28.1963,13.8418 L -28.1192,13.7049 L -28.0336,13.5732 L -27.94,13.4471
 L -27.8386,13.3272 L -27.7299,13.2138 L -27.6143,13.1075 L -27.4922,13.0087 L -27.3642,12.9177 L -27.2308,12.8349
 L -27.0923,12.7607 L -26.9495,12.6953 L -26.8029,12.6391 L -26.6531,12.5921 L -26.5005,12.5546 L -26.346,12.5268
 L -26.19,12.5088 L -26.0331,12.5005 L -25.8761,12.5022 L -25.7194,12.5137 L -25.5638,12.535 L -25.4099,12.566
 L -25.2582,12.6067 L -25.1093,12.6568 L -24.9639,12.7161 L -24.8225,12.7845 L -24.6857,12.8616 L -24.554,12.9471
 L -24.4279,13.0408 L -24.3079,13.1421 L -24.1946,13.2508 L -24.0883,13.3664 L -23.9894,13.4885 L -23.8985,13.6165
 L -23.8157,13.75 L -23.7415,13.8884 L -23.6761,14.0312 L -23.6198,14.1778 L -23.5728,14.3277 L -23.5354,14.4802
 L -23.5076,14.6348 L -23.4895,14.7908 L -23.4813,14.9476 L -23.483,15.1047 L -23.4944,15.2613 L -23.5158,15.4169
 L -23.5468,15.5709 L -23.5875,15.7226 L -23.6376,15.8714 L -23.6969,16.0168 L -23.7652,16.1582 L -23.8423,16.2951
 L -23.9279,16.4268 L -24.0215,16.5529 L -24.1229,16.6728 L -24.2316,16.7862 L -24.3472,16.8925 L -24.4693,16.9913
 L -24.5973,17.0823 L -24.7308,17.1651 L -24.8692,17.2393 L -25.012,17.3047 L -25.1586,17.3609 L -25.3085,17.4079
 L -25.461,17.4454 L -25.6156,17.4732 L -25.7716,17.4912 L -25.9284,17.4995 z
M -98.6726,19.8574 L -98.8287,19.8405 L -98.9835,19.8138 L -99.1362,19.7774 L -99.2864,19.7314 L -99.4334,19.6762
 L -99.5767,19.6118 L -99.7156,19.5385 L -99.8497,19.4567 L -99.9783,19.3666 L -100.101,19.2687 L -100.217,19.1632
 L -100.327,19.0506 L -100.429,18.9313 L -100.524,18.8059 L -100.61,18.6748 L -100.688,18.5385 L -100.757,18.3976
 L -100.818,18.2526 L -100.869,18.1041 L -100.911,17.9527 L -100.943,17.7989 L -100.965,17.6435 L -100.978,17.4869
 L -100.981,17.3299 L -100.973,17.173 L -100.956,17.0169 L -100.93,16.8621 L -100.893,16.7093 L -100.847,16.5591
 L -100.792,16.4121 L -100.728,16.2689 L -100.655,16.13 L -100.573,15.9959 L -100.483,15.8672 L -100.385,15.7445
 L -100.279,15.6282 L -100.167,15.5187 L -100.047,15.4165 L -99.9219,15.3219 L -99.7907,15.2355 L -99.6544,15.1574
 L -99.5135,15.0881 L -99.3685,15.0277 L -99.22,14.9766 L -99.0686,14.9349 L -98.9149,14.9028 L -98.7594,14.8804
 L -98.6029,14.8678 L -98.4459,14.8651 L -98.289,14.8722 L -98.1328,14.8891 L -97.9781,14.9159 L -97.8253,14.9523
 L -97.6751,14.9982 L -97.5281,15.0535 L -97.3848,15.1178 L -97.2459,15.1911 L -97.1119,15.2729 L -96.9832,15.363
 L -96.8605,15.461 L -96.7441,15.5665 L -96.6346,15.679 L -96.5324,15.7983 L -96.4379,15.9237 L -96.3515,16.0548
 L -96.2734,16.1911 L -96.2041,16.332 L -96.1437,16.4771 L -96.0926,16.6255 L -96.0509,16.777 L -96.0188,16.9307
 L -95.9964,17.0861 L -95.9837,17.2427 L -95.981,17.3997 L -95.9881,17.5566 L -96.0051,17.7127 L -96.0318,17.8675
 L -96.0682,18.0203 L -96.1142,18.1705 L -96.1694,18.3175 L -96.2338,18.4607 L -96.307,18.5997 L -96.3889,18.7337
 L -96.4789,18.8624 L -96.5769,18.9851 L -96.6824,19.1015 L -96.795,19.211 L -96.9143,19.3132 L -97.0397,19.4077
 L -97.1708,19.4941 L -97.3071,19.5722 L -97.448,19.6415 L -97.593,19.7019 L -97.7415,19.753 L -97.8929,19.7947
 L -98.0466,19.8268 L -98.2021,19.8492 L -98.3586,19.8618 L -98.5157,19.8646 z
M -0.156967,32.4951 L -0.313324,32.4803 L -0.468445,32.4557 L -0.621719,32.4214 L -0.772537,32.3776 L -0.920303,32.3244
 L -1.06444,32.2621 L -1.20438,32.1908 L -1.33955,32.1108 L -1.46945,32.0225 L -1.59355,31.9263 L -1.71136,31.8224
 L -1.82242,31.7114 L -1.92627,31.5936 L -2.02254,31.4695 L -2.11081,31.3396 L -2.19077,31.2044 L -2.26205,31.0644
 L -2.32443,30.9203 L -2.37764,30.7725 L -2.42145,30.6217 L -2.4557,30.4684 L -2.48029,30.3133 L -2.49506,30.157
 L -2.5,30 L -2.49506,29.843 L -2.48029,29.6867 L -2.4557,29.5315 L -2.42145,29.3783 L -2.37764,29.2274
 L -2.32443,29.0797 L -2.26205,28.9355 L -2.19077,28.7956 L -2.11081,28.6604 L -2.02254,28.5305 L -1.92627,28.4064
 L -1.82242,28.2886 L -1.71136,28.1776 L -1.59355,28.0737 L -1.46945,27.9774 L -1.33955,27.8892 L -1.20438,27.8092
 L -1.06444,27.7379 L -0.920303,27.6756 L -0.772537,27.6223 L -0.621719,27.5785 L -0.468445,27.5443 L -0.313324,27.5197
 L -0.156967,27.5049 L 0,27.5 L 0.156967,27.5049 L 0.313324,27.5197 L 0.468445,27.5443 L 0.621719,27.5785
 L 0.772537,27.6223 L 0.920303,27.6756 L 1.06444,27.7379 L 1.20438,27.8092 L 1.33955,27.8892 L 1.46945,27.9774
 L 1.59355,28.0737 L 1.71136,28.1776 L 1.82242,28.2886 L 1.92627,28.4064 L 2.02254,28.5305 L 2.11081,28.6604
 L 2.19077,28.7956 L 2.26205,28.9355 L 2.32443,29.0797 L 2.37764,29.2274 L 2.42145,29.3783 L 2.4557,29.5315
 L 2.48029,29.6867 L 2.49506,29.843 L 2.49998,30 L 2.49506,30.157 L 2.48029,30.3133 L 2.4557,30.4684
 L 2.42145,30.6217 L 2.37764,30.7725 L 2.32443,30.9203 L 2.26205,31.0644 L 2.19077,31.2044 L 2.11081,31.3396
 L 2.02254,31.4695 L 1.92627,31.5936 L 1.82242,31.7114 L 1.71136,31.8224 L 1.59355,31.9263 L 1.46945,32.0225
 L 1.33955,32.1108 L 1.20438,32.1908 L 1.06444,32.2621 L 0.920303,32.3244 L 0.772537,32.3776 L 0.621719,32.4214
 L 0.468445,32.4557 L 0.313324,32.4803 L 0.156967,32.4951 L 0,32.5 z
M -51.5974,63.7775 L -51.7536,63.7616 L -51.9086,63.7359 L -52.0616,63.7006 L -52.2121,63.6557 L -52.3595,63.6015
 L -52.5032,63.5381 L -52.6427,63.4659 L -52.7773,63.385 L -52.9066,63.2958 L -53.03,63.1987 L -53.147,63.094
 L -53.2573,62.9821 L -53.3604,62.8636 L -53.4557,62.7389 L -53.5431,62.6084 L -53.6221,62.4726 L -53.6924,62.3322
 L -53.7538,62.1876 L -53.806,62.0395 L -53.8487,61.8884 L -53.8819,61.7348 L -53.9054,61.5796 L -53.9191,61.4231
 L -53.9229,61.2661 L -53.9169,61.1092 L -53.901,60.9529 L -53.8754,60.798 L -53.8401,60.6449 L -53.7952,60.4944
 L -53.741,60.347 L -53.6776,60.2033 L -53.6053,60.0639 L -53.5244,59.9293 L -53.4352,59.8 L -53.3381,59.6766
 L -53.2334,59.5595 L -53.1216,59.4492 L -53.0031,59.3462 L -52.8783,59.2508 L -52.7478,59.1634 L -52.6121,59.0844
 L -52.4716,59.0141 L -52.3271,58.9527 L -52.1789,58.9006 L -52.0278,58.8578 L -51.8743,58.8246 L -51.719,58.8011
 L -51.5626,58.7874 L -51.4055,58.7836 L -51.2486,58.7896 L -51.0924,58.8055 L -50.9374,58.8312 L -50.7844,58.8665
 L -50.6339,58.9114 L -50.4865,58.9656 L -50.3428,59.029 L -50.2034,59.1012 L -50.0687,59.1821 L -49.9395,59.2713
 L -49.816,59.3684 L -49.699,59.4731 L -49.5887,59.5849 L -49.4856,59.7035 L -49.3902,59.8282 L -49.3029,59.9588
 L -49.2239,60.0945 L -49.1536,60.2349 L -49.0922,60.3795 L -49.04,60.5276 L -48.9973,60.6787 L -48.9641,60.8322
 L -48.9406,60.9875 L -48.9269,61.144 L -48.9231,61.301 L -48.9291,61.4579 L -48.945,61.6142 L -48.9706,61.7691
 L -49.006,61.9222 L -49.0508,62.0727 L -49.105,62.2201 L -49.1684,62.3638 L -49.2407,62.5032 L -49.3216,62.6378
 L -49.4108,62.7671 L -49.5079,62.8905 L -49.6126,63.0076 L -49.7244,63.1179 L -49.8429,63.2209 L -49.9677,63.3163
 L -50.0982,63.4037 L -50.2339,63.4827 L -50.3744,63.553 L -50.5189,63.6144 L -50.6671,63.6665 L -50.8182,63.7093
 L -50.9717,63.7425 L -51.127,63.766 L -51.2834,63.7796 L -51.4405,63.7835 z
M -64.4532,79.0984 L -64.6094,79.0825 L -64.7643,79.0568 L -64.9174,79.0215 L -65.0679,78.9766 L -65.2153,78.9224
 L -65.359,78.859 L -65.4984,78.7867 L -65.633,78.7059 L -65.7623,78.6167 L -65.8857,78.5195 L -66.0028,78.4149
 L -66.1131,78.303 L -66.2161,78.1845 L -66.3115,78.0598 L -66.3989,77.9292 L -66.4779,77.7935 L -66.5482,77.6531
 L -66.6096,77.5085 L -66.6617,77.3604 L -66.7045,77.2092 L -66.7377,77.0557 L -66.7612,76.9005 L -66.7749,76.744
 L -66.7787,76.587 L -66.7727,76.4301 L -66.7568,76.2738 L -66.7311,76.1189 L -66.6958,75.9658 L -66.6509,75.8153
 L -66.5967,75.6679 L -66.5333,75.5242 L -66.4611,75.3848 L -66.3802,75.2502 L -66.291,75.1209 L -66.1939,74.9975
 L -66.0892,74.8804 L -65.9774,74.7701 L -65.8588,74.6671 L -65.7341,74.5717 L -65.6036,74.4843 L -65.4678,74.4053
 L -65.3274,74.335 L -65.1828,74.2736 L -65.0347,74.2215 L -64.8836,74.1787 L -64.7301,74.1455 L -64.5748,74.122
 L -64.4183,74.1083 L -64.2613,74.1045 L -64.1044,74.1105 L -63.9481,74.1264 L -63.7932,74.1521 L -63.6401,74.1874
 L -63.4896,74.2323 L -63.3422,74.2865 L -63.1985,74.3499 L -63.0591,74.4221 L -62.9245,74.503 L -62.7952,74.5922
 L -62.6718,74.6893 L -62.5547,74.794 L -62.4444,74.9058 L -62.3414,75.0244 L -62.246,75.1491 L -62.1586,75.2796
 L -62.0796,75.4154 L -62.0093,75.5558 L -61.948,75.7004 L -61.8958,75.8485 L -61.853,75.9996 L -61.8198,76.1531
 L -61.7963,76.3084 L -61.7827,76.4649 L -61.7788,76.6219 L -61.7849,76.7788 L -61.8007,76.9351 L -61.8264,77.09
 L -61.8617,77.2431 L -61.9066,77.3936 L -61.9608,77.541 L -62.0242,77.6847 L -62.0965,77.8241 L -62.1773,77.9587
 L -62.2665,78.088 L -62.3636,78.2114 L -62.4683,78.3285 L -62.5802,78.4388 L -62.6987,78.5418 L -62.8234,78.6372
 L -62.954,78.7246 L -63.0897,78.8036 L -63.2301,78.8739 L -63.3747,78.9353 L -63.5228,78.9874 L -63.674,79.0302
 L -63.8275,79.0634 L -63.9827,79.0869 L -64.1392,79.1005 L -64.2962,79.1044 z
M -50.2092,89.0938 L -50.3652,89.0757 L -50.5198,89.0479 L -50.6723,89.0104 L -50.8222,88.9635 L -50.9688,88.9072
 L -51.1116,88.8418 L -51.25,88.7676 L -51.3835,88.6848 L -51.5115,88.5939 L -51.6335,88.495 L -51.7491,88.3887
 L -51.8578,88.2754 L -51.9592,88.1554 L -52.0529,88.0293 L -52.1384,87.8976 L -52.2155,87.7608 L -52.2839,87.6194
 L -52.3432,87.474 L -52.3933,87.3251 L -52.4339,87.1734 L -52.465,87.0195 L -52.4863,86.8639 L -52.4978,86.7072
 L -52.4995,86.5502 L -52.4912,86.3933 L -52.4732,86.2373 L -52.4454,86.0828 L -52.4079,85.9302 L -52.3609,85.7804
 L -52.3047,85.6337 L -52.2393,85.491 L -52.1651,85.3525 L -52.0823,85.2191 L -51.9913,85.091 L -51.8925,84.969
 L -51.7862,84.8534 L -51.6728,84.7447 L -51.5529,84.6433 L -51.4268,84.5497 L -51.2951,84.4641 L -51.1582,84.387
 L -51.0168,84.3187 L -50.8714,84.2593 L -50.7226,84.2092 L -50.5709,84.1686 L -50.4169,84.1375 L -50.2613,84.1162
 L -50.1047,84.1047 L -49.9476,84.1031 L -49.7908,84.1113 L -49.6348,84.1293 L -49.4802,84.1572 L -49.3277,84.1946
 L -49.1778,84.2416 L -49.0312,84.2979 L -48.8884,84.3633 L -48.75,84.4375 L -48.6165,84.5202 L -48.4885,84.6112
 L -48.3664,84.7101 L -48.2508,84.8164 L -48.1421,84.9297 L -48.0408,85.0497 L -47.9471,85.1758 L -47.8616,85.3075
 L -47.7845,85.4443 L -47.7161,85.5857 L -47.6568,85.7311 L -47.6067,85.88 L -47.566,86.0317 L -47.535,86.1856
 L -47.5137,86.3412 L -47.5022,86.4978 L -47.5005,86.6549 L -47.5088,86.8117 L -47.5268,86.9677 L -47.5546,87.1223
 L -47.5921,87.2748 L -47.6391,87.4247 L -47.6953,87.5713 L -47.7607,87.7141 L -47.8349,87.8525 L -47.9177,87.986
 L -48.0087,88.114 L -48.1075,88.2361 L -48.2138,88.3517 L -48.3272,88.4604 L -48.4471,88.5618 L -48.5732,88.6554
 L -48.7049,88.741 L -48.8418,88.818 L -48.9832,88.8864 L -49.1286,88.9457 L -49.2774,88.9958 L -49.4291,89.0365
 L -49.5831,89.0675 L -49.7387,89.0888 L -49.8953,89.1003 L -50.0524,89.102 z
M 49.8953,89.1003 L 49.7387,89.0888 L 49.5831,89.0675 L 49.4291,89.0365 L 49.2774,88.9958 L 49.1286,88.9457
 L 48.9832,88.8864 L 48.8418,88.818 L 48.7049,88.741 L 48.5732,88.6554 L 48.4471,88.5618 L 48.3272,88.4604
 L 48.2138,88.3517 L 48.1075,88.2361 L 48.0087,88.114 L 47.9177,87.986 L 47.8349,87.8525 L 47.7607,87.7141
 L 47.6953,87.5713 L 47.6391,87.4247 L 47.5921,87.2748 L 47.5546,87.1223 L 47.5268,86.9677 L 47.5088,86.8117
 L 47.5005,86.6549 L 47.5022,86.4978 L 47.5137,86.3412 L 47.535,86.1856 L 47.566,86.0317 L 47.6067,85.88
 L 47.6568,85.7311 L 47.7161,85.5857 L 47.7845,85.4443 L 47.8616,85.3075 L 47.9471,85.1758 L 48.0408,85.0497
 L 48.1421,84.9297 L 48.2508,84.8164 L 48.3664,84.7101 L 48.4885,84.6112 L 48.6165,84.5202 L 48.75,84.4375
 L 48.8884,84.3633 L 49.0312,84.2979 L 49.1778,84.2416 L 49.3277,84.1946 L 49.4802,84.1572 L 49.6348,84.1293
 L 49.7908,84.1113 L 49.9476,84.1031 L 50.1047,84.1047 L 50.2613,84.1162 L 50.4169,84.1375 L 50.5709,84.1686
 L 50.7226,84.2092 L 50.8714,84.2593 L 51.0168,84.3187 L 51.1582,84.387 L 51.2951,84.4641 L 51.4268,84.5497
 L 51.5529,84.6433 L 51.6728,84.7447 L 51.7862,84.8534 L 51.8925,84.969 L 51.9913,85.091 L 52.0823,85.2191
 L 52.1651,85.3525 L 52.2393,85.491 L 52.3047,85.6337 L 52.3609,85.7804 L 52.4079,85.9302 L 52.4454,86.0828
 L 52.4732,86.2373 L 52.4912,86.3933 L 52.4995,86.5502 L 52.4978,86.7072 L 52.4863,86.8639 L 52.465,87.0195
 L 52.4339,87.1734 L 52.3933,87.3251 L 52.3432,87.474 L 52.2839,87.6194 L 52.2155,87.7608 L 52.1384,87.8976
 L 52.0529,88.0293 L 51.9592,88.1554 L 51.8578,88.2754 L 51.7491,88.3887 L 51.6335,88.495 L 51.5115,88.5939
 L 51.3835,88.6848 L 51.25,88.7676 L 51.1116,88.8418 L 50.9688,88.9072 L 50.8222,88.9635 L 50.6723,89.0104
 L 50.5198,89.0479 L 50.3652,89.0757 L 50.2092,89.0938 L 50.0524,89.102 z
" stroke="black" fill="lightgray" stroke-width="0.5"/></svg>
