<?xml version="1.0" encoding="UTF-8" standalone="no"?>
<svg
   xmlns:dc="http://purl.org/dc/elements/1.1/"
   xmlns:cc="http://creativecommons.org/ns#"
   xmlns:rdf="http://www.w3.org/1999/02/22-rdf-syntax-ns#"
   xmlns:svg="http://www.w3.org/2000/svg"
   xmlns="http://www.w3.org/2000/svg"
   xmlns:sodipodi="http://sodipodi.sourceforge.net/DTD/sodipodi-0.dtd"
   xmlns:inkscape="http://www.inkscape.org/namespaces/inkscape"
   width="97mm"
   height="106mm"
   viewBox="-28 -27 97 106"
   version="1.1"
   id="svg2"
   inkscape:version="0.91 r13725"
   sodipodi:docname="incubator_illuminator_acrylicLED.svg">
  <metadata
     id="metadata12">
    <rdf:RDF>
      <cc:Work
         rdf:about="">
        <dc:format>image/svg+xml</dc:format>
        <dc:type
           rdf:resource="http://purl.org/dc/dcmitype/StillImage" />
      </cc:Work>
    </rdf:RDF>
  </metadata>
  <defs
     id="defs10" />
  <sodipodi:namedview
     pagecolor="#ffffff"
     bordercolor="#666666"
     borderopacity="1"
     objecttolerance="10"
     gridtolerance="10"
     guidetolerance="10"
     inkscape:pageopacity="0"
     inkscape:pageshadow="2"
     inkscape:window-width="1228"
     inkscape:window-height="736"
     id="namedview8"
     showgrid="false"
     inkscape:zoom="1.3818655"
     inkscape:cx="171.85039"
     inkscape:cy="187.79528"
     inkscape:window-x="0"
     inkscape:window-y="0"
     inkscape:window-maximized="0"
     inkscape:current-layer="svg2" />
  <title
     id="title4">OpenSCAD Model</title>
  <path
     d=" M 68.1743,44.3408 L 7.51953,-26.2216 L 6.35052,-26.3878 L -27.0553,-2.59308 L -27.2818,-1.43294 L 19.5823,78.9524  z M 5.88531,-18.5241 L 5.74278,-18.5414 L 5.60132,-18.5677 L 5.46147,-18.603 L 5.32379,-18.6469 L 5.18883,-18.6995  L 5.05711,-18.7604 L 4.92917,-18.8294 L 4.8055,-18.9062 L 4.68658,-18.9907 L 4.57289,-19.0823 L 4.46489,-19.1808  L 4.40671,-19.2407 L 4.37177,-19.31 L 4.31398,-19.4443 L 4.26453,-19.5816 L 4.2236,-19.7216 L 4.19136,-19.8636  L 4.16795,-20.0071 L 4.15344,-20.1515 L 4.14789,-20.2963 L 4.15134,-20.4408 L 4.16376,-20.5844 L 4.1851,-20.7267  L 4.21529,-20.8671 L 4.25418,-21.005 L 4.30167,-21.1399 L 4.35751,-21.2712 L 4.42154,-21.3984 L 4.49345,-21.521  L 4.57301,-21.6385 L 4.65987,-21.7506 L 4.75369,-21.8566 L 4.85411,-21.9563 L 4.96074,-22.0491 L 5.07314,-22.1348  L 5.19089,-22.2131 L 5.31349,-22.2835 L 5.44049,-22.3458 L 5.57138,-22.3998 L 5.70563,-22.4453 L 5.84273,-22.4821  L 5.98212,-22.51 L 6.12326,-22.5289 L 6.26561,-22.5388 L 6.40857,-22.5396 L 6.55161,-22.5313 L 6.69414,-22.5139  L 6.8356,-22.4876 L 6.97546,-22.4523 L 7.11314,-22.4084 L 7.24811,-22.3559 L 7.37984,-22.2949 L 7.50778,-22.2259  L 7.63147,-22.149 L 7.75038,-22.0646 L 7.86407,-21.973 L 7.97209,-21.8745 L 8.03027,-21.8145 L 8.06522,-21.7453  L 8.123,-21.611 L 8.17244,-21.4736 L 8.21336,-21.3336 L 8.24559,-21.1916 L 8.269,-21.0482 L 8.28351,-20.9038  L 8.28905,-20.759 L 8.2856,-20.6146 L 8.27318,-20.4709 L 8.25183,-20.3286 L 8.22163,-20.1882 L 8.18272,-20.0503  L 8.13525,-19.9155 L 8.07939,-19.7842 L 8.01537,-19.657 L 7.94345,-19.5344 L 7.86389,-19.4168 L 7.77704,-19.3048  L 7.68321,-19.1988 L 7.58278,-19.0991 L 7.47617,-19.0062 L 7.36375,-18.9205 L 7.24602,-18.8423 L 7.12341,-18.7719  L 6.99641,-18.7095 L 6.86552,-18.6555 L 6.73128,-18.6101 L 6.59418,-18.5733 L 6.45479,-18.5454 L 6.31364,-18.5265  L 6.17131,-18.5166 L 6.02835,-18.5158 z M -21.8077,1.20143 L -21.9502,1.18408 L -22.0917,1.15776 L -22.2315,1.12254 L -22.3692,1.07858 L -22.5042,1.02605  L -22.6359,0.965149 L -22.7638,0.896133 L -22.8875,0.81926 L -23.0064,0.734833 L -23.1201,0.643204 L -23.2281,0.544724  L -23.2863,0.484833 L -23.3213,0.415512 L -23.379,0.28125 L -23.4285,0.143845 L -23.4694,0.00386047 L -23.5016,-0.138138  L -23.5251,-0.281631 L -23.5396,-0.42601 L -23.5451,-0.57074 L -23.5417,-0.71524 L -23.5293,-0.858917 L -23.5079,-1.00124  L -23.4777,-1.14162 L -23.4388,-1.2795 L -23.3914,-1.41435 L -23.3355,-1.54564 L -23.2715,-1.67285 L -23.1996,-1.79547  L -23.12,-1.91302 L -23.0332,-2.02505 L -22.9393,-2.13109 L -22.8389,-2.23074 L -22.7323,-2.32361 L -22.6199,-2.40932  L -22.5021,-2.48753 L -22.3795,-2.55795 L -22.2525,-2.6203 L -22.1216,-2.67432 L -21.9874,-2.71979 L -21.8503,-2.75655  L -21.7109,-2.78445 L -21.5697,-2.80338 L -21.4274,-2.81325 L -21.2844,-2.81404 L -21.1414,-2.80576 L -20.9989,-2.78841  L -20.8574,-2.76205 L -20.7176,-2.72684 L -20.5799,-2.68286 L -20.4449,-2.63033 L -20.3132,-2.56943 L -20.1852,-2.5004  L -20.0616,-2.42352 L -19.9426,-2.3391 L -19.8289,-2.24745 L -19.7209,-2.14896 L -19.6628,-2.08904 L -19.6278,-2.01974  L -19.57,-1.88548 L -19.5206,-1.74809 L -19.4797,-1.60812 L -19.4474,-1.46611 L -19.424,-1.32263 L -19.4095,-1.17825  L -19.404,-1.03354 L -19.4074,-0.889053 L -19.4198,-0.745377 L -19.4412,-0.603058 L -19.4714,-0.462692 L -19.5103,-0.324814  L -19.5578,-0.189957 L -19.6136,-0.05867 L -19.6776,0.068512 L -19.7496,0.191132 L -19.8291,0.308685 L -19.916,0.4207  L -20.0098,0.526749 L -20.1102,0.626389 L -20.2169,0.719254 L -20.3293,0.804962 L -20.447,0.883179 L -20.5696,0.953598  L -20.6966,1.01595 L -20.8275,1.06996 L -20.9617,1.11545 L -21.0988,1.15221 L -21.2382,1.18011 L -21.3794,1.19904  L -21.5217,1.20892 L -21.6647,1.20972 z M 37.7929,55.9303 L 37.8142,55.7879 L 37.8444,55.6476 L 37.8833,55.5097 L 37.9308,55.3748 L 37.9866,55.2435  L 38.0507,55.1163 L 38.1226,54.9937 L 38.2021,54.8761 L 38.289,54.7641 L 38.3828,54.6581 L 38.4832,54.5584  L 38.5899,54.4656 L 38.7023,54.3799 L 38.82,54.3016 L 38.9426,54.2312 L 39.0696,54.1689 L 39.2005,54.1149  L 39.3348,54.0694 L 39.4719,54.0326 L 39.6113,54.0047 L 39.7524,53.9858 L 39.8947,53.9759 L 40.0377,53.9751  L 40.1807,53.9834 L 40.3233,54.0008 L 40.4647,54.0271 L 40.6046,54.0623 L 40.7423,54.1063 L 40.8772,54.1588  L 41.009,54.2197 L 41.1369,54.2888 L 41.2606,54.3657 L 41.3795,54.4501 L 41.4932,54.5417 L 41.6012,54.6402  L 41.6572,54.6979 L 41.6908,54.7644 L 41.7485,54.8986 L 41.798,55.036 L 41.8389,55.176 L 41.8711,55.318  L 41.8945,55.4615 L 41.909,55.6059 L 41.9146,55.7506 L 41.9111,55.8951 L 41.8987,56.0387 L 41.8773,56.181  L 41.8472,56.3214 L 41.8083,56.4593 L 41.7608,56.5941 L 41.7049,56.7254 L 41.6409,56.8526 L 41.569,56.9753  L 41.4894,57.0928 L 41.4026,57.2048 L 41.3087,57.3109 L 41.2083,57.4105 L 41.1017,57.5034 L 40.9893,57.5891  L 40.8716,57.6673 L 40.7489,57.7377 L 40.6219,57.8001 L 40.4911,57.8541 L 40.3568,57.8996 L 40.2197,57.9363  L 40.0803,57.9642 L 39.9392,57.9832 L 39.7968,57.993 L 39.6539,57.9938 L 39.5108,57.9855 L 39.3683,57.9682  L 39.2269,57.9419 L 39.087,57.9066 L 38.9493,57.8627 L 38.8144,57.8102 L 38.6826,57.7493 L 38.5547,57.6802  L 38.431,57.6034 L 38.3121,57.519 L 38.1984,57.4273 L 38.0904,57.3288 L 38.0344,57.2712 L 38.0009,57.2047  L 37.9431,57.0704 L 37.8937,56.933 L 37.8527,56.793 L 37.8205,56.651 L 37.7971,56.5076 L 37.7826,56.3632  L 37.777,56.2184 L 37.7805,56.0739 z "
     stroke="black"
     fill="lightgray"
     stroke-width="0.5"
     id="path6"
     style="fill:none" />
</svg>
