<?xml version="1.0" standalone="no"?>
<!DOCTYPE svg PUBLIC "-//W3C//DTD SVG 1.1//EN" "http://www.w3.org/Graphics/SVG/1.1/DTD/svg11.dtd">
<svg width="184mm" height="184mm" viewBox="-92 -92 184 184" xmlns="http://www.w3.org/2000/svg" version="1.1">
<title>OpenSCAD Model</title>
<path d="
M 64.9031,-64.9031 L 0,-91.7868 L -64.9031,-64.9031 L -91.7868,-0 L -64.9031,64.9031 L 0,91.7868
 L 64.9031,64.9031 L 91.7868,-0 z
M -49.6057,-6.26665 L -49.1143,-9.36906 L -48.4292,-12.4345 L -47.5528,-15.4508 L -46.4888,-18.4062 L -45.2413,-21.289
 L -43.8153,-24.0877 L -42.2164,-26.7913 L -40.4508,-29.3893 L -38.5256,-31.8712 L -36.4484,-34.2274 L -35.3379,-35.3379
 L -35.3553,-35.3553 L -33.0656,-37.5055 L -30.6454,-39.5077 L -28.1042,-41.354 L -25.4521,-43.0371 L -22.6995,-44.5503
 L -19.8574,-45.8877 L -16.9369,-47.044 L -13.9495,-48.0147 L -10.9072,-48.7958 L -7.82173,-49.3844 L -4.70541,-49.7781
 L -1.57053,-49.9753 L 0,-49.9753 L 0,-50 L 3.13951,-49.9013 L 6.26665,-49.6057 L 9.36906,-49.1143
 L 12.4345,-48.4292 L 15.4508,-47.5528 L 18.4062,-46.4888 L 21.289,-45.2413 L 24.0877,-43.8153 L 26.7913,-42.2164
 L 29.3893,-40.4508 L 31.8712,-38.5256 L 34.2274,-36.4484 L 35.3379,-35.3379 L 35.3553,-35.3553 L 37.5055,-33.0656
 L 39.5077,-30.6454 L 41.354,-28.1042 L 43.0371,-25.4521 L 44.5503,-22.6995 L 45.8877,-19.8574 L 47.044,-16.9369
 L 48.0147,-13.9495 L 48.7958,-10.9072 L 49.3844,-7.82173 L 49.7781,-4.70541 L 49.9753,-1.57053 L 49.9753,-0
 L 50,-0 L 49.9013,3.13951 L 49.6057,6.26665 L 49.1143,9.36906 L 48.4292,12.4345 L 47.5528,15.4508
 L 46.4888,18.4062 L 45.2413,21.289 L 43.8153,24.0877 L 42.2164,26.7913 L 40.4508,29.3893 L 38.5256,31.8712
 L 36.4484,34.2274 L 35.3379,35.3379 L 35.3553,35.3553 L 33.0656,37.5055 L 30.6454,39.5077 L 28.1042,41.354
 L 25.4521,43.0371 L 22.6995,44.5503 L 19.8574,45.8877 L 16.9369,47.044 L 13.9495,48.0147 L 10.9072,48.7958
 L 7.82173,49.3844 L 4.70541,49.7781 L 1.57053,49.9753 L 0,49.9753 L 0,50 L -3.13951,49.9013
 L -6.26665,49.6057 L -9.36906,49.1143 L -12.4345,48.4292 L -15.4508,47.5528 L -18.4062,46.4888 L -21.289,45.2413
 L -24.0877,43.8153 L -26.7913,42.2164 L -29.3893,40.4508 L -31.8712,38.5256 L -34.2274,36.4484 L -35.3379,35.3379
 L -35.3553,35.3553 L -37.5055,33.0656 L -39.5077,30.6454 L -41.354,28.1042 L -43.0371,25.4521 L -44.5503,22.6995
 L -45.8877,19.8574 L -47.044,16.9369 L -48.0147,13.9495 L -48.7958,10.9072 L -49.3844,7.82173 L -49.7781,4.70541
 L -49.9753,1.57053 L -49.9753,-0 L -50,-0 L -49.9013,-3.13951 z
M 22.961,-55.4328 L 21.5511,-56.6369 L 21.1183,-58.4398 L 21.8278,-60.1527 L 23.4087,-61.1215 L 25.2571,-60.976
 L 26.667,-59.7719 L 27.0998,-57.969 L 26.3903,-56.256 L 24.8094,-55.2873 z
M -26.3903,-56.2561 L -27.0998,-57.969 L -26.667,-59.7719 L -25.2571,-60.976 L -23.4087,-61.1215 L -21.8278,-60.1527
 L -21.1183,-58.4398 L -21.5511,-56.6369 L -22.961,-55.4328 L -24.8094,-55.2873 z
M 56.6369,-21.5511 L 55.4328,-22.961 L 55.2873,-24.8094 L 56.2561,-26.3903 L 57.969,-27.0998 L 59.7719,-26.667
 L 60.976,-25.2571 L 61.1215,-23.4087 L 60.1527,-21.8278 L 58.4398,-21.1183 z
M -60.1528,-21.8278 L -61.1215,-23.4087 L -60.976,-25.2571 L -59.7719,-26.667 L -57.969,-27.0998 L -56.2561,-26.3903
 L -55.2873,-24.8094 L -55.4328,-22.961 L -56.6369,-21.5511 L -58.4398,-21.1183 z
M -59.7719,26.667 L -60.976,25.2571 L -61.1215,23.4087 L -60.1527,21.8278 L -58.4398,21.1183 L -56.6369,21.5511
 L -55.4328,22.961 L -55.2873,24.8094 L -56.2561,26.3903 L -57.969,27.0998 z
M 56.2561,26.3903 L 55.2873,24.8094 L 55.4328,22.961 L 56.6369,21.5511 L 58.4398,21.1183 L 60.1527,21.8278
 L 61.1215,23.4087 L 60.976,25.2571 L 59.7719,26.667 L 57.969,27.0998 z
M -25.2571,60.976 L -26.667,59.7719 L -27.0998,57.969 L -26.3903,56.256 L -24.8094,55.2873 L -22.961,55.4328
 L -21.5511,56.6369 L -21.1183,58.4398 L -21.8278,60.1527 L -23.4087,61.1215 z
M 21.8278,60.1527 L 21.1183,58.4398 L 21.5511,56.6369 L 22.961,55.4328 L 24.8094,55.2873 L 26.3903,56.2561
 L 27.0998,57.969 L 26.667,59.7719 L 25.2571,60.976 L 23.4087,61.1215 z
" stroke="black" fill="lightgray" stroke-width="0.5"/></svg>
