<?xml version="1.0" standalone="no"?>
<!DOCTYPE svg PUBLIC "-//W3C//DTD SVG 1.1//EN" "http://www.w3.org/Graphics/SVG/1.1/DTD/svg11.dtd">
<svg width="240mm" height="240mm" viewBox="-120 -120 240 240" xmlns="http://www.w3.org/2000/svg" version="1.1">
<title>OpenSCAD Model</title>
<path d="
M 84.8528,-84.8528 L 0,-120 L -84.8528,-84.8528 L -120,-0 L -84.8528,84.8528 L 0,120
 L 84.8528,84.8528 L 120,-0 z
M -63.6396,-63.6396 L 0,-90 L 63.6396,-63.6396 L 90,-0 L 63.6396,63.6396 L 0,90
 L -63.6396,63.6396 L -90,-0 z
M 36.3549,-87.7685 L 34.9451,-88.9727 L 34.5122,-90.7756 L 35.2218,-92.4885 L 36.8026,-93.4573 L 38.651,-93.3118
 L 40.0609,-92.1077 L 40.4937,-90.3048 L 39.7842,-88.5918 L 38.2033,-87.6231 z
M -39.7842,-88.5918 L -40.4937,-90.3048 L -40.0609,-92.1077 L -38.651,-93.3118 L -36.8026,-93.4573 L -35.2217,-92.4885
 L -34.5122,-90.7756 L -34.9451,-88.9727 L -36.3549,-87.7685 L -38.2033,-87.6231 z
M 88.9727,-34.9451 L 87.7685,-36.3549 L 87.6231,-38.2033 L 88.5918,-39.7842 L 90.3048,-40.4937 L 92.1077,-40.0609
 L 93.3118,-38.651 L 93.4573,-36.8026 L 92.4885,-35.2217 L 90.7756,-34.5122 z
M -92.4885,-35.2218 L -93.4573,-36.8026 L -93.3118,-38.651 L -92.1077,-40.0609 L -90.3048,-40.4937 L -88.5918,-39.7842
 L -87.6231,-38.2033 L -87.7686,-36.3549 L -88.9727,-34.9451 L -90.7756,-34.5122 z
M -92.1077,40.0609 L -93.3118,38.651 L -93.4573,36.8026 L -92.4885,35.2217 L -90.7756,34.5122 L -88.9727,34.9451
 L -87.7685,36.3549 L -87.6231,38.2033 L -88.5918,39.7842 L -90.3048,40.4937 z
M 88.5918,39.7842 L 87.6231,38.2033 L 87.7686,36.3549 L 88.9727,34.9451 L 90.7756,34.5122 L 92.4885,35.2218
 L 93.4573,36.8026 L 93.3118,38.651 L 92.1077,40.0609 L 90.3048,40.4937 z
M -38.651,93.3118 L -40.0609,92.1077 L -40.4937,90.3048 L -39.7842,88.5918 L -38.2033,87.6231 L -36.3549,87.7685
 L -34.9451,88.9727 L -34.5122,90.7756 L -35.2218,92.4885 L -36.8026,93.4573 z
M 35.2217,92.4885 L 34.5122,90.7756 L 34.9451,88.9727 L 36.3549,87.7685 L 38.2033,87.6231 L 39.7842,88.5918
 L 40.4937,90.3048 L 40.0609,92.1077 L 38.651,93.3118 L 36.8026,93.4573 z
" stroke="black" fill="lightgray" stroke-width="0.5"/></svg>
