<?xml version="1.0" encoding="UTF-8" standalone="no"?>
<svg
   xmlns:dc="http://purl.org/dc/elements/1.1/"
   xmlns:cc="http://creativecommons.org/ns#"
   xmlns:rdf="http://www.w3.org/1999/02/22-rdf-syntax-ns#"
   xmlns:svg="http://www.w3.org/2000/svg"
   xmlns="http://www.w3.org/2000/svg"
   xmlns:sodipodi="http://sodipodi.sourceforge.net/DTD/sodipodi-0.dtd"
   xmlns:inkscape="http://www.inkscape.org/namespaces/inkscape"
   width="110mm"
   height="110mm"
   viewBox="-55 -55 110 110"
   version="1.1"
   id="svg6"
   sodipodi:docname="ito_plateLid_complete.svg"
   inkscape:version="0.92.2 5c3e80d, 2017-08-06">
  <metadata
     id="metadata12">
    <rdf:RDF>
      <cc:Work
         rdf:about="">
        <dc:format>image/svg+xml</dc:format>
        <dc:type
           rdf:resource="http://purl.org/dc/dcmitype/StillImage" />
        <dc:title>OpenSCAD Model</dc:title>
      </cc:Work>
    </rdf:RDF>
  </metadata>
  <defs
     id="defs10" />
  <sodipodi:namedview
     pagecolor="#ffffff"
     bordercolor="#666666"
     borderopacity="1"
     objecttolerance="10"
     gridtolerance="10"
     guidetolerance="10"
     inkscape:pageopacity="0"
     inkscape:pageshadow="2"
     inkscape:window-width="1248"
     inkscape:window-height="868"
     id="namedview8"
     showgrid="false"
     inkscape:zoom="1.5433026"
     inkscape:cx="207.87402"
     inkscape:cy="207.87402"
     inkscape:window-x="0"
     inkscape:window-y="0"
     inkscape:window-maximized="0"
     inkscape:current-layer="svg6" />
  <title
     id="title2">OpenSCAD Model</title>
  <path
     d="M 6.83066,-54.0703 3.42207,-54.3925 0,-54.5 l -3.42207,0.1075 -3.40859,0.3222 c -5.564608,0.781733 -9.154466,1.889911 -13.23214,3.3975 l -3.1422,1.3597 -3.0506,1.5544 -2.947,1.7428 -2.8317,1.9245 -2.7053,2.0984 -2.5682,2.2642 -2.421,2.421 -2.2642,2.5682 -2.0984,2.7053 -1.9245,2.8317 -1.7428,2.947 -1.5544,3.0506 -1.3597,3.1422 -1.1598,3.2214 -0.9552,3.2878 -0.7469,3.3413 -0.5356,3.38164 -0.3222,3.40859 L -54.5,0 l 0.1075,3.42207 0.3222,3.40859 0.5356,3.38164 0.7469,3.3413 0.9552,3.2878 1.1598,3.2214 1.3597,3.1422 1.5544,3.0506 1.7428,2.947 1.9245,2.8317 2.0984,2.7053 2.2642,2.5682 2.421,2.421 2.5682,2.2642 2.7053,2.0984 2.8317,1.9245 2.947,1.7428 3.0506,1.5544 3.1422,1.3597 3.2214,1.1598 L -16,52.077 c 6,1.4913 0,0 6,1.4913 l 3.16934,0.502 3.40859,0.3222 L 0,54.5 3.42207,54.3925 6.83066,54.0703 10,53.5683 c 6,-1.4913 0,0 6,-1.4913 l 0.8414,-0.2444 3.2214,-1.1598 3.1422,-1.3597 3.0506,-1.5544 2.947,-1.7428 2.8317,-1.9245 2.7053,-2.0984 2.5682,-2.2642 2.421,-2.421 2.2642,-2.5682 2.0984,-2.7053 1.9245,-2.8317 1.7428,-2.947 1.5544,-3.0506 1.3597,-3.1422 1.1598,-3.2214 0.9552,-3.2878 0.7469,-3.3413 L 54.0703,6.83066 54.3925,3.42207 54.5,0 l -0.1075,-3.42207 -0.3222,-3.40859 -0.5356,-3.38164 -0.7469,-3.3413 -0.9552,-3.2878 -1.1598,-3.2214 -1.3597,-3.1422 -1.5544,-3.0506 -1.7428,-2.947 -1.9245,-2.8317 -2.0984,-2.7053 -2.2642,-2.5682 -2.421,-2.421 -2.5682,-2.2642 -2.7053,-2.0984 -2.8317,-1.9245 -2.947,-1.7428 -3.0506,-1.5544 -3.1422,-1.3597 -3.2214,-1.1598 C 10,-53.5683 13.162964,-52.699985 10,-53.5683 Z m -6.943682,5.0668 -0.112564,-0.0107 -0.111694,-0.0177 -0.110352,-0.0246 -0.108597,-0.0316 -0.106384,-0.0383 -0.103775,-0.0449 -0.100754,-0.0513 -0.097336,-0.0576 -0.093522,-0.0636 -0.08935,-0.0693 -0.08483,-0.0748 -0.07995,-0.0799 -0.07479,-0.0848 -0.0693,-0.0894 -0.06356,-0.0935 -0.05757,-0.0973 -0.05133,-0.1008 -0.0449,-0.1038 -0.03832,-0.1064 -0.03154,-0.1086 -0.02467,-0.1103 -0.01769,-0.1117 -0.01065,-0.1126 -0.00354,-0.113 0.00354,-0.113 0.01065,-0.1126 0.01769,-0.1117 0.02467,-0.1103 0.03154,-0.1086 0.03832,-0.1064 0.0449,-0.1038 0.05133,-0.1007 0.05757,-0.0974 0.06356,-0.0935 0.0693,-0.0894 0.07479,-0.0848 0.07995,-0.0799 0.08483,-0.0748 0.08935,-0.0693 0.093522,-0.0636 0.097336,-0.0575 0.100754,-0.0514 0.103775,-0.0449 0.106384,-0.0383 0.108597,-0.0315 0.110352,-0.0247 0.111694,-0.0177 0.112564,-0.0106 L 0,-52.6 l 0.113022,0.0036 0.112564,0.0106 0.111694,0.0177 0.110352,0.0247 0.108597,0.0315 0.106384,0.0383 0.103775,0.0449 0.100754,0.0514 0.097336,0.0575 0.093522,0.0636 0.08935,0.0693 0.08483,0.0748 0.07995,0.0799 0.07479,0.0848 0.0693,0.0894 0.06356,0.0935 0.05757,0.0974 0.05133,0.1007 0.0449,0.1038 0.03832,0.1064 0.03154,0.1086 0.02467,0.1103 0.01769,0.1117 0.01065,0.1126 0.00354,0.113 -0.00354,0.113 -0.01065,0.1126 -0.01769,0.1117 -0.02467,0.1103 -0.03154,0.1086 -0.03832,0.1064 -0.0449,0.1038 -0.05133,0.1008 -0.05757,0.0973 -0.06356,0.0935 -0.0693,0.0894 -0.07479,0.0848 -0.07995,0.0799 -0.08483,0.0748 -0.08935,0.0693 -0.093522,0.0636 -0.097336,0.0576 -0.100754,0.0513 -0.103775,0.0449 -0.106384,0.0383 -0.108597,0.0316 -0.110352,0.0246 -0.111694,0.0177 -0.112564,0.0107 L 0,-49 Z M -50.913,1.79645 -51.0256,1.7858 -51.1373,1.76811 -51.2476,1.74344 -51.3562,1.7119 -51.4626,1.67358 -51.5664,1.62868 -51.6671,1.57735 -51.7645,1.51978 -51.858,1.45622 -51.9474,1.38692 -52.0322,1.31213 -52.1121,1.23218 -52.1869,1.14735 -52.2562,1.058 -52.3198,0.964478 -52.3773,0.867142 -52.4287,0.766388 -52.4736,0.662613 -52.5119,0.556229 -52.5434,0.447632 -52.5681,0.33728 -52.5858,0.225586 -52.5964,0.113022 -52.6,0 l 0.0036,-0.113022 0.0106,-0.112564 0.0177,-0.111694 0.0247,-0.110352 0.0315,-0.108597 0.0383,-0.106384 0.0449,-0.103775 0.0514,-0.100754 0.0575,-0.097336 0.0636,-0.093522 0.0693,-0.08935 0.0748,-0.08483 0.0799,-0.07995 0.0848,-0.07479 0.0894,-0.0693 0.0935,-0.06356 0.0974,-0.05757 0.1007,-0.05133 0.1038,-0.0449 0.1064,-0.03832 0.1086,-0.03154 0.1103,-0.02467 0.1117,-0.01769 0.1126,-0.01065 0.113,-0.00354 0.113,0.00354 0.1126,0.01065 0.1117,0.01769 0.1103,0.02467 0.1086,0.03154 0.1064,0.03832 0.1038,0.0449 0.1008,0.05133 0.0973,0.05757 0.0935,0.06356 0.0894,0.0693 0.0848,0.07479 0.0799,0.07995 0.0748,0.08483 0.0693,0.08935 0.0636,0.093522 0.0576,0.097336 0.0513,0.100754 0.0449,0.103775 0.0383,0.106384 0.0316,0.108597 0.0246,0.110352 0.0177,0.111694 0.0107,0.112564 L -49,0 l -0.0035,0.113022 -0.0107,0.112564 -0.0177,0.111694 -0.0246,0.110352 -0.0316,0.108597 -0.0383,0.106384 -0.0449,0.103775 -0.0513,0.100754 -0.0576,0.097336 -0.0636,0.093522 -0.0693,0.08935 -0.0748,0.08483 -0.0799,0.07995 -0.0848,0.07479 -0.0894,0.0693 -0.0935,0.06356 -0.0973,0.05757 -0.1008,0.05133 -0.1038,0.0449 -0.1064,0.03832 -0.1086,0.03154 -0.1103,0.02467 -0.1117,0.01769 -0.1126,0.01065 -0.113,0.00354 z m 101.6,0 L 50.5744,1.7858 50.4627,1.76811 50.3524,1.74344 50.2438,1.7119 50.1374,1.67358 50.0336,1.62868 49.9328,1.57735 49.8355,1.51978 49.742,1.45622 49.6526,1.38692 49.5678,1.31213 49.4879,1.23218 49.4131,1.14735 49.3438,1.058 49.2802,0.964478 49.2226,0.867142 49.1713,0.766388 49.1264,0.662613 49.0881,0.556229 49.0565,0.447632 49.0319,0.33728 49.0142,0.225586 49.0035,0.113022 49,0 l 0.0035,-0.113022 0.0107,-0.112564 0.0177,-0.111694 0.0246,-0.110352 0.0316,-0.108597 0.0383,-0.106384 0.0449,-0.103775 0.0513,-0.100754 0.0576,-0.097336 0.0636,-0.093522 0.0693,-0.08935 0.0748,-0.08483 0.0799,-0.07995 0.0848,-0.07479 0.0894,-0.0693 0.0935,-0.06356 0.0973,-0.05757 0.1008,-0.05133 0.1038,-0.0449 0.1064,-0.03832 0.1086,-0.03154 0.1103,-0.02467 0.1117,-0.01769 0.1126,-0.01065 0.113,-0.00354 0.113,0.00354 0.1126,0.01065 0.1117,0.01769 0.1103,0.02467 0.1086,0.03154 0.1064,0.03832 0.1038,0.0449 0.1007,0.05133 0.0974,0.05757 0.0935,0.06356 0.0894,0.0693 0.0848,0.07479 0.0799,0.07995 0.0748,0.08483 0.0693,0.08935 0.0636,0.093522 0.0575,0.097336 0.0514,0.100754 0.0449,0.103775 0.0383,0.106384 0.0315,0.108597 0.0247,0.110352 0.0177,0.111694 0.0106,0.112564 L 52.6,0 52.5964,0.113022 52.5858,0.225586 52.5681,0.33728 52.5434,0.447632 52.5119,0.556229 52.4736,0.662613 52.4287,0.766388 52.3773,0.867142 52.3198,0.964478 52.2562,1.058 52.1869,1.14735 52.1121,1.23218 52.0322,1.31213 51.9474,1.38692 51.858,1.45622 51.7645,1.51978 51.6671,1.57735 51.5664,1.62868 51.4626,1.67358 51.3562,1.7119 51.2476,1.74344 51.1373,1.76811 51.0256,1.7858 50.913,1.79645 50.8,1.79999 Z M -0.113022,52.5964 -0.225586,52.5858 -0.33728,52.5681 -0.447632,52.5434 -0.556229,52.5119 -0.662613,52.4736 -0.766388,52.4287 -0.867142,52.3773 -0.964478,52.3198 -1.058,52.2562 -1.14735,52.1869 -1.23218,52.1121 -1.31213,52.0322 -1.38692,51.9474 -1.45622,51.858 -1.51978,51.7645 -1.57735,51.6671 -1.62868,51.5664 -1.67358,51.4626 -1.7119,51.3562 -1.74344,51.2476 -1.76811,51.1373 -1.7858,51.0256 -1.79645,50.913 -1.79999,50.8 l 0.00354,-0.113 0.01065,-0.1126 0.01769,-0.1117 0.02467,-0.1103 0.03154,-0.1086 0.03832,-0.1064 0.0449,-0.1038 0.05133,-0.1008 0.05757,-0.0973 0.06356,-0.0935 0.0693,-0.0894 0.07479,-0.0848 0.07995,-0.0799 0.08483,-0.0748 0.08935,-0.0693 0.093522,-0.0636 0.097336,-0.0576 0.100754,-0.0513 0.103775,-0.0449 0.106384,-0.0383 0.108597,-0.0316 0.110352,-0.0246 0.111694,-0.0177 0.112564,-0.0107 L 0,49 l 0.113022,0.0035 0.112564,0.0107 0.111694,0.0177 0.110352,0.0246 0.108597,0.0316 0.106384,0.0383 0.103775,0.0449 0.100754,0.0513 0.097336,0.0576 0.093522,0.0636 0.08935,0.0693 0.08483,0.0748 0.07995,0.0799 0.07479,0.0848 0.0693,0.0894 0.06356,0.0935 0.05757,0.0973 0.05133,0.1008 0.0449,0.1038 0.03832,0.1064 0.03154,0.1086 0.02467,0.1103 L 1.7858,50.5744 1.79645,50.687 1.79999,50.8 1.79645,50.913 1.7858,51.0256 1.76811,51.1373 1.74344,51.2476 1.7119,51.3562 1.67358,51.4626 1.62868,51.5664 1.57735,51.6671 1.51978,51.7645 1.45622,51.858 1.38692,51.9474 1.31213,52.0322 1.23218,52.1121 1.14735,52.1869 1.058,52.2562 0.964478,52.3198 0.867142,52.3773 0.766388,52.4287 0.662613,52.4736 0.556229,52.5119 0.447632,52.5434 0.33728,52.5681 0.225586,52.5858 0.113022,52.5964 0,52.6 Z"
     id="path4"
     inkscape:connector-curvature="0"
     style="fill:#d3d3d3;stroke:#000000;stroke-width:0.5"
     sodipodi:nodetypes="ccccccccccccccccccccccccccccccccccccccccccccccccccccccccccccccccccccccccccccccccccccccccccccccccccccccccccccccccccccccccccccccccccccccccccccccccccccccccccccccccccccccccccccccccccccccccccccccccccccccccccccccccccccccccccccccccccccccccccccccccccccccccccccccccccccccccccccccccccccccccccccccccccccccccccccccccccccccccccccccccccccccccccccccccccccccccccccccccccccccccccccccccccccccccccccccccccccccccccccccccccccccccccccccccccccccccccccccccccccccccccccccccccccccccccccccccccccccccccccccccccccccccccccccccccccc" />
</svg>
