<?xml version="1.0" standalone="no"?>
<!DOCTYPE svg PUBLIC "-//W3C//DTD SVG 1.1//EN" "http://www.w3.org/Graphics/SVG/1.1/DTD/svg11.dtd">
<svg width="110mm" height="110mm" viewBox="-55 -55 110 110" xmlns="http://www.w3.org/2000/svg" version="1.1">
<title>OpenSCAD Model</title>
<path d="
M 6.83066,-54.0703 L 3.42207,-54.3925 L 0,-54.5 L -3.42207,-54.3925 L -6.83066,-54.0703 L -10,-53.5683
 L -10,-42.5 L -16,-42.5 L -16,-52.077 L -16.8414,-51.8326 L -20.0628,-50.6728 L -23.205,-49.3131
 L -26.2556,-47.7587 L -29.2026,-46.0159 L -32.0343,-44.0914 L -34.7396,-41.993 L -37.3078,-39.7288 L -39.7288,-37.3078
 L -41.993,-34.7396 L -44.0914,-32.0343 L -46.0159,-29.2026 L -47.7587,-26.2556 L -49.3131,-23.205 L -50.6728,-20.0628
 L -51.8326,-16.8414 L -52.7878,-13.5536 L -53.5347,-10.2123 L -54.0703,-6.83066 L -54.3925,-3.42207 L -54.5,-0
 L -54.3925,3.42207 L -54.0703,6.83066 L -53.5347,10.2123 L -52.7878,13.5536 L -51.8326,16.8414 L -50.6728,20.0628
 L -49.3131,23.205 L -47.7587,26.2556 L -46.0159,29.2026 L -44.0914,32.0343 L -41.993,34.7396 L -39.7288,37.3078
 L -37.3078,39.7288 L -34.7396,41.993 L -32.0343,44.0914 L -29.2026,46.0159 L -26.2556,47.7587 L -23.205,49.3131
 L -20.0628,50.6728 L -16.8414,51.8326 L -16,52.077 L -16,42.5 L -10,42.5 L -10,53.5683
 L -6.83066,54.0703 L -3.42207,54.3925 L 0,54.5 L 3.42207,54.3925 L 6.83066,54.0703 L 10,53.5683
 L 10,42.5 L 16,42.5 L 16,52.077 L 16.8414,51.8326 L 20.0628,50.6728 L 23.205,49.3131
 L 26.2556,47.7587 L 29.2026,46.0159 L 32.0343,44.0914 L 34.7396,41.993 L 37.3078,39.7288 L 39.7288,37.3078
 L 41.993,34.7396 L 44.0914,32.0343 L 46.0159,29.2026 L 47.7587,26.2556 L 49.3131,23.205 L 50.6728,20.0628
 L 51.8326,16.8414 L 52.7878,13.5536 L 53.5347,10.2123 L 54.0703,6.83066 L 54.3925,3.42207 L 54.5,-0
 L 54.3925,-3.42207 L 54.0703,-6.83066 L 53.5347,-10.2123 L 52.7878,-13.5536 L 51.8326,-16.8414 L 50.6728,-20.0628
 L 49.3131,-23.205 L 47.7587,-26.2556 L 46.0159,-29.2026 L 44.0914,-32.0343 L 41.993,-34.7396 L 39.7288,-37.3078
 L 37.3078,-39.7288 L 34.7396,-41.993 L 32.0343,-44.0914 L 29.2026,-46.0159 L 26.2556,-47.7587 L 23.205,-49.3131
 L 20.0628,-50.6728 L 16.8414,-51.8326 L 16,-52.077 L 16,-42.5 L 10,-42.5 L 10,-53.5683
 z
M -0.113022,-49.0035 L -0.225586,-49.0142 L -0.33728,-49.0319 L -0.447632,-49.0565 L -0.556229,-49.0881 L -0.662613,-49.1264
 L -0.766388,-49.1713 L -0.867142,-49.2226 L -0.964478,-49.2802 L -1.058,-49.3438 L -1.14735,-49.4131 L -1.23218,-49.4879
 L -1.31213,-49.5678 L -1.38692,-49.6526 L -1.45622,-49.742 L -1.51978,-49.8355 L -1.57735,-49.9328 L -1.62868,-50.0336
 L -1.67358,-50.1374 L -1.7119,-50.2438 L -1.74344,-50.3524 L -1.76811,-50.4627 L -1.7858,-50.5744 L -1.79645,-50.687
 L -1.79999,-50.8 L -1.79645,-50.913 L -1.7858,-51.0256 L -1.76811,-51.1373 L -1.74344,-51.2476 L -1.7119,-51.3562
 L -1.67358,-51.4626 L -1.62868,-51.5664 L -1.57735,-51.6671 L -1.51978,-51.7645 L -1.45622,-51.858 L -1.38692,-51.9474
 L -1.31213,-52.0322 L -1.23218,-52.1121 L -1.14735,-52.1869 L -1.058,-52.2562 L -0.964478,-52.3198 L -0.867142,-52.3773
 L -0.766388,-52.4287 L -0.662613,-52.4736 L -0.556229,-52.5119 L -0.447632,-52.5434 L -0.33728,-52.5681 L -0.225586,-52.5858
 L -0.113022,-52.5964 L 0,-52.6 L 0.113022,-52.5964 L 0.225586,-52.5858 L 0.33728,-52.5681 L 0.447632,-52.5434
 L 0.556229,-52.5119 L 0.662613,-52.4736 L 0.766388,-52.4287 L 0.867142,-52.3773 L 0.964478,-52.3198 L 1.058,-52.2562
 L 1.14735,-52.1869 L 1.23218,-52.1121 L 1.31213,-52.0322 L 1.38692,-51.9474 L 1.45622,-51.858 L 1.51978,-51.7645
 L 1.57735,-51.6671 L 1.62868,-51.5664 L 1.67358,-51.4626 L 1.7119,-51.3562 L 1.74344,-51.2476 L 1.76811,-51.1373
 L 1.7858,-51.0256 L 1.79645,-50.913 L 1.79999,-50.8 L 1.79645,-50.687 L 1.7858,-50.5744 L 1.76811,-50.4627
 L 1.74344,-50.3524 L 1.7119,-50.2438 L 1.67358,-50.1374 L 1.62868,-50.0336 L 1.57735,-49.9328 L 1.51978,-49.8355
 L 1.45622,-49.742 L 1.38692,-49.6526 L 1.31213,-49.5678 L 1.23218,-49.4879 L 1.14735,-49.4131 L 1.058,-49.3438
 L 0.964478,-49.2802 L 0.867142,-49.2226 L 0.766388,-49.1713 L 0.662613,-49.1264 L 0.556229,-49.0881 L 0.447632,-49.0565
 L 0.33728,-49.0319 L 0.225586,-49.0142 L 0.113022,-49.0035 L 0,-49 z
M -50.913,1.79645 L -51.0256,1.7858 L -51.1373,1.76811 L -51.2476,1.74344 L -51.3562,1.7119 L -51.4626,1.67358
 L -51.5664,1.62868 L -51.6671,1.57735 L -51.7645,1.51978 L -51.858,1.45622 L -51.9474,1.38692 L -52.0322,1.31213
 L -52.1121,1.23218 L -52.1869,1.14735 L -52.2562,1.058 L -52.3198,0.964478 L -52.3773,0.867142 L -52.4287,0.766388
 L -52.4736,0.662613 L -52.5119,0.556229 L -52.5434,0.447632 L -52.5681,0.33728 L -52.5858,0.225586 L -52.5964,0.113022
 L -52.6,-0 L -52.5964,-0.113022 L -52.5858,-0.225586 L -52.5681,-0.33728 L -52.5434,-0.447632 L -52.5119,-0.556229
 L -52.4736,-0.662613 L -52.4287,-0.766388 L -52.3773,-0.867142 L -52.3198,-0.964478 L -52.2562,-1.058 L -52.1869,-1.14735
 L -52.1121,-1.23218 L -52.0322,-1.31213 L -51.9474,-1.38692 L -51.858,-1.45622 L -51.7645,-1.51978 L -51.6671,-1.57735
 L -51.5664,-1.62868 L -51.4626,-1.67358 L -51.3562,-1.7119 L -51.2476,-1.74344 L -51.1373,-1.76811 L -51.0256,-1.7858
 L -50.913,-1.79645 L -50.8,-1.79999 L -50.687,-1.79645 L -50.5744,-1.7858 L -50.4627,-1.76811 L -50.3524,-1.74344
 L -50.2438,-1.7119 L -50.1374,-1.67358 L -50.0336,-1.62868 L -49.9328,-1.57735 L -49.8355,-1.51978 L -49.742,-1.45622
 L -49.6526,-1.38692 L -49.5678,-1.31213 L -49.4879,-1.23218 L -49.4131,-1.14735 L -49.3438,-1.058 L -49.2802,-0.964478
 L -49.2226,-0.867142 L -49.1713,-0.766388 L -49.1264,-0.662613 L -49.0881,-0.556229 L -49.0565,-0.447632 L -49.0319,-0.33728
 L -49.0142,-0.225586 L -49.0035,-0.113022 L -49,-0 L -49.0035,0.113022 L -49.0142,0.225586 L -49.0319,0.33728
 L -49.0565,0.447632 L -49.0881,0.556229 L -49.1264,0.662613 L -49.1713,0.766388 L -49.2226,0.867142 L -49.2802,0.964478
 L -49.3438,1.058 L -49.4131,1.14735 L -49.4879,1.23218 L -49.5678,1.31213 L -49.6526,1.38692 L -49.742,1.45622
 L -49.8355,1.51978 L -49.9328,1.57735 L -50.0336,1.62868 L -50.1374,1.67358 L -50.2438,1.7119 L -50.3524,1.74344
 L -50.4627,1.76811 L -50.5744,1.7858 L -50.687,1.79645 L -50.8,1.79999 z
M 50.687,1.79645 L 50.5744,1.7858 L 50.4627,1.76811 L 50.3524,1.74344 L 50.2438,1.7119 L 50.1374,1.67358
 L 50.0336,1.62868 L 49.9328,1.57735 L 49.8355,1.51978 L 49.742,1.45622 L 49.6526,1.38692 L 49.5678,1.31213
 L 49.4879,1.23218 L 49.4131,1.14735 L 49.3438,1.058 L 49.2802,0.964478 L 49.2226,0.867142 L 49.1713,0.766388
 L 49.1264,0.662613 L 49.0881,0.556229 L 49.0565,0.447632 L 49.0319,0.33728 L 49.0142,0.225586 L 49.0035,0.113022
 L 49,-0 L 49.0035,-0.113022 L 49.0142,-0.225586 L 49.0319,-0.33728 L 49.0565,-0.447632 L 49.0881,-0.556229
 L 49.1264,-0.662613 L 49.1713,-0.766388 L 49.2226,-0.867142 L 49.2802,-0.964478 L 49.3438,-1.058 L 49.4131,-1.14735
 L 49.4879,-1.23218 L 49.5678,-1.31213 L 49.6526,-1.38692 L 49.742,-1.45622 L 49.8355,-1.51978 L 49.9328,-1.57735
 L 50.0336,-1.62868 L 50.1374,-1.67358 L 50.2438,-1.7119 L 50.3524,-1.74344 L 50.4627,-1.76811 L 50.5744,-1.7858
 L 50.687,-1.79645 L 50.8,-1.79999 L 50.913,-1.79645 L 51.0256,-1.7858 L 51.1373,-1.76811 L 51.2476,-1.74344
 L 51.3562,-1.7119 L 51.4626,-1.67358 L 51.5664,-1.62868 L 51.6671,-1.57735 L 51.7645,-1.51978 L 51.858,-1.45622
 L 51.9474,-1.38692 L 52.0322,-1.31213 L 52.1121,-1.23218 L 52.1869,-1.14735 L 52.2562,-1.058 L 52.3198,-0.964478
 L 52.3773,-0.867142 L 52.4287,-0.766388 L 52.4736,-0.662613 L 52.5119,-0.556229 L 52.5434,-0.447632 L 52.5681,-0.33728
 L 52.5858,-0.225586 L 52.5964,-0.113022 L 52.6,-0 L 52.5964,0.113022 L 52.5858,0.225586 L 52.5681,0.33728
 L 52.5434,0.447632 L 52.5119,0.556229 L 52.4736,0.662613 L 52.4287,0.766388 L 52.3773,0.867142 L 52.3198,0.964478
 L 52.2562,1.058 L 52.1869,1.14735 L 52.1121,1.23218 L 52.0322,1.31213 L 51.9474,1.38692 L 51.858,1.45622
 L 51.7645,1.51978 L 51.6671,1.57735 L 51.5664,1.62868 L 51.4626,1.67358 L 51.3562,1.7119 L 51.2476,1.74344
 L 51.1373,1.76811 L 51.0256,1.7858 L 50.913,1.79645 L 50.8,1.79999 z
M -0.113022,52.5964 L -0.225586,52.5858 L -0.33728,52.5681 L -0.447632,52.5434 L -0.556229,52.5119 L -0.662613,52.4736
 L -0.766388,52.4287 L -0.867142,52.3773 L -0.964478,52.3198 L -1.058,52.2562 L -1.14735,52.1869 L -1.23218,52.1121
 L -1.31213,52.0322 L -1.38692,51.9474 L -1.45622,51.858 L -1.51978,51.7645 L -1.57735,51.6671 L -1.62868,51.5664
 L -1.67358,51.4626 L -1.7119,51.3562 L -1.74344,51.2476 L -1.76811,51.1373 L -1.7858,51.0256 L -1.79645,50.913
 L -1.79999,50.8 L -1.79645,50.687 L -1.7858,50.5744 L -1.76811,50.4627 L -1.74344,50.3524 L -1.7119,50.2438
 L -1.67358,50.1374 L -1.62868,50.0336 L -1.57735,49.9328 L -1.51978,49.8355 L -1.45622,49.742 L -1.38692,49.6526
 L -1.31213,49.5678 L -1.23218,49.4879 L -1.14735,49.4131 L -1.058,49.3438 L -0.964478,49.2802 L -0.867142,49.2226
 L -0.766388,49.1713 L -0.662613,49.1264 L -0.556229,49.0881 L -0.447632,49.0565 L -0.33728,49.0319 L -0.225586,49.0142
 L -0.113022,49.0035 L 0,49 L 0.113022,49.0035 L 0.225586,49.0142 L 0.33728,49.0319 L 0.447632,49.0565
 L 0.556229,49.0881 L 0.662613,49.1264 L 0.766388,49.1713 L 0.867142,49.2226 L 0.964478,49.2802 L 1.058,49.3438
 L 1.14735,49.4131 L 1.23218,49.4879 L 1.31213,49.5678 L 1.38692,49.6526 L 1.45622,49.742 L 1.51978,49.8355
 L 1.57735,49.9328 L 1.62868,50.0336 L 1.67358,50.1374 L 1.7119,50.2438 L 1.74344,50.3524 L 1.76811,50.4627
 L 1.7858,50.5744 L 1.79645,50.687 L 1.79999,50.8 L 1.79645,50.913 L 1.7858,51.0256 L 1.76811,51.1373
 L 1.74344,51.2476 L 1.7119,51.3562 L 1.67358,51.4626 L 1.62868,51.5664 L 1.57735,51.6671 L 1.51978,51.7645
 L 1.45622,51.858 L 1.38692,51.9474 L 1.31213,52.0322 L 1.23218,52.1121 L 1.14735,52.1869 L 1.058,52.2562
 L 0.964478,52.3198 L 0.867142,52.3773 L 0.766388,52.4287 L 0.662613,52.4736 L 0.556229,52.5119 L 0.447632,52.5434
 L 0.33728,52.5681 L 0.225586,52.5858 L 0.113022,52.5964 L 0,52.6 z
" stroke="black" fill="lightgray" stroke-width="0.5"/></svg>
